<svg width="31" height="31" viewBox="0 0 31 31" fill="none" xmlns="http://www.w3.org/2000/svg">
<circle cx="15.5" cy="15.5" r="15" stroke="#596992"/>
<path d="M22.0385 9.95652H19.7729L18.6589 8.29022C18.5992 8.20099 18.5184 8.12783 18.4236 8.07721C18.3288 8.02658 18.2229 8.00006 18.1154 8H12.8846C12.7771 8.00006 12.6712 8.02658 12.5764 8.07721C12.4816 8.12783 12.4008 8.20099 12.3411 8.29022L11.2263 9.95652H8.96154C8.44131 9.95652 7.94238 10.1627 7.57452 10.5296C7.20666 10.8965 7 11.3941 7 11.913V21.0435C7 21.5624 7.20666 22.06 7.57452 22.4269C7.94238 22.7939 8.44131 23 8.96154 23H22.0385C22.5587 23 23.0576 22.7939 23.4255 22.4269C23.7933 22.06 24 21.5624 24 21.0435V11.913C24 11.3941 23.7933 10.8965 23.4255 10.5296C23.0576 10.1627 22.5587 9.95652 22.0385 9.95652ZM22.6923 21.0435C22.6923 21.2164 22.6234 21.3823 22.5008 21.5046C22.3782 21.6269 22.2119 21.6957 22.0385 21.6957H8.96154C8.78813 21.6957 8.62182 21.6269 8.4992 21.5046C8.37658 21.3823 8.30769 21.2164 8.30769 21.0435V11.913C8.30769 11.7401 8.37658 11.5742 8.4992 11.4519C8.62182 11.3296 8.78813 11.2609 8.96154 11.2609H11.5769C11.6846 11.2609 11.7906 11.2345 11.8856 11.1839C11.9805 11.1332 12.0615 11.06 12.1213 10.9707L13.2344 9.30435H17.7648L18.8787 10.9707C18.9385 11.06 19.0195 11.1332 19.1144 11.1839C19.2094 11.2345 19.3154 11.2609 19.4231 11.2609H22.0385C22.2119 11.2609 22.3782 11.3296 22.5008 11.4519C22.6234 11.5742 22.6923 11.7401 22.6923 11.913V21.0435ZM15.5 12.5652C14.7887 12.5652 14.0935 12.7756 13.5021 13.1697C12.9107 13.5639 12.4498 14.1241 12.1776 14.7795C11.9054 15.4349 11.8342 16.1562 11.9729 16.852C12.1117 17.5478 12.4542 18.1869 12.9571 18.6885C13.4601 19.1902 14.1008 19.5318 14.7984 19.6702C15.496 19.8086 16.2191 19.7376 16.8762 19.4661C17.5333 19.1946 18.0949 18.7349 18.4901 18.145C18.8852 17.5551 19.0962 16.8616 19.0962 16.1522C19.0951 15.2012 18.7158 14.2895 18.0417 13.617C17.3675 12.9446 16.4534 12.5663 15.5 12.5652ZM15.5 18.4348C15.0474 18.4348 14.6049 18.3009 14.2286 18.0501C13.8523 17.7993 13.5589 17.4428 13.3857 17.0257C13.2125 16.6086 13.1672 16.1496 13.2555 15.7069C13.3438 15.2641 13.5618 14.8574 13.8818 14.5381C14.2019 14.2189 14.6096 14.0015 15.0535 13.9134C15.4975 13.8253 15.9576 13.8706 16.3758 14.0433C16.7939 14.2161 17.1513 14.5087 17.4028 14.884C17.6542 15.2594 17.7885 15.7007 17.7885 16.1522C17.7885 16.7576 17.5474 17.3382 17.1182 17.7662C16.689 18.1943 16.1069 18.4348 15.5 18.4348Z" fill="#596992"/>
</svg>
