<svg width="112" height="95" viewBox="0 0 112 95" fill="none" xmlns="http://www.w3.org/2000/svg">
<path d="M111.262 83.0885H0.11084V83.1512H111.262V83.0885Z" fill="#E0E0E0"/>
<path d="M84.437 85.402H76.7898V85.4647H84.437V85.402Z" fill="#E0E0E0"/>
<path d="M93.4337 85.2243H89.1299V85.287H93.4337V85.2243Z" fill="#E0E0E0"/>
<path d="M55.0955 85.372H49.3867V85.4347H55.0955V85.372Z" fill="#E0E0E0"/>
<path d="M59.219 86.263H55.3198V86.3257H59.219V86.263Z" fill="#E0E0E0"/>
<path d="M32.2713 84.7374H20.4915V84.8001H32.2713V84.7374Z" fill="#E0E0E0"/>
<path d="M100.883 71.8966H57.9564C57.6199 71.8959 57.2974 71.7448 57.0594 71.4762C56.8215 71.2076 56.6876 70.8435 56.687 70.4637V2.34979C56.6905 1.97215 56.8257 1.61128 57.0633 1.34541C57.3009 1.07954 57.6218 0.930083 57.9564 0.929443H100.883C101.217 0.930749 101.537 1.08057 101.774 1.34645C102.011 1.61232 102.145 1.97281 102.148 2.34979V70.4637C102.148 70.8429 102.015 71.2066 101.778 71.4752C101.541 71.7437 101.219 71.8953 100.883 71.8966ZM57.9564 0.979632C57.6346 0.980296 57.3262 1.12486 57.0987 1.38167C56.8712 1.63849 56.7432 1.98661 56.7426 2.34979V70.4637C56.7432 70.8269 56.8712 71.175 57.0987 71.4318C57.3262 71.6886 57.6346 71.8332 57.9564 71.8339H100.883C101.205 71.8332 101.513 71.6886 101.741 71.4318C101.968 71.175 102.096 70.8269 102.097 70.4637V2.34979C102.096 1.98661 101.968 1.63849 101.741 1.38167C101.513 1.12486 101.205 0.980296 100.883 0.979632H57.9564Z" fill="#E0E0E0"/>
<path d="M81.8518 54.1297H78.7574C78.3718 54.1297 78.0593 54.4825 78.0593 54.9176V60.6944C78.0593 61.1296 78.3718 61.4823 78.7574 61.4823H81.8518C82.2373 61.4823 82.5498 61.1296 82.5498 60.6944V54.9176C82.5498 54.4825 82.2373 54.1297 81.8518 54.1297Z" fill="#F0F0F0"/>
<path d="M90.0591 56.5332H87.9761C87.7171 56.5332 87.5071 56.7703 87.5071 57.0627V60.9524C87.5071 61.2448 87.7171 61.4819 87.9761 61.4819H90.0591C90.3182 61.4819 90.5282 61.2448 90.5282 60.9524V57.0627C90.5282 56.7703 90.3182 56.5332 90.0591 56.5332Z" fill="#E6E6E6"/>
<path d="M90.3703 56.054H87.6649C87.5777 56.054 87.5071 56.1338 87.5071 56.2322V56.433C87.5071 56.5314 87.5777 56.6111 87.6649 56.6111H90.3703C90.4575 56.6111 90.5282 56.5314 90.5282 56.433V56.2322C90.5282 56.1338 90.4575 56.054 90.3703 56.054Z" fill="#F0F0F0"/>
<path d="M70.8967 57.3918C70.8967 57.3918 71.0079 61.4822 75.2516 61.4822C79.4954 61.4822 79.6088 57.3918 79.6088 57.3918H70.8967Z" fill="#E6E6E6"/>
<path d="M60.3416 51.9886H66.7639V50.5582H60.3416V51.9886Z" fill="#E0E0E0"/>
<path d="M45.0917 81.2039H15.1431V83.0885H45.0917V81.2039Z" fill="#E6E6E6"/>
<path d="M35.5595 57.4366H30.7466C30.59 57.436 30.4399 57.3654 30.3291 57.2404C30.2183 57.1153 30.1559 56.9459 30.1553 56.7691C30.1553 56.5918 30.2175 56.4218 30.3283 56.2962C30.4392 56.1706 30.5896 56.0998 30.7466 56.0991H35.5595C35.7165 56.0998 35.8669 56.1706 35.9777 56.2962C36.0886 56.4218 36.1508 56.5918 36.1508 56.7691C36.1502 56.9459 36.0877 57.1153 35.9769 57.2404C35.8662 57.3654 35.7161 57.436 35.5595 57.4366Z" fill="#F0F0F0"/>
<path d="M35.5595 45.9081H30.7466C30.5896 45.9074 30.4392 45.8366 30.3283 45.711C30.2175 45.5854 30.1553 45.4154 30.1553 45.2381C30.1559 45.0613 30.2183 44.8919 30.3291 44.7668C30.4399 44.6418 30.59 44.5712 30.7466 44.5706H35.5595C35.7161 44.5712 35.8662 44.6418 35.9769 44.7668C36.0877 44.8919 36.1502 45.0613 36.1508 45.2381C36.1508 45.4154 36.0886 45.5854 35.9777 45.711C35.8669 45.8366 35.7165 45.9074 35.5595 45.9081Z" fill="#F0F0F0"/>
<path d="M35.5595 68.9652H30.7466C30.59 68.9645 30.4399 68.894 30.3291 68.7689C30.2183 68.6439 30.1559 68.4745 30.1553 68.2976C30.1553 68.1204 30.2175 67.9503 30.3283 67.8248C30.4392 67.6992 30.5896 67.6283 30.7466 67.6276H35.5595C35.7165 67.6283 35.8669 67.6992 35.9777 67.8248C36.0886 67.9503 36.1508 68.1204 36.1508 68.2976C36.1502 68.4745 36.0877 68.6439 35.9769 68.7689C35.8662 68.894 35.7161 68.9645 35.5595 68.9652Z" fill="#F0F0F0"/>
<path d="M55.6866 94.4209C79.4913 94.4209 98.7889 93.1491 98.7889 91.5803C98.7889 90.0114 79.4913 88.7396 55.6866 88.7396C31.8818 88.7396 12.5842 90.0114 12.5842 91.5803C12.5842 93.1491 31.8818 94.4209 55.6866 94.4209Z" fill="#F5F5F5"/>
<path d="M93.4336 23.7199H71.6257C70.4753 23.7199 69.5427 24.7726 69.5427 26.0713V32.7665C69.5427 34.0651 70.4753 35.1178 71.6257 35.1178H93.4336C94.584 35.1178 95.5166 34.0651 95.5166 32.7665V26.0713C95.5166 24.7726 94.584 23.7199 93.4336 23.7199Z" fill="#83D0EA"/>
<path d="M89.1077 25.6423H72.0726C71.8712 25.6423 71.708 25.8265 71.708 26.0538V26.5055C71.708 26.7328 71.8712 26.9171 72.0726 26.9171H89.1077C89.309 26.9171 89.4722 26.7328 89.4722 26.5055V26.0538C89.4722 25.8265 89.309 25.6423 89.1077 25.6423Z" fill="#83D0EA"/>
<path d="M83.7124 28.7137H72.0726C71.8712 28.7137 71.708 28.8979 71.708 29.1252V29.5769C71.708 29.8042 71.8712 29.9885 72.0726 29.9885H83.7124C83.9137 29.9885 84.0769 29.8042 84.0769 29.5769V29.1252C84.0769 28.8979 83.9137 28.7137 83.7124 28.7137Z" fill="#83D0EA"/>
<path d="M80.5912 31.7851H72.0726C71.8712 31.7851 71.708 31.9694 71.708 32.1966V32.6483C71.708 32.8756 71.8712 33.0599 72.0726 33.0599H80.5912C80.7926 33.0599 80.9558 32.8756 80.9558 32.6483V32.1966C80.9558 31.9694 80.7926 31.7851 80.5912 31.7851Z" fill="#83D0EA"/>
<path d="M91.1484 31.7851H82.6297C82.4284 31.7851 82.2651 31.9694 82.2651 32.1966V32.6483C82.2651 32.8756 82.4284 33.0599 82.6297 33.0599H91.1484C91.3497 33.0599 91.5129 32.8756 91.5129 32.6483V32.1966C91.5129 31.9694 91.3497 31.7851 91.1484 31.7851Z" fill="#83D0EA"/>
<g opacity="0.5">
<path d="M89.1077 25.6423H72.0726C71.8712 25.6423 71.708 25.8265 71.708 26.0538V26.5055C71.708 26.7328 71.8712 26.9171 72.0726 26.9171H89.1077C89.309 26.9171 89.4722 26.7328 89.4722 26.5055V26.0538C89.4722 25.8265 89.309 25.6423 89.1077 25.6423Z" fill="white"/>
<path d="M83.7124 28.7136H72.0726C71.8712 28.7136 71.708 28.8978 71.708 29.1251V29.5768C71.708 29.8041 71.8712 29.9884 72.0726 29.9884H83.7124C83.9137 29.9884 84.0769 29.8041 84.0769 29.5768V29.1251C84.0769 28.8978 83.9137 28.7136 83.7124 28.7136Z" fill="white"/>
<path d="M80.5912 31.785H72.0726C71.8712 31.785 71.708 31.9692 71.708 32.1965V32.6482C71.708 32.8755 71.8712 33.0598 72.0726 33.0598H80.5912C80.7926 33.0598 80.9558 32.8755 80.9558 32.6482V32.1965C80.9558 31.9692 80.7926 31.785 80.5912 31.785Z" fill="white"/>
<path d="M91.1486 31.785H82.63C82.4286 31.785 82.2654 31.9692 82.2654 32.1965V32.6482C82.2654 32.8755 82.4286 33.0598 82.63 33.0598H91.1486C91.35 33.0598 91.5132 32.8755 91.5132 32.6482V32.1965C91.5132 31.9692 91.35 31.785 91.1486 31.785Z" fill="white"/>
</g>
<path d="M75.9651 21.0624H51.2117C49.5247 21.0624 48.1572 22.6061 48.1572 24.5103V34.3273C48.1572 36.2316 49.5247 37.7753 51.2117 37.7753H75.9651C77.652 37.7753 79.0196 36.2316 79.0196 34.3273V24.5103C79.0196 22.6061 77.652 21.0624 75.9651 21.0624Z" fill="#83D0EA"/>
<path d="M76.8408 23.8806H51.8673C51.5714 23.8806 51.3315 24.1513 51.3315 24.4854V25.1453C51.3315 25.4794 51.5714 25.7501 51.8673 25.7501H76.8408C77.1367 25.7501 77.3766 25.4794 77.3766 25.1453V24.4854C77.3766 24.1513 77.1367 23.8806 76.8408 23.8806Z" fill="#83D0EA"/>
<path d="M68.9291 28.385H51.8673C51.5714 28.385 51.3315 28.6558 51.3315 28.9898V29.6498C51.3315 29.9838 51.5714 30.2546 51.8673 30.2546H68.9291C69.2249 30.2546 69.4648 29.9838 69.4648 29.6498V28.9898C69.4648 28.6558 69.2249 28.385 68.9291 28.385Z" fill="#83D0EA"/>
<path d="M64.3541 32.8895H51.8673C51.5714 32.8895 51.3315 33.1603 51.3315 33.4943V34.1543C51.3315 34.4883 51.5714 34.759 51.8673 34.759H64.3541C64.6499 34.759 64.8898 34.4883 64.8898 34.1543V33.4943C64.8898 33.1603 64.6499 32.8895 64.3541 32.8895Z" fill="#83D0EA"/>
<path d="M77.7503 32.8895H67.3465C67.0507 32.8895 66.8108 33.1603 66.8108 33.4943V34.1543C66.8108 34.4883 67.0507 34.759 67.3465 34.759H77.7503C78.0462 34.759 78.2861 34.4883 78.2861 34.1543V33.4943C78.2861 33.1603 78.0462 32.8895 77.7503 32.8895Z" fill="#83D0EA"/>
<g opacity="0.5">
<path d="M76.8408 23.8806H51.8673C51.5714 23.8806 51.3315 24.1513 51.3315 24.4854V25.1453C51.3315 25.4794 51.5714 25.7501 51.8673 25.7501H76.8408C77.1367 25.7501 77.3766 25.4794 77.3766 25.1453V24.4854C77.3766 24.1513 77.1367 23.8806 76.8408 23.8806Z" fill="white"/>
<path d="M68.9291 28.3854H51.8673C51.5714 28.3854 51.3315 28.6562 51.3315 28.9902V29.6502C51.3315 29.9842 51.5714 30.2549 51.8673 30.2549H68.9291C69.2249 30.2549 69.4648 29.9842 69.4648 29.6502V28.9902C69.4648 28.6562 69.2249 28.3854 68.9291 28.3854Z" fill="white"/>
<path d="M64.3541 32.8895H51.8673C51.5714 32.8895 51.3315 33.1602 51.3315 33.4942V34.1542C51.3315 34.4882 51.5714 34.759 51.8673 34.759H64.3541C64.6499 34.759 64.8898 34.4882 64.8898 34.1542V33.4942C64.8898 33.1602 64.6499 32.8895 64.3541 32.8895Z" fill="white"/>
<path d="M77.7503 32.8895H67.3465C67.0507 32.8895 66.8108 33.1602 66.8108 33.4942V34.1542C66.8108 34.4882 67.0507 34.759 67.3465 34.759H77.7503C78.0462 34.759 78.2861 34.4882 78.2861 34.1542V33.4942C78.2861 33.1602 78.0462 32.8895 77.7503 32.8895Z" fill="white"/>
</g>
<path d="M60.5751 40.8041H48.653C47.8648 40.8041 47.2258 41.5254 47.2258 42.4152V62.5761C47.2258 63.4659 47.8648 64.1872 48.653 64.1872H60.5751C61.3633 64.1872 62.0023 63.4659 62.0023 62.5761V42.4152C62.0023 41.5254 61.3633 40.8041 60.5751 40.8041Z" fill="#83D0EA"/>
<path opacity="0.4" d="M60.5751 40.8041H48.653C47.8648 40.8041 47.2258 41.5254 47.2258 42.4152V62.5761C47.2258 63.4659 47.8648 64.1872 48.653 64.1872H60.5751C61.3633 64.1872 62.0023 63.4659 62.0023 62.5761V42.4152C62.0023 41.5254 61.3633 40.8041 60.5751 40.8041Z" fill="black"/>
<path d="M60.0282 43.2438H49.1976C49.0527 43.2438 48.9353 43.3764 48.9353 43.54V43.9841C48.9353 44.1477 49.0527 44.2802 49.1976 44.2802H60.0282C60.1731 44.2802 60.2905 44.1477 60.2905 43.9841V43.54C60.2905 43.3764 60.1731 43.2438 60.0282 43.2438Z" fill="#FAFAFA"/>
<path d="M56.5803 45.7379H49.1976C49.0527 45.7379 48.9353 45.8704 48.9353 46.034V46.4782C48.9353 46.6417 49.0527 46.7743 49.1976 46.7743H56.5803C56.7252 46.7743 56.8426 46.6417 56.8426 46.4782V46.034C56.8426 45.8704 56.7252 45.7379 56.5803 45.7379Z" fill="#FAFAFA"/>
<path d="M60.0282 48.2348H49.1976C49.0527 48.2348 48.9353 48.3673 48.9353 48.5309V48.975C48.9353 49.1386 49.0527 49.2712 49.1976 49.2712H60.0282C60.1731 49.2712 60.2905 49.1386 60.2905 48.975V48.5309C60.2905 48.3673 60.1731 48.2348 60.0282 48.2348Z" fill="#FAFAFA"/>
<path d="M53.2235 50.7292H49.1976C49.0527 50.7292 48.9353 50.8618 48.9353 51.0253V51.4695C48.9353 51.633 49.0527 51.7656 49.1976 51.7656H53.2235C53.3684 51.7656 53.4858 51.633 53.4858 51.4695V51.0253C53.4858 50.8618 53.3684 50.7292 53.2235 50.7292Z" fill="#FAFAFA"/>
<path d="M58.8568 50.7292H54.8309C54.686 50.7292 54.5686 50.8618 54.5686 51.0253V51.4695C54.5686 51.633 54.686 51.7656 54.8309 51.7656H58.8568C59.0017 51.7656 59.1191 51.633 59.1191 51.4695V51.0253C59.1191 50.8618 59.0017 50.7292 58.8568 50.7292Z" fill="#FAFAFA"/>
<path d="M60.0282 53.2261H49.1976C49.0527 53.2261 48.9353 53.3587 48.9353 53.5222V53.9664C48.9353 54.1299 49.0527 54.2625 49.1976 54.2625H60.0282C60.1731 54.2625 60.2905 54.1299 60.2905 53.9664V53.5222C60.2905 53.3587 60.1731 53.2261 60.0282 53.2261Z" fill="#FAFAFA"/>
<path d="M60.0282 55.7206H49.1976C49.0527 55.7206 48.9353 55.8531 48.9353 56.0167V56.4608C48.9353 56.6244 49.0527 56.757 49.1976 56.757H60.0282C60.1731 56.757 60.2905 56.6244 60.2905 56.4608V56.0167C60.2905 55.8531 60.1731 55.7206 60.0282 55.7206Z" fill="#FAFAFA"/>
<path d="M58.1075 58.2174H49.1976C49.0527 58.2174 48.9353 58.35 48.9353 58.5136V58.9577C48.9353 59.1213 49.0527 59.2538 49.1976 59.2538H58.1075C58.2524 59.2538 58.3698 59.1213 58.3698 58.9577V58.5136C58.3698 58.35 58.2524 58.2174 58.1075 58.2174Z" fill="#FAFAFA"/>
<path d="M53.3547 60.7115H49.1976C49.0527 60.7115 48.9353 60.8441 48.9353 61.0076V61.4518C48.9353 61.6153 49.0527 61.7479 49.1976 61.7479H53.3547C53.4996 61.7479 53.617 61.6153 53.617 61.4518V61.0076C53.617 60.8441 53.4996 60.7115 53.3547 60.7115Z" fill="#FAFAFA"/>
<path d="M63.8008 40.6613H47.2637L54.5752 47.2286L65.786 51.9965V42.8972C65.7848 42.3038 65.5751 41.7351 65.2029 41.3159C64.8308 40.8967 64.3265 40.6613 63.8008 40.6613Z" fill="#83D0EA"/>
<path opacity="0.4" d="M63.8008 40.6613H47.2637L54.5752 47.2286L65.786 51.9965V42.8972C65.7848 42.3038 65.5751 41.7351 65.2029 41.3159C64.8308 40.8967 64.3265 40.6613 63.8008 40.6613Z" fill="black"/>
<path d="M63.0781 44.0443H50.9782C50.7965 44.0443 50.6492 44.2106 50.6492 44.4157V45.1083C50.6492 45.3135 50.7965 45.4797 50.9782 45.4797H63.0781C63.2598 45.4797 63.4071 45.3135 63.4071 45.1083V44.4157C63.4071 44.2106 63.2598 44.0443 63.0781 44.0443Z" fill="#FAFAFA"/>
<path d="M92.4001 58.4381V45.3087C92.4001 44.3025 91.6776 43.4869 90.7862 43.4869H70.59C69.6987 43.4869 68.9761 44.3025 68.9761 45.3087V58.4381C68.9761 59.4443 69.6987 60.26 70.59 60.26H90.7862C91.6776 60.26 92.4001 59.4443 92.4001 58.4381Z" fill="#83D0EA"/>
<path d="M96.0879 54.2773V41.1479C96.0879 40.1417 95.3653 39.326 94.474 39.326H74.2777C73.3864 39.326 72.6638 40.1417 72.6638 41.1479V54.2773C72.6638 55.2835 73.3864 56.0992 74.2777 56.0992H94.474C95.3653 56.0992 96.0879 55.2835 96.0879 54.2773Z" fill="#83D0EA"/>
<path opacity="0.5" d="M96.0879 54.2773V41.1479C96.0879 40.1417 95.3653 39.326 94.474 39.326H74.2777C73.3864 39.326 72.6638 40.1417 72.6638 41.1479V54.2773C72.6638 55.2835 73.3864 56.0992 74.2777 56.0992H94.474C95.3653 56.0992 96.0879 55.2835 96.0879 54.2773Z" fill="white"/>
<path d="M94.0383 49.778V41.695C94.0383 41.2474 93.7169 40.8845 93.3203 40.8845H86.7201C86.3236 40.8845 86.0021 41.2474 86.0021 41.695V49.778C86.0021 50.2256 86.3236 50.5885 86.7201 50.5885H93.3203C93.7169 50.5885 94.0383 50.2256 94.0383 49.778Z" fill="#83D0EA"/>
<path opacity="0.7" d="M94.0383 49.778V41.695C94.0383 41.2474 93.7169 40.8845 93.3203 40.8845H86.7201C86.3236 40.8845 86.0021 41.2474 86.0021 41.695V49.778C86.0021 50.2256 86.3236 50.5885 86.7201 50.5885H93.3203C93.7169 50.5885 94.0383 50.2256 94.0383 49.778Z" fill="white"/>
<path d="M84.7439 53.688V47.4946C84.7439 47.1509 84.4971 46.8723 84.1926 46.8723H79.1352C78.8307 46.8723 78.5839 47.1509 78.5839 47.4946V53.688C78.5839 54.0317 78.8307 54.3103 79.1352 54.3103H84.1926C84.4971 54.3103 84.7439 54.0317 84.7439 53.688Z" fill="#83D0EA"/>
<path opacity="0.3" d="M84.7439 53.688V47.4946C84.7439 47.1509 84.4971 46.8723 84.1926 46.8723H79.1352C78.8307 46.8723 78.5839 47.1509 78.5839 47.4946V53.688C78.5839 54.0317 78.8307 54.3103 79.1352 54.3103H84.1926C84.4971 54.3103 84.7439 54.0317 84.7439 53.688Z" fill="white"/>
<path d="M71.3945 17.4513V15.0246L55.7777 15.0246V17.4513H71.3945Z" fill="#83D0EA"/>
<path opacity="0.5" d="M71.3945 17.4513V15.0246L55.7777 15.0246V17.4513H71.3945Z" fill="white"/>
<path d="M29.0904 35.8758C28.8948 36.3777 28.6792 36.9198 28.4902 37.4493C28.3013 37.9788 28.1056 38.5233 27.9345 39.0653C27.5833 40.122 27.3016 41.2065 27.0919 42.3101L27.0275 42.7116L27.0052 42.8621C27.0052 42.9048 27.0052 42.96 26.9919 43.0102C26.9835 43.2545 26.9879 43.4992 27.0052 43.743C27.0475 44.2724 27.1231 44.8396 27.2275 45.4067C27.4143 46.5435 27.6521 47.7154 27.8945 48.8698L26.754 49.3716C26.2224 48.2777 25.7697 47.1372 25.4002 45.9613C25.2056 45.3493 25.0481 44.723 24.9289 44.0867C24.8622 43.7347 24.8205 43.3772 24.8044 43.0177C24.8044 42.9173 24.8044 42.822 24.8044 42.7141C24.8044 42.6062 24.8044 42.4857 24.82 42.4155L24.8645 41.9136C24.9309 41.2672 25.0326 40.6261 25.169 39.9938C25.2935 39.3665 25.4536 38.7567 25.6136 38.1544C25.7737 37.5521 25.9738 36.9599 26.1849 36.3777C26.2894 36.0866 26.4072 35.798 26.5095 35.5095C26.6118 35.2209 26.7318 34.9448 26.8741 34.6362L29.0904 35.8758Z" fill="#E4897B"/>
<path d="M27.8341 48.5309L28.701 49.487L26.8092 50.4908C26.8092 50.4908 26.3513 49.5849 26.6692 48.7668L27.8341 48.5309Z" fill="#E4897B"/>
<path d="M29.4016 50.9097L27.8032 51.6475L26.8118 50.4806L28.7013 49.4868L29.4016 50.9097Z" fill="#E4897B"/>
<path opacity="0.4" d="M61.78 49.8814C58.6346 49.4827 55.6645 48.0403 53.2453 45.7364C50.826 43.4326 49.0661 40.3708 48.1882 36.938C47.3102 33.5053 47.3535 29.8558 48.3127 26.4508C49.2719 23.0459 51.1038 20.0384 53.5769 17.8086C56.05 15.5788 59.0532 14.2267 62.207 13.9234C65.3607 13.6201 68.5233 14.379 71.2949 16.1044C74.0666 17.8297 76.3229 20.4439 77.7785 23.6166C79.2342 26.7893 79.8239 30.3779 79.4731 33.9288C79.24 36.2881 78.5973 38.5723 77.5819 40.6511C76.5664 42.7298 75.198 44.5623 73.5549 46.0438C71.9117 47.5252 70.0261 48.6267 68.0057 49.2852C65.9853 49.9437 63.8698 50.1463 61.78 49.8814Z" fill="#FAFAFA"/>
<path opacity="0.4" d="M73.4242 17.6898L49.082 39.645C48.9798 39.394 48.8797 39.1431 48.7864 38.8922C48.1761 37.2536 47.7858 35.5214 47.6282 33.7528L68.6536 14.7889C70.3798 15.4389 71.9937 16.4203 73.4242 17.6898Z" fill="#FAFAFA"/>
<path opacity="0.4" d="M79.0417 27.3089L56.1556 47.9491C53.9814 46.6697 52.0973 44.8424 50.6492 42.609L75.6383 20.0691C77.249 22.1562 78.4135 24.6332 79.0417 27.3089Z" fill="#FAFAFA"/>
<path d="M45.5474 25.0198L45.3362 24.9395C45.7019 23.7211 46.1616 22.5413 46.71 21.4137L46.9034 21.5341C46.3623 22.6492 45.9085 23.8155 45.5474 25.0198ZM48.2461 19.1627L48.0661 19.0146C49.893 16.2261 52.284 13.971 55.0397 12.4374L55.1397 12.6632C52.4153 14.181 50.0517 16.412 48.2461 19.1702V19.1627ZM72.6083 13.007C71.8819 12.5672 71.1303 12.1824 70.3586 11.8552L70.4386 11.6193C71.2179 11.9542 71.9769 12.3465 72.7106 12.7937L72.6083 13.007Z" fill="#83D0EA"/>
<path opacity="0.3" d="M45.5474 25.0198L45.3362 24.9395C45.7019 23.7211 46.1616 22.5413 46.71 21.4137L46.9034 21.5341C46.3623 22.6492 45.9085 23.8155 45.5474 25.0198ZM48.2461 19.1627L48.0661 19.0146C49.893 16.2261 52.284 13.971 55.0397 12.4374L55.1397 12.6632C52.4153 14.181 50.0517 16.412 48.2461 19.1702V19.1627ZM72.6083 13.007C71.8819 12.5672 71.1303 12.1824 70.3586 11.8552L70.4386 11.6193C71.2179 11.9542 71.9769 12.3465 72.7106 12.7937L72.6083 13.007Z" fill="black"/>
<path d="M80.111 22.6966C78.0526 17.8773 74.4302 14.137 69.9948 12.251C65.5594 10.3651 60.6512 10.4782 56.2877 12.5669C51.9242 14.6556 48.44 18.5597 46.5576 23.4699C44.6751 28.38 44.5386 33.9196 46.1765 38.9402C44.6915 39.5274 43.2243 40.1573 41.766 40.8073C39.663 41.7491 37.5793 42.7328 35.5148 43.7584C33.4518 44.7898 31.3978 45.8412 29.3637 46.9404C28.3433 47.4799 27.3363 48.0495 26.3204 48.6016C25.7919 48.858 25.313 49.2288 24.911 49.6932C24.6934 49.9504 24.5018 50.234 24.3396 50.5389C24.1418 50.8995 23.992 51.291 23.895 51.7008C23.7278 52.4392 23.8001 53.2209 24.099 53.9044C24.3978 54.5879 24.9035 55.1281 25.5245 55.4273C25.8694 55.5906 26.2332 55.6971 26.6049 55.7435C26.9188 55.7836 27.2358 55.7836 27.5497 55.7435C28.1202 55.6653 28.6715 55.4616 29.1725 55.1437C30.1795 54.5691 31.1932 54.0145 32.1936 53.4248C34.1943 52.2729 36.1951 51.0709 38.1713 49.8513C40.1476 48.6317 42.1261 47.3544 44.0557 46.0445C45.3895 45.1335 46.7367 44.2025 48.0571 43.2289C50.5928 47.7475 54.5713 50.9918 59.1682 52.2894C63.7651 53.587 68.6281 52.8384 72.7494 50.1989C76.8707 47.5593 79.9344 43.2311 81.3058 38.111C82.6771 32.9909 82.2509 27.4716 80.1155 22.6966H80.111ZM70.0051 46.6693C67.4217 48.1088 64.5181 48.6512 61.6616 48.228C58.805 47.8048 56.1238 46.4349 53.9569 44.2916C51.79 42.1483 50.2348 39.3278 49.4879 36.1868C48.741 33.0457 48.8359 29.7252 49.7606 26.6451C50.6854 23.565 52.3985 20.8635 54.6832 18.8824C56.968 16.9012 59.7219 15.7293 62.5967 15.5148C65.4714 15.3004 68.338 16.053 70.8339 17.6775C73.3297 19.302 75.3428 21.7254 76.6186 24.6414C77.4659 26.5779 77.9669 28.6839 78.0931 30.839C78.2193 32.9942 77.9681 35.1563 77.354 37.2018C76.7398 39.2474 75.7748 41.1363 74.5138 42.7608C73.2529 44.3852 71.7208 45.7134 70.0051 46.6693Z" fill="#83D0EA"/>
<path opacity="0.3" d="M80.111 22.6966C78.0526 17.8773 74.4302 14.137 69.9948 12.251C65.5594 10.3651 60.6512 10.4782 56.2877 12.5669C51.9242 14.6556 48.44 18.5597 46.5576 23.4699C44.6751 28.38 44.5386 33.9196 46.1765 38.9402C44.6915 39.5274 43.2243 40.1573 41.766 40.8073C39.663 41.7491 37.5793 42.7328 35.5148 43.7584C33.4518 44.7898 31.3978 45.8412 29.3637 46.9404C28.3433 47.4799 27.3363 48.0495 26.3204 48.6016C25.7919 48.858 25.313 49.2288 24.911 49.6932C24.6934 49.9504 24.5018 50.234 24.3396 50.5389C24.1418 50.8995 23.992 51.291 23.895 51.7008C23.7278 52.4392 23.8001 53.2209 24.099 53.9044C24.3978 54.5879 24.9035 55.1281 25.5245 55.4273C25.8694 55.5906 26.2332 55.6971 26.6049 55.7435C26.9188 55.7836 27.2358 55.7836 27.5497 55.7435C28.1202 55.6653 28.6715 55.4616 29.1725 55.1437C30.1795 54.5691 31.1932 54.0145 32.1936 53.4248C34.1943 52.2729 36.1951 51.0709 38.1713 49.8513C40.1476 48.6317 42.1261 47.3544 44.0557 46.0445C45.3895 45.1335 46.7367 44.2025 48.0571 43.2289C50.5928 47.7475 54.5713 50.9918 59.1682 52.2894C63.7651 53.587 68.6281 52.8384 72.7494 50.1989C76.8707 47.5593 79.9344 43.2311 81.3058 38.111C82.6771 32.9909 82.2509 27.4716 80.1155 22.6966H80.111ZM70.0051 46.6693C67.4217 48.1088 64.5181 48.6512 61.6616 48.228C58.805 47.8048 56.1238 46.4349 53.9569 44.2916C51.79 42.1483 50.2348 39.3278 49.4879 36.1868C48.741 33.0457 48.8359 29.7252 49.7606 26.6451C50.6854 23.565 52.3985 20.8635 54.6832 18.8824C56.968 16.9012 59.7219 15.7293 62.5967 15.5148C65.4714 15.3004 68.338 16.053 70.8339 17.6775C73.3297 19.302 75.3428 21.7254 76.6186 24.6414C77.4659 26.5779 77.9669 28.6839 78.0931 30.839C78.2193 32.9942 77.9681 35.1563 77.354 37.2018C76.7398 39.2474 75.7748 41.1363 74.5138 42.7608C73.2529 44.3852 71.7208 45.7134 70.0051 46.6693Z" fill="black"/>
<path d="M35.2349 26.9146C35.2349 27.0626 35.3038 27.1831 35.3905 27.1831C35.4772 27.1831 35.5461 27.0626 35.5461 26.9146C35.5461 26.7665 35.4772 26.6461 35.3905 26.6461C35.3038 26.6461 35.2349 26.7766 35.2349 26.9146Z" fill="#263238"/>
<path d="M35.2969 27.1833C35.4542 27.6377 35.6659 28.0658 35.926 28.4555C35.8361 28.5282 35.7332 28.5777 35.6245 28.6007C35.5158 28.6237 35.404 28.6195 35.2969 28.5886V27.1833Z" fill="#DE5753"/>
<path d="M34.7744 26.0889C34.7621 26.0889 34.7498 26.0858 34.7387 26.0797C34.7275 26.0736 34.7177 26.0647 34.71 26.0538C34.6984 26.0346 34.6938 26.0112 34.6971 25.9883C34.7004 25.9654 34.7114 25.9448 34.7278 25.9308C34.8257 25.847 34.9401 25.7911 35.0612 25.768C35.1824 25.7448 35.3067 25.7551 35.4236 25.7978C35.4341 25.801 35.4439 25.8067 35.4523 25.8145C35.4607 25.8222 35.4676 25.8319 35.4725 25.8429C35.4774 25.8538 35.4803 25.8658 35.4808 25.8781C35.4814 25.8904 35.4796 25.9026 35.4757 25.9141C35.4718 25.9255 35.4658 25.936 35.4582 25.9446C35.4505 25.9533 35.4412 25.9601 35.4311 25.9645C35.4209 25.9689 35.4101 25.9709 35.3992 25.9703C35.3883 25.9697 35.3777 25.9665 35.368 25.9609C35.2751 25.9288 35.1768 25.9223 35.0813 25.9419C34.9857 25.9616 34.8958 26.0068 34.8189 26.0738C34.8057 26.0837 34.7903 26.089 34.7744 26.0889Z" fill="#263238"/>
<path d="M30.744 28.0316C30.9663 29.3792 31.2109 31.851 30.375 32.7519C30.375 32.7519 30.7018 34.1196 32.9226 34.1196C35.3679 34.1196 34.0875 32.7519 34.0875 32.7519C32.7536 32.3906 32.7914 31.2764 33.0226 30.2274L30.744 28.0316Z" fill="#E4897B"/>
<path d="M29.3768 33.4617C29.6414 32.9975 29.1968 31.8707 29.1968 31.8707C29.1968 31.8707 33.1271 30.754 34.7343 32.468C35.0678 32.8218 34.6988 33.3438 34.6988 33.3438L29.3768 33.4617Z" fill="#83D0EA"/>
<path opacity="0.1" d="M29.3768 33.4617C29.6414 32.9975 29.1968 31.8707 29.1968 31.8707C29.1968 31.8707 33.1271 30.754 34.7343 32.468C35.0678 32.8218 34.6988 33.3438 34.6988 33.3438L29.3768 33.4617Z" fill="black"/>
<path d="M22.8747 84.6618C22.6679 84.6618 22.3367 84.2728 22.2389 84.1273C22.2347 84.1202 22.2324 84.1119 22.2324 84.1034C22.2324 84.0949 22.2347 84.0866 22.2389 84.0796C22.2425 84.0726 22.2477 84.0668 22.2539 84.0628C22.2602 84.0588 22.2673 84.0568 22.2744 84.057C22.2989 84.057 22.8435 84.1122 22.9925 84.3305C23.0087 84.3536 23.0202 84.3803 23.0264 84.4089C23.0325 84.4375 23.0331 84.4673 23.028 84.4962C23.0261 84.5335 23.014 84.5693 22.9932 84.5985C22.9725 84.6277 22.9443 84.6489 22.9125 84.6593L22.8747 84.6618ZM22.3589 84.1599C22.5212 84.3707 22.7813 84.6091 22.8924 84.579C22.8924 84.579 22.9369 84.5664 22.9502 84.4861C22.9532 84.4694 22.9527 84.4521 22.9488 84.4355C22.945 84.419 22.9379 84.4037 22.928 84.3908C22.7633 84.25 22.5652 84.1678 22.3589 84.1549V84.1599Z" fill="#83D0EA"/>
<path d="M22.3832 84.1552C22.3433 84.1597 22.3031 84.1597 22.2632 84.1552C22.2561 84.1546 22.2494 84.1516 22.2439 84.1467C22.2384 84.1418 22.2342 84.1351 22.2321 84.1276C22.2289 84.1206 22.2273 84.1128 22.2273 84.105C22.2273 84.0971 22.2289 84.0894 22.2321 84.0824C22.2476 84.0673 22.5744 83.6834 22.8212 83.6834C22.8507 83.6826 22.88 83.6889 22.9072 83.7019C22.9344 83.7149 22.9589 83.7342 22.979 83.7587C23.0011 83.7796 23.0163 83.8084 23.0219 83.8403C23.0276 83.8723 23.0234 83.9054 23.0101 83.9343C22.9456 84.0749 22.6055 84.1552 22.3832 84.1552ZM22.3543 84.0673C22.5766 84.0673 22.899 83.9895 22.9523 83.8791C22.9523 83.8791 22.9679 83.8465 22.9323 83.8063C22.9194 83.7905 22.9035 83.778 22.8858 83.7697C22.8682 83.7615 22.8491 83.7577 22.83 83.7587C22.6478 83.8059 22.4822 83.9133 22.3543 84.0673Z" fill="#83D0EA"/>
<path d="M37.5445 90.3587C37.376 90.3574 37.2079 90.3398 37.0421 90.306C37.0339 90.3043 37.0265 90.2993 37.0212 90.2919C37.0159 90.2846 37.0131 90.2754 37.0132 90.2659C37.012 90.2572 37.013 90.2483 37.0161 90.2403C37.0193 90.2323 37.0245 90.2255 37.031 90.2207C37.0554 90.2057 37.6245 89.8368 37.898 89.9221C37.9233 89.9286 37.9473 89.9408 37.9683 89.9581C37.9893 89.9753 38.007 89.9972 38.0202 90.0225C38.0377 90.0504 38.047 90.0837 38.047 90.1178C38.047 90.152 38.0377 90.1853 38.0202 90.2132C37.9558 90.3261 37.7535 90.3587 37.5445 90.3587ZM37.1688 90.2408C37.4712 90.291 37.8846 90.2885 37.9602 90.168C37.9713 90.153 37.9802 90.1254 37.9602 90.0727C37.9432 90.0414 37.9161 90.0189 37.8846 90.0099C37.7112 89.9597 37.3667 90.1254 37.1688 90.2408Z" fill="#83D0EA"/>
<path d="M37.0511 90.3082C37.0438 90.3106 37.0361 90.3106 37.0289 90.3082C37.0227 90.3038 37.0179 90.2973 37.0151 90.2897C37.0123 90.282 37.0117 90.2736 37.0133 90.2656C37.0284 90.0043 37.1172 89.7555 37.2667 89.5554C37.297 89.5259 37.3325 89.5042 37.3709 89.4916C37.4092 89.4791 37.4495 89.476 37.489 89.4826C37.5958 89.4826 37.6269 89.5554 37.6335 89.6031C37.6624 89.8113 37.2734 90.2104 37.0756 90.3107L37.0511 90.3082ZM37.449 89.5554C37.4001 89.555 37.3527 89.5746 37.3157 89.6106C37.1899 89.7691 37.1121 89.9686 37.0933 90.1802C37.2934 90.0422 37.5602 89.731 37.538 89.6056C37.538 89.6056 37.538 89.5629 37.4624 89.5554H37.449Z" fill="#83D0EA"/>
<path d="M35.2549 90.2633H36.8888L37.0511 85.9948H35.4172L35.2549 90.2633Z" fill="#E4897B"/>
<path d="M20.7051 82.9355L22.07 83.9443L25.0844 81.071L23.7173 80.0597L20.7051 82.9355Z" fill="#E4897B"/>
<path d="M22.2943 83.849L20.876 82.5366C20.8509 82.5133 20.8195 82.5006 20.787 82.5006C20.7546 82.5006 20.7232 82.5133 20.6981 82.5366L19.5288 83.573C19.5006 83.5983 19.4777 83.6306 19.4621 83.6673C19.4464 83.704 19.4382 83.7443 19.4382 83.785C19.4382 83.8258 19.4464 83.866 19.4621 83.9027C19.4777 83.9394 19.5006 83.9717 19.5288 83.9971C20.0312 84.4462 20.2957 84.637 20.9204 85.2141C21.305 85.568 22.2542 86.6521 22.79 87.1414C23.3257 87.6307 23.817 87.1038 23.6392 86.8503C22.8411 85.7085 22.5277 84.7323 22.4365 84.1276C22.4208 84.0182 22.3702 83.9192 22.2943 83.849Z" fill="#263238"/>
<path d="M36.8775 90.0497H35.0991C35.0666 90.0498 35.0352 90.0623 35.0098 90.085C34.9844 90.1078 34.9665 90.1395 34.959 90.1752L34.6367 91.8138C34.6286 91.8535 34.6286 91.8948 34.6367 91.9345C34.6448 91.9742 34.6609 92.0113 34.6836 92.043C34.7063 92.0747 34.7351 92.1001 34.7678 92.1173C34.8005 92.1346 34.8362 92.1432 34.8723 92.1426C35.5148 92.13 36.444 92.0874 37.2532 92.0874C38.198 92.0874 39.0161 92.1451 40.1231 92.1451C40.79 92.1451 40.9812 91.3797 40.6989 91.3119C39.4229 90.9957 38.378 90.9631 37.2754 90.1927C37.1571 90.1043 37.0193 90.0548 36.8775 90.0497Z" fill="#263238"/>
<path d="M27.1561 33.3011C25.7401 34.0539 24.9331 39.0979 24.9331 39.0979L28.3944 40.6562C28.901 39.2597 29.3105 37.8208 29.6193 36.3525C30.095 34.0288 28.6056 32.5231 27.1561 33.3011Z" fill="#263238"/>
<path d="M28.9925 36.1446C28.1366 37.1233 27.7454 39.0405 27.5742 40.2877L28.4034 40.6616C28.8956 39.3048 29.2969 37.9081 29.6038 36.4834C29.5305 35.9514 29.3482 35.7381 28.9925 36.1446Z" fill="#203048"/>
<path d="M36.5994 33.2659C36.5994 33.2659 38.3378 35.4843 36.6972 49.2009H27.963C27.9029 47.6952 28.7455 40.3049 27.4517 33.1731C28.4169 32.9618 29.3935 32.8226 30.3749 32.7565C31.6113 32.6736 32.851 32.6736 34.0874 32.7565C34.9351 32.8528 35.775 33.0231 36.5994 33.2659Z" fill="#263238"/>
<path d="M37.3978 38.5913L35.9262 35.728C35.6421 37.064 35.5261 38.4384 35.5816 39.8109C35.6216 40.7946 36.4197 44.4383 37.1377 44.9703C37.3283 42.851 37.4151 40.7214 37.3978 38.5913Z" fill="#203048"/>
<path d="M37.6024 35.2261C37.8247 36.4457 38.047 37.6954 38.2848 38.92C38.5227 40.1446 38.7694 41.3743 39.0562 42.5612C39.1296 42.8548 39.1985 43.156 39.2785 43.437L39.3385 43.6528L39.3674 43.7607V43.7482C39.3519 43.7256 39.3341 43.7231 39.3474 43.7482C39.4388 43.8608 39.5556 43.9433 39.6853 43.9866C39.8955 44.0749 40.1119 44.1429 40.3322 44.1899C41.3833 44.3779 42.4474 44.456 43.5112 44.4232L43.7224 45.7884C43.4245 45.8963 43.1466 45.9741 42.8532 46.0519C42.5597 46.1297 42.2707 46.1949 41.9751 46.2451C41.3633 46.3601 40.7431 46.4071 40.1233 46.3856C39.7787 46.3752 39.4361 46.3247 39.1007 46.2351C38.6742 46.1298 38.2735 45.9199 37.9269 45.6203C37.7006 45.4139 37.5137 45.1578 37.3778 44.8674C37.3423 44.7921 37.3111 44.7068 37.2822 44.634L37.2422 44.5161L37.16 44.2652C37.0466 43.9465 36.9532 43.6328 36.851 43.3191C36.4753 42.0644 36.1618 40.7971 35.8862 39.5323C35.6105 38.2676 35.3727 37.0053 35.1748 35.7079L37.6024 35.2261Z" fill="#E4897B"/>
<path d="M34.4187 34.6113C33.9586 36.2951 35.8237 41.3165 35.8237 41.3165L39.5384 40.2625C39.5384 40.2625 39.3961 37.6527 38.5491 35.5824C37.2731 32.4607 34.97 32.5912 34.4187 34.6113Z" fill="#263238"/>
<path d="M43.4798 44.4232L45.3294 44.3705L44.4402 46.5437C44.4402 46.5437 43.6866 46.6566 43.0686 45.5098L42.4172 44.6315L43.1664 44.4634C43.2695 44.4389 43.3745 44.4254 43.4798 44.4232Z" fill="#E4897B"/>
<path d="M46.4965 44.7746L45.4383 46.5763L44.4402 46.5437L45.3294 44.3705L46.4965 44.7746Z" fill="#E4897B"/>
<path d="M37.0509 85.9948L36.9664 88.1956H35.3325L35.417 85.9948H37.0509Z" fill="#CE6F64"/>
<path d="M23.717 80.0597L25.0841 81.071L23.528 82.5516L22.1631 81.5428L23.717 80.0597Z" fill="#CE6F64"/>
<path d="M30.8464 26.596C30.9442 28.4204 30.9198 29.4969 31.7356 30.433C32.9627 31.8458 34.9612 31.0101 35.348 29.1782C35.6971 27.5371 35.4792 24.8269 33.8964 24.0991C33.5472 23.94 33.1678 23.8836 32.794 23.9353C32.4202 23.987 32.0641 24.1451 31.7592 24.3947C31.4544 24.6443 31.2106 24.9772 31.051 25.3623C30.8913 25.7473 30.8209 26.1718 30.8464 26.596Z" fill="#E4897B"/>
<path d="M28.9435 26.2746C29.3459 27.9384 30.2929 29.8556 31.5178 29.9786C33.0384 30.1291 33.7253 28.355 33.9254 26.5231C34.8368 25.8179 34.3588 25.0425 35.2725 24.9446C36.4463 24.8192 36.0706 22.395 34.5256 22.0061C34.5256 22.0061 35.0435 23.0977 33.9565 22.5456C32.9227 21.991 31.7741 21.7662 30.6353 21.8957C30.6353 21.8957 32.0224 22.6786 30.6664 23.0274C29.3103 23.3762 28.9058 24.3198 29.5304 24.8894C29.5304 24.8919 28.679 25.1805 28.9435 26.2746Z" fill="#263238"/>
<path d="M32.9983 26.8995C33.0281 27.353 33.1899 27.7826 33.4584 28.1216C33.8141 28.5657 34.1854 28.2897 34.2476 27.7502C34.3054 27.2658 34.1876 26.4503 33.7519 26.2043C33.3162 25.9584 32.9694 26.3524 32.9983 26.8995Z" fill="#E4897B"/>
<path d="M33.5985 49.2009C33.5985 49.2009 35.1902 62.2124 33.9364 67.427C31.949 75.6831 24.3507 82.6518 24.3507 82.6518L21.7742 80.7446C21.7742 80.7446 28.2454 74.86 29.0368 67.9464C29.7482 61.7406 27.9631 54.2348 27.9631 49.1984L33.5985 49.2009Z" fill="#83D0EA"/>
<path opacity="0.1" d="M33.5985 49.2009C33.5985 49.2009 35.1902 62.2124 33.9364 67.427C31.949 75.6831 24.3507 82.6518 24.3507 82.6518L21.7742 80.7446C21.7742 80.7446 28.2454 74.86 29.0368 67.9464C29.7482 61.7406 27.9631 54.2348 27.9631 49.1984L33.5985 49.2009Z" fill="black"/>
<path d="M34.2566 56.6391C33.8329 56.0911 33.3664 55.5872 32.8628 55.1335C33.134 59.3569 33.3563 65.6129 33.1095 70.0571C33.4413 69.2052 33.7177 68.327 33.9365 67.4297C34.5479 64.8827 34.4834 60.4836 34.2566 56.6391Z" fill="#83D0EA"/>
<path opacity="0.3" d="M34.2566 56.6391C33.8329 56.0911 33.3664 55.5872 32.8628 55.1335C33.134 59.3569 33.3563 65.6129 33.1095 70.0571C33.4413 69.2052 33.7177 68.327 33.9365 67.4297C34.5479 64.8827 34.4834 60.4836 34.2566 56.6391Z" fill="black"/>
<path d="M25.3889 82.0021C25.4 82.0021 24.3908 82.7549 24.3908 82.7549L21.5764 80.672L22.4656 79.8414L25.3889 82.0021Z" fill="#83D0EA"/>
<path opacity="0.3" d="M25.3889 82.0021C25.4 82.0021 24.3908 82.7549 24.3908 82.7549L21.5764 80.672L22.4656 79.8414L25.3889 82.0021Z" fill="black"/>
<path d="M36.6974 49.2008C36.6974 49.2008 39.1561 60.9701 39.3295 66.5938C39.5251 72.8975 37.5755 87.7685 37.5755 87.7685H34.8078C34.8078 87.7685 34.4677 72.7821 34.3454 67.0405C34.2098 60.7794 30.9553 49.2008 30.9553 49.2008H36.6974Z" fill="#83D0EA"/>
<path opacity="0.1" d="M36.6974 49.2008C36.6974 49.2008 39.1561 60.9701 39.3295 66.5938C39.5251 72.8975 37.5755 87.7685 37.5755 87.7685H34.8078C34.8078 87.7685 34.4677 72.7821 34.3454 67.0405C34.2098 60.7794 30.9553 49.2008 30.9553 49.2008H36.6974Z" fill="black"/>
<path d="M38.1068 86.5267C38.1201 86.5267 37.9512 87.8216 37.9512 87.8216H34.5855L34.4944 86.6647L38.1068 86.5267Z" fill="#83D0EA"/>
<path opacity="0.3" d="M38.1068 86.5267C38.1201 86.5267 37.9512 87.8216 37.9512 87.8216H34.5855L34.4944 86.6647L38.1068 86.5267Z" fill="black"/>
<path d="M79.2506 37.8908C79.4395 38.0915 79.5885 38.2622 79.7441 38.4529C79.8997 38.6436 80.0464 38.8293 80.1887 39.0225C80.4777 39.4065 80.7489 39.8105 81.0112 40.217C81.5351 41.0325 82.0012 41.8934 82.405 42.7917L82.4873 42.9749C82.5275 43.0636 82.5609 43.1559 82.5873 43.251C82.641 43.4346 82.6739 43.6251 82.6851 43.8181C82.6996 44.1583 82.6581 44.4987 82.5629 44.8219C82.4005 45.3587 82.1593 45.8609 81.8493 46.3075C81.2907 47.1173 80.6319 47.8323 79.893 48.4305L79.3395 47.7128C79.5996 47.369 79.8708 47.0001 80.1131 46.6312C80.3597 46.2738 80.5826 45.8963 80.78 45.5019C80.9645 45.1578 81.1009 44.7837 81.1846 44.3928C81.2133 44.2529 81.2186 44.1082 81.2002 43.9662C81.1922 43.9184 81.1788 43.872 81.1601 43.8281C81.1518 43.8089 81.1422 43.7904 81.1312 43.7729L81.0601 43.6374C80.6314 42.8483 80.1661 42.0852 79.6663 41.3513C79.4195 40.9824 79.155 40.6286 78.8882 40.2798C78.757 40.1041 78.6214 39.9335 78.4858 39.7628C78.3502 39.5922 78.2035 39.4215 78.0857 39.2885L79.2506 37.8908Z" fill="#E4897B"/>
<path d="M79.5529 47.502L77.8923 47.1959L78.7615 48.8371C78.7615 48.8371 79.8308 48.7944 80.1354 48.0842L79.5529 47.502Z" fill="#E4897B"/>
<path d="M76.6655 47.9537L77.4569 49.2863L78.7618 48.8371L77.8926 47.1959L76.6655 47.9537Z" fill="#E4897B"/>
<path d="M79.4729 90.3358C79.36 90.3467 79.2474 90.3121 79.155 90.2379C79.1272 90.2082 79.1066 90.1709 79.0953 90.1295C79.084 90.0882 79.0824 90.0443 79.0906 90.002C79.0922 89.9751 79.1003 89.9492 79.114 89.9271C79.1277 89.9049 79.1465 89.8875 79.1684 89.8766C79.3618 89.7787 79.8686 90.1451 79.9264 90.1877C79.933 90.1923 79.9381 90.1992 79.9409 90.2074C79.9437 90.2155 79.9441 90.2245 79.942 90.2329C79.9412 90.2415 79.9379 90.2495 79.9327 90.2559C79.9275 90.2622 79.9206 90.2665 79.9131 90.268C79.7691 90.3093 79.6214 90.332 79.4729 90.3358ZM79.2506 89.9468C79.2344 89.944 79.2179 89.944 79.2017 89.9468C79.1919 89.952 79.1836 89.9601 79.1777 89.9703C79.1718 89.9805 79.1686 89.9924 79.1684 90.0045C79.1625 90.0326 79.1631 90.0618 79.1701 90.0895C79.1771 90.1172 79.1903 90.1424 79.2084 90.1626C79.2929 90.248 79.5107 90.2605 79.8019 90.1953C79.6351 90.0708 79.4475 89.9863 79.2506 89.9468Z" fill="#83D0EA"/>
<path d="M79.9178 90.2657H79.8978C79.74 90.1629 79.4354 89.7639 79.4732 89.5455C79.4804 89.5111 79.4973 89.4803 79.5213 89.4577C79.5454 89.435 79.5753 89.4218 79.6066 89.4201C79.6366 89.4152 79.6672 89.4181 79.6961 89.4285C79.725 89.4389 79.7514 89.4566 79.7733 89.4803C79.9556 89.661 79.9578 90.203 79.9578 90.2331C79.9574 90.2407 79.9554 90.2481 79.9519 90.2547C79.9484 90.2612 79.9436 90.2668 79.9378 90.2708L79.9178 90.2657ZM79.6332 89.5129H79.6155C79.5666 89.5129 79.5554 89.543 79.551 89.5656C79.5288 89.6936 79.7177 89.9997 79.8756 90.1428C79.8794 89.9323 79.8259 89.7255 79.7222 89.5506C79.7089 89.5365 79.693 89.5259 79.6758 89.5194C79.6585 89.5129 79.6402 89.5107 79.6221 89.5129H79.6332Z" fill="#83D0EA"/>
<path d="M71.8968 90.3358C71.7549 90.3511 71.6127 90.3103 71.4944 90.2204C71.4678 90.1937 71.4472 90.1602 71.4344 90.1226C71.4217 90.0851 71.4171 90.0446 71.4211 90.0046C71.4225 89.9802 71.4294 89.9566 71.441 89.936C71.4527 89.9154 71.4688 89.8984 71.4878 89.8867C71.6945 89.7562 72.357 90.1376 72.4326 90.1853C72.4395 90.1903 72.445 90.1975 72.4486 90.2059C72.4521 90.2143 72.4535 90.2237 72.4526 90.233C72.4513 90.2418 72.4476 90.2499 72.442 90.2562C72.4364 90.2625 72.4292 90.2666 72.4214 90.2681C72.2489 90.3095 72.0732 90.3322 71.8968 90.3358ZM71.6011 89.9469C71.5757 89.945 71.5503 89.9511 71.5278 89.9644C71.5198 89.9687 71.513 89.9755 71.5083 89.9839C71.5036 89.9924 71.5011 90.0021 71.5011 90.0121C71.4977 90.0383 71.5 90.0649 71.5077 90.0898C71.5155 90.1148 71.5285 90.1372 71.5456 90.1552C71.6478 90.2581 71.9213 90.2756 72.2903 90.2054C72.0751 90.076 71.8421 89.9886 71.6011 89.9469Z" fill="#83D0EA"/>
<path d="M72.4147 90.2653H72.3969C72.1991 90.165 71.8056 89.7635 71.8367 89.5451C71.8367 89.4949 71.8767 89.4322 71.9856 89.4197C72.0254 89.4148 72.0657 89.4192 72.1039 89.4326C72.1422 89.446 72.1776 89.4681 72.208 89.4974C72.4169 89.6932 72.4569 90.2001 72.4569 90.2227C72.4578 90.2303 72.4568 90.2381 72.4541 90.2452C72.4513 90.2523 72.4469 90.2583 72.4414 90.2628C72.433 90.2669 72.4236 90.2678 72.4147 90.2653ZM72.0168 89.5125H71.9923C71.9212 89.5125 71.9167 89.5527 71.9145 89.5627C71.8967 89.6907 72.1635 90.0094 72.3591 90.1474C72.3398 89.9329 72.2622 89.7304 72.1368 89.5677C72.1031 89.5353 72.061 89.5159 72.0168 89.5125Z" fill="#83D0EA"/>
<path d="M75.0428 32.1217C74.9783 33.2559 74.8049 35.5596 75.5763 36.197C75.5763 36.197 75.4362 37.3589 73.6156 37.6299C71.6148 37.9235 72.5285 36.6487 72.5285 36.6487C73.5889 36.192 73.4533 35.2811 73.1643 34.4479L75.0428 32.1217Z" fill="#E4897B"/>
<path d="M70.9012 30.1167C70.8902 30.1167 70.8793 30.114 70.8693 30.1088C70.8594 30.1036 70.8505 30.096 70.8434 30.0866C70.7798 30.0014 70.6994 29.9344 70.6087 29.8908C70.5179 29.8472 70.4194 29.8283 70.321 29.8356C70.3106 29.8378 70.2999 29.8375 70.2896 29.8348C70.2793 29.8322 70.2696 29.8271 70.2611 29.8201C70.2525 29.8131 70.2454 29.8041 70.24 29.7938C70.2346 29.7836 70.2312 29.7722 70.2298 29.7603C70.2273 29.7367 70.2331 29.713 70.246 29.6942C70.2589 29.6754 70.2779 29.6631 70.2987 29.66C70.4243 29.648 70.5505 29.6705 70.6666 29.7255C70.7827 29.7806 70.8853 29.8666 70.9656 29.9761C70.9753 29.9892 70.9814 30.0051 70.9834 30.022C70.9854 30.0389 70.9831 30.056 70.9769 30.0715C70.9706 30.0869 70.9606 30.1001 70.948 30.1094C70.9354 30.1188 70.9207 30.1239 70.9056 30.1242L70.9012 30.1167Z" fill="#263238"/>
<path d="M70.5542 31.2286C70.4754 31.5886 70.3535 31.9347 70.1919 32.2575C70.2661 32.3026 70.3482 32.3287 70.4323 32.3339C70.5165 32.3391 70.6006 32.3233 70.6787 32.2876L70.5542 31.2286Z" fill="#DE5753"/>
<path d="M70.643 30.9519C70.6608 31.1025 70.6053 31.2329 70.5186 31.248C70.4319 31.2631 70.3452 31.1476 70.3296 30.9971C70.314 30.8465 70.3674 30.716 70.4541 30.7034C70.5408 30.6909 70.6275 30.7913 70.643 30.9519Z" fill="#263238"/>
<path d="M70.4941 30.7066L70.1628 30.6488C70.1628 30.6488 70.3585 30.9073 70.4941 30.7066Z" fill="#263238"/>
<path d="M74.2469 90.2255H72.5797L72.4685 85.8716H74.1358L74.2469 90.2255Z" fill="#E4897B"/>
<path d="M81.8163 90.2255H80.149L79.6133 85.8716H81.2806L81.8163 90.2255Z" fill="#E4897B"/>
<path d="M80.0465 90.0146H81.9183C81.9502 90.0143 81.9811 90.0271 82.0052 90.0506C82.0294 90.0742 82.0451 90.1069 82.0494 90.1426L82.2717 91.8164C82.2758 91.8586 82.2719 91.9013 82.2603 91.9417C82.2488 91.982 82.2298 92.0192 82.2046 92.0507C82.1794 92.0822 82.1486 92.1074 82.1142 92.1245C82.0798 92.1417 82.0426 92.1504 82.005 92.1501C81.3536 92.1376 81.0379 92.0949 80.2154 92.0949C79.7086 92.0949 78.9683 92.1526 78.2703 92.1526C77.5722 92.1526 77.5344 91.3722 77.8257 91.3019C79.1306 90.9858 79.3373 90.5491 79.7753 90.13C79.8517 90.0584 79.9472 90.0178 80.0465 90.0146Z" fill="#263238"/>
<path d="M72.5237 90.0146H74.3932C74.4254 90.0142 74.4566 90.0269 74.4811 90.0504C74.5057 90.0739 74.5218 90.1067 74.5266 90.1426L74.7489 91.8164C74.753 91.8586 74.7491 91.9013 74.7376 91.9417C74.726 91.982 74.707 92.0192 74.6818 92.0507C74.6566 92.0823 74.6258 92.1074 74.5914 92.1245C74.557 92.1417 74.5198 92.1504 74.4822 92.1501C73.8308 92.1376 73.5152 92.0949 72.6926 92.0949C72.1858 92.0949 71.1365 92.1526 70.4385 92.1526C69.7404 92.1526 69.7027 91.3722 69.9939 91.3019C71.2988 90.9858 71.8123 90.5491 72.2525 90.13C72.3289 90.0584 72.4244 90.0178 72.5237 90.0146Z" fill="#263238"/>
<path d="M72.4685 85.8716L72.5263 88.1176H74.1936L74.1358 85.8716H72.4685Z" fill="#CE6F64"/>
<path d="M81.2806 85.8716H79.6133L79.8912 88.1176H81.5562L81.2806 85.8716Z" fill="#CE6F64"/>
<path d="M75.0647 29.7729C75.1781 31.6349 75.2603 32.4204 74.5445 33.4919C73.4664 35.1005 71.4167 34.852 70.8121 33.0653C70.2674 31.4568 70.174 28.6838 71.6901 27.7102C72.0237 27.4944 72.4005 27.3784 72.7849 27.3731C73.1693 27.3679 73.5485 27.4736 73.8865 27.6803C74.2246 27.8869 74.5102 28.1876 74.7164 28.5538C74.9226 28.9201 75.0425 29.3397 75.0647 29.7729Z" fill="#E4897B"/>
<path d="M76.0249 31.502C76.9497 32.0842 77.6366 30.6488 77.6366 30.6488C77.6366 30.6488 75.9782 30.852 76.1272 29.7378C76.3228 28.2598 75.3847 26.463 73.0327 26.6939C72.9016 26.7064 72.7771 26.724 72.6548 26.7466C72.4086 26.6148 72.1302 26.5808 71.8647 26.65C71.5992 26.7193 71.3622 26.8877 71.1921 27.128C70.5251 27.1907 69.6248 28.0891 70.2362 29.2761C70.2791 29.1397 70.3456 29.0143 70.4318 28.9072C70.4829 29.6023 71.0209 30.7065 71.6922 30.7793C71.8367 31.7303 71.2765 32.832 71.4699 33.8257C71.7567 35.2586 73.8975 35.5823 73.8975 35.5823C73.8237 35.4034 73.7962 35.2045 73.8182 35.0087C73.8402 34.8129 73.9109 34.6281 74.022 34.4757C75.4758 35.2285 76.434 34.4932 76.434 34.4932C75.4425 34.0767 75.7426 33.3339 75.7426 33.3339C76.0849 33.5055 76.4729 33.5205 76.8248 33.3759C77.1768 33.2313 77.4654 32.9383 77.63 32.5585C77.3006 32.5761 76.9738 32.4857 76.689 32.2983C76.4042 32.1108 76.1735 31.8342 76.0249 31.502Z" fill="#263238"/>
<path d="M72.2726 31.065C72.2765 31.2437 72.2491 31.4215 72.1919 31.5881C72.1346 31.7548 72.0488 31.9071 71.9392 32.0361C71.6457 32.3799 71.2856 32.139 71.1878 31.6998C71.1011 31.3033 71.15 30.6484 71.5324 30.4677C71.6165 30.4304 71.7076 30.4174 71.7973 30.4299C71.8871 30.4424 71.9726 30.4801 72.0462 30.5394C72.1197 30.5988 72.179 30.6779 72.2185 30.7697C72.2581 30.8615 72.2767 30.963 72.2726 31.065Z" fill="#E4897B"/>
<path d="M73.6577 48.4133C73.6577 48.4133 74.0801 60.7999 75.0849 68.0723C75.8941 73.9494 79.4887 87.6811 79.4887 87.6811H81.7607C81.7607 87.6811 79.8866 74.4187 79.4754 68.6093C78.435 53.9064 81.136 50.7496 78.5862 47.688L73.6577 48.4133Z" fill="#263238"/>
<path d="M75.5562 52.3303C75.5562 52.3303 74.5292 52.1296 73.929 54.3379C74.1513 58.5211 74.5314 64.072 75.0849 68.0721C75.2072 68.9629 75.3939 70.037 75.6229 71.2139C75.1894 64.1473 75.5562 52.3303 75.5562 52.3303Z" fill="#161F33"/>
<path d="M71.8858 48.674C71.8858 48.674 70.0141 62.3781 70.123 68.1122C70.2364 74.0771 72.1726 87.6859 72.1726 87.6859H74.4246C74.4246 87.6859 74.0689 74.431 74.2667 68.5739C74.489 62.1874 76.7987 47.9538 76.7987 47.9538L71.8858 48.674Z" fill="#263238"/>
<path d="M82.0895 87.8015H79.0684L78.8328 86.6572L82.0673 86.6822L82.0895 87.8015Z" fill="#83D0EA"/>
<path opacity="0.2" d="M82.0895 87.8015H79.0684L78.8328 86.6572L82.0673 86.6822L82.0895 87.8015Z" fill="black"/>
<path d="M78.4727 36.1993C79.3419 36.2947 80.6624 39.0827 80.6624 39.0827L78.4682 40.9824C78.4682 40.9824 76.652 39.1831 76.8676 38.1718C77.0922 37.1203 77.639 36.1115 78.4727 36.1993Z" fill="#83D0EA"/>
<path opacity="0.1" d="M78.4727 36.1993C79.3419 36.2947 80.6624 39.0827 80.6624 39.0827L78.4682 40.9824C78.4682 40.9824 76.652 39.1831 76.8676 38.1718C77.0922 37.1203 77.639 36.1115 78.4727 36.1993Z" fill="black"/>
<path d="M77.8169 37.399C77.5953 37.3316 77.3659 37.3028 77.1367 37.3136C77.02 37.588 76.9298 37.8757 76.8677 38.1719C76.6454 39.1756 78.4683 40.9824 78.4683 40.9824L78.6305 40.8419L77.8169 37.399Z" fill="#83D0EA"/>
<path opacity="0.3" d="M77.8169 37.399C77.5953 37.3316 77.3659 37.3028 77.1367 37.3136C77.02 37.588 76.9298 37.8757 76.8677 38.1719C76.6454 39.1756 78.4683 40.9824 78.4683 40.9824L78.6305 40.8419L77.8169 37.399Z" fill="black"/>
<path d="M71.1412 40.0767C70.5076 41.886 69.8407 43.7254 69.3094 45.5397C69.2739 45.6552 69.245 45.7656 69.2138 45.8785L69.1383 46.1571C69.1176 46.2391 69.1176 46.326 69.1383 46.408C69.2637 46.7217 69.4628 46.9908 69.714 47.1859C70.3787 47.7243 71.1029 48.1621 71.8681 48.4883L71.6681 49.4118C70.7266 49.2717 69.8162 48.9365 68.9826 48.4231C68.4696 48.1137 68.0518 47.636 67.7844 47.0529C67.6309 46.6803 67.5775 46.265 67.631 45.8584C67.6361 45.8087 67.6435 45.7592 67.6533 45.7104L67.6755 45.605L67.7133 45.4143C67.74 45.2863 67.7666 45.1633 67.7955 45.0378C68.0178 44.0341 68.3024 43.0805 68.6025 42.1344C68.9026 41.1884 69.2161 40.2548 69.5695 39.3238L71.1412 40.0767Z" fill="#E4897B"/>
<path d="M69.7917 37.5371C69.7917 37.5371 69.0403 37.9662 71.8857 48.6741L78.5948 47.6853C78.1236 44.6188 77.9013 42.7191 78.4726 36.1996C77.5105 36.1218 76.5447 36.1218 75.5826 36.1996C74.5584 36.2668 73.5398 36.4178 72.5349 36.6513C71.2477 36.975 69.7917 37.5371 69.7917 37.5371Z" fill="#83D0EA"/>
<path opacity="0.1" d="M69.7917 37.5371C69.7917 37.5371 69.0403 37.9662 71.8857 48.6741L78.5948 47.6853C78.1236 44.6188 77.9013 42.7191 78.4726 36.1996C77.5105 36.1218 76.5447 36.1218 75.5826 36.1996C74.5584 36.2668 73.5398 36.4178 72.5349 36.6513C71.2477 36.975 69.7917 37.5371 69.7917 37.5371Z" fill="black"/>
<path d="M78.6436 47.2262L79.0282 47.856C79.0571 47.9062 79.0082 47.9664 78.9326 47.979L71.8967 49.0179C71.8367 49.0179 71.7811 49.0003 71.7722 48.9577L71.6344 48.2876C71.6233 48.2425 71.6722 48.1948 71.7389 48.1848L78.5325 47.181C78.5529 47.1773 78.5737 47.1795 78.5932 47.1874C78.6126 47.1953 78.63 47.2086 78.6436 47.2262Z" fill="#83D0EA"/>
<path opacity="0.2" d="M78.6436 47.2262L79.0282 47.856C79.0571 47.9062 79.0082 47.9664 78.9326 47.979L71.8967 49.0179C71.8367 49.0179 71.7811 49.0003 71.7722 48.9577L71.6344 48.2876C71.6233 48.2425 71.6722 48.1948 71.7389 48.1848L78.5325 47.181C78.5529 47.1773 78.5737 47.1795 78.5932 47.1874C78.6126 47.1953 78.63 47.2086 78.6436 47.2262Z" fill="black"/>
<path d="M77.8301 48.2173L78.0124 48.1897C78.0479 48.1897 78.0724 48.1596 78.0679 48.1345L77.8812 47.2662C77.8741 47.2514 77.8627 47.2398 77.849 47.2334C77.8352 47.227 77.8199 47.2262 77.8056 47.2311L77.6233 47.2562C77.5855 47.2562 77.5611 47.2863 77.5677 47.3139L77.7545 48.1797C77.7589 48.2073 77.7945 48.2223 77.8301 48.2173Z" fill="#263238"/>
<path d="M73.4198 48.8597L73.6021 48.8321C73.6377 48.8321 73.6644 48.802 73.6577 48.7769L73.471 47.9086C73.4637 47.894 73.4524 47.8824 73.4387 47.8756C73.4251 47.8688 73.4099 47.8672 73.3954 47.871L73.2131 47.8986C73.1775 47.8986 73.1509 47.9287 73.1575 47.9538L73.3443 48.8221C73.3487 48.8597 73.3843 48.8748 73.4198 48.8597Z" fill="#263238"/>
<path d="M70.1052 41.1711C70.2897 42.1397 70.5498 43.3669 70.93 44.9202L71.0122 40.9829L70.1052 41.1711Z" fill="#83D0EA"/>
<path opacity="0.3" d="M70.1052 41.1711C70.2897 42.1397 70.5498 43.3669 70.93 44.9202L71.0122 40.9829L70.1052 41.1711Z" fill="black"/>
<path d="M69.7917 37.5371C68.9581 37.916 68.2356 41.1357 68.2356 41.1357L71.1033 42.7116C71.1033 42.7116 72.4883 38.7743 71.868 38.0064C71.2478 37.2385 70.7521 37.103 69.7917 37.5371Z" fill="#83D0EA"/>
<path opacity="0.1" d="M69.7917 37.5371C68.9581 37.916 68.2356 41.1357 68.2356 41.1357L71.1033 42.7116C71.1033 42.7116 72.4883 38.7743 71.868 38.0064C71.2478 37.2385 70.7521 37.103 69.7917 37.5371Z" fill="black"/>
<path d="M74.8092 87.8015H71.7881L71.5525 86.6572L74.9159 86.6822L74.8092 87.8015Z" fill="#83D0EA"/>
<path opacity="0.2" d="M74.8092 87.8015H71.7881L71.5525 86.6572L74.9159 86.6822L74.8092 87.8015Z" fill="black"/>
<path d="M71.9149 48.177L71.6726 48.064C71.613 48.0367 71.5481 48.0276 71.4844 48.0377C71.4207 48.0479 71.3605 48.0768 71.31 48.1217C71.2594 48.1665 71.2203 48.2257 71.1965 48.2931C71.1727 48.3606 71.1652 48.4339 71.1746 48.5057L71.3502 49.8131C71.3587 49.8786 71.3799 49.9411 71.4123 49.9961C71.4447 50.0512 71.4876 50.0974 71.5378 50.1315C71.588 50.1656 71.6443 50.1867 71.7025 50.1933C71.7608 50.1998 71.8197 50.1917 71.8749 50.1695C71.963 50.1333 72.0455 50.0817 72.1194 50.0164C72.1998 49.9411 72.2634 49.8456 72.3051 49.7375C72.3468 49.6294 72.3654 49.5118 72.3595 49.394L72.335 48.852C72.3308 48.7055 72.2888 48.5636 72.2142 48.4437C72.1395 48.3238 72.0355 48.2311 71.9149 48.177Z" fill="#E4897B"/>
</svg>
