<svg width="86" height="92" viewBox="0 0 86 92" fill="none" xmlns="http://www.w3.org/2000/svg">
<path d="M84.3697 48.7118H83.5847V48.5592C83.5842 48.1427 83.4384 47.7435 83.1792 47.449C82.92 47.1545 82.5686 46.9888 82.202 46.9882H81.6705C81.3036 46.9882 80.9517 47.1536 80.6921 47.4482C80.4325 47.7428 80.2864 48.1424 80.2859 48.5592V48.7118H79.5029C79.3982 48.7115 79.2946 48.7347 79.1978 48.7801C79.1011 48.8255 79.0132 48.8921 78.9392 48.9762C78.8652 49.0602 78.8066 49.1601 78.7667 49.27C78.7267 49.3799 78.7063 49.4977 78.7065 49.6166V53.7387C78.7065 53.9786 78.7904 54.2087 78.9398 54.3784C79.0891 54.5481 79.2917 54.6434 79.5029 54.6434H84.3697C84.5807 54.6429 84.783 54.5474 84.9322 54.3778C85.0814 54.2082 85.1655 53.9784 85.166 53.7387V49.6166C85.166 49.3766 85.0821 49.1465 84.9327 48.9768C84.7834 48.8071 84.5809 48.7118 84.3697 48.7118ZM80.6642 48.5592C80.6647 48.2564 80.771 47.9661 80.9596 47.7521C81.1483 47.5382 81.4039 47.418 81.6705 47.418H82.202C82.4684 47.418 82.7239 47.5382 82.9122 47.7523C83.1006 47.9663 83.2064 48.2565 83.2064 48.5592V48.7118H80.6642V48.5592Z" fill="#263238"/>
<path d="M83.3862 51.2566H82.3837V50.1197H81.4871V51.2566H80.4846V52.2774H81.4871V53.4143H82.3837V52.2774H83.3862V51.2566Z" fill="white"/>
<path d="M82.8188 24.1471C82.6629 24.1471 82.5085 24.1122 82.3645 24.0443C82.2205 23.9765 82.0897 23.877 81.9795 23.7517C81.8694 23.6263 81.782 23.4775 81.7225 23.3138C81.6631 23.15 81.6326 22.9746 81.6328 22.7974V19.1611C81.6326 18.9839 81.6631 18.8085 81.7225 18.6447C81.782 18.481 81.8694 18.3322 81.9795 18.2069C82.0897 18.0815 82.2205 17.982 82.3645 17.9142C82.5085 17.8463 82.6629 17.8114 82.8188 17.8114C82.9747 17.8114 83.129 17.8463 83.2731 17.9142C83.4171 17.982 83.5479 18.0815 83.658 18.2069C83.7682 18.3322 83.8555 18.481 83.915 18.6447C83.9745 18.8085 84.005 18.9839 84.0047 19.1611V22.791C84.0057 22.9687 83.9758 23.1448 83.9166 23.3093C83.8575 23.4738 83.7703 23.6233 83.6601 23.7494C83.5498 23.8754 83.4188 23.9754 83.2744 24.0437C83.13 24.112 82.9752 24.1471 82.8188 24.1471Z" fill="white" stroke="#263238" stroke-linecap="round" stroke-linejoin="round"/>
<path d="M82.8188 24.1474C82.6629 24.1474 82.5085 24.1125 82.3645 24.0446C82.2205 23.9767 82.0897 23.8773 81.9795 23.7519C81.8694 23.6266 81.782 23.4778 81.7225 23.314C81.6631 23.1503 81.6326 22.9749 81.6328 22.7977V20.9817H84.0047V22.7977C84.005 22.9749 83.9745 23.1503 83.915 23.314C83.8555 23.4778 83.7682 23.6266 83.658 23.7519C83.5479 23.8773 83.4171 23.9767 83.2731 24.0446C83.129 24.1125 82.9747 24.1474 82.8188 24.1474Z" fill="#263238" stroke="#263238" stroke-linecap="round" stroke-linejoin="round"/>
<path d="M76.8528 18.7918C76.7553 18.6534 76.6828 18.4945 76.6395 18.3242C76.5962 18.1539 76.583 17.9755 76.6006 17.7994C76.6181 17.6232 76.6662 17.4527 76.7419 17.2978C76.8177 17.1428 76.9196 17.0063 77.0419 16.8963L79.533 14.6225C79.7797 14.3997 80.0941 14.2972 80.4072 14.3375C80.7204 14.3778 81.0066 14.5575 81.2032 14.8374C81.3992 15.1173 81.4894 15.4742 81.4539 15.8296C81.4184 16.1851 81.2602 16.51 81.0141 16.7329L78.5211 19.0046C78.3993 19.1152 78.2595 19.1975 78.1097 19.2467C77.9599 19.2959 77.8031 19.3111 77.6481 19.2913C77.4932 19.2715 77.3432 19.2172 77.2067 19.1315C77.0702 19.0458 76.95 18.9304 76.8528 18.7918Z" fill="white" stroke="#263238" stroke-linecap="round" stroke-linejoin="round"/>
<path d="M76.8528 18.7917C76.7553 18.6533 76.6828 18.4944 76.6395 18.324C76.5962 18.1537 76.583 17.9754 76.6006 17.7992C76.6181 17.6231 76.6662 17.4526 76.7419 17.2976C76.8177 17.1426 76.9196 17.0062 77.0419 16.8961L78.2884 15.7592L79.7733 17.8632L78.5268 18.998C78.4052 19.11 78.2653 19.1935 78.1151 19.2438C77.965 19.2941 77.8076 19.3101 77.652 19.2909C77.4963 19.2717 77.3456 19.2178 77.2085 19.1321C77.0713 19.0464 76.9504 18.9307 76.8528 18.7917Z" fill="#263238" stroke="#263238" stroke-linecap="round" stroke-linejoin="round"/>
<path d="M64.9916 8.89698C64.8438 8.89706 64.6996 8.94966 64.5793 9.04742L61.8234 6.61674C61.9585 6.33271 62.0218 6.01179 62.0065 5.68942C61.9911 5.36705 61.8977 5.05578 61.7364 4.78997L63.4198 2.34425C63.5623 2.40667 63.7186 2.41562 63.8659 2.36981C64.0131 2.324 64.1436 2.22582 64.2382 2.08965C64.3329 1.95347 64.3866 1.78646 64.3917 1.61307C64.3967 1.43967 64.3527 1.269 64.2662 1.12604C64.1797 0.983074 64.0552 0.875331 63.9109 0.818583C63.7666 0.761835 63.6101 0.759063 63.4644 0.810673C63.3186 0.862283 63.1912 0.965564 63.1008 1.10539C63.0104 1.24522 62.9618 1.41426 62.9621 1.58775C62.9612 1.75495 63.0069 1.91818 63.0926 2.05411L61.4546 4.43751C61.2349 4.22735 60.9681 4.09089 60.684 4.04344C60.3998 3.99599 60.1097 4.03942 59.8461 4.16886C59.5825 4.2983 59.3559 4.50864 59.1916 4.77626C59.0274 5.04389 58.932 5.35823 58.9162 5.68401H57.002C56.9811 5.49096 56.8999 5.31283 56.7732 5.18201C56.6465 5.0512 56.4827 4.97637 56.3116 4.97114C56.1405 4.96591 55.9734 5.03061 55.8407 5.1535C55.708 5.27639 55.6185 5.44929 55.5885 5.64079C55.5585 5.83229 55.5899 6.02967 55.6771 6.19705C55.7643 6.36444 55.9015 6.49071 56.0637 6.55292C56.2259 6.61514 56.4024 6.60916 56.561 6.53608C56.7197 6.463 56.85 6.32767 56.9282 6.15468H58.9521C59.0113 6.46716 59.1444 6.75539 59.337 6.98836C59.5296 7.22132 59.7745 7.39021 60.0453 7.47686C60.3161 7.5635 60.6026 7.56462 60.8739 7.4801C61.1452 7.39557 61.3911 7.2286 61.5851 6.99714L64.3258 9.41922C64.2718 9.58078 64.2646 9.75775 64.3054 9.92427C64.3461 10.0908 64.4327 10.2381 64.5524 10.3448C64.6721 10.4515 64.8187 10.5118 64.9707 10.5171C65.1228 10.5223 65.2723 10.4722 65.3975 10.374C65.5227 10.2758 65.6169 10.1347 65.6665 9.97128C65.7161 9.80787 65.7184 9.63074 65.6731 9.46575C65.6277 9.30076 65.5371 9.15657 65.4146 9.05424C65.292 8.95191 65.1438 8.89681 64.9916 8.89698Z" fill="#263238"/>
<path d="M9.00943 24.1731C8.78033 24.1725 8.56075 24.0688 8.39875 23.8848C8.23675 23.7007 8.14552 23.4512 8.14502 23.1909V15.0242H9.87384V23.1909C9.87384 23.4514 9.78277 23.7012 9.62066 23.8854C9.45855 24.0696 9.23868 24.1731 9.00943 24.1731Z" fill="white" stroke="#263238" stroke-linecap="round" stroke-linejoin="round"/>
<path d="M9.00943 24.173C8.78033 24.1725 8.56075 24.0688 8.39875 23.8847C8.23675 23.7007 8.14552 23.4512 8.14502 23.1909V18.1683H9.87384V23.1909C9.87384 23.4514 9.78277 23.7012 9.62066 23.8854C9.45855 24.0696 9.23868 24.173 9.00943 24.173Z" fill="#263238" stroke="#263238" stroke-linecap="round" stroke-linejoin="round"/>
<path d="M10.1212 14.547H7.89868V15.2626H10.1212V14.547Z" fill="white" stroke="#263238" stroke-linecap="round" stroke-linejoin="round"/>
<path d="M6.38931 24.1731C6.16021 24.1725 5.94063 24.0688 5.77863 23.8848C5.61663 23.7007 5.5254 23.4512 5.5249 23.1909V15.0242H7.25372V23.1909C7.25372 23.4514 7.16265 23.7012 7.00054 23.8854C6.83843 24.0696 6.61857 24.1731 6.38931 24.1731Z" fill="white" stroke="#263238" stroke-linecap="round" stroke-linejoin="round"/>
<path d="M6.38931 24.173C6.16021 24.1725 5.94063 24.0688 5.77863 23.8847C5.61663 23.7007 5.5254 23.4512 5.5249 23.1909V18.1683H7.25372V23.1909C7.25372 23.4514 7.16265 23.7012 7.00054 23.8854C6.83843 24.0696 6.61857 24.173 6.38931 24.173Z" fill="#263238" stroke="#263238" stroke-linecap="round" stroke-linejoin="round"/>
<path d="M7.50179 14.547H5.2793V15.2626H7.50179V14.547Z" fill="white" stroke="#263238" stroke-linecap="round" stroke-linejoin="round"/>
<path d="M31.3286 6.49647L32.0171 4.61812C32.0288 4.58786 32.0482 4.56227 32.0728 4.54465C32.0974 4.52703 32.1261 4.51819 32.1551 4.51926C32.1843 4.52091 32.2123 4.53273 32.2353 4.55312C32.2583 4.5735 32.2752 4.60145 32.2838 4.63317L33.1179 7.75802L33.7534 5.45629C33.7622 5.4239 33.7797 5.39547 33.8034 5.37502C33.8272 5.35457 33.856 5.34315 33.8858 5.34238C33.9153 5.34329 33.9439 5.35394 33.968 5.37303C33.9922 5.39212 34.011 5.41881 34.022 5.44984L34.3757 6.60608H36.288C36.6794 6.14136 36.9069 5.52953 36.9274 4.88676C36.931 4.28638 36.7393 3.70564 36.389 3.25608C36.0388 2.80651 35.5547 2.51982 35.0298 2.45106C34.5048 2.3823 33.9761 2.53633 33.545 2.88355C33.1139 3.23077 32.8109 3.74671 32.6942 4.33229C32.574 3.75082 32.27 3.23982 31.8398 2.89647C31.4097 2.55312 30.8835 2.40138 30.3613 2.4701C29.8391 2.53883 29.3574 2.82322 29.0077 3.2692C28.658 3.71518 28.4648 4.29163 28.4648 4.88891C28.4859 5.48418 28.6824 6.05414 29.0228 6.50722L31.3286 6.49647Z" fill="#263238"/>
<path d="M34.2757 6.92848C34.2463 6.92861 34.2176 6.91834 34.1935 6.89909C34.1695 6.87983 34.1513 6.85255 34.1414 6.82103L33.8956 6.01725L33.2506 8.35337C33.2414 8.38627 33.2232 8.41501 33.1988 8.43548C33.1743 8.45594 33.1448 8.46707 33.1144 8.46727C33.0839 8.46715 33.0543 8.45576 33.0301 8.43482C33.0059 8.41388 32.9883 8.38452 32.9801 8.35122L32.127 5.15544L31.5596 6.72002C31.5488 6.74925 31.5306 6.77422 31.5074 6.79181C31.4842 6.80939 31.457 6.81881 31.4291 6.81888H29.252C29.7192 7.41204 30.3017 7.93643 30.7368 8.42429C31.395 9.16359 32.04 9.92869 32.7115 10.6422C33.5721 9.67724 34.4384 8.70798 35.2915 7.74301C35.5279 7.47437 35.7852 7.20787 36.0235 6.92848H34.2757Z" fill="#263238"/>
<path d="M2.36794 54.9644L3.29541 55.33L4.29897 52.0426L3.3715 51.6771L2.36794 54.9644Z" fill="white" stroke="#263238" stroke-miterlimit="10"/>
<path d="M1.92796 55.4865L3.35938 56.0506L3.54843 55.4313L2.11702 54.8672L1.92796 55.4865Z" fill="white" stroke="#263238" stroke-miterlimit="10"/>
<path d="M2.34859 52.5232L4.64136 53.4268L6.45942 47.4715L4.16665 46.5678L2.34859 52.5232Z" fill="white" stroke="#263238" stroke-miterlimit="10"/>
<path d="M3.46368 49.9755L5.15601 50.6425L6.15957 47.3552L4.46724 46.6882L3.46368 49.9755Z" fill="#263238" stroke="#263238" stroke-miterlimit="10"/>
<path d="M3.16433 52.3587L4.0918 52.7242L5.09536 49.4369L4.16789 49.0714L3.16433 52.3587Z" fill="#263238" stroke="#263238" stroke-miterlimit="10"/>
<path d="M2.18685 52.4607L4.80664 53.4932L5.03413 52.748L2.41434 51.7155L2.18685 52.4607Z" fill="white" stroke="#263238" stroke-miterlimit="10"/>
<path d="M4.72601 46.4438L6.09131 46.9818L6.39442 45.989L5.02913 45.4509L4.72601 46.4438Z" fill="white" stroke="#263238" stroke-miterlimit="10"/>
<path d="M3.94759 46.691L6.56738 47.7235L6.79487 46.9783L4.17508 45.9458L3.94759 46.691Z" fill="white" stroke="#263238" stroke-miterlimit="10"/>
<path d="M5.72534 45.5849L6.8224 41.9872" stroke="#263238" stroke-miterlimit="10"/>
<path d="M66.7221 90.2978C72.1887 90.2978 76.6203 89.1624 76.6203 87.7618C76.6203 86.3612 72.1887 85.2258 66.7221 85.2258C61.2555 85.2258 56.824 86.3612 56.824 87.7618C56.824 89.1624 61.2555 90.2978 66.7221 90.2978Z" fill="#263238" stroke="#263238" stroke-linecap="round" stroke-linejoin="round"/>
<path d="M59.0903 30.4397C59.0903 30.4397 57.7511 31.3703 57.7663 31.7786C57.7814 32.1869 57.2669 39.6337 57.2083 40.5643C57.1497 41.4949 56.3704 43.4162 56.3098 44.2888C56.2493 45.1613 56.4422 46.036 56.6673 46.4379C56.8924 46.8398 57.719 48.125 57.719 48.125L59.9415 44.2243C59.996 43.3725 60.0073 42.5179 59.9755 41.6647C59.9415 39.8056 59.0903 30.4397 59.0903 30.4397Z" fill="white" stroke="#263238" stroke-linecap="round" stroke-linejoin="round"/>
<path d="M67.6413 11.9872C67.6413 11.9872 65.277 11.8153 63.9302 13.6786C62.5835 15.5419 62.8729 18.3917 62.8634 19.2664C62.854 20.1411 60.5672 22.705 60.8206 23.7495C61.0741 24.794 61.7475 24.9122 61.5318 25.7847C61.3162 26.6573 59.9089 27.1817 60.1132 28.2885C60.3175 29.3953 61.059 30.9642 61.059 30.9642L74.6777 31.0695C74.6777 31.0695 75.1638 29.4404 74.6455 28.2176C74.1273 26.9947 73.3915 26.5907 73.5106 26.0082C73.6298 25.4258 74.288 24.0289 74.0346 22.9822C73.7811 21.9356 72.8997 21.6455 72.807 19.7822C72.7143 17.9189 72.4722 14.8391 71.1709 13.3347C69.8695 11.8303 67.6413 11.9872 67.6413 11.9872Z" fill="#263238" stroke="#263238" stroke-linecap="round" stroke-linejoin="round"/>
<path d="M63.4538 83.7922C63.0356 84.7079 62.528 85.5672 61.9407 86.354C61.0706 87.4608 60.227 88.0432 60.2553 88.6256C60.2837 89.208 62.1828 89.3219 63.1871 88.9136C64.1915 88.5053 64.9216 87.6907 65.124 87.6241C65.3264 87.5575 65.892 87.6241 65.9052 86.8074C65.9184 85.9908 65.8087 83.6654 65.8087 83.6654L63.4538 83.7922Z" fill="white" stroke="#263238" stroke-linecap="round" stroke-linejoin="round"/>
<path d="M63.1835 88.9134C64.1898 88.5051 64.918 87.6906 65.1204 87.6239C65.3228 87.5573 65.8884 87.6239 65.9016 86.8073C65.9016 86.3774 65.8808 85.5178 65.8543 84.815C65.7055 85.1321 65.4852 85.3987 65.216 85.5875C64.9469 85.7763 64.6384 85.8805 64.3222 85.8896C64.3222 85.8896 64.3033 85.4812 63.7548 84.7849C63.4011 84.3293 63.0436 84.6882 62.8355 84.9998L62.6672 85.2878L62.6539 85.3158C62.4356 85.6817 62.1968 86.0313 61.9389 86.3624C61.0689 87.4692 60.2253 88.0516 60.2536 88.634C60.282 89.2165 62.1792 89.3218 63.1835 88.9134Z" fill="white" stroke="#263238" stroke-linecap="round" stroke-linejoin="round"/>
<path d="M70.4618 83.7878C70.9701 84.7068 71.5595 85.5644 72.2209 86.3475C73.195 87.4521 74.0935 88.0324 74.1124 88.6148C74.1313 89.1972 72.2512 89.3133 71.2071 88.9071C70.163 88.5009 69.3572 87.6864 69.151 87.6284C68.9449 87.5703 68.3812 87.6284 68.2923 86.816C68.2034 86.0036 68.0918 83.6739 68.0918 83.6739L70.4618 83.7878Z" fill="white" stroke="#263238" stroke-linecap="round" stroke-linejoin="round"/>
<path d="M71.2147 88.9071C70.1725 88.5009 69.3648 87.6863 69.1586 87.6283C68.9524 87.5703 68.3888 87.6283 68.2999 86.8159C68.2526 86.3861 68.1996 85.5264 68.1599 84.8215C68.3348 85.1367 68.5751 85.3983 68.8597 85.5834C69.1443 85.7684 69.4645 85.8714 69.7923 85.8832C69.7923 85.8832 69.7734 85.4749 70.2519 84.7764C70.564 84.3229 70.9555 84.6797 71.1976 84.9913C71.2601 85.0859 71.3244 85.1804 71.3868 85.2793L71.4038 85.3072C71.658 85.6726 71.9295 86.022 72.2172 86.3539C73.1913 87.4585 74.0897 88.0388 74.1086 88.6212C74.1276 89.2036 72.2588 89.3132 71.2147 88.9071Z" fill="white" stroke="#263238" stroke-linecap="round" stroke-linejoin="round"/>
<path d="M59.3398 53.0745C59.3398 53.0745 59.6557 65.1764 60.0756 67.5619C60.4955 69.9475 62.37 83.6203 62.37 83.6203C62.943 83.8958 63.56 84.0333 64.1821 84.0244H66.2305L66.4197 73.8417L66.4897 59.0621L67.5167 84.0802C67.5167 84.0802 70.3388 84.1941 70.6434 84.1361C70.9479 84.0781 71.2014 84.0201 71.2014 84.0201L73.0153 68.1916L74.0537 57.6608L74.1105 53.4721C74.1105 53.4721 65.4399 53.1304 62.9204 52.8983C60.401 52.6662 59.3644 52.6082 59.3644 52.6082L59.3398 53.0745Z" fill="#58B0CD" stroke="#263238" stroke-linecap="round" stroke-linejoin="round"/>
<path d="M71.0473 74.4412C71.0249 74.6433 71.0025 74.8302 70.9763 75.0022" stroke="#263238" stroke-linecap="round" stroke-linejoin="round"/>
<path d="M71.2808 59.8721C71.2808 59.8721 71.4567 68.4945 71.1484 73.1753" stroke="#263238" stroke-linecap="round" stroke-linejoin="round"/>
<path d="M61.9841 59.18C61.9841 59.18 62.2017 64.8838 62.4173 66.1626" stroke="#263238" stroke-linecap="round" stroke-linejoin="round"/>
<path d="M70.0667 55.546V59.9001C70.5576 60.0503 71.0597 60.1489 71.5666 60.1946C72.344 60.2526 73.7948 60.1946 73.7948 60.1946L73.8988 58.5462L70.0667 55.546Z" fill="#263238" stroke="#263238" stroke-linecap="round" stroke-linejoin="round"/>
<path d="M59.5005 58.8986C59.5005 58.8986 61.4696 59.6057 62.298 59.6637C63.1265 59.7217 63.902 59.8399 63.902 59.8399L63.7999 58.6643L59.3965 58.1937L59.5005 58.8986Z" fill="#263238" stroke="#263238" stroke-linecap="round" stroke-linejoin="round"/>
<path d="M65.4777 25.8386L63.9324 27.8179L59.6462 31.3705L60.5598 52.9027C60.5598 52.9027 63.9759 53.9472 66.9077 54.2373C69.8395 54.5275 73.6092 53.7645 73.6092 53.7645L73.055 31.1985C73.055 31.1985 71.3867 28.4046 70.5318 27.6503C69.6768 26.8959 69.2853 26.1975 68.1523 26.0814C67.0193 25.9654 65.4777 25.8386 65.4777 25.8386Z" fill="#58B0CD" stroke="#263238" stroke-linecap="round" stroke-linejoin="round"/>
<path d="M63.6847 26.8979L59.0903 30.4505L59.811 43.5409L59.567 44.8562L57.6357 47.3836L58.4585 51.8237L58.0916 58.0884C58.0916 58.0884 59.9169 58.7869 61.1539 58.9588C62.075 59.071 63.0005 59.1291 63.9268 59.1329L64.0857 50.5793C64.0857 50.5793 64.6967 36.3799 64.7685 35.7502C64.8404 35.1205 65.4779 25.8642 65.4779 25.8642L63.6847 26.8979Z" fill="white" stroke="#263238" stroke-linecap="round" stroke-linejoin="round"/>
<path d="M63.7583 27.4331L61.5339 33.7709L63.9342 34.9035L61.6682 35.372L63.6751 44.306" stroke="#263238" stroke-linecap="round" stroke-linejoin="round"/>
<path d="M65.0918 24.1513C65.0918 24.1513 65.89 30.2012 66.518 31.5981C67.146 32.9951 67.3237 33.4593 67.3237 33.4593C67.3237 33.4593 68.6894 28.7441 68.9637 28.0456C69.2379 27.3471 69.5311 24.8455 69.5311 24.8455C69.5311 24.8455 66.8093 25.8363 65.0918 24.1513Z" fill="white" stroke="#263238" stroke-linecap="round" stroke-linejoin="round"/>
<path d="M65.0918 24.1513C65.0918 24.1513 65.1637 24.7015 65.2809 25.5074C65.68 25.8535 66.7374 26.7088 67.5186 26.7539C68.1144 26.7883 68.871 26.3499 69.3741 25.9996C69.4649 25.3656 69.5273 24.8455 69.5273 24.8455C69.5273 24.8455 66.8093 25.8363 65.0918 24.1513Z" fill="#263238" stroke="#263238" stroke-linecap="round" stroke-linejoin="round"/>
<path d="M64.0082 19.9692C64.0082 19.9692 63.4634 19.088 63.0965 19.9692C62.7295 20.8503 63.6639 22.1548 63.925 22.3332C64.6664 22.834 64.4697 21.9034 64.4697 21.9034L64.0082 19.9692Z" fill="white" stroke="#263238" stroke-linecap="round" stroke-linejoin="round"/>
<path d="M70.7737 20.3493C70.7737 20.3493 71.2334 19.4381 71.6835 20.2978C72.1337 21.1574 71.3223 22.5092 71.0801 22.7005C70.3879 23.2442 70.4976 22.3115 70.4976 22.3115L70.7737 20.3493Z" fill="white" stroke="#263238" stroke-linecap="round" stroke-linejoin="round"/>
<path d="M63.8796 19.191C63.8796 19.191 65.8544 18.6666 66.8493 17.9983C67.4587 17.5801 67.9901 17.0303 68.4135 16.38C68.4135 16.38 69.2685 18.2153 70.0213 18.9589C70.7741 19.7025 70.9311 19.7455 70.9311 19.7455C70.9311 19.7455 70.5698 22.9585 70.1613 24.076C69.7527 25.1936 68.4192 26.2811 67.1746 25.9673C66.4672 25.791 65.2415 25.2108 64.8859 24.2329C64.5303 23.2551 63.8796 19.191 63.8796 19.191Z" fill="white" stroke="#263238" stroke-linecap="round" stroke-linejoin="round"/>
<path d="M68.9184 21.6605C68.3055 21.6777 66.2533 21.682 65.194 20.9556C64.7695 20.6747 64.372 20.3441 64.0081 19.9691C64.0459 20.184 64.0913 20.4527 64.1405 20.7321L64.3712 20.9233L64.95 23.4077L64.6795 23.4744C64.7366 23.7283 64.8054 23.9787 64.8857 24.2244C65.2413 25.2023 66.467 25.7825 67.1744 25.9588C68.4171 26.2704 69.7468 25.1894 70.1592 24.074C70.0619 23.8573 70.0331 23.6091 70.0778 23.3712C70.197 22.6684 70.3445 21.437 70.3445 21.437L70.7663 21.0071C70.789 20.8503 70.808 20.6998 70.8269 20.5623C70.3162 20.9642 69.3591 21.6476 68.9184 21.6605Z" fill="#58B0CD" stroke="#263238" stroke-linecap="round" stroke-linejoin="round"/>
<path d="M66.6658 20.6224C66.6658 20.6224 66.0057 19.7112 65.1394 19.795" stroke="#263238" stroke-linecap="round" stroke-linejoin="round"/>
<path d="M68.366 20.8028C68.5766 20.5511 68.8383 20.362 69.1281 20.2518C69.4179 20.1417 69.7271 20.1139 70.0286 20.1709" stroke="#263238" stroke-linecap="round" stroke-linejoin="round"/>
<path d="M64.7588 19.3395C64.7588 19.3395 65.7045 18.9097 66.5425 19.1117" stroke="#263238" stroke-linecap="round" stroke-linejoin="round"/>
<path d="M68.4434 19.3459C68.6925 19.2013 68.9748 19.1472 69.2519 19.191C69.529 19.2349 69.7876 19.3745 69.9925 19.5909" stroke="#263238" stroke-linecap="round" stroke-linejoin="round"/>
<path d="M66.0302 20.3237C66.0345 20.3567 66.033 20.3904 66.0258 20.4228C66.0186 20.4551 66.0059 20.4856 65.9883 20.5123C65.9707 20.5391 65.9487 20.5616 65.9234 20.5787C65.8981 20.5957 65.8702 20.6069 65.8411 20.6117C65.7819 20.6041 65.7275 20.5712 65.6888 20.5198C65.6502 20.4683 65.6302 20.402 65.633 20.3344C65.6285 20.3014 65.6298 20.2676 65.6369 20.2351C65.644 20.2026 65.6567 20.1721 65.6743 20.1453C65.6919 20.1184 65.7141 20.0959 65.7395 20.0789C65.7649 20.062 65.793 20.0509 65.8222 20.0464C65.8812 20.0545 65.9353 20.0875 65.9739 20.1389C66.0124 20.1902 66.0326 20.2562 66.0302 20.3237Z" fill="#263238"/>
<path d="M69.4554 20.6031C69.4605 20.6362 69.4596 20.6702 69.4527 20.7029C69.4458 20.7356 69.4331 20.7664 69.4154 20.7934C69.3977 20.8203 69.3754 20.8429 69.3497 20.8597C69.324 20.8765 69.2956 20.8872 69.2662 20.8911C69.2072 20.884 69.1528 20.8516 69.1141 20.8004C69.0755 20.7493 69.0554 20.6833 69.0582 20.616C69.0531 20.5828 69.054 20.5488 69.0609 20.5161C69.0677 20.4834 69.0804 20.4526 69.0981 20.4257C69.1158 20.3987 69.1382 20.3761 69.1639 20.3593C69.1895 20.3425 69.2179 20.3319 69.2473 20.328C69.3063 20.335 69.3608 20.3674 69.3994 20.4186C69.4381 20.4697 69.4581 20.5357 69.4554 20.6031Z" fill="#263238"/>
<path d="M74.5491 29.2062C74.5491 29.2062 75.6518 29.7865 76.0623 30.7106C76.4727 31.6347 79.7544 41.6476 79.7393 42.4041C79.7242 43.1606 78.6385 44.0331 77.6208 44.1513C76.6032 44.2696 75.1203 42.1741 74.899 41.826C74.6777 41.4778 74.638 37.403 74.638 37.403L74.5491 29.2062Z" fill="white" stroke="#263238" stroke-linecap="round" stroke-linejoin="round"/>
<path d="M69.3516 26.5324L69.8887 46.5495L70.0779 59.1757C71.1078 59.4635 72.163 59.6185 73.2234 59.6378C74.108 59.6588 74.9874 59.4806 75.811 59.1134C75.811 59.1134 75.4894 51.2583 75.4327 49.9774C75.376 48.6965 75.0014 46.2529 75.0014 46.2529L74.555 29.2059C74.555 29.2059 70.3994 26.9966 69.3516 26.5324Z" fill="white" stroke="#263238" stroke-linecap="round" stroke-linejoin="round"/>
<path d="M70.5317 27.6373L72.4364 34.6972L70.7 35.2324L72.3891 36.1629L70.282 43.7688" fill="white"/>
<path d="M70.5317 27.6373L72.4364 34.6972L70.7 35.2324L72.3891 36.1629L70.282 43.7688" stroke="#263238" stroke-linecap="round" stroke-linejoin="round"/>
<path d="M71.8595 34.0954L69.4971 46.9559C69.4971 46.9559 71.1124 47.5362 72.2927 47.6006C73.473 47.6651 75.9319 47.6565 75.9319 47.6565L78.3908 35.6686C78.3908 35.6686 73.5505 35.1421 71.8595 34.0954Z" fill="#263238" stroke="#263238" stroke-linecap="round" stroke-linejoin="round"/>
<path d="M72.6826 46.0811L72.7602 42.0622L74.6346 42.5114C74.6346 42.5114 73.3957 45.6126 72.6826 46.0811Z" fill="white" stroke="#263238" stroke-linecap="round" stroke-linejoin="round"/>
<path d="M74.1183 40.6095C74.1183 40.6095 73.6189 39.7972 73.4581 39.6209C73.2974 39.4447 72.5029 38.9246 72.3497 38.9246C72.1965 38.9246 71.3737 38.8666 71.2148 38.8666C71.056 38.8666 70.8763 39.2749 71.0389 39.449C71.2016 39.6231 71.7672 39.6811 71.7672 39.6811L72.1549 40.3258L70.4053 40.1518C70.4053 40.1518 70.114 40.5021 70.1802 40.7965C70.2297 40.996 70.293 41.1907 70.3693 41.3789C70.3627 41.8062 70.3823 42.2335 70.428 42.6577C70.4961 43.008 70.8063 43.124 71.2319 43.4142C71.6574 43.7043 73.0817 43.5302 73.0817 43.5302H73.74L74.1183 40.6095Z" fill="white" stroke="#263238" stroke-linecap="round" stroke-linejoin="round"/>
<path d="M78.3836 41.0133L73.844 40.3191C73.844 40.3191 73.4903 43.6374 73.1328 44.7421C72.7753 45.8467 72.6826 46.081 72.6826 46.081C72.6826 46.081 77.4397 45.9606 78.5614 45.8446C79.683 45.7285 80.3129 44.9699 80.2637 43.9232C80.2145 42.8766 79.6527 41.8278 79.6527 41.8278" fill="white"/>
<path d="M78.3836 41.0133L73.844 40.3191C73.844 40.3191 73.4903 43.6374 73.1328 44.7421C72.7753 45.8467 72.6826 46.081 72.6826 46.081C72.6826 46.081 77.4397 45.9606 78.5614 45.8446C79.683 45.7285 80.3129 44.9699 80.2637 43.9232C80.2145 42.8766 79.6527 41.8278 79.6527 41.8278" stroke="#263238" stroke-linecap="round" stroke-linejoin="round"/>
<path d="M59.4536 44.637C59.4536 44.637 60.5128 45.3913 60.7776 45.6256C61.0424 45.8599 61.0651 47.3707 61.2335 47.6608C61.4018 47.951 61.2032 48.1272 60.8968 48.1272C60.5903 48.1272 60.1269 47.0225 60.1269 47.0225L60.108 46.6142L57.9442 47.4309L57.3767 46.3262C57.3767 46.3262 58.0198 44.637 59.4536 44.637Z" fill="white" stroke="#263238" stroke-linecap="round" stroke-linejoin="round"/>
<path d="M43.6897 90.2978C49.1563 90.2978 53.5878 89.1624 53.5878 87.7618C53.5878 86.3613 49.1563 85.2258 43.6897 85.2258C38.2231 85.2258 33.7915 86.3613 33.7915 87.7618C33.7915 89.1624 38.2231 90.2978 43.6897 90.2978Z" fill="#263238" stroke="#263238" stroke-linecap="round" stroke-linejoin="round"/>
<path d="M51.4201 27.4976C51.4201 27.4976 52.7176 34.8971 52.9484 36.2661C53.1792 37.6351 53.6029 40.8889 54.0833 42.3159C54.5637 43.7429 54.4067 45.5697 54.1665 46.0834C53.9256 46.5297 53.6489 46.9499 53.3399 47.3385L51.7284 44.9508C51.7284 44.9508 50.7694 33.2508 50.7335 31.5938C50.6975 29.9369 51.4201 27.4976 51.4201 27.4976Z" fill="white" stroke="#263238" stroke-linecap="round" stroke-linejoin="round"/>
<path d="M52.275 44.6585C52.275 44.6585 53.2964 45.3828 53.4761 45.6901C53.6558 45.9974 53.7844 46.3886 53.6444 46.7217C53.5044 47.0548 52.7422 48.0606 52.5492 48.2562C52.3563 48.4518 52.1936 47.6716 52.1709 47.0011C52.1482 46.3306 52.275 44.6585 52.275 44.6585Z" fill="white" stroke="#263238" stroke-linecap="round" stroke-linejoin="round"/>
<path d="M46.7822 85.2346C46.7822 85.2346 49.9844 87.0033 50.1868 87.3472C50.3892 87.691 49.6591 88.1488 47.7506 88.1488C45.8421 88.1488 45.7853 87.863 45.0269 87.6352C44.2684 87.4074 42.7571 87.5771 42.5528 87.0635C42.3485 86.5499 42.7041 84.7811 42.7041 84.7811L46.7822 85.2346Z" fill="white" stroke="#263238" stroke-linecap="round" stroke-linejoin="round"/>
<path d="M42.5304 86.1477C42.5304 86.1477 45.1785 87.9745 44.9458 88.602C44.7132 89.2296 42.799 89.2296 41.7908 89.0577C40.7827 88.8857 38.6396 87.3383 38.5261 86.7753C38.4127 86.2122 38.6964 85.3482 40.2493 85.1785C41.8022 85.0087 42.5304 86.1477 42.5304 86.1477Z" fill="white" stroke="#263238" stroke-linecap="round" stroke-linejoin="round"/>
<path d="M50.569 56.2983C50.569 56.2983 49.0558 69.5392 48.7929 71.4799C48.5299 73.4205 47.6958 76.5024 47.2456 78.8428C46.9905 80.2193 46.8011 81.6104 46.6782 83.01C46.6322 83.4081 46.6405 83.8119 46.7028 84.2071C46.7671 84.7788 46.7765 85.2344 46.7765 85.2344C46.103 85.4264 45.4175 85.56 44.7262 85.6341C43.8731 85.6922 42.7174 85.6922 42.7174 85.6922L42.3391 81.9827C42.3391 81.9827 42.6209 76.5024 42.7874 74.9056C42.9538 73.3088 43.1316 60.7513 43.1241 60.4075C43.1165 60.0636 43.0503 57.0398 43.0503 57.0398L48.2046 56.4122C48.2046 56.4122 48.9082 54.1298 49.9656 54.2437C51.0229 54.3576 50.569 56.2983 50.569 56.2983Z" fill="white" stroke="#263238" stroke-linecap="round" stroke-linejoin="round"/>
<path d="M49.9732 54.2437C48.9159 54.1298 48.2122 56.4122 48.2122 56.4122L43.0522 57.0398C43.0522 57.0398 43.0693 57.8436 43.0863 58.6688C43.6367 58.7247 44.1455 58.7569 44.5806 58.7569C46.2338 58.7539 47.8856 58.6484 49.5287 58.441L49.75 55.8105L50.0961 58.4904L50.3345 58.4023C50.482 57.1257 50.5766 56.294 50.5766 56.294C50.5766 56.294 51.0305 54.3576 49.9732 54.2437Z" fill="#263238" stroke="#263238" stroke-linecap="round" stroke-linejoin="round"/>
<path d="M37.6689 56.6983C37.6689 56.6983 37.6689 56.7799 37.6803 56.9282C37.7503 58.4885 38.1664 67.5299 38.2931 69.1977C38.435 71.0244 37.7257 73.021 37.7616 74.6758C37.7976 76.3307 38.1399 85.2926 38.1399 85.2926L38.5182 86.7755C38.5182 86.7755 39.4072 86.0921 40.2603 86.0921C41.1133 86.0921 42.5301 86.148 42.5301 86.148C42.5301 86.148 42.6038 84.9487 42.5963 84.5512C42.5887 84.1536 42.5565 82.7244 42.5565 82.7244C42.5565 82.7244 43.9998 75.2475 44.0868 74.62C44.1738 73.9924 45.2935 63.1478 45.286 62.7997C45.2784 62.4515 45.5224 57.6052 45.5224 57.6052L37.6689 56.6983Z" fill="white" stroke="#263238" stroke-linecap="round" stroke-linejoin="round"/>
<path d="M45.4694 58.7464C45.5016 58.0845 45.5243 57.6116 45.5243 57.6116L37.6689 56.6983C37.6689 56.6983 37.6689 56.7799 37.6803 56.9282C37.6803 57.1173 37.7011 57.4161 37.72 57.7879C39.5567 58.1618 42.7438 58.7507 44.5804 58.7507C44.8831 58.7571 45.1782 58.7528 45.4694 58.7464Z" fill="#263238" stroke="#263238" stroke-linecap="round" stroke-linejoin="round"/>
<path d="M43.457 21.6541C43.457 21.6541 42.6266 21.8132 42.3108 22.2344C41.9942 22.6441 41.7094 23.0842 41.4596 23.5497C41.4161 23.7087 36.5323 27.0764 36.5323 27.0764L36.8841 43.1348C36.8841 43.1348 37.0297 45.6085 36.7706 46.4509C36.3329 48.1074 36.1205 49.8301 36.1407 51.5595C36.1861 53.6119 36.3034 56.9323 36.3034 56.9323C36.3034 56.9323 41.8927 58.196 44.5805 58.196C46.2338 58.1915 47.8856 58.0846 49.5287 57.8758L49.75 55.2431L50.0867 57.9295L51.2348 57.4997L52.1805 49.5479C52.1805 49.5479 52.8388 47.8629 52.8312 47.4933C52.8236 47.1236 52.9977 46.6508 52.8066 46.3349C52.6156 46.019 52.2751 45.3871 52.2751 45.3871C52.2751 45.3871 51.4202 27.9726 51.4202 27.4976C51.4202 27.0227 48.8912 24.2352 48.704 24.1299C48.5167 24.0246 47.3629 22.0754 45.8668 21.551C44.3706 21.0266 43.457 21.6541 43.457 21.6541Z" fill="white" stroke="#263238" stroke-linecap="round" stroke-linejoin="round"/>
<path d="M41.9344 24.0763L41.3745 29.8596L43.6746 31.0739L43.0995 33.036L48.8516 44.5211" stroke="#263238" stroke-linecap="round" stroke-linejoin="round"/>
<path d="M48.3599 24.7254L50.0849 29.301L49.3453 30.4207L50.5786 32.3807L50.0849 44.9876" stroke="#263238" stroke-linecap="round" stroke-linejoin="round"/>
<path d="M43.2432 22.4451C43.2851 23.5734 43.4653 24.6895 43.7785 25.7613C44.2759 27.3409 47.5728 38.2392 47.5728 38.2392L49.7045 46.767C49.7045 46.767 49.4227 38.0801 49.4151 37.7126C49.4075 37.3451 47.7998 25.2863 47.7998 25.2863C47.7998 25.2863 47.5255 23.3392 47.0923 22.602C46.6592 21.8649 43.7558 20.4959 43.2432 22.4451Z" fill="#58B0CD" stroke="#263238" stroke-linecap="round" stroke-linejoin="round"/>
<path d="M43.0388 21.6027C43.0388 21.6027 41.6978 21.7596 41.9342 24.0764C42.1706 26.3932 42.4827 27.9728 42.4827 27.9728" stroke="#263238" stroke-width="2" stroke-linecap="round" stroke-linejoin="round"/>
<path d="M42.3184 31.0267C42.3184 31.0267 42.8858 33.711 43.2736 34.4481C43.6613 35.1853 44.834 35.9225 45.6682 35.9225" stroke="#263238" stroke-linecap="round" stroke-linejoin="round"/>
<path d="M44.1115 30.3949C44.1115 30.3949 44.7357 33.5004 44.8398 34.0806C44.9438 34.6609 44.5995 35.7634 44.0208 36.8745" stroke="#263238" stroke-linecap="round" stroke-linejoin="round"/>
<path d="M43.8542 37.2419C43.7947 37.2047 43.7505 37.1422 43.7314 37.0681C43.7122 36.994 43.7197 36.9143 43.7521 36.8465L43.8183 36.7089C43.8345 36.676 43.8564 36.6472 43.8827 36.6241C43.9089 36.6009 43.9389 36.5839 43.9709 36.5741C44.003 36.5643 44.0364 36.5619 44.0693 36.5669C44.1022 36.572 44.1339 36.5845 44.1625 36.6036C44.222 36.6409 44.2663 36.7032 44.2857 36.7772C44.3052 36.8511 44.2983 36.9308 44.2665 36.9991L44.2003 37.1344C44.184 37.1676 44.1621 37.1967 44.1358 37.22C44.1095 37.2434 44.0793 37.2606 44.0471 37.2706C44.0149 37.2806 43.9812 37.2832 43.9481 37.2783C43.915 37.2734 43.8831 37.261 43.8542 37.2419Z" fill="#263238"/>
<path d="M45.9784 35.9805C45.9784 36.0184 45.9717 36.0559 45.9587 36.0908C45.9456 36.1256 45.9265 36.1572 45.9025 36.1834C45.8785 36.2097 45.85 36.2302 45.8189 36.2437C45.7877 36.2572 45.7545 36.2635 45.7211 36.262H45.5831C45.515 36.2603 45.4502 36.2283 45.4028 36.1728C45.3554 36.1173 45.3291 36.0428 45.3296 35.9654C45.3293 35.9276 45.3358 35.8902 45.3486 35.8553C45.3615 35.8204 45.3804 35.7889 45.4042 35.7626C45.4281 35.7362 45.4564 35.7157 45.4875 35.7022C45.5186 35.6887 45.5517 35.6824 45.585 35.6839H45.723C45.7911 35.6861 45.8558 35.7183 45.9034 35.7736C45.951 35.8289 45.9779 35.9031 45.9784 35.9805Z" fill="#263238"/>
<path d="M42.3223 31.2371L42.0045 28.9482C41.969 28.7122 42.014 28.4698 42.1303 28.2701C42.2466 28.0705 42.4255 27.9287 42.6306 27.8737C42.8515 27.8166 43.0834 27.859 43.2774 27.9921C43.4714 28.1251 43.6124 28.3384 43.6709 28.5872L44.2138 30.8653" stroke="#263238" stroke-width="2" stroke-linecap="round" stroke-linejoin="round"/>
<path d="M49.7989 32.7841C50.2542 32.7323 50.5807 32.2068 50.5281 31.6104C50.4755 31.014 50.0638 30.5725 49.6085 30.6243C49.1533 30.6761 48.8268 31.2016 48.8794 31.798C48.932 32.3944 49.3437 32.8359 49.7989 32.7841Z" fill="white" stroke="#263238" stroke-linecap="round" stroke-linejoin="round"/>
<path d="M47.4724 22.5674C47.4724 22.5674 49.2939 25.4794 49.8746 31.4154" stroke="#263238" stroke-width="2" stroke-linecap="round" stroke-linejoin="round"/>
<path d="M49.923 32.1027C50.1716 32.0765 50.3513 31.7879 50.3243 31.4582C50.2974 31.1284 50.074 30.8824 49.8254 30.9087C49.5768 30.9349 49.3971 31.2235 49.4241 31.5532C49.4511 31.883 49.6744 32.129 49.923 32.1027Z" fill="white" stroke="#263238" stroke-linecap="round" stroke-linejoin="round"/>
<path d="M52.5858 45.1119C52.4741 45.5053 52.3825 45.9057 52.3115 46.3111C52.3115 46.4831 52.2756 46.9967 51.9219 46.8807C51.5682 46.7646 51.6741 44.7122 51.7195 44.4844C51.7649 44.2566 52.6255 44.9937 52.6255 44.9937" fill="white"/>
<path d="M52.5858 45.1119C52.4741 45.5053 52.3825 45.9057 52.3115 46.3111C52.3115 46.4831 52.2756 46.9967 51.9219 46.8807C51.5682 46.7646 51.6741 44.7122 51.7195 44.4844C51.7649 44.2566 52.6255 44.9937 52.6255 44.9937" stroke="#263238" stroke-linecap="round" stroke-linejoin="round"/>
<path d="M41.1042 43.2938C41.4188 43.4906 41.7703 43.5989 42.1293 43.6097C42.6854 43.6097 43.7012 43.3948 44.0738 43.5044C44.4464 43.614 45.3978 44.9766 45.3978 44.9766C45.3978 44.9766 45.6816 45.2925 45.5473 45.4515C45.413 45.6106 45.1387 45.8814 44.9496 45.7137C44.7604 45.5461 43.8147 44.6607 43.8147 44.6607L41.4295 45.7675L40.4497 45.1872L41.1042 43.2938Z" fill="white" stroke="#263238" stroke-linecap="round" stroke-linejoin="round"/>
<path d="M37.4513 26.7088C37.4513 26.7088 35.8795 26.9238 35.6128 27.3923C35.3461 27.8608 31.0391 38.6065 31.0486 39.0815C31.0581 39.5564 39.6605 47.2482 39.6605 47.2482L41.518 43.2315L36.8706 38.3357L38.8869 33.0187" fill="white"/>
<path d="M37.4513 26.7088C37.4513 26.7088 35.8795 26.9238 35.6128 27.3923C35.3461 27.8608 31.0391 38.6065 31.0486 39.0815C31.0581 39.5564 39.6605 47.2482 39.6605 47.2482L41.518 43.2315L36.8706 38.3357L38.8869 33.0187" stroke="#263238" stroke-linecap="round" stroke-linejoin="round"/>
<path d="M40.3511 49.189L44.8944 49.2943L44.8717 46.0835" stroke="#263238" stroke-linecap="round" stroke-linejoin="round"/>
<path d="M41.435 45.7673L40.2339 46.2767" stroke="#263238" stroke-linecap="round" stroke-linejoin="round"/>
<path d="M42.8044 19.3374C42.8044 19.3374 43.3208 23.9194 43.6612 24.6028C44.0017 25.2862 46.4228 28.0243 46.4228 28.0243C46.4228 28.0243 47.1794 24.8672 47.2645 24.13C47.3496 23.3928 47.4158 20.4442 47.4158 20.4442L42.7949 18.9699L42.8044 19.3374Z" fill="white" stroke="#263238" stroke-linecap="round" stroke-linejoin="round"/>
<path d="M42.8044 19.3374C42.8044 19.3374 42.8649 19.8747 42.9576 20.6076C43.3198 20.9907 43.7336 21.3056 44.1833 21.5403C44.7791 21.839 46.3679 22.0066 47.3723 21.8734C47.3988 21.1019 47.4158 20.4442 47.4158 20.4442L42.7949 18.9699L42.8044 19.3374Z" fill="#263238" stroke="#263238" stroke-linecap="round" stroke-linejoin="round"/>
<path d="M41.4654 15.3379C41.4654 15.3379 40.8469 14.6008 40.5405 15.4411C40.234 16.2814 40.9188 17.5472 41.2838 17.601C41.5004 17.6331 41.7205 17.6148 41.9307 17.5472C41.9307 17.5472 42.1898 18.7593 42.4282 19.1269C42.8972 19.8007 43.4983 20.3409 44.1835 20.7043C45.0271 21.1342 47.8511 21.2867 48.2085 20.7043C48.566 20.1219 48.5452 17.0185 48.5396 16.7563C48.5339 16.4942 48.4942 12.7417 48.4942 12.7417C48.4942 12.7417 48.7476 11.4394 48.4034 10.5432C48.0591 9.64698 44.6034 8.39403 43.7352 8.91197C42.867 9.42992 41.8664 10.3326 41.7983 11.4909C41.7302 12.6493 41.7718 14.5449 41.7718 14.5449L41.4654 15.3379Z" fill="white" stroke="#263238" stroke-linecap="round" stroke-linejoin="round"/>
<path d="M46.572 13.7045C46.572 13.7045 47.1489 16.7133 47.0165 17.0744C46.8841 17.4354 46.4699 17.4419 45.9516 17.1259C45.4334 16.81 45.7039 16.3888 45.7039 16.3888" stroke="#263238" stroke-linecap="round" stroke-linejoin="round"/>
<path d="M44.5635 17.1795C44.5635 17.1795 44.8132 17.9682 45.2766 18.0219C45.74 18.0757 46.9032 18.1788 46.9032 18.1788" stroke="#263238" stroke-linecap="round" stroke-linejoin="round"/>
<path d="M42.9087 13.8098L42.9825 15.0735C42.9825 15.0735 43.4062 15.3378 44.3784 15.3378C45.3506 15.3378 45.6703 15.0735 45.6703 15.0735L45.6438 13.8098C45.6438 13.8098 44.2327 12.862 42.9087 13.8098Z" stroke="#263238" stroke-linecap="round" stroke-linejoin="round"/>
<path d="M46.5764 13.8099L46.9282 15.1273C46.9282 15.1273 47.072 15.3422 48.0461 15.3422C49.0202 15.3422 49.3399 15.0779 49.3399 15.0779L49.3115 13.8142C49.3115 13.8142 47.8986 12.8621 46.5764 13.8099Z" stroke="#263238" stroke-linecap="round" stroke-linejoin="round"/>
<path d="M45.6492 13.8099H46.576" stroke="#263238" stroke-linecap="round" stroke-linejoin="round"/>
<path d="M42.9141 13.8099L41.0869 15.022" stroke="#263238" stroke-linecap="round" stroke-linejoin="round"/>
<path d="M43.364 13.1782C43.364 13.1782 43.8596 12.5463 44.9831 13.0728" stroke="#263238" stroke-linecap="round" stroke-linejoin="round"/>
<path d="M46.7463 13.1778C46.9132 13.0257 47.1145 12.9303 47.327 12.9025C47.5395 12.8747 47.7546 12.9158 47.9474 13.0209" stroke="#263238" stroke-linecap="round" stroke-linejoin="round"/>
<path d="M44.5484 14.3902C44.5484 14.6223 44.4746 14.8201 44.3725 14.8201C44.2704 14.8201 44.1833 14.6309 44.1833 14.3902C44.1833 14.1495 44.2571 13.9604 44.3611 13.9604C44.4652 13.9604 44.5446 14.156 44.5484 14.3902Z" fill="#263238"/>
<path d="M47.514 14.3363C47.514 14.5684 47.4402 14.7662 47.3381 14.7662C47.2359 14.7662 47.1489 14.577 47.1489 14.3363C47.1489 14.0956 47.2227 13.9065 47.3248 13.9065C47.427 13.9065 47.5083 14.1042 47.514 14.3363Z" fill="#263238"/>
<path d="M44.3404 9.46651C44.3404 9.46651 44.7868 10.5862 44.2326 10.9946C44.0615 11.107 43.8674 11.1662 43.6698 11.1662C43.4722 11.1662 43.2781 11.107 43.1071 10.9946C43.2545 11.2258 43.3367 11.5023 43.3432 11.7877C43.3496 12.0731 43.2798 12.354 43.1431 12.5935C42.8714 13.1078 42.5545 13.5896 42.1973 14.0313C42.1973 14.0313 42.2976 15.3917 42.0895 15.5507C41.8814 15.7098 41.314 15.4712 41.3045 15.0715C41.2951 14.6717 41.0681 13.8723 41.0586 13.4725C41.0492 13.0728 40.8865 12.0326 40.8865 12.0326C40.8865 12.0326 39.4641 11.3126 40.2188 10.4336C40.9735 9.55463 42.5756 8.83466 42.5756 8.83466C42.5756 8.83466 42.6115 7.2357 43.5857 6.75644C44.5598 6.27718 46.6555 5.55722 46.6726 6.3567C46.6992 6.76815 46.6342 7.1806 46.4834 7.55592C46.4834 7.55592 48.2406 7.4764 49.4663 8.84541C50.692 10.2144 50.6504 11.4846 50.0167 11.4846C49.3831 11.4846 49.1769 11.6436 49.1769 11.6436C49.1769 11.6436 50.3893 12.4431 49.7652 12.8428C49.141 13.2426 48.4979 12.7633 48.4979 12.7633C48.4979 12.7633 48.7664 12.2045 47.9758 11.4738C47.1852 10.7431 44.3404 9.46651 44.3404 9.46651Z" fill="#263238" stroke="#263238" stroke-linecap="round" stroke-linejoin="round"/>
<path d="M20.3391 90.2977C25.8057 90.2977 30.2372 89.1623 30.2372 87.7617C30.2372 86.3611 25.8057 85.2257 20.3391 85.2257C14.8725 85.2257 10.4409 86.3611 10.4409 87.7617C10.4409 89.1623 14.8725 90.2977 20.3391 90.2977Z" fill="#263238" stroke="#263238" stroke-linecap="round" stroke-linejoin="round"/>
<path d="M26.8572 35.3076V37.3622L29.4863 38.7312C29.4863 38.7312 29.7606 37.3622 29.5412 34.9336L26.8572 35.3076Z" fill="#999999" stroke="#263238" stroke-linecap="round" stroke-linejoin="round"/>
<path d="M13.8079 84.6109C13.2061 85.1979 12.6375 85.8274 12.1055 86.4957C11.3489 87.465 11.2014 88.43 11.905 88.892C12.6086 89.3541 13.7133 89.2338 14.9182 88.3784C16.123 87.523 16.0739 87.1792 16.7775 86.8955C17.4811 86.6118 17.9332 86.0358 17.9332 85.1246C17.9332 84.2133 15.3702 84.0973 14.8179 84.05C14.2656 84.0027 13.8079 84.6109 13.8079 84.6109Z" fill="white" stroke="#263238" stroke-linecap="round" stroke-linejoin="round"/>
<path d="M17.9275 85.1245C17.9275 85.1245 16.7926 85.6962 16.2422 86.2163C15.6918 86.7364 14.5947 88.6083 13.3123 88.6083C12.6592 88.6089 12.017 88.4187 11.4473 88.0559C11.4481 88.2289 11.4907 88.3984 11.5704 88.5458C11.6501 88.6932 11.7639 88.8129 11.8993 88.8919C12.603 89.3476 13.7076 89.2337 14.9125 88.3783C16.1173 87.5229 16.0682 87.1791 16.7718 86.8954C17.4754 86.6117 17.9275 86.0379 17.9275 85.1245Z" stroke="#263238" stroke-linecap="round" stroke-linejoin="round"/>
<path d="M26.5548 84.6109C27.1566 85.1979 27.7251 85.8274 28.2571 86.4957C29.0137 87.465 29.1612 88.43 28.4576 88.892C27.754 89.3541 26.6494 89.2338 25.4445 88.3784C24.2396 87.523 24.2888 87.1792 23.5851 86.8955C22.8815 86.6118 22.4294 86.0358 22.4294 85.1246C22.4294 84.2133 24.9924 84.0973 25.5447 84.05C26.097 84.0027 26.5548 84.6109 26.5548 84.6109Z" fill="white" stroke="#263238" stroke-linecap="round" stroke-linejoin="round"/>
<path d="M22.4351 85.1245C22.4351 85.1245 23.57 85.6962 24.1204 86.2163C24.6708 86.7364 25.7679 88.6083 27.0503 88.6083C27.7034 88.6089 28.3456 88.4187 28.9153 88.0559C28.9145 88.2289 28.8719 88.3984 28.7922 88.5458C28.7125 88.6932 28.5987 88.8129 28.4632 88.8919C27.7596 89.3476 26.655 89.2337 25.4501 88.3783C24.2452 87.5229 24.2944 87.1791 23.5908 86.8954C22.8871 86.6117 22.4351 86.0379 22.4351 85.1245Z" stroke="#263238" stroke-linecap="round" stroke-linejoin="round"/>
<path d="M12.3518 52.1933C12.3518 52.1933 12.6526 65.0344 12.8039 66.9192C12.9552 68.804 13.4016 73.0829 13.4016 73.3193C13.4016 73.5557 13.6513 83.0227 13.6513 83.0227L13.1992 83.8824L13.3505 85.0816L15.3593 85.5372C16.3637 85.765 17.6707 86.1089 17.8712 85.8811C18.0717 85.6533 18.1227 85.1955 18.223 84.5679C18.3232 83.9404 18.5237 82.7971 18.3232 81.8858C18.1227 80.9746 18.5748 71.2691 18.6259 71.0412C18.6769 70.8134 19.8326 61.4389 19.8326 61.4389C19.8326 61.4389 20.5892 69.1457 21.1378 71.484C21.6863 73.8222 21.4896 77.306 21.6901 78.675C21.8906 80.044 22.2935 84.669 22.3445 85.0107C22.3956 85.3524 22.494 85.8703 22.494 85.8703C22.494 85.8703 25.0059 85.4706 25.4579 85.2406C25.9163 85.0488 26.3867 84.8965 26.8652 84.785C26.8652 84.785 27.0146 81.5312 26.8141 80.2181C26.668 79.2954 26.5839 78.3614 26.5626 77.4242C26.5626 77.0245 26.8141 64.3553 26.8141 64.3553L26.5626 52.0837C26.5626 52.0837 19.7816 52.8831 17.1694 52.3115C14.5573 51.7398 12.4029 51.3981 12.4029 51.3981L12.3518 52.1933Z" fill="#58B0CD" stroke="#263238" stroke-linecap="round" stroke-linejoin="round"/>
<path d="M17.1732 52.3072C14.5611 51.7376 12.4029 51.3981 12.4029 51.3981L12.3518 52.1954C12.3518 52.1954 12.3688 52.9326 12.3972 54.0759C13.5945 54.4563 16.027 55.1247 18.3781 55.1247C20.8635 55.1247 24.8224 54.265 26.6042 53.8545L26.5663 52.0815C26.5663 52.0815 19.7854 52.8788 17.1732 52.3072Z" fill="#263238" stroke="#263238" stroke-linecap="round" stroke-linejoin="round"/>
<path d="M25.8982 81.226C25.9299 81.6193 25.9505 81.8449 25.9505 81.8449" stroke="#263238" stroke-linecap="round" stroke-linejoin="round"/>
<path d="M25.1282 55.2063C25.1282 55.2063 25.3173 66.2357 25.3173 70.3986C25.3173 73.2785 25.6237 77.6498 25.8129 80.0698" stroke="#263238" stroke-linecap="round" stroke-linejoin="round"/>
<path d="M14.9617 54.5832L15.4194 66.5497" stroke="#263238" stroke-linecap="round" stroke-linejoin="round"/>
<path d="M15.3267 67.4844V69.4616" stroke="#263238" stroke-linecap="round" stroke-linejoin="round"/>
<path d="M17.7083 22.0495C17.461 22.051 17.2175 22.1194 16.9981 22.2491C16.7787 22.3788 16.5897 22.566 16.4467 22.7952C16.1339 23.2642 15.7858 23.7014 15.4063 24.1019L10.9141 26.8421L11.3529 46.3262L11.5174 52.9885C11.5174 52.9885 14.9675 54.2952 18.2549 54.2952C21.5423 54.2952 27.4041 52.7908 27.4041 52.7908C27.4041 52.7908 26.9123 26.8335 27.0768 26.8335C27.2414 26.8335 23.8443 23.4808 22.3103 22.5996C20.7763 21.7185 17.7083 22.0495 17.7083 22.0495Z" fill="#58B0CD" stroke="#263238" stroke-linecap="round" stroke-linejoin="round"/>
<path d="M16.4277 24.4048C16.4277 24.4048 18.1679 28.0476 18.9018 29.7131C19.6357 31.3787 21.0051 33.775 21.0051 33.775L23.2957 26.8032" stroke="#263238" stroke-linecap="round" stroke-linejoin="round"/>
<path d="M17.7137 47.5103L17.6248 44.6025L12.4553 44.2607C12.4553 44.2607 12.5064 48.5418 12.6066 48.774" stroke="#263238" stroke-linecap="round" stroke-linejoin="round"/>
<path d="M17.7754 49.569L17.7515 48.7523" stroke="#263238" stroke-linecap="round" stroke-linejoin="round"/>
<path d="M23.9045 49.1114L23.7532 44.3188C23.7532 44.3188 25.5614 44.4886 27.069 43.3474" stroke="#263238" stroke-linecap="round" stroke-linejoin="round"/>
<path d="M16.1535 32.8983C16.3124 33.4678 16.7966 33.8031 17.2335 33.644C17.6705 33.485 17.8918 32.894 17.731 32.3244C17.5702 31.7549 17.0879 31.4197 16.6509 31.5787C16.214 31.7377 15.9927 32.3287 16.1535 32.8983Z" stroke="#263238" stroke-linecap="round" stroke-linejoin="round"/>
<path d="M16.2046 22.9263C16.2046 22.9263 15.6239 25.4623 16.9441 32.346" stroke="#263238" stroke-width="2" stroke-linecap="round" stroke-linejoin="round"/>
<path d="M17.351 32.5824C17.312 32.6715 17.2514 32.7461 17.1763 32.7973C17.1012 32.8485 17.0147 32.8741 16.9271 32.8711C16.8396 32.8681 16.7546 32.8367 16.6823 32.7804C16.61 32.7242 16.5535 32.6456 16.5193 32.5539C16.4852 32.4623 16.4749 32.3614 16.4898 32.2633C16.5046 32.1652 16.5439 32.074 16.6029 32.0005C16.662 31.927 16.7384 31.8743 16.8231 31.8487C16.9077 31.8231 16.9971 31.8256 17.0805 31.856C17.2006 31.9122 17.2964 32.02 17.3471 32.156C17.3977 32.292 17.3991 32.4452 17.351 32.5824Z" stroke="#263238" stroke-linecap="round" stroke-linejoin="round"/>
<path d="M26.857 26.4679C26.857 26.4679 27.6779 27.1535 27.7327 27.4028C27.7876 27.6521 30.5813 35.245 30.5813 35.245L26.5278 35.9242L26.5827 31.4411" fill="#58B0CD"/>
<path d="M26.857 26.4679C26.857 26.4679 27.6779 27.1535 27.7327 27.4028C27.7876 27.6521 30.5813 35.245 30.5813 35.245L26.5278 35.9242L26.5827 31.4411" stroke="#263238" stroke-linecap="round" stroke-linejoin="round"/>
<path d="M11.4624 26.5926C11.4624 26.5926 10.5299 26.7172 10.3105 27.5253C10.0911 28.3334 8.50415 36.5517 8.50415 36.5517L14.311 35.9242L13.7625 29.7604" fill="#58B0CD"/>
<path d="M11.4624 26.5926C11.4624 26.5926 10.5299 26.7172 10.3105 27.5253C10.0911 28.3334 8.50415 36.5517 8.50415 36.5517L14.311 35.9242L13.7625 29.7604" stroke="#263238" stroke-linecap="round" stroke-linejoin="round"/>
<path d="M22.679 22.5394C22.679 22.5394 24.1184 23.4722 24.2602 25.7932C24.4021 28.1143 24.2602 28.7032 24.2602 28.7032" stroke="#263238" stroke-width="2" stroke-linecap="round" stroke-linejoin="round"/>
<path d="M24.9111 31.6753C24.9111 31.6753 24.7824 34.4197 24.5195 35.2128C24.2566 36.0058 23.2163 36.945 22.3916 37.0954" stroke="#263238" stroke-linecap="round" stroke-linejoin="round"/>
<path d="M23.0481 31.3789C23.0481 31.3789 22.9327 34.5446 22.9213 35.1334C22.91 35.7223 23.432 36.7474 24.1811 37.7296" stroke="#263238" stroke-linecap="round" stroke-linejoin="round"/>
<path d="M24.3956 38.0744L24.4177 38.0541C24.5207 37.9591 24.5365 37.7872 24.4529 37.6701L24.3469 37.5216C24.2633 37.4045 24.1121 37.3866 24.009 37.4815L23.987 37.5018C23.8839 37.5968 23.8682 37.7686 23.9517 37.8857L24.0577 38.0343C24.1413 38.1514 24.2926 38.1693 24.3956 38.0744Z" fill="#263238"/>
<path d="M22.0953 37.1959L22.1005 37.2275C22.1252 37.3756 22.2509 37.473 22.3813 37.4449L22.5467 37.4093C22.677 37.3812 22.7627 37.2384 22.738 37.0903L22.7327 37.0586C22.708 36.9105 22.5823 36.8132 22.452 36.8413L22.2866 36.8769C22.1562 36.9049 22.0706 37.0478 22.0953 37.1959Z" fill="#263238"/>
<path d="M24.9394 31.8838L24.8845 29.5778C24.8794 29.3373 24.7956 29.1075 24.6494 28.9335C24.5032 28.7594 24.3051 28.6535 24.0939 28.6365C23.8695 28.6175 23.6477 28.7002 23.4769 28.8665C23.306 29.0329 23.2001 29.2693 23.1822 29.5241L23.012 31.8624" stroke="#263238" stroke-width="2" stroke-linecap="round" stroke-linejoin="round"/>
<path d="M29.6509 37.1749L28.3438 36.8633L23.7418 35.9929L17.2881 34.5959L15.7579 33.8287C15.7579 33.8287 14.3109 31.6795 14.1861 31.4646C14.0612 31.2497 12.4251 31.9997 12.4837 32.2856C12.5424 32.5714 12.7353 35.4276 12.862 35.6082C12.9887 35.7887 14.4017 35.7865 14.4017 35.7865C14.4017 35.7865 21.1429 39.4831 21.4229 39.6185C25.3137 41.4818 27.19 41.4646 27.8539 41.5871C28.5179 41.7096 28.951 41.4044 29.3331 40.9058C29.7152 40.4072 29.6509 37.1749 29.6509 37.1749Z" fill="#999999" stroke="#263238" stroke-linecap="round" stroke-linejoin="round"/>
<path d="M13.9895 31.4347C13.9895 31.4347 13.2045 31.4713 12.0412 32.3632C11.6081 32.6963 11.3811 32.9348 11.3811 33.0788C11.4059 33.2501 11.4484 33.4175 11.5078 33.5774C12.262 33.1648 13.0518 32.8421 13.8646 32.6146" fill="#999999"/>
<path d="M13.9895 31.4347C13.9895 31.4347 13.2045 31.4713 12.0412 32.3632C11.6081 32.6963 11.3811 32.9348 11.3811 33.0788C11.4059 33.2501 11.4484 33.4175 11.5078 33.5774C12.262 33.1648 13.0518 32.8421 13.8646 32.6146" stroke="#263238" stroke-linecap="round" stroke-linejoin="round"/>
<path d="M14.3033 33.7213C14.3033 33.7213 12.1678 34.3273 11.8216 34.4004C11.4755 34.4735 11.4131 34.078 11.4131 33.9362C11.4131 33.7944 11.5077 33.5773 11.8841 33.3645C12.2605 33.1518 14.1539 32.5779 14.1539 32.5779" fill="#999999"/>
<path d="M14.3033 33.7213C14.3033 33.7213 12.1678 34.3273 11.8216 34.4004C11.4755 34.4735 11.4131 34.078 11.4131 33.9362C11.4131 33.7944 11.5077 33.5773 11.8841 33.3645C12.2605 33.1518 14.1539 32.5779 14.1539 32.5779" stroke="#263238" stroke-linecap="round" stroke-linejoin="round"/>
<path d="M14.5248 34.8281C14.5248 34.8281 12.0413 35.1139 11.8521 34.9355C11.7943 34.864 11.7504 34.7793 11.7233 34.687C11.6962 34.5948 11.6866 34.4971 11.6951 34.4004L13.9271 33.8631" fill="#999999"/>
<path d="M14.5248 34.8281C14.5248 34.8281 12.0413 35.1139 11.8521 34.9355C11.7943 34.864 11.7504 34.7793 11.7233 34.687C11.6962 34.5948 11.6866 34.4971 11.6951 34.4004L13.9271 33.8631" stroke="#263238" stroke-linecap="round" stroke-linejoin="round"/>
<path d="M13.8323 34.97L11.9163 35.0774C11.9163 35.0774 12.0089 35.3998 12.1054 35.4342C12.5593 35.5616 13.0218 35.6457 13.4881 35.6856C13.7938 35.6971 14.0985 35.733 14.3998 35.7931" fill="#999999"/>
<path d="M13.8323 34.97L11.9163 35.0774C11.9163 35.0774 12.0089 35.3998 12.1054 35.4342C12.5593 35.5616 13.0218 35.6457 13.4881 35.6856C13.7938 35.6971 14.0985 35.733 14.3998 35.7931" stroke="#263238" stroke-linecap="round" stroke-linejoin="round"/>
<path d="M9.70898 36.427C9.70898 36.427 10.5847 40.7253 10.8042 41.0347C11.0236 41.3442 12.8318 41.0347 14.6401 40.4115C16.4484 39.7882 24.1183 36.0552 24.1183 36.0552L25.2135 36.3023C25.2135 36.3023 24.7747 34.7464 24.0086 34.684C23.2426 34.6217 14.311 35.9241 14.311 35.9241L9.70898 36.427Z" fill="#999999" stroke="#263238" stroke-linecap="round" stroke-linejoin="round"/>
<path d="M17.3735 19.3091C17.3735 19.3091 17.3735 19.4016 17.3735 19.5584C17.3906 20.3773 17.4605 22.9777 17.644 23.6053C17.8634 24.351 20.8217 30.6394 21.0487 30.1408C21.2757 29.6422 22.6375 22.8574 22.6375 22.8574V20.1817C22.6375 20.1817 21.9245 20.8651 20.6099 20.8651C19.2953 20.8651 17.3735 19.3091 17.3735 19.3091Z" fill="#999999" stroke="#263238" stroke-linecap="round" stroke-linejoin="round"/>
<path d="M21.7618 22.9971C22.0685 22.7842 22.3618 22.5472 22.6394 22.2879V20.1817C22.6394 20.1817 21.9263 20.8651 20.6118 20.8651C19.2972 20.8651 17.3735 19.3091 17.3735 19.3091C17.3735 19.3091 17.3735 19.4016 17.3735 19.5584C17.3735 19.8464 17.3925 20.3558 17.4151 20.9231C17.467 21.0176 17.5252 21.1074 17.5892 21.1918C17.9675 21.6882 19.7795 22.9347 20.2183 23.0594C20.6572 23.184 21.2681 23.3066 21.7618 22.9971Z" fill="#263238" stroke="#263238" stroke-linecap="round" stroke-linejoin="round"/>
<path d="M23.9541 15.6985C23.9541 15.6985 24.8299 15.1376 24.8299 16.1971C24.8299 17.2567 24.009 18.501 24.009 18.501L23.9541 15.6985Z" fill="#999999" stroke="#263238" stroke-linecap="round" stroke-linejoin="round"/>
<path d="M16.1194 15.761C16.1194 15.761 14.9126 15.3871 14.9126 16.6336C14.9126 17.8801 16.0097 18.686 16.0097 18.686H16.7663C16.7663 18.686 17.2051 19.9325 17.5891 20.429C17.973 20.9254 19.7794 22.1719 20.2182 22.2966C20.657 22.4212 21.2585 22.5459 21.7522 22.2343C22.3725 21.7949 22.944 21.2725 23.4546 20.6783C23.674 20.3688 24.0579 18.2519 24.0579 18.2519C24.0579 18.2519 24.1676 14.4544 23.9482 13.1477C23.7288 11.841 22.3045 9.78642 20.3317 9.53712C18.3589 9.28782 16.4958 11.0931 16.2234 12.5244C15.951 13.9558 16.1194 15.761 16.1194 15.761Z" fill="#999999" stroke="#263238" stroke-linecap="round" stroke-linejoin="round"/>
<path d="M19.6791 16.7583C19.6791 16.7583 19.3008 17.6287 19.9534 17.878C20.606 18.1273 21.4325 18.065 21.5971 17.691C21.7617 17.3171 21.4874 16.8829 21.4874 16.8829" stroke="#263238" stroke-linecap="round" stroke-linejoin="round"/>
<path d="M19.0227 18.3143C19.0227 18.3143 20.3921 19.621 22.2553 18.3766" stroke="#263238" stroke-linecap="round" stroke-linejoin="round"/>
<path d="M19.7891 19.4962C19.7891 19.4962 20.941 20.2441 21.707 19.3716" stroke="#263238" stroke-linecap="round" stroke-linejoin="round"/>
<path d="M19.1324 16.0104C19.2839 16.0104 19.4067 15.7872 19.4067 15.5118C19.4067 15.2365 19.2839 15.0132 19.1324 15.0132C18.9809 15.0132 18.8582 15.2365 18.8582 15.5118C18.8582 15.7872 18.9809 16.0104 19.1324 16.0104Z" fill="#263238"/>
<path d="M22.0908 15.4492C22.0908 15.7243 21.9678 15.9478 21.8165 15.9478C21.6652 15.9478 21.5422 15.7329 21.5422 15.4492C21.5422 15.1655 21.6652 14.9527 21.8165 14.9527C21.9678 14.9527 22.0908 15.1741 22.0908 15.4492Z" fill="#263238"/>
<path d="M18.3645 14.8281C18.3645 14.8281 18.6388 14.3295 19.6885 14.5165" stroke="#263238" stroke-linecap="round" stroke-linejoin="round"/>
<path d="M21.3774 14.5789C21.3774 14.5789 21.8711 13.7063 22.6391 14.5789" stroke="#263238" stroke-linecap="round" stroke-linejoin="round"/>
<path d="M23.9537 13.1433C23.8825 12.7736 23.7592 12.4194 23.5886 12.0945C23.5248 12.439 23.5025 12.7919 23.5224 13.1433C23.6019 13.5989 23.8837 14.235 23.8837 14.5531C23.8837 14.8712 23.8421 16.1456 24.0426 15.9651C24.0624 15.9412 24.0785 15.9136 24.0899 15.8834C24.1024 14.9675 24.0569 14.0517 23.9537 13.1433Z" fill="#263238" stroke="#263238" stroke-linecap="round" stroke-linejoin="round"/>
<path d="M21.2 10.5644C21.5518 10.5432 21.9019 10.4951 22.2479 10.4204C21.6891 9.94506 21.0304 9.64424 20.3375 9.54785C18.3647 9.29855 16.5016 11.1038 16.2292 12.5352C15.9568 13.9665 16.1195 15.7718 16.1195 15.7718C16.1195 15.7718 16.5545 16.1156 16.7153 15.7524C16.8761 15.3892 16.7153 14.7961 16.8761 14.1599C17.0369 13.5238 17.2752 13.2035 17.3149 12.7028C17.3546 12.202 17.0747 11.4756 17.2355 11.0651C17.3962 10.6547 18.3968 9.88312 19.038 10.1561C19.7279 10.4529 20.4627 10.5917 21.2 10.5644Z" fill="#263238" stroke="#263238" stroke-linecap="round" stroke-linejoin="round"/>
</svg>
