<svg width="109" height="107" viewBox="0 0 109 107" fill="none" xmlns="http://www.w3.org/2000/svg">
<path d="M11.2916 95.5178H20.4653L19.5465 105.862H12.2103L11.2916 95.5178Z" fill="#263238" stroke="#263238" stroke-miterlimit="10"/>
<path d="M15.71 97.2744C15.71 97.2744 11.8057 81.676 7.09961 70.4579" stroke="#263238" stroke-linecap="round" stroke-linejoin="round"/>
<path d="M8.19388 73.017C8.19388 73.017 8.71289 68.7775 7.47149 66.912C6.23008 65.0464 4.7923 64.353 4.7923 64.353C4.7923 64.353 4.48604 69.1329 5.00504 70.6826C5.52405 72.2323 8.19388 73.0146 8.19388 73.0146V73.017Z" fill="#58B0CD"/>
<path d="M8.27135 73.2941C8.27135 73.2941 9.29065 72.84 9.62964 70.4315C9.96863 68.0206 9.15973 64.2795 9.15973 64.2795C9.15973 64.2795 8.11003 67.1643 7.80143 69.0496C7.49284 70.9349 8.27135 73.2941 8.27135 73.2941Z" fill="#58B0CD"/>
<path d="M8.27124 73.2931C8.27124 73.2931 6.77267 70.6206 4.89537 70.0258C3.01572 69.4311 -0.000120163 69.2164 -0.000120163 69.2164C-0.000120163 69.2164 1.03087 71.462 3.56979 72.3652C6.10871 73.2709 8.27124 73.2931 8.27124 73.2931Z" fill="#58B0CD"/>
<path d="M10.4826 79.3074C10.4826 79.3074 10.015 78.8805 11.011 76.8446C12.0069 74.8112 13.2366 73.9771 13.2366 73.9771C13.2366 73.9771 13.8445 77.047 12.9514 78.4313C12.0583 79.8157 11.3219 80.6843 11.3219 80.6843C11.3219 80.6843 14.0455 79.6948 14.4827 79.5936C14.9222 79.4924 16.7948 79.2333 16.7948 79.2333C16.7948 79.2333 16.9866 80.102 15.1911 81.0915C13.3956 82.0811 11.4178 82.0712 11.4178 82.0712C11.4178 82.0712 11.0928 82.3106 10.3774 82.851C9.66202 83.3914 7.62575 84.2995 7.62575 84.2995C7.62575 84.2995 7.44573 83.2335 8.15644 82.7597C8.86715 82.2834 9.44226 81.9972 9.44226 81.9972C9.44226 81.9972 7.64913 81.9996 7.29144 81.7775C6.93374 81.5554 5.16398 80.2451 5.16398 80.2451C5.16398 80.2451 6.95244 80.3068 7.38495 80.3389C7.81511 80.3685 9.27161 80.8028 9.27161 80.8028C9.27161 80.8028 6.90802 80.0427 6.37733 78.688C5.84663 77.3332 5.81624 75.8847 5.81624 75.8847C5.81624 75.8847 8.8391 76.9556 10.4826 79.3098V79.3074Z" fill="#58B0CD"/>
<path d="M12.4351 85.4986C12.4351 85.4986 9.81665 84.8521 8.6711 85.3604C7.52555 85.8688 6.06906 88.3315 6.06906 88.3315C6.06906 88.3315 8.11936 89.136 9.77457 88.3982C11.4298 87.6603 12.4351 85.4962 12.4351 85.4962V85.4986Z" fill="#58B0CD"/>
<path d="M12.4347 85.4986C12.4347 85.4986 13.5826 84.0007 15.1373 83.8501C16.692 83.6971 17.8422 84.1092 17.8422 84.1092C17.8422 84.1092 17.8866 85.3628 15.8644 86.0069C13.8445 86.651 12.4347 85.4986 12.4347 85.4986Z" fill="#58B0CD"/>
<path d="M13.2292 88.5144C13.2292 88.5144 11.9247 88.618 11.1976 89.3559C10.4706 90.0937 9.30396 93.8249 9.30396 93.8249C9.30396 93.8249 11.6442 93.0056 13.082 91.7915C14.5197 90.5774 13.2316 88.5119 13.2316 88.5119L13.2292 88.5144Z" fill="#58B0CD"/>
<path d="M13.2297 88.513C13.2297 88.513 14.8569 87.2471 16.0048 87.6592C17.1527 88.0713 17.6857 89.4236 17.6787 90.4773C17.674 91.5286 17.6833 92.3207 17.6833 92.3207C17.6833 92.3207 15.7476 91.6569 15.2192 91.2226C14.6909 90.7907 13.2297 88.5155 13.2297 88.5155V88.513Z" fill="#58B0CD"/>
<path d="M17.0472 98.7449C17.0472 98.7449 19.0251 80.331 22.623 71.7878" stroke="#263238" stroke-miterlimit="10"/>
<path d="M22.9339 70.974C22.9339 70.974 23.6119 70.1128 22.7983 67.9634C21.9824 65.8141 21.1688 64.595 21.1688 64.595C21.1688 64.595 20.0139 66.9615 19.9461 68.3928C19.8783 69.8265 21.3722 71.5465 21.3722 71.5465C21.3722 71.5465 20.8298 70.974 19.8105 70.7569C18.7912 70.5422 17.3651 70.6853 17.3651 70.6853C17.3651 70.6853 17.9753 71.8328 18.6556 72.1906C19.3336 72.5484 21.2366 72.9803 21.5078 72.9062C21.779 72.8347 21.6434 73.0494 22.9339 74.34C24.2244 75.6306 25.038 76.2746 25.038 76.2746C25.038 76.2746 25.5125 73.9797 25.1058 72.8347C24.699 71.6872 22.9315 70.9716 22.9315 70.9716L22.9339 70.974Z" fill="#58B0CD"/>
<path d="M22.1882 71.0455C22.1882 71.0455 22.7984 70.1127 23.3431 69.6117C23.8855 69.1108 24.9048 68.9677 25.3115 68.8961C25.7183 68.8245 25.7861 70.3298 25.0404 71.3342C24.2946 72.3385 21.5102 72.911 21.5102 72.911L22.1882 71.0479V71.0455Z" fill="#58B0CD"/>
<path d="M21.2367 75.7758C21.2367 75.7758 21.7791 75.1317 20.2852 74.0558C18.7913 72.9799 17.433 72.9083 17.433 72.9083C17.433 72.9083 17.8398 75.6327 18.5202 76.4198C19.2005 77.207 20.353 77.0639 20.353 77.0639C20.353 77.0639 18.7235 77.1355 18.0432 77.4933C17.3652 77.8511 15.8012 80.1461 15.8012 80.1461C15.8012 80.1461 15.8012 80.2176 17.2951 80.2176C18.789 80.2176 20.0117 78.927 20.0117 78.927C20.0117 78.927 19.7405 79.7883 19.6727 80.4323C19.6049 81.0764 20.8954 82.6533 21.031 82.8704C21.1666 83.0851 22.3215 81.2936 22.4571 80.5039C22.5927 79.7142 22.4571 79.1417 22.4571 79.1417C22.4571 79.1417 22.9317 79.3564 23.5442 80.1461C24.1544 80.9357 24.5635 82.1523 24.5635 82.1523C24.5635 82.1523 25.9218 79.8574 25.5828 78.4261C25.2438 76.9924 22.2561 77.0639 22.2561 77.0639C22.2561 77.0639 23.6822 76.8492 24.3601 76.563C25.0381 76.2767 25.6506 75.6302 25.6506 75.2724C25.6506 74.9146 25.3116 74.7714 23.8855 74.9146C22.4594 75.0577 21.2367 75.7758 21.2367 75.7758Z" fill="#58B0CD"/>
<path d="M19.2687 83.7317C19.2687 83.7317 21.2372 82.4411 22.2565 82.5842C23.2758 82.7273 24.1572 83.0851 24.4985 83.0851C24.8398 83.0851 23.8205 85.306 22.5978 85.3801C21.3751 85.4516 19.2032 84.8791 19.2032 84.8791C19.2032 84.8791 20.4259 85.6688 20.9005 86.5276C21.3751 87.3888 21.5785 89.0372 21.5785 89.0372C21.5785 89.0372 19.8134 89.1088 19.0653 88.3931C18.3172 87.6775 18.5907 85.0247 18.5907 85.0247C18.5907 85.0247 18.1839 84.6669 17.5714 84.5954C16.9612 84.5238 15.8203 85.1777 15.8203 85.1777C15.8203 85.1777 14.3802 83.0901 16.7555 81.9426C19.1331 80.7951 19.2687 83.7341 19.2687 83.7341V83.7317Z" fill="#58B0CD"/>
<path d="M18.1812 90.7572C18.1812 90.7572 19.5395 89.9675 20.3554 90.6856C21.1713 91.4012 22.2561 93.8393 22.2561 93.8393C22.2561 93.8393 20.6266 94.1256 19.5395 93.4815C18.4524 92.8374 18.1812 90.7572 18.1812 90.7572Z" fill="#58B0CD"/>
<path d="M18.182 90.7572C18.182 90.7572 17.9108 89.5382 16.5525 89.1804C15.1942 88.8226 13.2257 90.1132 13.2257 90.1132C13.2257 90.1132 13.8359 90.7572 15.3999 91.2606C16.9616 91.7616 18.1843 90.7597 18.1843 90.7597L18.182 90.7572Z" fill="#58B0CD"/>
<path d="M22.3922 95.1974H23.8323V105.693H22.3922V95.1974Z" fill="white" stroke="#263238" stroke-linecap="round" stroke-linejoin="round"/>
<path d="M8.53986 95.1974H9.97998V105.693H8.53986V95.1974Z" fill="white" stroke="#263238" stroke-linecap="round" stroke-linejoin="round"/>
<path d="M7.91852 94.9552H24.2087V97.1194H7.91852V94.9552Z" fill="white" stroke="#263238" stroke-linecap="round" stroke-linejoin="round"/>
<path d="M7.91852 97.9137H24.2087V100.078H7.91852V97.9137Z" fill="white" stroke="#263238" stroke-linecap="round" stroke-linejoin="round"/>
<path d="M7.91852 100.875H24.2087V103.039H7.91852V100.875Z" fill="white" stroke="#263238" stroke-linecap="round" stroke-linejoin="round"/>
<path d="M7.91852 103.836H24.2087V106H7.91852V103.836Z" fill="white" stroke="#263238" stroke-linecap="round" stroke-linejoin="round"/>
<path d="M56.5171 15.7148C56.5171 15.7148 57.0197 13.5556 60.26 13.4347C63.5003 13.3113 63.5377 14.6512 64.3934 15.0782C64.8305 15.2953 65.747 16.5711 65.6511 17.2571L63.7715 16.3268C63.7715 16.3268 68.0568 19.066 68.1737 23.5868C68.2906 28.1076 66.5512 31.8462 63.0771 31.8462C59.6031 31.8462 58.0601 30.7456 58.0998 28.1002C58.1372 25.4524 58.6399 20.8921 57.8684 18.2837C57.0969 15.6778 56.5171 15.7173 56.5171 15.7173V15.7148Z" fill="#263238" stroke="#263238" stroke-miterlimit="10"/>
<path d="M46.2383 45.9069L44.9689 48.5375C44.9689 48.5375 43.0635 50.3414 42.5749 51.5801C42.0863 52.8165 40.195 56.1873 39.4983 56.4267C39.2668 56.5057 38.2779 56.6833 37.9342 56.787C37.5929 56.8906 37.2492 57.2509 37.0061 57.3027C36.763 57.3546 36.3211 57.4582 36.0289 57.3027C35.7366 57.1473 35.4421 57.4064 35.5403 57.7148C35.6385 58.0233 36.6648 58.2306 36.6648 58.2306L38.1306 57.9221C38.1306 57.9221 36.9103 58.7982 37.1043 59.2621C37.3007 59.726 40.0851 60.1899 40.3282 60.1899C40.5713 60.1899 40.901 59.8296 41.6818 59.2127C42.4627 58.5933 42.6637 57.2953 42.6637 57.2953C42.6637 57.2953 47.0683 53.1274 47.8024 52.0959C48.5341 51.0644 49.4155 48.6929 49.4155 48.5375C49.4155 48.382 49.8059 47.2493 49.8059 47.2493L46.2407 45.9094L46.2383 45.9069Z" fill="white" stroke="#263238" stroke-miterlimit="10"/>
<path d="M38.1884 58.6332C38.1884 58.6332 38.0388 59.5043 37.8517 59.6623C37.6647 59.8202 37.1387 59.5339 37.1013 59.2625C37.0639 58.991 37.4753 58.3963 37.7395 58.2384C38.0013 58.0805 38.3029 58.1989 38.1884 58.6332Z" stroke="#263238" stroke-miterlimit="10"/>
<path d="M38.1885 58.634C38.1885 58.634 38.6233 58.5131 38.794 58.7154C38.9647 58.9178 38.6233 60.0455 38.4948 60.1368C38.3662 60.2281 37.8542 60.0924 37.8121 59.9789C37.77 59.8654 37.8402 59.1843 38.1885 58.634Z" fill="white" stroke="#263238" stroke-miterlimit="10"/>
<path d="M38.9441 59.1668C38.9441 59.1668 39.3509 58.5572 39.5006 59.0088C39.6502 59.4604 39.5637 60.2032 39.4795 60.3389C39.393 60.4746 38.9886 60.5191 38.9231 60.2723C38.86 60.023 38.9231 59.4826 38.9441 59.1668Z" fill="white" stroke="#263238" stroke-miterlimit="10"/>
<path d="M39.6283 59.3705C39.6283 59.3705 39.9276 58.83 40.1613 59.2125C40.3975 59.595 40.332 60.2736 40.2245 60.4316C40.1169 60.5895 39.8177 60.5451 39.7335 60.3181C39.647 60.0935 39.626 59.3705 39.626 59.3705H39.6283Z" fill="white" stroke="#263238" stroke-miterlimit="10"/>
<path d="M71.1543 44.9427L71.4348 48.1112C71.4348 48.1112 71.9982 49.3993 72.232 50.833C72.4658 52.2668 72.4658 59.6452 72.4658 61.1308C72.4658 62.6163 72.5593 64.7459 72.419 65.5874C72.2788 66.4289 71.7621 67.4184 71.6218 67.6677C71.4816 67.9145 70.6843 68.1143 70.4015 68.0625C70.1186 68.0107 69.4172 67.3691 69.4172 67.3691C69.4172 67.3691 69.464 67.0236 69.7913 67.0236C70.1186 67.0236 70.3547 66.8756 70.4482 66.7275C70.5417 66.5794 70.2144 65.2913 70.2144 65.2913C70.2144 65.2913 69.9807 66.4289 69.7913 66.2808C69.6043 66.1328 69.3681 66.3302 69.3681 65.7355C69.3681 65.1408 69.4616 64.4967 69.4616 64.4967C69.4616 64.4967 69.3214 63.8526 69.4616 62.9618C69.6019 62.0709 70.2589 61.3282 70.2589 60.7828C70.2589 60.2374 68.4307 54.7419 67.8672 52.5654C67.3038 50.3864 67.2103 48.4567 67.2103 48.4567L66.8362 45.9322L71.1519 44.9427H71.1543Z" fill="white" stroke="#263238" stroke-miterlimit="10"/>
<path d="M59.4045 24.2261C59.4045 24.2261 58.9042 26.869 59.5167 28.2805C60.1293 29.6896 63.0235 31.3059 63.5799 31.6884C64.1364 32.0709 67.7554 32.863 69.2025 35.3604C70.6496 37.8577 71.4983 45.0387 71.4983 45.4532L66.1516 46.8327C66.1516 46.8327 66.2381 49.7372 66.2381 50.7341C66.2381 51.7311 67.7858 54.9983 68.4731 60.8986C69.1604 66.7964 66.2381 80.8622 66.2381 80.8622C66.2381 80.8622 66.4953 84.9463 66.6683 87.5768C66.8413 90.2074 66.2381 100.917 66.2381 100.917C66.2381 100.917 66.6683 102.731 67.1849 103.185C67.7016 103.639 69.4199 104.727 69.5064 105.181C69.5929 105.635 69.2493 105.727 68.8191 105.907C68.3889 106.09 62.3713 105.907 62.3713 105.907C62.3713 105.907 61.6839 105.453 61.7704 103.819C61.8569 102.186 61.8569 101.369 61.8569 101.369C61.8569 101.369 61.5133 99.9178 61.3403 99.1898C61.1673 98.4643 61.2538 97.1935 61.1673 96.1052C61.0808 95.0169 59.9633 80.5883 59.9633 79.3175C59.9633 78.0466 58.3291 63.4378 58.3291 63.4378L57.2981 79.046C57.2981 79.046 56.6973 99.7697 56.4378 100.406C56.1806 101.041 55.8369 101.495 55.8369 101.495L56.0099 102.403L55.8369 103.945C55.8369 103.945 56.2671 105.941 55.8369 105.941H50.5931C50.5931 105.941 49.7328 105.125 50.0765 104.308C50.4201 103.491 50.8503 102.674 50.8503 102.674L51.4511 100.86C51.4511 100.86 50.9344 99.7722 50.9344 99.2268V96.5963C50.9344 95.3254 49.9035 77.141 49.9035 77.141C49.9035 77.141 48.9566 68.884 48.6995 62.9838C48.4423 57.0835 49.8169 53.0019 50.3336 51.7311C50.8503 50.4602 51.0209 49.1893 51.0209 49.1893L50.8479 46.3762L50.0741 47.7383L44.3136 45.742L47.4955 36.3943C47.4955 36.3943 49.3003 33.6725 50.2471 32.8556C51.194 32.0388 53.5926 31.4589 54.3734 30.8938C54.979 30.457 55.36 27.4687 55.36 27.4687L59.4069 24.2236L59.4045 24.2261Z" fill="#58B0CD" stroke="#263238" stroke-miterlimit="10"/>
<path d="M50.0718 47.7383L44.3113 45.742L47.4931 36.3943C47.4931 36.3943 49.2979 33.6725 50.2448 32.8556C51.1916 32.0388 53.5903 31.4589 54.3711 30.8938C54.9766 30.457 55.3577 27.4687 55.3577 27.4687L59.4045 24.2236C59.4045 24.2236 58.9042 26.8665 59.5167 28.2781C60.1293 29.6871 63.0235 31.3035 63.5799 31.686C64.1364 32.0684 67.7554 32.8606 69.2025 35.3579C70.6496 37.8552 71.4983 45.0362 71.4983 45.4508L66.1516 46.8302C66.1516 46.8302 66.2381 49.7347 66.2381 50.7316C66.2381 51.5435 67.2597 53.8533 68.0125 57.8608C65.7822 58.6011 61.9551 59.6055 57.9761 59.455C53.955 59.3044 50.6492 58.7591 48.821 58.3938C49.1577 54.981 49.9642 52.6367 50.3336 51.7286C50.8503 50.4577 51.0209 49.1869 51.0209 49.1869L50.8479 46.3737L50.0741 47.7359L50.0718 47.7383Z" fill="#58B0CD" stroke="#263238" stroke-miterlimit="10"/>
<path d="M53.7208 47.319L57.7466 50.0656" stroke="#263238" stroke-miterlimit="10"/>
<path d="M52.1946 46.2802L53.0222 46.8428" stroke="#263238" stroke-miterlimit="10"/>
<path d="M53.4666 48.3557L55.6665 49.6981" stroke="#263238" stroke-miterlimit="10"/>
<path d="M57.0525 33.9412C57.0525 33.9412 56.3581 36.3842 56.3581 39.0715" stroke="#263238" stroke-miterlimit="10"/>
<path d="M56.1078 34.1934C56.1078 34.3316 56.213 34.4426 56.344 34.4426C56.4749 34.4426 56.5801 34.3316 56.5801 34.1934C56.5801 34.0552 56.4749 33.9442 56.344 33.9442C56.213 33.9442 56.1078 34.0552 56.1078 34.1934Z" stroke="#263238" stroke-miterlimit="10"/>
<path d="M55.7067 36.0985C55.7067 36.2367 55.8119 36.3477 55.9428 36.3477C56.0737 36.3477 56.179 36.2367 56.179 36.0985C56.179 35.9603 56.0737 35.8493 55.9428 35.8493C55.8119 35.8493 55.7067 35.9603 55.7067 36.0985Z" stroke="#263238" stroke-miterlimit="10"/>
<path d="M55.5429 38.255C55.4125 38.255 55.3068 38.1434 55.3068 38.0058C55.3068 37.8681 55.4125 37.7566 55.5429 37.7566C55.6733 37.7566 55.7791 37.8681 55.7791 38.0058C55.7791 38.1434 55.6733 38.255 55.5429 38.255Z" stroke="#263238" stroke-miterlimit="10"/>
<path d="M58.8695 32.8902C56.8893 34.013 54.7642 33.0086 53.469 31.3479C53.8431 31.1924 54.1634 31.0419 54.3691 30.8938C54.9746 30.457 55.3557 27.4687 55.3557 27.4687L59.4025 24.2236C59.4025 24.2236 58.9022 26.8665 59.5147 28.2781C59.7906 28.9123 60.5294 29.5884 61.3079 30.1757C61.0016 30.9555 60.3283 32.0635 58.8695 32.8902Z" fill="white" stroke="#263238" stroke-miterlimit="10"/>
<path d="M57.2695 28.6903C57.2695 28.6903 56.2666 29.8822 55.8481 30.4102C55.4296 30.9408 54.761 31.2937 54.761 31.2937L54.5927 29.6181L57.2672 28.6927L57.2695 28.6903Z" fill="#263238" stroke="#263238" stroke-miterlimit="10"/>
<path d="M50.1907 38.0646C50.0808 37.6204 49.9756 37.2255 49.9756 37.2255" stroke="#263238" stroke-miterlimit="10"/>
<path d="M50.8457 46.3795C50.8457 46.3795 49.976 44.4695 49.9339 43.2554C49.8919 42.0413 50.4272 39.5267 50.4272 39.2231C50.4272 39.1442 50.3968 38.9764 50.3524 38.7691" stroke="#263238" stroke-miterlimit="10"/>
<path d="M64.6814 38.9602L66.0374 45.9832L65.5861 40.4778" stroke="#263238" stroke-miterlimit="10"/>
<path d="M50.8457 102.676L51.4466 100.863C51.4466 100.863 53.2303 99.619 54.1187 100.021C55.0071 100.423 55.1965 101.228 55.1965 101.228L55.8301 101.499L56.0031 102.407L55.8301 103.95C55.8301 103.95 56.2602 105.946 55.8301 105.946H50.5862C50.5862 105.946 49.7259 105.129 50.0696 104.313C50.4132 103.496 50.8434 102.679 50.8434 102.679L50.8457 102.676Z" fill="white" stroke="#263238" stroke-miterlimit="10"/>
<path d="M61.7639 103.821C61.8293 102.589 61.8457 101.822 61.848 101.518L63.0029 101.605C63.0029 101.605 63.5103 100.265 64.5272 99.9982C65.5419 99.7292 66.2339 100.916 66.2339 100.916C66.2339 100.916 66.664 102.73 67.1807 103.184C67.6974 103.638 69.4157 104.726 69.5022 105.18C69.5887 105.634 69.245 105.726 68.8149 105.906C68.3847 106.088 62.3671 105.906 62.3671 105.906C62.3671 105.906 61.6797 105.452 61.7662 103.818L61.7639 103.821Z" fill="white" stroke="#263238" stroke-miterlimit="10"/>
<path d="M60.2885 21.697C60.2885 21.697 60.5667 18.7802 59.4516 16.8652C58.3364 14.9503 55.545 14.479 53.6747 15.0984C51.8044 15.7178 50.2708 17.5143 50.0183 18.8394C49.7681 20.1646 50.1305 22.1387 50.2965 22.6693C50.4648 23.1998 50.8272 23.4343 50.8272 23.9352C50.8272 24.4361 50.743 25.9982 51.3018 26.9112C51.8605 27.8243 52.8635 29.5616 53.338 29.8873C53.8126 30.213 54.5654 30.1217 54.8997 30.0057C55.2341 29.8873 55.4304 29.7713 55.4304 29.7713C55.4304 29.7713 57.3288 28.7694 57.9413 28.0637C58.5562 27.3579 58.8905 26.472 59.1967 25.6774C59.503 24.8828 59.7555 23.9401 59.7555 23.9401L60.2862 21.7019L60.2885 21.697Z" fill="white" stroke="#263238" stroke-miterlimit="10"/>
<path d="M50.0205 18.8394C50.2706 17.5143 51.8066 15.7178 53.6769 15.0984C55.5472 14.479 58.3363 14.9503 59.4538 16.8652C60.5689 18.7802 60.2907 21.697 60.2907 21.697L59.9096 23.3035L58.9511 22.726C58.9511 22.726 58.058 22.3139 58.0019 21.7538C57.9458 21.1936 57.6396 21.1048 57.193 20.663C56.7465 20.2213 56.6904 17.7166 54.2637 17.3637C52.3209 17.0799 50.951 17.7437 49.9807 19.1059C49.9924 19.0146 50.0065 18.9233 50.0228 18.8369L50.0205 18.8394Z" fill="#263238" stroke="#263238" stroke-miterlimit="10"/>
<path d="M58.6433 24.9968C58.6433 24.9968 59.0898 25.4681 59.5644 25.204C60.039 24.94 60.6795 24.2318 60.8198 22.8474C60.9601 21.463 60.2611 20.9028 59.5083 21.3742C58.7555 21.8455 58.6152 23.2003 58.6152 23.2003" fill="white"/>
<path d="M58.6433 24.9968C58.6433 24.9968 59.0898 25.4681 59.5644 25.204C60.039 24.94 60.6795 24.2318 60.8198 22.8474C60.9601 21.463 60.2611 20.9028 59.5083 21.3742C58.7555 21.8455 58.6152 23.2003 58.6152 23.2003" stroke="#263238" stroke-miterlimit="10"/>
<path d="M51.4699 22.3878L52.1665 22.6519C52.1665 22.6519 52.5289 24.1251 52.5289 24.4483C52.5289 24.7716 51.9982 25.5687 52.0824 25.8623C52.1665 26.156 53.0315 26.4225 53.2256 26.3041" stroke="#263238" stroke-miterlimit="10"/>
<path d="M55.1267 26.7482C55.1267 26.7482 54.7082 27.6316 53.2564 27.5724" stroke="#263238" stroke-miterlimit="10"/>
<path d="M55.6851 23.5671C55.6851 23.5671 54.7359 24.0384 53.7867 23.8311" stroke="#263238" stroke-miterlimit="10"/>
<path d="M53.4243 21.8274C53.4243 21.8274 54.6517 21.356 55.6289 21.857" stroke="#263238" stroke-miterlimit="10"/>
<path d="M54.373 23.95L54.5133 24.1573C54.5133 24.1573 54.6536 24.2461 55.1282 24.0389" stroke="#263238" stroke-miterlimit="10"/>
<path d="M52.3042 23.9572C52.3042 23.9572 51.6449 24.3299 51.009 24.1201" stroke="#263238" stroke-miterlimit="10"/>
<path d="M51.4023 24.2416L51.4888 24.4242C51.4888 24.4242 51.58 24.5057 51.9097 24.3453" stroke="#263238" stroke-miterlimit="10"/>
<path d="M51.2483 22.4759C51.2483 22.4759 50.7456 22.3871 50.6334 22.7696" stroke="#263238" stroke-miterlimit="10"/>
<path d="M72.7305 88.2384C72.7305 88.2384 75.0988 87.1379 77.5419 87.4661C80.4034 87.851 82.2316 89.5883 83.2673 92.2238C84.303 94.8593 84.2632 99.5578 81.6238 102.509C80.4151 103.859 79.0007 104.866 77.7125 105.364C76.6418 105.779 75.5079 105.979 74.3694 105.979H57.1019C55.8418 105.979 54.6729 105.278 54.0323 104.133C53.0855 102.44 51.9937 99.7577 52.3935 96.8507C53.0644 91.9647 56.1691 90.6148 56.473 90.4865C56.777 90.3582 72.7329 88.236 72.7329 88.236L72.7305 88.2384Z" fill="#9E9E9E" stroke="#263238" stroke-miterlimit="10"/>
<path d="M62.0602 40.7625C62.0602 40.7625 61.069 41.9642 60.7721 43.1142C60.4752 44.2641 60.1783 44.7355 59.9795 45.0489C59.7808 45.3622 58.6423 46.0952 58.6423 46.7738C58.6423 47.4524 59.4348 47.8201 59.4348 47.8201C59.4348 47.8201 59.3366 50.0681 59.2852 50.7492C59.2361 51.4279 59.1356 51.7437 59.4839 52.1089C59.8323 52.4742 60.5734 52.8937 60.5734 52.8937C60.5734 52.8937 62.951 55.5612 63.2479 55.8746C63.5448 56.188 70.2825 53.4168 70.2825 53.4168C70.2825 53.4168 70.0838 52.7382 69.9365 52.3705L69.7869 52.0053C69.7869 52.0053 71.9658 47.7189 72.4614 45.5227C72.957 43.3264 69.6372 40.0838 68.5478 39.3534C67.4584 38.6205 63.9399 38.8303 63.0001 38.9339C62.0602 39.0375 61.6137 39.1955 61.6137 39.7704V40.3454L61.0199 40.1357C61.0199 40.1357 61.2677 40.9722 62.0602 40.7625Z" fill="white" stroke="#263238" stroke-linecap="round" stroke-linejoin="round"/>
<path d="M63.5962 40.7625C62.8037 40.8143 62.0602 40.7625 62.0602 40.7625C61.2677 40.9722 61.0199 40.1357 61.0199 40.1357L61.6137 40.3454V39.7704C61.6137 39.1955 62.0602 39.0375 63.0001 38.9339C63.9422 38.8303 67.4584 38.6205 68.5478 39.3534C69.6372 40.0863 72.957 43.3264 72.4614 45.5227C71.9658 47.7189 69.7869 52.0053 69.7869 52.0053C69.7869 52.0053 69.4409 52.0053 68.3514 51.6401C67.262 51.2749 66.8645 49.7572 66.8645 49.7572C66.8645 49.7572 68.1036 49.2859 68.4005 48.7627C68.6974 48.2396 68.3514 46.5147 67.7576 46.3049C67.1638 46.0952 66.2707 46.8281 66.0229 46.8799C65.7751 46.9317 65.6769 46.722 65.4782 46.4086C65.2795 46.0952 65.5764 45.6238 65.5764 45.3622C65.5764 45.1007 64.3864 43.6891 64.1409 43.1142C63.8931 42.5392 65.8242 41.4411 65.726 40.9179C65.6278 40.3948 64.3887 40.7082 63.5962 40.76V40.7625Z" fill="#263238" stroke="#263238" stroke-linecap="round" stroke-linejoin="round"/>
<path d="M62.1118 52.8933C62.1118 52.8933 63.449 52.9969 64.5876 52.2665C65.7261 51.5336 65.8757 50.855 65.8757 50.855" stroke="#263238" stroke-linecap="round" stroke-linejoin="round"/>
<path d="M62.0115 48.7628C62.0115 48.7628 61.5649 49.3896 60.4755 49.3378" stroke="#263238" stroke-linecap="round" stroke-linejoin="round"/>
<path d="M60.8358 44.9375C60.7399 45.2385 60.7633 45.5174 60.8919 45.5643C61.0205 45.6112 61.2028 45.4039 61.2987 45.1053C61.3945 44.8067 61.3712 44.5254 61.2426 44.4785C61.114 44.4316 60.9316 44.6389 60.8358 44.9375Z" fill="#263238"/>
<path d="M62.0513 44.1501C62.0513 44.1501 61.7006 43.4098 60.9992 43.6689" stroke="#263238" stroke-linecap="round" stroke-linejoin="round"/>
<path d="M41.9151 100.697C41.9151 100.697 41.3915 102.471 40.0004 103.518C38.6071 104.564 36.6222 104.848 36.2692 105.169C35.9162 105.487 36.5217 105.859 36.5217 105.859H44.6388L44.6902 100.857L41.9175 100.697H41.9151Z" fill="#263238" stroke="#263238" stroke-miterlimit="10"/>
<path d="M44.2857 80.1544C44.2857 80.1544 41.6649 79.4635 41.2605 79.994C40.856 80.5271 39.9489 94.7361 39.5959 97.2358C39.2429 99.7381 39.3434 100.483 39.3434 100.483L44.3348 101.974C44.3348 101.974 45.4943 95.6935 46.7544 93.2456C48.0146 90.7976 50.4857 84.6777 48.8211 82.442C47.1566 80.2063 44.2833 80.1544 44.2833 80.1544H44.2857Z" fill="#263238" stroke="#263238" stroke-miterlimit="10"/>
<path d="M60.5644 57.602C60.5644 57.602 56.548 58.0462 55.6152 57.9474C54.6824 57.8487 53.1861 57.1084 50.7127 57.0591C48.2369 57.0097 38.1981 56.7629 37.1718 56.7629C36.1454 56.7629 30.7497 56.5384 30.7497 56.5384C30.7497 56.5384 27.9957 56.341 28.1803 56.7358C28.3674 57.1306 28.9285 57.3774 29.5807 57.5255C30.2353 57.6735 30.9811 58.019 30.9811 58.019L32.1945 58.3645C32.1945 58.3645 31.2616 58.6113 30.9811 58.6113C30.7006 58.6113 29.5807 58.8087 29.8145 59.0554C30.0483 59.3022 30.1418 59.4009 30.7473 59.4009C31.3528 59.4009 32.1945 59.2035 32.5218 59.2035C32.8491 59.2035 33.2699 59.4009 34.1092 59.4996C34.9508 59.5983 36.8889 59.5268 36.8889 59.5268L40.2975 60.0203C40.2975 60.0203 46.6939 61.8933 49.497 62.7323C52.2977 63.5713 53.5602 63.6207 53.5602 63.6207C53.5602 63.6207 54.6333 63.7687 57.3896 64.2623C60.1436 64.7558 63.9263 64.5091 63.9263 64.5091L60.5644 57.6094V57.602Z" fill="#263238" stroke="#263238" stroke-linecap="round" stroke-linejoin="round"/>
<path d="M70.6734 52.696C70.6734 52.696 61.7077 55.8497 60.4009 56.8368C59.094 57.8214 57.6468 63.1467 57.4598 65.2664C57.2728 67.3862 55.6854 74.3846 55.5451 77.8344C55.4048 81.2843 55.8257 80.7907 55.8257 80.7907C55.8257 80.7907 65.633 82.7624 67.5921 83.4534C69.5536 84.1443 72.7752 87.6929 72.8687 87.5448C72.9622 87.3968 72.9622 84.5391 72.5881 82.9105C72.2141 81.2818 71.8868 77.0448 71.8868 77.0448C71.8868 77.0448 73.8482 68.8125 73.9418 66.1523C74.0353 63.4897 72.9154 57.6733 72.4011 55.9484C71.8868 54.2235 71.0007 52.5479 70.6734 52.696Z" fill="white" stroke="#263238" stroke-linecap="round" stroke-linejoin="round"/>
<path d="M62.0554 63.554L56.7041 71.7641C56.7041 71.7641 57.9735 65.6516 57.9735 65.4171C57.9735 65.1827 58.0296 62.9124 58.0296 62.9124L62.0554 63.554Z" fill="#263238" stroke="#263238" stroke-linecap="round" stroke-linejoin="round"/>
<path d="M60.3987 56.8369C60.3987 56.8369 56.3822 57.281 55.4494 57.1823C54.5166 57.0836 53.0204 56.3433 50.5469 56.294C48.0711 56.2446 38.0323 55.9978 37.006 55.9978C35.9797 55.9978 30.7475 56.5407 30.7475 56.5407C30.7475 56.5407 27.9935 56.3433 28.1782 56.7381C28.3653 57.133 28.9263 57.3797 29.5786 57.5278C30.2332 57.6759 30.979 58.0213 30.979 58.0213L32.1923 58.3668C32.1923 58.3668 31.2595 58.6136 30.979 58.6136C30.6984 58.6136 29.5786 58.811 29.8124 59.0578C30.0462 59.3046 30.1397 59.4033 30.7452 59.4033C31.3507 59.4033 32.1923 59.2058 32.5196 59.2058C32.8469 59.2058 33.2678 59.4033 34.107 59.502C34.9487 59.6007 36.7231 58.7617 36.7231 58.7617L40.1317 59.2552C40.1317 59.2552 46.5281 61.1282 49.3312 61.9672C52.132 62.8062 53.3944 62.8556 53.3944 62.8556C53.3944 62.8556 54.4675 63.0036 57.2238 63.4972C59.9778 63.9907 63.7605 63.7439 63.7605 63.7439L60.3987 56.8443V56.8369Z" fill="white" stroke="#263238" stroke-linecap="round" stroke-linejoin="round"/>
<path d="M29.3462 57.1823C29.3462 57.1823 30.5128 57.3304 30.7934 57.4291C31.0739 57.5278 31.9599 57.8239 32.5678 57.9226C33.1756 58.0213 33.8747 58.12 33.8747 58.12C33.8747 58.12 34.7163 58.6629 35.6023 58.5149C36.4884 58.3668 36.7222 58.0707 36.7222 58.0707" stroke="#263238" stroke-miterlimit="10"/>
<path d="M69.6907 56.7378C69.6907 56.7378 66.42 56.0271 64.8349 55.9482C63.2499 55.8717 59.6519 57.1302 59.6519 57.1302L64.5076 65.2144C64.5076 65.2144 68.3838 65.017 68.5708 65.017" fill="white"/>
<path d="M69.6907 56.7378C69.6907 56.7378 66.42 56.0271 64.8349 55.9482C63.2499 55.8717 59.6519 57.1302 59.6519 57.1302L64.5076 65.2144C64.5076 65.2144 68.3838 65.017 68.5708 65.017" stroke="#263238" stroke-linecap="round" stroke-linejoin="round"/>
<path d="M64.9291 65.7083C64.9291 65.7083 66.0489 71.1792 69.1326 74.2367" stroke="#263238" stroke-miterlimit="10"/>
<path d="M63.666 64.7232C63.666 64.7232 64.04 68.1237 65.5339 71.8203" stroke="#263238" stroke-miterlimit="10"/>
<path d="M69.9907 83.0312C69.9907 83.0312 66.2759 81.6814 63.4143 81.4248" stroke="#263238" stroke-miterlimit="10"/>
<path d="M63.9609 80.7831C63.9609 80.7831 61.6465 80.5906 60.0637 80.9756" stroke="#263238" stroke-miterlimit="10"/>
<path d="M65.7215 72.3144C65.7215 72.3144 66.0021 73.1041 66.2358 73.6445" stroke="#263238" stroke-miterlimit="10"/>
<path d="M61.9856 64.9205C61.9856 64.9205 61.518 67.7312 61.4245 69.5055" stroke="#263238" stroke-miterlimit="10"/>
<path d="M46.6191 101.481C46.6191 101.481 46.6191 105.673 46.4157 105.853C46.2124 106.033 45.3286 105.996 45.2281 105.996H37.5903C37.5903 105.996 36.9801 105.888 36.9451 105.458C36.91 105.029 38.4717 104.563 38.6096 104.563C38.7476 104.563 43.0562 102.09 43.1918 101.875C43.3274 101.661 43.6664 100.693 43.6664 100.693L46.6191 101.481Z" fill="white" stroke="#263238" stroke-miterlimit="10"/>
<path d="M56.2275 92.6752C56.2275 92.6752 51.2923 91.545 49.1251 89.788L50.1327 87.6584L56.2275 92.6752Z" fill="#263238" stroke="#263238" stroke-linecap="round" stroke-linejoin="round"/>
<path d="M72.8661 87.5456C72.8661 87.5456 72.7913 89.7172 71.5124 90.8746C70.2336 92.0319 66.2756 92.7377 64.569 92.6735C62.8647 92.6094 56.2252 92.6735 56.2252 92.6735C56.2252 92.6735 54.6424 92.0961 53.6068 91.5162C52.5711 90.9387 50.3174 89.2656 50.3174 89.2656C50.3174 89.2656 49.8311 92.3502 49.5856 93.4434C49.3425 94.5366 47.7598 99.4868 47.7598 99.4868L47.3343 102.058L40.5755 100.516C40.5755 100.516 41.1834 95.7581 41.6112 92.4169C42.0367 89.0731 43.3155 81.8749 43.6825 80.6533C44.0472 79.4318 43.9865 79.4318 45.0221 79.4318C46.0578 79.4318 49.7119 79.7526 53.366 80.2684C57.02 80.7817 61.3427 81.4257 64.5713 82.2623C67.7999 83.0988 65.6678 82.4548 68.2862 83.6121C70.9046 84.7695 72.8684 87.5456 72.8684 87.5456H72.8661Z" fill="#58B0CD" stroke="#263238" stroke-miterlimit="10"/>
<path d="M50.3196 89.2679C50.3196 89.2679 49.9549 87.5973 49.4055 86.7607C48.8584 85.9242 47.8227 84.9618 47.8227 84.9618" stroke="#263238" stroke-miterlimit="10"/>
<path d="M48.1874 84.5102C48.1874 84.5102 49.7702 85.6033 50.198 86.7607" stroke="#263238" stroke-miterlimit="10"/>
<path d="M43.3156 86.3112C43.3156 86.3112 44.5336 90.874 45.387 92.6112" stroke="#263238" stroke-miterlimit="10"/>
<path d="M43.3764 88.9466C43.3764 88.9466 44.2905 96.9173 45.387 99.1678" stroke="#263238" stroke-miterlimit="10"/>
<path d="M68.4072 87.9817C68.4072 87.9817 66.4574 84.4455 64.0845 82.839" stroke="#263238" stroke-miterlimit="10"/>
<path d="M65.9107 83.2884C65.9107 83.2884 67.0679 84.5099 67.615 85.5389" stroke="#263238" stroke-miterlimit="10"/>
<path d="M109 105.998H0.0626323" stroke="#263238" stroke-miterlimit="10"/>
</svg>
