<svg width="31" height="31" viewBox="0 0 31 31" fill="none" xmlns="http://www.w3.org/2000/svg">
<circle cx="15.5" cy="15.5" r="15" stroke="#596992"/>
<path d="M15.0652 14.0037V23.0037M15.0652 14.0037L18.0652 17.0037M15.0652 14.0037L12.0652 17.0037M20.5652 19.0037C22.0842 19.0037 23.0652 17.7727 23.0652 16.2537C23.0651 15.6523 22.868 15.0676 22.5039 14.5889C22.1397 14.1103 21.6288 13.7642 21.0492 13.6037C20.96 12.4822 20.4952 11.4235 19.7299 10.5988C18.9646 9.77414 17.9435 9.23169 16.8317 9.05915C15.7199 8.88662 14.5825 9.09408 13.6032 9.64802C12.6239 10.2019 11.8601 11.07 11.4352 12.1117C10.5406 11.8637 9.58418 11.9813 8.77628 12.4385C7.96837 12.8957 7.37518 13.6552 7.1272 14.5497C6.87922 15.4443 6.99677 16.4007 7.45399 17.2087C7.9112 18.0166 8.67063 18.6097 9.5652 18.8577" stroke="#596992" stroke-width="2" stroke-linecap="round" stroke-linejoin="round"/>
</svg>
