<svg width="205" height="167" viewBox="0 0 205 167" fill="none" xmlns="http://www.w3.org/2000/svg">
<path opacity="0.7" d="M57.8616 148.247C53.1598 148.247 48.458 148.267 43.7562 148.241C39.7565 148.215 39.4743 147.894 39.8322 144.044C40.204 140.037 41.0026 136.024 40.8855 132.03C40.6859 125.188 40.6239 118.222 39.1645 111.576C37.9598 106.083 35.2406 100.76 32.4388 95.7447C25.899 84.0447 18.2783 72.9994 8.23453 63.6564C5.94903 61.5286 3.36063 59.6888 1.22658 57.4365C0.338539 56.5002 -0.177773 54.7587 0.0562845 53.5474C0.193965 52.8207 2.05954 52.0677 3.2436 51.904C10.5751 50.8958 16.6055 53.5998 21.9888 58.0912C25.7475 61.2339 29.5406 64.3504 33.4095 67.3688C37.0442 70.1972 40.4036 70.0335 43.8801 67.1396C51.5007 60.7953 52.5402 50.5815 55.1355 41.8539C58.3917 30.8938 63.0315 20.2675 67.5199 9.72637C69.3028 5.5361 72.0427 3.56537 75.1543 3.94511C77.1989 4.19391 78.2521 5.16945 78.1213 7.19257C78.0043 9.04545 78.2452 10.9638 77.7909 12.7316C75.8014 20.4705 73.6054 28.1701 71.5057 35.8828C71.3061 36.6161 71.134 37.369 71.1133 38.122C71.0996 38.96 71.2717 39.8046 71.3681 40.6492C71.788 39.8767 72.3043 39.1303 72.6072 38.3184C76.6757 27.26 80.6615 16.1755 84.7851 5.13673C86.1137 1.575 89.955 -0.683827 92.6053 0.186963C95.2213 1.03811 96.1024 4.37724 94.8908 8.04373C92.0753 16.5814 89.3698 25.1518 86.5818 33.696C85.5423 36.8911 84.3651 40.0469 83.3738 43.2616C83.1879 43.864 83.6079 44.6365 83.7456 45.324C84.1517 44.8526 84.7231 44.4401 84.9365 43.8967C87.1394 38.2595 89.301 32.6026 91.435 26.9392C93.3488 21.8585 95.0147 16.6862 97.2176 11.7233C98.0713 9.80494 99.9919 8.1943 102.801 8.93415C105.74 9.70673 106.676 11.9263 106.098 14.2637C104.749 19.7372 102.849 25.0798 101.334 30.5206C99.8267 35.9352 98.4705 41.3825 97.1488 46.843C96.9767 47.5697 97.3897 48.4209 97.5274 49.2131C97.9336 48.6173 98.4154 48.0608 98.739 47.4257C101.486 42.1027 104.102 36.7078 107.034 31.483C107.633 30.4224 109.657 29.1587 110.58 29.4206C111.722 29.7415 113.058 31.5092 113.147 32.727C113.326 35.1757 113.058 37.775 112.363 40.1451C110.015 48.1983 107.461 56.1925 104.88 64.1802C102.911 70.2823 100.804 76.3451 98.7115 82.4144C98.5187 82.971 98.0162 83.4358 97.6582 83.9399C97.3897 83.3769 96.956 82.8269 96.8803 82.2376C96.2608 77.4909 95.8202 72.7179 95.0836 67.9908C94.76 65.8891 94.051 63.7939 93.1491 61.8494C92.7912 61.0768 91.3937 60.2649 90.5263 60.3108C89.6796 60.3566 88.3923 61.3649 88.1858 62.1506C87.5524 64.6385 86.9742 67.2313 87.0293 69.7716C87.2358 79.0753 89.4524 89.1189 86.3477 98.1803C85.7213 96.6613 84.9365 95.1751 84.4959 93.6103C83.1879 88.9028 82.0039 84.1626 80.7854 79.4289C79.6978 75.219 78.6514 70.9959 77.5361 66.7926C77.0336 64.907 76.6894 62.8904 75.6981 61.247C75.0923 60.2453 73.2612 59.1519 72.2286 59.3352C71.0308 59.5513 69.2822 61.0768 69.2134 62.1244C68.9587 65.7974 68.9999 69.549 69.5369 73.1893C70.246 78.0081 71.4576 82.7745 72.5934 87.5279C73.5159 91.4039 74.6999 95.2275 75.6293 99.1035C75.822 99.9153 75.4159 100.865 75.2851 101.749C74.2387 101.369 72.6622 101.277 72.2354 100.564C69.3786 95.784 66.797 90.8539 64.0641 86.0089C61.5996 81.6222 59.1489 77.229 56.4847 72.9536C55.817 71.8798 54.4815 70.865 53.2355 70.5114C51.3286 69.9811 49.5938 70.793 49.9931 73.006C52.6779 87.8552 60.7598 99.6796 66.6319 113.508C67.2032 114.856 67.3684 116.421 67.4304 117.894C67.4579 118.582 66.7489 119.898 66.446 119.878C65.5648 119.819 64.429 119.452 63.9195 118.824C61.338 115.655 59.2108 112.106 56.3608 109.186C53.3387 106.089 49.5732 103.667 44.8094 103.693C43.7218 103.7 42.0765 104.243 41.7185 104.989C41.3537 105.749 41.9525 107.301 42.6409 108.099C46.9504 113.062 50.5438 118.379 53.7036 124.127C58.3641 132.599 63.7061 140.784 73.5916 144.921C74.5554 145.327 75.0992 146.643 75.8358 147.54C74.7757 147.789 73.7155 148.228 72.6485 148.247C67.7195 148.326 62.7837 148.28 57.8547 148.28C57.8616 148.267 57.8616 148.254 57.8616 148.247Z" fill="url(#paint0_linear_549_4031)"/>
<path opacity="0.7" d="M41.5609 53.2045L40.8854 49.4934C40.3824 46.7332 41.3237 43.9201 43.4148 41.8995L44.3921 40.9486C46.1023 39.2912 47.0579 37.0988 47.0579 34.814V28.6729C47.0579 26.2494 48.1286 23.9316 50.0328 22.2544L53.6257 19.0781C55.5227 17.4009 56.6006 15.0831 56.6006 12.6596V5.66003" stroke="#D3E7FF" stroke-width="2" stroke-miterlimit="10"/>
<path opacity="0.7" d="M108.171 80.3728L107.644 77.1873C107.253 74.8242 107.989 72.4155 109.635 70.6726L110.403 69.8632C111.743 68.4467 112.498 66.5602 112.498 64.6084V59.3471C112.498 57.2713 113.344 55.2868 114.834 53.8442L117.657 51.1222C119.147 49.6861 119.993 47.6951 119.993 45.6193V39.6204" stroke="#D3E7FF" stroke-width="2" stroke-miterlimit="10"/>
<path opacity="0.7" d="M30.2111 150.558L28.9473 147.58C28.0056 145.369 28.0985 142.815 29.1827 140.677L29.6907 139.678C30.5766 137.937 30.8059 135.899 30.3288 133.98L29.0402 128.824C28.5322 126.793 28.8234 124.622 29.8456 122.822L31.7785 119.42C32.8008 117.62 33.0919 115.456 32.5839 113.418L31.1156 107.541" stroke="#D3E7FF" stroke-width="2" stroke-miterlimit="10"/>
<g opacity="0.7">
<path d="M108.595 108.477L110.472 117.011C110.472 117.181 110.301 117.38 109.96 117.608C109.675 117.779 109.334 117.864 108.936 117.864C108.595 117.864 108.367 117.779 108.253 117.608C107.627 115.674 106.831 114.195 105.864 113.171C103.759 110.952 100.971 109.843 97.5012 109.843C93.5759 109.843 90.6745 111.464 88.7972 114.707C87.2043 117.494 86.4079 121.078 86.4079 125.459C86.4079 130.124 87.4034 134.134 89.3945 137.491C91.6132 141.132 94.5999 142.952 98.3545 142.952C100.004 142.952 101.455 142.668 102.707 142.099C102.82 141.985 102.934 141.9 103.048 141.843C103.162 141.729 103.219 141.53 103.219 141.245V133.309C103.219 132.172 102.963 131.46 102.451 131.176C101.995 130.835 101.569 130.607 101.171 130.493C100.488 130.38 99.8336 130.323 99.2079 130.323C99.0941 130.323 99.0087 130.01 98.9519 129.384C98.9519 128.758 99.0372 128.36 99.2079 128.189C102.052 128.417 104.783 128.531 107.4 128.531C110.017 128.531 112.463 128.417 114.739 128.189C114.852 128.588 114.881 129.043 114.824 129.555C114.824 130.067 114.767 130.323 114.653 130.323C114.426 130.323 113.942 130.408 113.203 130.579C112.463 130.692 111.979 130.835 111.752 131.005C111.24 131.29 110.984 132.115 110.984 133.48V139.453L111.325 141.075C111.325 141.53 110.671 142.042 109.363 142.611C107.542 143.236 105.636 143.862 103.645 144.488C101.654 145.114 99.3216 145.427 96.6479 145.427C94.031 145.427 91.5279 144.972 89.1385 144.061C86.8061 143.094 84.7581 141.786 82.9945 140.136C81.2879 138.486 79.9225 136.524 78.8985 134.248C77.8745 131.972 77.3625 129.526 77.3625 126.909C77.3625 124.236 77.8745 121.732 78.8985 119.4C79.9225 117.011 81.3163 114.934 83.0799 113.171C84.8434 111.407 86.8914 110.013 89.2239 108.989C91.6132 107.965 94.1447 107.453 96.8185 107.453C101.37 107.453 105.295 107.795 108.595 108.477ZM124.609 145.176C122.653 144.98 120.874 144.883 119.27 144.883C117.706 144.883 115.946 144.98 113.99 145.176C113.912 145.059 113.873 144.824 113.873 144.472C113.873 144.12 113.912 143.866 113.99 143.709C114.812 143.709 115.418 143.631 115.809 143.475C116.2 143.279 116.415 143.123 116.454 143.005C116.65 142.614 116.748 142.125 116.748 141.539C116.787 140.952 116.806 140.228 116.806 139.368V123.411C116.806 122.55 116.748 122.003 116.63 121.768C116.513 121.494 116.337 121.318 116.102 121.24C115.907 121.162 115.692 121.103 115.457 121.064C114.909 120.908 114.499 120.829 114.225 120.829C114.147 120.829 114.088 120.653 114.049 120.301C114.049 119.91 114.108 119.676 114.225 119.597C116.845 119.324 119.133 118.874 121.089 118.248C121.441 118.131 121.637 118.072 121.676 118.072C121.949 118.15 122.145 118.385 122.262 118.776C122.184 119.245 122.106 119.695 122.028 120.125C121.91 120.712 121.852 121.572 121.852 122.707V139.368C121.852 141.324 121.91 142.458 122.028 142.771C122.145 143.044 122.301 143.24 122.497 143.357C122.732 143.436 122.966 143.514 123.201 143.592C123.631 143.67 124.101 143.709 124.609 143.709C124.687 143.866 124.726 144.12 124.726 144.472C124.726 144.824 124.687 145.059 124.609 145.176ZM133.213 129.277C131.453 129.277 130.475 130.724 130.279 133.619C130.201 134.401 130.162 135.183 130.162 135.965C130.162 136.748 130.221 137.608 130.338 138.547C130.495 139.446 130.749 140.268 131.101 141.011C131.844 142.771 132.841 143.651 134.093 143.651C135.931 143.651 136.967 142.223 137.202 139.368C137.241 138.625 137.261 137.862 137.261 137.08C137.261 136.298 137.183 135.437 137.026 134.499C136.87 133.56 136.615 132.719 136.263 131.976C135.52 130.177 134.503 129.277 133.213 129.277ZM133.682 127.693C135.012 127.693 136.224 127.908 137.319 128.339C138.454 128.769 139.431 129.375 140.253 130.157C141.935 131.8 142.775 133.853 142.775 136.317C142.775 138.742 141.895 140.854 140.135 142.653C138.454 144.413 136.322 145.293 133.741 145.293C131.042 145.293 128.852 144.452 127.17 142.771C125.488 141.089 124.647 139.036 124.647 136.611C124.647 134.225 125.508 132.132 127.229 130.333C128.95 128.573 131.101 127.693 133.682 127.693ZM155.349 127.869C156.444 128.026 157.774 128.104 159.338 128.104C160.942 128.104 162.291 128.026 163.386 127.869C163.465 127.948 163.504 128.163 163.504 128.515C163.543 128.867 163.504 129.121 163.386 129.277C162.487 129.277 161.763 129.434 161.216 129.747C160.707 130.02 160.394 130.294 160.277 130.568L154.293 143.24C153.55 144.687 152.983 145.411 152.592 145.411C152.474 145.411 152.318 145.313 152.122 145.117L145.2 130.744C144.926 130.157 144.476 129.766 143.85 129.571C143.264 129.375 142.892 129.277 142.736 129.277C142.618 129.121 142.579 128.886 142.618 128.573C142.618 128.221 142.657 127.987 142.736 127.869C143.009 127.908 143.596 127.948 144.496 127.987C145.434 128.026 146.138 128.065 146.608 128.104C147.116 128.104 148.035 128.104 149.365 128.104C150.734 128.104 151.888 128.026 152.826 127.869C152.944 127.948 153.002 128.182 153.002 128.573C153.002 128.925 152.944 129.16 152.826 129.277C152.592 129.277 152.24 129.356 151.77 129.512C150.949 129.747 150.538 130.02 150.538 130.333V130.568C150.538 130.685 150.577 130.803 150.656 130.92L154.645 138.547L157.696 131.741C157.969 131.037 158.106 130.568 158.106 130.333C158.106 130.099 157.969 129.903 157.696 129.747C157.461 129.59 157.168 129.473 156.816 129.395C156.268 129.316 155.779 129.277 155.349 129.277C155.271 129.199 155.232 128.984 155.232 128.632C155.232 128.241 155.271 127.987 155.349 127.869ZM175.544 127.869C176.639 128.026 177.969 128.104 179.534 128.104C181.137 128.104 182.487 128.026 183.582 127.869C183.66 127.948 183.699 128.163 183.699 128.515C183.738 128.867 183.699 129.121 183.582 129.277C182.682 129.277 181.959 129.434 181.411 129.747C180.903 130.02 180.59 130.294 180.472 130.568L172.611 147.171C171.477 149.361 170.186 151.043 168.739 152.216C167.722 153.037 166.764 153.448 165.864 153.448C164.965 153.448 164.28 153.233 163.811 152.803C163.381 152.412 163.166 151.884 163.166 151.219C163.166 150.593 163.459 150.045 164.046 149.576C165.571 149.576 166.823 149.4 167.8 149.048C168.778 148.696 169.658 147.855 170.44 146.525C170.831 145.939 171.281 145.039 171.79 143.827L165.395 130.744C165.121 130.157 164.671 129.766 164.046 129.571C163.459 129.375 163.087 129.277 162.931 129.277C162.814 129.121 162.775 128.886 162.814 128.573C162.814 128.221 162.853 127.987 162.931 127.869C163.205 127.908 163.791 127.948 164.691 127.987C165.63 128.026 166.334 128.065 166.803 128.104C167.311 128.104 168.231 128.104 169.56 128.104C170.929 128.104 172.083 128.026 173.022 127.869C173.139 127.948 173.198 128.182 173.198 128.573C173.198 128.925 173.139 129.16 173.022 129.277C172.787 129.277 172.435 129.356 171.966 129.512C171.144 129.747 170.734 130.02 170.734 130.333V130.568C170.734 130.685 170.773 130.803 170.851 130.92L174.84 138.547L177.891 131.741C178.165 131.037 178.302 130.568 178.302 130.333C178.302 130.099 178.165 129.903 177.891 129.747C177.656 129.59 177.363 129.473 177.011 129.395C176.463 129.316 175.975 129.277 175.544 129.277C175.466 129.199 175.427 128.984 175.427 128.632C175.427 128.241 175.466 127.987 175.544 127.869Z" fill="#58B0CD"/>
</g>
<defs>
<linearGradient id="paint0_linear_549_4031" x1="11.5499" y1="74.1451" x2="124.764" y2="74.1451" gradientUnits="userSpaceOnUse">
<stop offset="0.2621" stop-color="#307CAB"/>
<stop offset="1" stop-color="#76D8E7"/>
</linearGradient>
</defs>
</svg>
