<svg width="41" height="42" viewBox="0 0 41 42" fill="none" xmlns="http://www.w3.org/2000/svg">
<path d="M2.67808 11.0532L2.15376 12.1466C2.07064 12.332 1.96834 12.511 1.898 12.6965L1.68699 13.2592L1.27777 14.4165C1.15628 14.7937 1.07316 15.1838 0.970858 15.5674C0.201638 18.5793 0.138175 21.7281 0.785423 24.7685C1.4103 27.6271 2.64236 30.318 4.3981 32.6588C7.52741 36.8335 12.1519 39.6338 17.3014 40.4724C18.4095 40.6517 19.5294 40.7479 20.6519 40.7602C21.7014 40.758 22.7491 40.6725 23.785 40.5044C27.1186 39.9678 30.267 38.6122 32.9477 36.5592C32.9608 36.5471 32.9779 36.5404 32.9957 36.5404C33.0135 36.5404 33.0306 36.5471 33.0437 36.5592C33.0516 36.5716 33.0559 36.5861 33.0559 36.6008C33.0559 36.6156 33.0516 36.63 33.0437 36.6424L32.9989 36.5337L37.8904 37.2754L39.1692 37.4736L39.6104 37.5439L39.1948 37.4992L37.916 37.3329L32.9605 36.6935C32.9515 36.6928 32.9427 36.6902 32.9347 36.6858C32.9268 36.6814 32.9199 36.6754 32.9144 36.6682C32.909 36.6609 32.9052 36.6526 32.9032 36.6437C32.9012 36.6349 32.9011 36.6257 32.903 36.6168L32.9989 36.7063C30.3143 38.8046 27.1464 40.1962 23.785 40.7538C22.7387 40.9266 21.6804 41.0164 20.6199 41.0223C19.4849 41.0174 18.352 40.9255 17.2311 40.7474C12.0099 39.9232 7.31503 37.0976 4.14233 32.8699C2.28772 30.4324 1.00906 27.6066 0.402213 24.6045C-0.20463 21.6024 -0.123895 18.5019 0.638362 15.5355C0.740667 15.1454 0.830188 14.749 0.951676 14.3653C1.07316 13.9817 1.22662 13.6044 1.36729 13.2208L1.5783 12.6453C1.65502 12.4599 1.75094 12.2745 1.84046 12.089L2.37117 10.9829C2.5502 10.612 2.79318 10.2731 3.01058 9.91504C3.20295 9.55325 3.41646 9.2031 3.64999 8.86641C4.12653 8.18067 4.6477 7.52706 5.21014 6.90982C5.49148 6.6029 5.76643 6.2704 6.06055 5.98267L7.03246 5.06831L7.49923 4.6527L7.99797 4.28184L8.99545 3.54652C12.9995 0.845085 17.8209 -0.373843 22.6277 0.1001C26.7329 0.528822 30.6135 2.18532 33.7629 4.85334C36.9123 7.52136 39.1841 11.0769 40.2818 15.0559C40.3521 15.3372 40.4288 15.625 40.4992 15.8999C40.5781 16.1765 40.6358 16.4586 40.6718 16.7439C40.7549 17.3066 40.8381 17.8565 40.9148 18.4C40.9999 19.4635 41.0213 20.5311 40.9787 21.5971C40.7926 24.9975 39.7524 28.2961 37.9543 31.1882V31.1371C38.4978 33.2215 38.9198 34.8264 39.2331 35.9198C39.3674 36.4505 39.4697 36.8534 39.5465 37.1347C39.6232 37.4161 39.6424 37.5375 39.6424 37.5375L39.5145 37.1155C39.4377 36.8257 39.3227 36.4165 39.1692 35.8879L37.852 31.169C37.8456 31.1526 37.8456 31.1343 37.852 31.1179C39.6087 28.2362 40.6175 24.9613 40.7869 21.5907C40.8244 20.5414 40.7987 19.4909 40.7102 18.4448C40.6271 17.9077 40.5439 17.3578 40.4608 16.8015C40.4226 16.5202 40.3627 16.2423 40.2818 15.9703C40.2114 15.6953 40.1411 15.4204 40.0644 15.139C39.4132 12.7637 38.3293 10.5288 36.8673 8.5467C33.7598 4.34366 29.1491 1.50313 23.9975 0.617928C18.8459 -0.267276 13.5515 0.871247 9.21924 3.79589L8.24094 4.52482L7.7486 4.89567L7.28822 5.3049L6.37387 6.13613C6.08613 6.42386 5.81758 6.77554 5.53624 7.04409C4.98391 7.65145 4.46929 8.29206 3.99526 8.96232" fill="#B0B0B0"/>
<path d="M30.3158 16.7001C29.6764 14.2256 27.285 12.1475 24.753 12.4544C24.0078 12.5755 23.2949 12.8464 22.6575 13.2509C22.0201 13.6553 21.4713 14.1848 21.0444 14.8074C20.7274 15.2118 20.441 15.6393 20.1876 16.0863C19.9175 15.6362 19.6117 15.2086 19.2732 14.8074C18.8147 14.2032 18.2382 13.6983 17.5787 13.3235C16.9193 12.9487 16.1905 12.7118 15.4367 12.6271C12.8791 12.4352 10.5772 14.622 10.0721 17.1029C9.56696 19.5838 10.558 22.2182 12.1374 24.2259C14.2301 27.0176 17.266 28.9537 20.6799 29.6737C23.5125 28.9512 27.074 25.9268 28.5446 23.8487C30.0153 21.7706 30.936 19.181 30.3158 16.7001Z" fill="#596992"/>
<path d="M29.9576 21.3294H29.8744H29.6251L28.6787 21.3678L25.2004 21.4701L25.2835 21.4637C24.9957 22.5954 24.6441 23.9254 24.3052 25.3833L24.2412 25.6199L24.1581 25.3897C23.5187 23.6249 22.7578 21.6555 21.9841 19.571C21.7411 18.9316 21.5046 18.2922 21.2744 17.6528H21.4214C20.6478 19.0595 19.906 20.3831 19.241 21.5916V21.6299H19.2027L13.0707 21.7386H11.3315H10.6921C10.743 21.7304 10.7948 21.7304 10.8456 21.7386H11.306L13.0452 21.6747L19.1707 21.5085L19.1068 21.5468C19.7462 20.3319 20.5071 18.9892 21.2808 17.6017L21.3639 17.4418L21.4278 17.6144C21.658 18.2539 21.8946 18.8933 22.1376 19.5327C22.9113 21.6172 23.6466 23.5929 24.2988 25.3577H24.1581C24.529 23.9062 24.8743 22.5763 25.162 21.4509V21.3998H25.2068L28.6915 21.3486H29.8872C29.932 21.323 29.9576 21.323 29.9576 21.3294Z" fill="#B0B0B0"/>
</svg>
