<svg width="218" height="162" viewBox="0 0 218 162" fill="none" xmlns="http://www.w3.org/2000/svg">
<path d="M195.919 149.58H181.496V149.689H195.919V149.58Z" fill="#EBEBEB"/>
<path d="M144.237 150.765H140.453V150.874H144.237V150.765Z" fill="#EBEBEB"/>
<path d="M181.061 145.539H172.704V145.648H181.061V145.539Z" fill="#EBEBEB"/>
<path d="M41.6529 146.271H22.8448V146.38H41.6529V146.271Z" fill="#EBEBEB"/>
<path d="M48.2895 146.271H45.533V146.38H48.2895V146.271Z" fill="#EBEBEB"/>
<path d="M98.0465 148.108H57.2515V148.217H98.0465V148.108Z" fill="#EBEBEB"/>
<path d="M103.817 123.152H19.7269C19.0674 123.152 18.435 122.89 17.9686 122.423C17.5023 121.957 17.2404 121.324 17.2404 120.665V2.46477C17.2461 1.80908 17.5106 1.1822 17.9763 0.720578C18.442 0.258959 19.0712 -2.5138e-05 19.7269 1.83009e-09H103.817C104.143 1.8301e-09 104.466 0.0643159 104.768 0.189277C105.07 0.314237 105.344 0.497395 105.575 0.728293C105.806 0.95919 105.989 1.23331 106.114 1.53499C106.239 1.83667 106.303 2.16001 106.303 2.48655V120.665C106.303 120.992 106.239 121.315 106.114 121.617C105.989 121.918 105.806 122.192 105.575 122.423C105.344 122.654 105.07 122.837 104.768 122.962C104.466 123.087 104.143 123.152 103.817 123.152ZM19.7269 0.0870948C19.0967 0.0882459 18.4926 0.33912 18.0469 0.784772C17.6012 1.23042 17.3504 1.83453 17.3492 2.46477V120.665C17.3504 121.295 17.6012 121.899 18.0469 122.345C18.4926 122.791 19.0967 123.042 19.7269 123.043H103.817C104.447 123.042 105.051 122.791 105.497 122.345C105.942 121.899 106.193 121.295 106.194 120.665V2.46477C106.193 1.83453 105.942 1.23042 105.497 0.784772C105.051 0.33912 104.447 0.0882459 103.817 0.0870948H19.7269Z" fill="#EBEBEB"/>
<path d="M198.009 123.152H113.92C113.26 123.152 112.628 122.89 112.161 122.423C111.695 121.957 111.433 121.324 111.433 120.665V2.46477C111.439 1.80908 111.703 1.1822 112.169 0.720578C112.635 0.258959 113.264 -2.5138e-05 113.92 1.83009e-09H198.009C198.669 1.8301e-09 199.301 0.261975 199.767 0.728293C200.234 1.19461 200.496 1.82707 200.496 2.48655V120.665C200.496 121.324 200.234 121.957 199.767 122.423C199.301 122.89 198.669 123.152 198.009 123.152ZM113.92 0.0870948C113.289 0.0882459 112.685 0.33912 112.24 0.784772C111.794 1.23042 111.543 1.83453 111.542 2.46477V120.665C111.543 121.295 111.794 121.899 112.24 122.345C112.685 122.791 113.289 123.042 113.92 123.043H198.009C198.639 123.042 199.244 122.791 199.689 122.345C200.135 121.899 200.386 121.295 200.387 120.665V2.46477C200.386 1.83453 200.135 1.23042 199.689 0.784772C199.244 0.33912 198.639 0.0882459 198.009 0.0870948H113.92Z" fill="#EBEBEB"/>
<path d="M217.736 142.574H0V142.682H217.736V142.574Z" fill="#EBEBEB"/>
<path d="M51.9649 113.114C51.5991 108.907 47.3054 107.335 42.2147 107.779C37.124 108.224 33.1743 110.518 33.5314 114.725L51.9649 113.114Z" fill="#F0F0F0"/>
<path d="M42.0492 105.859C44.4095 105.65 45.1628 103.655 44.9581 101.295C44.7535 98.9349 43.6517 97.1016 41.3002 97.3063C38.9486 97.5109 38.1866 99.5097 38.3912 101.87C38.5959 104.23 39.6889 106.064 42.0492 105.859Z" fill="#F0F0F0"/>
<path d="M148.104 23.5155C148.145 23.9824 148.047 24.451 147.822 24.8621C147.597 25.2732 147.255 25.6083 146.839 25.825C146.424 26.0416 145.953 26.1301 145.487 26.0793C145.021 26.0285 144.581 25.8406 144.222 25.5394C143.863 25.2382 143.601 24.8373 143.47 24.3873C143.339 23.9373 143.344 23.4586 143.485 23.0116C143.626 22.5646 143.897 22.1695 144.262 21.8763C144.628 21.583 145.072 21.4049 145.539 21.3643C146.164 21.3099 146.786 21.5059 147.267 21.9092C147.748 22.3126 148.049 22.8903 148.104 23.5155Z" fill="#F5F5F5"/>
<path d="M161.199 22.3572C161.239 22.8231 161.141 23.2905 160.915 23.7004C160.69 24.1102 160.348 24.4441 159.934 24.6598C159.519 24.8755 159.049 24.9633 158.584 24.912C158.119 24.8608 157.68 24.6729 157.322 24.3721C156.964 24.0713 156.703 23.6711 156.572 23.222C156.442 22.7729 156.447 22.2952 156.588 21.8493C156.729 21.4034 156.999 21.0092 157.364 20.7167C157.729 20.4242 158.172 20.2464 158.638 20.2059C159.263 20.1528 159.883 20.3493 160.363 20.7526C160.843 21.1558 161.143 21.7328 161.199 22.3572Z" fill="#F5F5F5"/>
<path d="M174.298 21.2118C174.339 21.6786 174.241 22.1473 174.016 22.5584C173.791 22.9695 173.449 23.3046 173.033 23.5212C172.618 23.7379 172.147 23.8264 171.681 23.7756C171.215 23.7248 170.775 23.5369 170.416 23.2357C170.057 22.9345 169.795 22.5336 169.664 22.0836C169.533 21.6336 169.538 21.1549 169.679 20.7079C169.82 20.2609 170.09 19.8658 170.456 19.5726C170.821 19.2793 171.266 19.1011 171.733 19.0605C172.358 19.0062 172.979 19.2022 173.46 19.6055C173.941 20.0089 174.242 20.5866 174.298 21.2118Z" fill="#F5F5F5"/>
<path d="M149.271 36.8497C149.313 37.3166 149.214 37.7852 148.989 38.1963C148.764 38.6074 148.422 38.9425 148.007 39.1592C147.591 39.3759 147.12 39.4644 146.655 39.4136C146.189 39.3627 145.748 39.1748 145.389 38.8736C145.03 38.5724 144.768 38.1715 144.637 37.7215C144.506 37.2716 144.511 36.7928 144.652 36.3458C144.793 35.8989 145.064 35.5037 145.429 35.2105C145.795 34.9173 146.239 34.7391 146.706 34.6985C147.332 34.6441 147.953 34.8401 148.434 35.2435C148.915 35.6468 149.216 36.2245 149.271 36.8497Z" fill="#F5F5F5"/>
<path d="M162.366 35.7087C162.406 36.1746 162.308 36.6421 162.082 37.0519C161.857 37.4618 161.516 37.7957 161.101 38.0113C160.686 38.227 160.216 38.3148 159.751 38.2636C159.286 38.2124 158.847 38.0245 158.489 37.7237C158.131 37.4228 157.87 37.0226 157.74 36.5735C157.609 36.1245 157.614 35.6468 157.755 35.2009C157.896 34.7549 158.166 34.3608 158.531 34.0682C158.896 33.7757 159.339 33.598 159.805 33.5575C160.115 33.5306 160.426 33.5649 160.722 33.6584C161.019 33.752 161.293 33.903 161.531 34.1027C161.769 34.3025 161.965 34.5471 162.108 34.8227C162.251 35.0982 162.339 35.3993 162.366 35.7087Z" fill="#F5F5F5"/>
<path d="M175.465 34.5591C175.506 35.0259 175.408 35.4946 175.183 35.9057C174.958 36.3168 174.616 36.6519 174.2 36.8685C173.785 37.0852 173.314 37.1737 172.848 37.1229C172.382 37.0721 171.942 36.8842 171.583 36.583C171.224 36.2818 170.962 35.8809 170.831 35.4309C170.7 34.9809 170.705 34.5022 170.846 34.0552C170.987 33.6082 171.257 33.2131 171.623 32.9199C171.989 32.6266 172.433 32.4484 172.9 32.4078C173.525 32.3535 174.146 32.5495 174.627 32.9528C175.108 33.3562 175.409 33.9339 175.465 34.5591Z" fill="#F5F5F5"/>
<path d="M150.438 50.2013C150.479 50.6672 150.38 51.1346 150.155 51.5445C149.93 51.9543 149.588 52.2882 149.173 52.5039C148.758 52.7196 148.288 52.8074 147.824 52.7561C147.359 52.7049 146.919 52.5171 146.561 52.2162C146.203 51.9154 145.943 51.5152 145.812 51.0661C145.681 50.617 145.687 50.1393 145.828 49.6934C145.969 49.2475 146.239 48.8533 146.603 48.5608C146.968 48.2683 147.412 48.0905 147.878 48.05C148.187 48.0225 148.499 48.0564 148.795 48.1498C149.092 48.2431 149.367 48.394 149.605 48.5939C149.843 48.7938 150.039 49.0386 150.182 49.3145C150.325 49.5903 150.412 49.8917 150.438 50.2013Z" fill="#F5F5F5"/>
<path d="M163.537 49.0516C163.579 49.5185 163.48 49.9871 163.255 50.3982C163.03 50.8093 162.688 51.1444 162.273 51.3611C161.857 51.5778 161.387 51.6663 160.921 51.6154C160.455 51.5646 160.014 51.3767 159.655 51.0755C159.296 50.7744 159.034 50.3734 158.903 49.9234C158.772 49.4735 158.777 48.9947 158.918 48.5477C159.059 48.1008 159.33 47.7057 159.695 47.4124C160.061 47.1192 160.505 46.941 160.972 46.9004C161.598 46.846 162.219 47.042 162.7 47.4454C163.181 47.8487 163.482 48.4264 163.537 49.0516Z" fill="#F5F5F5"/>
<path d="M176.632 47.902C176.673 48.3688 176.575 48.8375 176.35 49.2486C176.125 49.6597 175.783 49.9947 175.367 50.2114C174.952 50.4281 174.481 50.5166 174.015 50.4658C173.549 50.415 173.109 50.2271 172.75 49.9259C172.391 49.6247 172.129 49.2237 171.998 48.7738C171.867 48.3238 171.872 47.8451 172.013 47.3981C172.154 46.9511 172.424 46.556 172.79 46.2628C173.156 45.9695 173.6 45.7913 174.067 45.7507C174.692 45.6964 175.314 45.8924 175.794 46.2957C176.275 46.6991 176.577 47.2768 176.632 47.902Z" fill="#F5F5F5"/>
<path d="M173.801 48.6771L146.898 51.0287L170.753 22.0436L146.319 24.1818C146.25 24.1884 146.182 24.1812 146.116 24.1608C146.051 24.1403 145.99 24.107 145.938 24.0628C145.885 24.0186 145.842 23.9643 145.811 23.9032C145.78 23.8422 145.762 23.7755 145.757 23.7071C145.745 23.5703 145.788 23.4342 145.876 23.3289C145.964 23.2235 146.09 23.1575 146.227 23.1454L173.135 20.7938L149.276 49.7788L173.719 47.6407C173.856 47.6298 173.993 47.6734 174.099 47.7622C174.205 47.851 174.271 47.9778 174.285 48.1153C174.29 48.184 174.282 48.2531 174.26 48.3185C174.239 48.384 174.205 48.4445 174.16 48.4967C174.115 48.5489 174.06 48.5917 173.999 48.6227C173.937 48.6537 173.87 48.6721 173.801 48.6771Z" fill="#E6E6E6"/>
<path d="M174.215 100.424C174.174 100.297 174.096 100.186 173.991 100.103C173.887 100.02 173.76 99.9696 173.627 99.9583C172.457 99.9043 171.35 99.4151 170.522 98.5865C169.447 97.5022 168.815 95.8605 168.711 93.9096C168.701 93.7335 168.624 93.568 168.496 93.4466C168.368 93.3252 168.199 93.2572 168.023 93.2563C167.927 93.2568 167.833 93.2766 167.746 93.3145C167.658 93.3523 167.579 93.4075 167.514 93.4767C167.448 93.5459 167.397 93.6276 167.364 93.717C167.331 93.8064 167.317 93.9015 167.321 93.9967C167.443 96.2872 168.219 98.2469 169.538 99.5663C170.571 100.601 171.942 101.23 173.401 101.339H173.501C173.615 101.347 173.73 101.328 173.835 101.281C173.94 101.235 174.032 101.163 174.103 101.073C174.174 100.982 174.221 100.876 174.24 100.763C174.26 100.649 174.251 100.533 174.215 100.424Z" fill="#F0F0F0"/>
<path d="M172.821 108.781C167.051 108.276 162.888 104.344 161.573 98.2034C161.552 98.1112 161.55 98.0157 161.567 97.9227C161.584 97.8296 161.62 97.741 161.672 97.6621C161.724 97.5831 161.791 97.5156 161.87 97.4634C161.949 97.4113 162.038 97.3756 162.131 97.3585C162.307 97.3272 162.488 97.3649 162.638 97.4638C162.787 97.5628 162.892 97.7153 162.932 97.8898C164.112 103.407 167.814 106.943 172.948 107.392C178.574 107.884 184.614 104.182 185.698 94.8546C185.717 94.6727 185.807 94.5055 185.948 94.389C186.088 94.2725 186.27 94.216 186.452 94.2319C186.544 94.2395 186.634 94.2655 186.716 94.3084C186.798 94.3513 186.871 94.4102 186.929 94.4817C186.988 94.5531 187.032 94.6356 187.059 94.7244C187.085 94.8131 187.093 94.9063 187.083 94.9983C186.042 103.795 180.259 109.43 172.821 108.781Z" fill="#F0F0F0"/>
<path d="M161.935 92.0849C161.842 92.0773 161.753 92.0513 161.671 92.0084C161.589 91.9655 161.516 91.9066 161.457 91.8351C161.398 91.7637 161.354 91.6811 161.328 91.5924C161.301 91.5036 161.293 91.4105 161.303 91.3185C162.34 82.522 168.123 76.8826 175.556 77.5358C182.088 78.1063 186.465 82.9836 187.149 90.33C187.156 90.4222 187.144 90.5149 187.115 90.6027C187.086 90.6906 187.04 90.7717 186.979 90.8414C186.918 90.9111 186.844 90.968 186.761 91.0088C186.678 91.0496 186.588 91.0735 186.495 91.079C186.314 91.0875 186.136 91.025 185.999 90.9047C185.863 90.7845 185.778 90.6158 185.764 90.4345C185.132 83.8153 181.226 79.4301 175.439 78.925C169.834 78.4329 163.768 82.13 162.688 91.4491C162.68 91.5404 162.655 91.6292 162.613 91.7105C162.571 91.7918 162.513 91.8641 162.443 91.9232C162.373 91.9822 162.292 92.0269 162.205 92.0546C162.118 92.0824 162.026 92.0927 161.935 92.0849Z" fill="#F0F0F0"/>
<path d="M173.105 105.049C172.07 104.966 171.056 104.713 170.104 104.3C170.015 104.261 169.936 104.204 169.87 104.133C169.804 104.062 169.754 103.977 169.723 103.886C169.691 103.794 169.679 103.697 169.687 103.6C169.695 103.504 169.723 103.41 169.769 103.325C169.85 103.175 169.985 103.061 170.146 103.004C170.307 102.948 170.483 102.954 170.64 103.02C171.548 103.41 172.518 103.634 173.505 103.682C177.768 103.925 182.271 100.903 182.715 93.6048C182.985 89.1064 181.444 85.4745 178.57 83.737C178.421 83.647 178.311 83.5046 178.262 83.3378C178.213 83.171 178.228 82.9919 178.304 82.8356C178.347 82.7492 178.408 82.6726 178.482 82.6106C178.556 82.5486 178.642 82.5025 178.735 82.4751C178.828 82.4478 178.925 82.4398 179.021 82.4516C179.117 82.4634 179.209 82.4948 179.293 82.5438C182.624 84.5557 184.409 88.6404 184.105 93.6875C183.669 100.725 179.288 105.41 173.422 105.075L173.105 105.049Z" fill="#F0F0F0"/>
<path d="M166.903 100.707C166.823 100.762 166.733 100.799 166.638 100.817C166.542 100.834 166.445 100.832 166.35 100.811C166.256 100.789 166.167 100.748 166.089 100.691C166.011 100.633 165.946 100.56 165.897 100.476C164.607 98.0765 164.039 95.3538 164.264 92.638C164.674 85.9012 168.711 81.3157 174.193 81.2373C174.29 81.2354 174.386 81.2534 174.475 81.2903C174.564 81.3271 174.645 81.382 174.712 81.4515C174.779 81.521 174.831 81.6036 174.865 81.6942C174.898 81.7847 174.913 81.8812 174.907 81.9776C174.896 82.1518 174.821 82.3156 174.695 82.4365C174.569 82.5575 174.402 82.6268 174.228 82.6308C170.161 82.7092 166.076 85.7837 165.658 92.7207C165.447 95.1721 165.952 97.632 167.112 99.8015C167.2 99.9521 167.227 100.13 167.188 100.3C167.149 100.47 167.047 100.618 166.903 100.716V100.707Z" fill="#F0F0F0"/>
<path d="M176.423 100.159C176.357 100.004 176.349 99.8302 176.401 99.6701C176.453 99.51 176.561 99.3742 176.706 99.2877C178.539 98.1859 179.663 95.8736 179.68 93.0822C179.68 90.8482 179.049 88.9583 177.856 87.7607C177.392 87.3016 176.84 86.9419 176.233 86.7038C175.625 86.4657 174.976 86.3541 174.324 86.3759C172.177 86.3759 170.435 87.5561 169.473 89.6289C169.398 89.7865 169.268 89.9103 169.106 89.9756C168.945 90.041 168.765 90.0431 168.602 89.9816C168.511 89.948 168.428 89.8959 168.358 89.8286C168.289 89.7613 168.234 89.6803 168.197 89.5907C168.16 89.5011 168.142 89.4048 168.144 89.3079C168.147 89.2111 168.169 89.1158 168.21 89.0279C169.403 86.4891 171.637 84.9868 174.306 84.9824C175.143 84.9608 175.975 85.1087 176.752 85.417C177.53 85.7253 178.237 86.1878 178.831 86.7766C180.29 88.2397 181.082 90.4824 181.065 93.0953C181.039 96.3831 179.654 99.144 177.398 100.498C177.313 100.545 177.219 100.573 177.122 100.581C177.025 100.589 176.927 100.577 176.835 100.545C176.743 100.513 176.659 100.462 176.588 100.395C176.517 100.329 176.461 100.248 176.423 100.159Z" fill="#F0F0F0"/>
<path d="M171.406 95.0157C171.313 95.0536 171.213 95.071 171.113 95.0666C171.012 95.0622 170.914 95.0361 170.825 94.9902C170.735 94.9443 170.657 94.8796 170.595 94.8006C170.533 94.7215 170.489 94.63 170.466 94.5323C170.418 94.3451 170.383 94.1491 170.352 93.9488C169.956 91.336 171.358 89.0759 173.61 88.6709C174.134 88.5569 174.678 88.5672 175.197 88.7011C175.717 88.8349 176.198 89.0886 176.601 89.4417C176.677 89.5091 176.737 89.5926 176.776 89.6862C176.815 89.7798 176.832 89.881 176.827 89.9822C176.821 90.0835 176.793 90.1822 176.744 90.2711C176.696 90.3599 176.627 90.4366 176.545 90.4955L176.501 90.526C176.371 90.6168 176.213 90.6599 176.054 90.648C175.896 90.6361 175.746 90.5699 175.63 90.4607C175.386 90.2545 175.097 90.1078 174.787 90.0322C174.476 89.9567 174.152 89.9543 173.841 90.0252C172.125 90.3344 171.472 92.1198 171.715 93.7224C171.742 93.8791 171.768 94.0315 171.807 94.1578C171.849 94.3218 171.83 94.4955 171.754 94.6468C171.678 94.7981 171.55 94.9168 171.393 94.9809L171.406 95.0157Z" fill="#F0F0F0"/>
<path d="M173.71 97.6982C173.6 97.6874 173.495 97.6489 173.404 97.5861C173.313 97.5233 173.24 97.4385 173.191 97.3395C173.142 97.2406 173.12 97.1308 173.125 97.0206C173.13 96.9104 173.164 96.8033 173.222 96.7097L173.283 96.6138C173.346 96.514 173.434 96.4333 173.539 96.3803C173.645 96.3273 173.762 96.3042 173.88 96.3134C174.098 96.3259 174.317 96.3127 174.533 96.2742C176.031 96.0042 176.71 94.6107 176.71 93.191C176.706 93.0205 176.764 92.8542 176.872 92.7229C176.981 92.5916 177.134 92.5042 177.302 92.4769C177.399 92.4621 177.498 92.4678 177.592 92.4937C177.686 92.5196 177.774 92.565 177.85 92.627C177.925 92.6891 177.987 92.7663 178.031 92.8537C178.074 92.9411 178.099 93.0368 178.104 93.1344C178.143 95.4076 176.797 97.2845 174.781 97.6459C174.428 97.7112 174.068 97.7288 173.71 97.6982Z" fill="#F0F0F0"/>
<path d="M174.019 95.1245C173.667 95.0949 173.334 94.956 173.065 94.7271C172.796 94.4983 172.606 94.1911 172.521 93.8486C172.496 93.752 172.495 93.6509 172.518 93.5537C172.54 93.4565 172.585 93.3661 172.649 93.2899C172.714 93.2136 172.795 93.1539 172.887 93.1155C172.979 93.0771 173.079 93.0612 173.179 93.0691H173.34C173.462 93.0819 173.577 93.1298 173.672 93.2072C173.767 93.2845 173.838 93.3878 173.875 93.5046C173.891 93.5653 173.924 93.6197 173.972 93.6603C174.02 93.7009 174.079 93.7256 174.141 93.731C174.476 93.7615 174.533 93.2955 174.542 93.1823C174.562 93.0128 174.53 92.8412 174.45 92.6902C174.33 92.545 174.268 92.3604 174.276 92.172C174.287 92.0337 174.339 91.9017 174.426 91.7932C174.512 91.6846 174.629 91.6044 174.761 91.5627C174.894 91.5211 175.036 91.5199 175.169 91.5595C175.302 91.599 175.42 91.6773 175.508 91.7844C175.848 92.2138 176.005 92.7601 175.944 93.3042C175.831 94.4495 175.025 95.2116 174.019 95.1245Z" fill="#F0F0F0"/>
<path d="M160.92 79.539C160.829 79.5313 160.74 79.5057 160.659 79.4636C160.578 79.4215 160.506 79.3638 160.447 79.2938C160.389 79.2237 160.345 79.1428 160.317 79.0556C160.29 78.9683 160.28 78.8766 160.289 78.7856L160.816 72.7456L166.856 73.2769C166.947 73.2845 167.035 73.3102 167.116 73.3522C167.197 73.3943 167.269 73.452 167.328 73.5221C167.387 73.5921 167.431 73.6731 167.458 73.7603C167.486 73.8475 167.495 73.9393 167.487 74.0302C167.479 74.1215 167.454 74.2103 167.412 74.2916C167.37 74.373 167.312 74.4452 167.242 74.5043C167.172 74.5633 167.091 74.608 167.004 74.6357C166.917 74.6635 166.825 74.6738 166.734 74.666L162.083 74.2567L161.678 78.9075C161.67 78.9988 161.643 79.0875 161.601 79.1687C161.558 79.2498 161.5 79.3218 161.43 79.3804C161.359 79.4391 161.278 79.4832 161.191 79.5105C161.103 79.5377 161.011 79.5474 160.92 79.539Z" fill="#F0F0F0"/>
<path d="M189.631 82.0516C189.54 82.0439 189.451 82.0183 189.37 81.9763C189.289 81.9342 189.217 81.8764 189.158 81.8064C189.099 81.7364 189.055 81.6554 189.028 81.5682C189.001 81.481 188.991 81.3892 188.999 81.2982L189.404 76.6474L184.753 76.2424C184.662 76.2342 184.573 76.2081 184.492 76.1655C184.411 76.123 184.339 76.0649 184.281 75.9945C184.222 75.9241 184.178 75.8429 184.151 75.7554C184.123 75.6679 184.114 75.5759 184.122 75.4847C184.13 75.3936 184.155 75.305 184.197 75.2239C184.239 75.1428 184.297 75.0708 184.367 75.0121C184.437 74.9534 184.518 74.9091 184.605 74.8819C184.693 74.8546 184.784 74.8449 184.875 74.8533L190.915 75.3802L190.388 81.4332C190.369 81.6152 190.278 81.782 190.136 81.8977C189.995 82.0134 189.813 82.0687 189.631 82.0516Z" fill="#F0F0F0"/>
<path d="M187.493 114.529L181.453 114.002C181.361 113.994 181.273 113.968 181.191 113.925C181.11 113.883 181.038 113.825 180.98 113.754C180.921 113.684 180.877 113.603 180.85 113.515C180.822 113.428 180.813 113.336 180.821 113.245C180.829 113.153 180.854 113.065 180.896 112.984C180.939 112.903 180.996 112.831 181.066 112.772C181.136 112.713 181.217 112.669 181.304 112.642C181.392 112.614 181.483 112.605 181.574 112.613L186.225 113.018L186.63 108.372C186.638 108.28 186.664 108.191 186.706 108.109C186.748 108.027 186.806 107.955 186.877 107.896C186.947 107.837 187.029 107.792 187.116 107.765C187.204 107.737 187.296 107.727 187.388 107.736C187.479 107.743 187.568 107.769 187.649 107.811C187.73 107.853 187.802 107.911 187.861 107.981C187.919 108.051 187.964 108.132 187.991 108.219C188.018 108.306 188.028 108.398 188.019 108.489L187.493 114.529Z" fill="#F0F0F0"/>
<path d="M163.433 112.413L157.393 111.882L157.92 105.846C157.937 105.662 158.027 105.492 158.168 105.373C158.31 105.254 158.493 105.196 158.677 105.21C158.769 105.218 158.857 105.244 158.938 105.287C159.02 105.329 159.092 105.388 159.15 105.458C159.209 105.528 159.253 105.61 159.28 105.697C159.307 105.785 159.317 105.877 159.309 105.968L158.904 110.61L163.55 111.019C163.642 111.027 163.73 111.053 163.812 111.095C163.893 111.137 163.965 111.194 164.024 111.264C164.083 111.334 164.128 111.415 164.156 111.502C164.184 111.59 164.194 111.681 164.186 111.773C164.171 111.957 164.083 112.128 163.941 112.248C163.8 112.368 163.617 112.427 163.433 112.413Z" fill="#F0F0F0"/>
<path d="M32.5428 99.3443C32.4294 99.3528 32.3171 99.3165 32.23 99.2433C32.1429 99.17 32.088 99.0656 32.0769 98.9524L31.7546 95.2421L35.4649 94.9155C35.5783 94.907 35.6906 94.9433 35.7777 95.0165C35.8648 95.0898 35.9198 95.1942 35.9308 95.3074C35.9381 95.4202 35.9014 95.5314 35.8282 95.6175C35.7551 95.7037 35.6513 95.758 35.5389 95.7691L32.6822 96.0216L32.9304 98.8783C32.939 98.9911 32.9033 99.1028 32.831 99.1898C32.7587 99.2768 32.6553 99.3322 32.5428 99.3443Z" fill="#E0E0E0"/>
<path d="M50.1969 97.7984C50.0841 97.8069 49.9724 97.7713 49.8854 97.6989C49.7985 97.6266 49.743 97.5233 49.7309 97.4108L49.4827 94.5498L46.6217 94.8023C46.5082 94.8108 46.3959 94.7746 46.3088 94.7013C46.2217 94.6281 46.1668 94.5237 46.1557 94.4104C46.1472 94.2969 46.1834 94.1846 46.2567 94.0975C46.3299 94.0105 46.4344 93.9555 46.5476 93.9445L50.2578 93.6222L50.5845 97.3324C50.593 97.4452 50.5574 97.5569 50.485 97.6439C50.4127 97.7308 50.3093 97.7863 50.1969 97.7984Z" fill="#E0E0E0"/>
<path d="M52.0259 113.785L48.3113 114.111C48.1978 114.12 48.0855 114.083 47.9984 114.01C47.9113 113.937 47.8564 113.832 47.8453 113.719C47.8368 113.606 47.8731 113.493 47.9463 113.406C48.0196 113.319 48.124 113.264 48.2373 113.253L51.094 113.005L50.8457 110.148C50.8372 110.036 50.8728 109.924 50.9452 109.837C51.0175 109.75 51.1208 109.695 51.2333 109.682C51.3461 109.674 51.4578 109.709 51.5448 109.782C51.6317 109.854 51.6871 109.958 51.6993 110.07L52.0259 113.785Z" fill="#E0E0E0"/>
<path d="M37.2285 115.078L33.5313 115.4L33.2047 111.686C33.1974 111.573 33.2342 111.462 33.3073 111.375C33.3804 111.289 33.4842 111.235 33.5966 111.224C33.7087 111.217 33.8193 111.253 33.9053 111.325C33.9913 111.397 34.0461 111.5 34.0582 111.612L34.3108 114.473L37.1675 114.22C37.281 114.212 37.3933 114.248 37.4804 114.321C37.5674 114.394 37.6224 114.499 37.6335 114.612C37.6376 114.669 37.6304 114.727 37.6123 114.781C37.5941 114.835 37.5654 114.886 37.5278 114.929C37.4902 114.972 37.4444 115.008 37.393 115.033C37.3416 115.059 37.2857 115.074 37.2285 115.078Z" fill="#E0E0E0"/>
<path d="M49.8964 37.4505L35.7087 38.6699L35.4169 35.3472C35.3956 33.7614 35.9747 32.2262 37.038 31.0496C38.1013 29.8729 39.5702 29.1419 41.15 29.003C42.7299 28.8641 44.3038 29.3278 45.556 30.3009C46.8083 31.274 47.6463 32.6846 47.9019 34.2498L48.0674 36.1833L50.1185 36.0048L49.9487 34.0713C49.8531 32.9807 49.5438 31.9197 49.0382 30.9487C48.5326 29.9777 47.8408 29.1158 47.0021 28.4121C46.1634 27.7085 45.1944 27.177 44.1503 26.8479C43.1062 26.5188 42.0075 26.3986 40.917 26.4941C38.7145 26.6869 36.6788 27.7468 35.2578 29.4406C34.5542 30.2793 34.0227 31.2483 33.6936 32.2924C33.3645 33.3365 33.2442 34.4352 33.3397 35.5258L33.6315 38.8702C32.8236 39.0283 32.1028 39.4796 31.6076 40.1372C31.1124 40.7947 30.8778 41.6122 30.949 42.4323L31.9637 54.0333C31.9998 54.4712 32.1222 54.8976 32.3236 55.288C32.5251 55.6784 32.8016 56.0252 33.1375 56.3085C33.4733 56.5917 33.8618 56.8058 34.2807 56.9385C34.6995 57.0712 35.1404 57.1198 35.5781 57.0816L51.4859 55.6925C51.9237 55.6563 52.3501 55.534 52.7405 55.3325C53.131 55.1311 53.4778 54.8545 53.761 54.5186C54.0443 54.1828 54.2584 53.7943 54.3911 53.3755C54.5237 52.9566 54.5724 52.5157 54.5342 52.0781L53.5195 40.4771C53.4807 40.0403 53.3561 39.6155 53.1529 39.227C52.9497 38.8384 52.6719 38.4937 52.3354 38.2126C51.9989 37.9315 51.6103 37.7196 51.1918 37.5888C50.7733 37.458 50.3331 37.411 49.8964 37.4505ZM43.8608 46.3908L44.2091 50.3841C44.2326 50.5448 44.223 50.7086 44.1809 50.8655C44.1388 51.0223 44.0651 51.169 43.9644 51.2964C43.8637 51.4238 43.738 51.5293 43.595 51.6064C43.4521 51.6835 43.2949 51.7306 43.1331 51.7449C42.9713 51.7591 42.8083 51.7402 42.6541 51.6893C42.4999 51.6383 42.3577 51.5564 42.2362 51.4486C42.1148 51.3407 42.0166 51.2092 41.9478 51.0621C41.8789 50.915 41.8408 50.7554 41.8358 50.5931L41.4874 46.5955C41.1282 46.3748 40.8477 46.0465 40.6859 45.6572C40.5241 45.2679 40.4893 44.8375 40.5864 44.4272C40.6834 44.017 40.9075 43.6478 41.2266 43.3723C41.5457 43.0967 41.9436 42.9289 42.3636 42.8927C42.7836 42.8565 43.2044 42.9537 43.5659 43.1705C43.9275 43.3873 44.2114 43.7127 44.3773 44.1003C44.5432 44.4879 44.5826 44.9179 44.4898 45.3291C44.3971 45.7404 44.1769 46.1119 43.8608 46.3908Z" fill="#EBEBEB"/>
<path d="M74.2218 44.1525L72.7891 41.8053C72.067 41.9081 71.3339 41.9081 70.6118 41.8053L69.1747 44.1438L68.9004 44.0697C67.9691 43.8244 67.0755 43.4538 66.244 42.968L66.0001 42.8287L66.6054 40.2855C66.6172 40.2362 66.6386 40.1896 66.6684 40.1486C66.6983 40.1076 66.736 40.073 66.7793 40.0466C66.8226 40.0203 66.8708 40.0028 66.9209 39.9953C66.971 39.9877 67.0222 39.9901 67.0714 40.0024C67.1701 40.0262 67.2553 40.0881 67.3084 40.1747C67.3615 40.2612 67.378 40.3653 67.3544 40.464L66.8754 42.4454C67.4943 42.7826 68.1467 43.054 68.822 43.2554L70.2242 40.9648L70.4811 41.0084C71.2946 41.139 72.1237 41.139 72.9372 41.0084L73.1898 40.9648L74.592 43.2554C75.2679 43.0556 75.9204 42.7841 76.5386 42.4454L75.9158 39.8326L76.1249 39.6802C76.6921 39.2711 77.2005 38.7861 77.6359 38.2388C77.6965 38.1599 77.7852 38.1077 77.8836 38.0931C77.9819 38.0784 78.082 38.1026 78.1629 38.1604C78.2052 38.1898 78.2411 38.2275 78.2684 38.2712C78.2957 38.3149 78.3137 38.3638 78.3215 38.4147C78.3292 38.4657 78.3265 38.5177 78.3134 38.5676C78.3004 38.6174 78.2773 38.6641 78.2456 38.7047C77.8177 39.2451 77.3248 39.7307 76.7781 40.1505L77.4182 42.8199L77.17 42.9593C76.3396 43.4443 75.4475 43.8149 74.518 44.061L74.2218 44.1525ZM65.4166 39.04C65.299 38.905 65.1814 38.7613 65.0682 38.6046L62.3988 39.2447L62.2551 39.0008C61.7729 38.1675 61.4025 37.2744 61.1533 36.3445L61.0836 36.0701L63.4221 34.6331C63.3193 33.9109 63.3193 33.1778 63.4221 32.4557L61.0836 31.023L61.1533 30.7443C61.4025 29.8157 61.7729 28.924 62.2551 28.0923L62.3988 27.8441L65.0682 28.4842C65.5139 27.901 66.0353 27.3796 66.6185 26.9339L66.1351 24.9133C66.1115 24.8146 66.1281 24.7105 66.1812 24.624C66.2342 24.5374 66.3195 24.4755 66.4182 24.4517C66.4668 24.4401 66.5172 24.4382 66.5666 24.4462C66.6159 24.4541 66.6632 24.4717 66.7057 24.4981C66.7482 24.5244 66.7851 24.5588 66.8142 24.5995C66.8434 24.6401 66.8642 24.6861 66.8754 24.7348L67.4807 27.2518L67.2717 27.3999C66.6008 27.8826 66.0126 28.4709 65.5298 29.1418L65.3774 29.3508L62.7646 28.7281C62.4259 29.3462 62.1544 29.9987 61.9546 30.6746L64.2408 32.0768L64.2016 32.3294C64.0562 33.1416 64.0562 33.9733 64.2016 34.7855L64.2408 35.0424L61.9546 36.4446C62.1552 37.1188 62.4267 37.7699 62.7646 38.3868L65.3774 37.7641L65.5298 37.9731C65.6652 38.1706 65.8105 38.361 65.9653 38.5436C66.0324 38.614 66.0698 38.7076 66.0698 38.8049C66.0698 38.9022 66.0324 38.9957 65.9653 39.0662C65.9282 39.1017 65.8842 39.1293 65.8361 39.1473C65.7879 39.1653 65.7367 39.1733 65.6853 39.1709C65.634 39.1684 65.5837 39.1556 65.5375 39.1331C65.4913 39.1106 65.4502 39.0789 65.4166 39.04ZM80.9804 39.2534L79.9962 39.0183C79.8975 38.9945 79.8123 38.9326 79.7592 38.846C79.7061 38.7595 79.6896 38.6554 79.7131 38.5567C79.7369 38.458 79.7988 38.3727 79.8854 38.3197C79.9719 38.2666 80.076 38.25 80.1747 38.2736L80.6102 38.3738C80.9467 37.7567 81.2167 37.1056 81.4158 36.4316L79.1296 35.0293L79.1732 34.7724C79.3186 33.9602 79.3186 33.1286 79.1732 32.3164L79.1296 32.0638L81.4158 30.6616C81.2176 29.9858 80.9475 29.3332 80.6102 28.715L77.9974 29.3377L77.8493 29.1287C77.3654 28.4588 76.7774 27.8707 76.1074 27.3868L75.8984 27.2387L76.5211 24.6259C75.9029 24.2887 75.2503 24.0186 74.5746 23.8203L73.1593 26.1283L72.9067 26.0847C72.0932 25.9541 71.2641 25.9541 70.4507 26.0847L70.1937 26.1283L68.8046 23.829L68.5433 23.9074C68.4503 23.938 68.349 23.931 68.2611 23.8879C68.1731 23.8448 68.1056 23.7689 68.073 23.6766C68.055 23.6289 68.0467 23.5781 68.0486 23.5271C68.0505 23.4762 68.0626 23.4261 68.0841 23.3799C68.1056 23.3336 68.1361 23.2922 68.1738 23.2579C68.2115 23.2236 68.2557 23.1971 68.3038 23.1801C68.4954 23.1192 68.6913 23.0626 68.8829 23.0103L69.1573 22.9363L70.5944 25.2791C71.3162 25.1718 72.0499 25.1718 72.7717 25.2791L74.2044 22.9363L74.4831 23.0103C75.4121 23.2584 76.3039 23.6289 77.1352 24.1121L77.3834 24.2558L76.7432 26.9252C77.3273 27.3699 77.8488 27.8914 78.2935 28.4755L80.9629 27.8353L81.1067 28.0836C81.5906 28.9144 81.9611 29.8064 82.2084 30.7356L82.2824 31.0143L79.9396 32.447C80.0481 33.1687 80.0481 33.9026 79.9396 34.6244L82.2824 36.0614L82.2084 36.3358C81.9612 37.2664 81.5906 38.1597 81.1067 38.9921L80.9804 39.2534ZM71.5829 37.2764C70.634 37.2388 69.7341 36.845 69.0626 36.1735C68.3911 35.502 67.9973 34.6021 67.9598 33.6532C67.9338 32.7199 68.2583 31.8108 68.8692 31.1047C69.4802 30.3987 70.3333 29.947 71.2606 29.8385C71.315 29.8317 71.3703 29.8366 71.4227 29.8527C71.475 29.8689 71.5234 29.8959 71.5646 29.9322C71.6057 29.9684 71.6387 30.0129 71.6614 30.0628C71.6841 30.1127 71.6959 30.1669 71.6961 30.2217C71.6957 30.3144 71.6613 30.4036 71.5995 30.4726C71.5377 30.5416 71.4528 30.5856 71.3608 30.5962C70.7155 30.6698 70.1122 30.9532 69.6436 31.4029C69.1749 31.8526 68.8669 32.4437 68.7667 33.0854C68.6666 33.7271 68.7799 34.384 69.0892 34.9551C69.3985 35.5262 69.8868 35.9799 70.479 36.2467C71.0712 36.5134 71.7345 36.5783 72.3672 36.4315C72.9999 36.2847 73.5669 35.9342 73.9811 35.4339C74.3953 34.9337 74.6338 34.3112 74.66 33.6623C74.6862 33.0133 74.4986 32.3737 74.126 31.8417C74.0723 31.7663 74.0487 31.6735 74.06 31.5816C74.0713 31.4897 74.1166 31.4054 74.187 31.3452C74.2276 31.3092 74.2755 31.2821 74.3274 31.2659C74.3793 31.2497 74.434 31.2448 74.488 31.2514C74.5419 31.258 74.5938 31.2759 74.6403 31.3041C74.6868 31.3323 74.7267 31.3701 74.7575 31.4149C75.1536 31.9816 75.3843 32.6474 75.4238 33.3377C75.4633 34.028 75.31 34.7157 74.981 35.3239C74.6521 35.9321 74.1604 36.4368 73.5611 36.7816C72.9618 37.1264 72.2783 37.2977 71.5872 37.2764H71.5829Z" fill="#F0F0F0"/>
<path d="M47.166 76.0291L46.2385 74.518C45.7693 74.5877 45.2924 74.5877 44.8232 74.518L43.8956 76.0291L43.7171 75.9812C43.1159 75.8226 42.5388 75.5839 42.0013 75.2714L41.8446 75.1799L42.2365 73.5338C42.252 73.4706 42.2917 73.416 42.3471 73.3818C42.4025 73.3476 42.4691 73.3365 42.5326 73.3509C42.5644 73.3586 42.5943 73.3725 42.6207 73.3917C42.6471 73.411 42.6695 73.4353 42.6865 73.4632C42.7035 73.4911 42.7148 73.5221 42.7198 73.5544C42.7247 73.5867 42.7233 73.6197 42.7155 73.6514L42.4107 74.9317C42.8102 75.1506 43.2321 75.3258 43.6692 75.4543L44.575 73.978L44.7361 74.0042C45.2623 74.0912 45.7993 74.0912 46.3256 74.0042L46.4867 73.978L47.3968 75.4543C47.8315 75.3231 48.2517 75.148 48.651 74.9317L48.2504 73.2508L48.3854 73.1506C48.7515 72.8876 49.0797 72.5755 49.3608 72.2231C49.3991 72.1713 49.4562 72.1367 49.5199 72.1269C49.5835 72.1172 49.6484 72.1329 49.7005 72.1708C49.7272 72.1899 49.7499 72.214 49.7673 72.2419C49.7846 72.2698 49.7962 72.3008 49.8015 72.3332C49.8068 72.3656 49.8055 72.3987 49.7979 72.4306C49.7903 72.4626 49.7764 72.4927 49.7571 72.5192C49.4797 72.8685 49.1609 73.1829 48.8078 73.4555L49.2432 75.1973L49.0821 75.2888C48.545 75.602 47.9678 75.8408 47.3663 75.9986L47.166 76.0291ZM41.4788 72.7239L41.2523 72.4495L39.5104 72.8589L39.419 72.7021C39.1122 72.1623 38.8793 71.5838 38.7266 70.982L38.6787 70.8034L40.1898 69.8759C40.1201 69.4067 40.1201 68.9298 40.1898 68.4606L38.6787 67.533L38.7266 67.3545C38.8844 66.7531 39.1232 66.1759 39.4364 65.6387L39.5278 65.4776L41.2697 65.9131C41.5498 65.5318 41.876 65.1866 42.2408 64.8854L41.9317 63.5789C41.9239 63.5475 41.9225 63.5148 41.9275 63.4828C41.9326 63.4508 41.9439 63.4201 41.961 63.3925C41.978 63.3649 42.0004 63.341 42.0267 63.3222C42.0531 63.3034 42.083 63.29 42.1146 63.2828C42.178 63.2684 42.2447 63.2795 42.3 63.3137C42.3554 63.3479 42.3952 63.4025 42.4107 63.4657L42.8026 65.09L42.6633 65.1902C42.2317 65.4998 41.8537 65.8778 41.5441 66.3094L41.4439 66.4444L39.763 66.0437C39.5468 66.443 39.3717 66.8632 39.2404 67.2979L40.7167 68.2037L40.6906 68.3691C40.6457 68.631 40.6224 68.8961 40.6209 69.1617C40.6223 69.4288 40.6456 69.6953 40.6906 69.9586L40.7167 70.1197L39.2404 71.0255C39.3708 71.4619 39.546 71.8836 39.763 72.284L41.4439 71.879L41.5441 72.014C41.6341 72.143 41.7315 72.2666 41.8359 72.3842C41.8787 72.4295 41.9026 72.4895 41.9026 72.5519C41.9026 72.6142 41.8787 72.6742 41.8359 72.7195C41.8133 72.7443 41.7859 72.7642 41.7554 72.778C41.7248 72.7917 41.6918 72.799 41.6583 72.7994C41.6248 72.7999 41.5915 72.7934 41.5606 72.7804C41.5298 72.7673 41.5019 72.7481 41.4788 72.7239ZM51.5338 72.8589L50.898 72.7108C50.8663 72.7031 50.8363 72.6893 50.8099 72.67C50.7835 72.6508 50.7612 72.6265 50.7442 72.5986C50.7272 72.5706 50.7159 72.5396 50.7109 72.5073C50.7059 72.475 50.7073 72.4421 50.7151 72.4103C50.7223 72.3787 50.7357 72.3489 50.7545 72.3225C50.7733 72.2961 50.7972 72.2738 50.8248 72.2567C50.8524 72.2397 50.8831 72.2284 50.9151 72.2233C50.9471 72.2183 50.9798 72.2197 51.0113 72.2274L51.2856 72.2927C51.5045 71.8932 51.6797 71.4713 51.8082 71.0342L50.3319 70.1284L50.358 69.9673C50.403 69.704 50.4263 69.4375 50.4277 69.1704C50.4263 68.9048 50.4029 68.6397 50.358 68.3779L50.3319 68.2124L51.8082 67.3066C51.6788 66.8712 51.5037 66.4508 51.2856 66.0524L49.6047 66.4531L49.5045 66.3181C49.1949 65.8865 48.8169 65.5085 48.3854 65.1989L48.2504 65.0987L48.651 63.4178C48.2526 63.1998 47.8322 63.0246 47.3968 62.8953L46.4867 64.3715L46.3256 64.3454C45.7993 64.2583 45.2623 64.2583 44.7361 64.3454L44.575 64.3715L43.6692 62.8953L43.4994 62.9475C43.4387 62.9669 43.3729 62.9619 43.3159 62.9334C43.2589 62.9049 43.2154 62.8553 43.1945 62.7951C43.1828 62.7645 43.1773 62.732 43.1785 62.6993C43.1796 62.6666 43.1873 62.6344 43.2011 62.6048C43.2149 62.5751 43.2346 62.5485 43.2589 62.5266C43.2832 62.5047 43.3117 62.4879 43.3426 62.4772L43.7171 62.364L43.8956 62.3204L44.8232 63.8315C45.2924 63.7618 45.7693 63.7618 46.2385 63.8315L47.166 62.3204L47.3446 62.364C47.9455 62.5252 48.5225 62.7654 49.0603 63.0782L49.2215 63.1696L48.786 64.9115C49.161 65.2015 49.4975 65.5381 49.7876 65.9131L51.5295 65.4776L51.6209 65.6387C51.9341 66.1759 52.1729 66.7531 52.3307 67.3545L52.3786 67.533L50.8675 68.4606C50.9372 68.9298 50.9372 69.4067 50.8675 69.8759L52.3786 70.8034L52.3307 70.982C52.1721 71.5831 51.9334 72.1602 51.6209 72.6977L51.5338 72.8589ZM45.4633 71.5829C44.8716 71.5423 44.3156 71.2852 43.9014 70.8606C43.4873 70.4361 43.2441 69.8738 43.2182 69.2812C43.1923 68.6887 43.3857 68.1074 43.7613 67.6483C44.1368 67.1893 44.6684 66.8847 45.2543 66.7927C45.2892 66.7891 45.3245 66.7928 45.358 66.8036C45.3914 66.8143 45.4222 66.832 45.4484 66.8553C45.4747 66.8787 45.4957 66.9073 45.5103 66.9392C45.5249 66.9712 45.5326 67.0058 45.533 67.041C45.5334 67.1013 45.5113 67.1597 45.4711 67.2048C45.4308 67.2498 45.3753 67.2783 45.3153 67.2848C44.948 67.3268 44.6007 67.4742 44.3152 67.7092C44.0298 67.9441 43.8184 68.2567 43.7066 68.6091C43.5948 68.9615 43.5874 69.3387 43.6852 69.6952C43.7829 70.0518 43.9818 70.3724 44.2577 70.6185C44.5336 70.8646 44.8748 71.0256 45.2402 71.0821C45.6055 71.1386 45.9794 71.0881 46.3168 70.9369C46.6542 70.7857 46.9406 70.5401 47.1415 70.2297C47.3424 69.9194 47.4492 69.5575 47.4491 69.1878C47.4499 68.7947 47.3281 68.4111 47.1007 68.0904C47.0675 68.041 47.0531 67.9812 47.0603 67.922C47.0675 67.8629 47.0958 67.8082 47.1399 67.7682C47.1661 67.7446 47.1971 67.7269 47.2307 67.7162C47.2643 67.7056 47.2998 67.7022 47.3348 67.7063C47.3698 67.7104 47.4036 67.7219 47.4338 67.7401C47.464 67.7583 47.49 67.7827 47.5101 67.8117C47.7647 68.1781 47.9128 68.608 47.9378 69.0535C47.9628 69.4991 47.8638 69.9428 47.6517 70.3354C47.4396 70.728 47.1228 71.0541 46.7364 71.2774C46.3501 71.5007 45.9094 71.6125 45.4633 71.6003V71.5829Z" fill="#E6E6E6"/>
<path d="M108.868 162C155.499 162 193.302 159.793 193.302 157.07C193.302 154.348 155.499 152.141 108.868 152.141C62.2366 152.141 24.4344 154.348 24.4344 157.07C24.4344 159.793 62.2366 162 108.868 162Z" fill="#F5F5F5"/>
<path d="M158.272 39.5539H144.093L134.078 154.192H148.256C150.247 154.154 152.154 153.388 153.619 152.041C155.083 150.693 156.004 148.856 156.208 146.876L164.957 46.8655C165.058 45.9337 164.96 44.9909 164.669 44.0999C164.378 43.209 163.9 42.3904 163.268 41.6985C162.635 41.0067 161.862 40.4576 161.001 40.0878C160.14 39.718 159.21 39.536 158.272 39.5539Z" fill="#58B0CD"/>
<path d="M155.381 39.5539H107.392C105.402 39.5912 103.494 40.3553 102.028 41.7022C100.563 43.049 99.6406 44.8856 99.4357 46.8655L90.6871 146.876C90.5863 147.807 90.6847 148.749 90.9757 149.639C91.2667 150.53 91.7437 151.348 92.375 152.04C93.0063 152.731 93.7775 153.281 94.6375 153.652C95.4974 154.023 96.4264 154.207 97.3629 154.192H145.348C147.335 154.149 149.239 153.382 150.7 152.035C152.162 150.688 153.082 148.853 153.286 146.876L162.035 46.8655C162.136 45.9363 162.039 44.9961 161.749 44.1073C161.46 43.2186 160.985 42.4014 160.356 41.7101C159.726 41.0188 158.958 40.4691 158.1 40.0974C157.242 39.7256 156.315 39.5404 155.381 39.5539Z" fill="#58B0CD"/>
<path opacity="0.3" d="M155.381 39.5539H107.392C105.402 39.5912 103.494 40.3553 102.028 41.7022C100.563 43.049 99.6406 44.8856 99.4357 46.8655L90.6871 146.876C90.5863 147.807 90.6847 148.749 90.9757 149.639C91.2667 150.53 91.7437 151.348 92.375 152.04C93.0063 152.731 93.7775 153.281 94.6375 153.652C95.4974 154.023 96.4264 154.207 97.3629 154.192H145.348C147.335 154.149 149.239 153.382 150.7 152.035C152.162 150.688 153.082 148.853 153.286 146.876L162.035 46.8655C162.136 45.9363 162.039 44.9961 161.749 44.1073C161.46 43.2186 160.985 42.4014 160.356 41.7101C159.726 41.0188 158.958 40.4691 158.1 40.0974C157.242 39.7256 156.315 39.5404 155.381 39.5539Z" fill="white"/>
<path opacity="0.4" d="M155.176 41.8967H142.521C142.144 41.8998 141.776 42.016 141.466 42.2303C141.155 42.4445 140.916 42.747 140.779 43.0986C140.28 44.3902 139.408 45.5037 138.273 46.2972C137.138 47.0906 135.793 47.528 134.408 47.5535H126.944C125.641 47.5798 124.368 47.1506 123.347 46.3398C122.326 45.529 121.619 44.3875 121.349 43.1117C121.277 42.7665 121.086 42.4574 120.81 42.2379C120.534 42.0184 120.19 41.9023 119.838 41.9098H107.187C105.834 41.9337 104.538 42.4525 103.542 43.3682C102.546 44.2838 101.92 45.5327 101.783 46.8785L93.0299 146.889C92.9598 147.522 93.0256 148.163 93.2228 148.769C93.42 149.375 93.7441 149.932 94.1736 150.402C94.603 150.873 95.1278 151.247 95.7131 151.498C96.2983 151.75 96.9305 151.874 97.5675 151.862H145.557C146.91 151.837 148.207 151.317 149.202 150.401C150.198 149.485 150.824 148.235 150.961 146.889L159.709 46.8785C159.781 46.245 159.716 45.6035 159.52 44.9969C159.323 44.3904 159 43.8327 158.571 43.3612C158.142 42.8896 157.617 42.5151 157.032 42.2625C156.446 42.01 155.814 41.8853 155.176 41.8967Z" fill="white"/>
<path d="M143.218 96.2393H109.634C109.404 96.2431 109.175 96.1978 108.963 96.1064C108.751 96.015 108.561 95.8795 108.405 95.7091C108.249 95.5386 108.132 95.337 108.06 95.1176C107.988 94.8982 107.964 94.666 107.988 94.4365L108.158 92.5117C108.208 92.0237 108.435 91.5708 108.796 91.2386C109.157 90.9065 109.627 90.718 110.118 90.7088H143.706C143.937 90.705 144.166 90.7504 144.378 90.8418C144.59 90.9332 144.78 91.0687 144.935 91.2391C145.091 91.4096 145.209 91.6112 145.28 91.8306C145.352 92.05 145.377 92.2822 145.352 92.5117L145.186 94.4365C145.135 94.9256 144.907 95.3792 144.544 95.7113C144.182 96.0435 143.71 96.2313 143.218 96.2393Z" fill="white"/>
<path d="M142.495 104.513H108.907C108.677 104.517 108.448 104.472 108.236 104.38C108.024 104.289 107.834 104.153 107.679 103.983C107.524 103.812 107.406 103.611 107.335 103.391C107.264 103.172 107.24 102.94 107.265 102.71L107.431 100.786C107.482 100.298 107.709 99.8456 108.07 99.5136C108.431 99.1816 108.9 98.9929 109.391 98.9828H142.979C143.209 98.979 143.438 99.0243 143.65 99.1157C143.862 99.2071 144.052 99.3426 144.208 99.5131C144.364 99.6835 144.481 99.8852 144.553 100.105C144.625 100.324 144.649 100.556 144.625 100.786L144.455 102.71C144.404 103.198 144.177 103.65 143.816 103.982C143.455 104.314 142.985 104.503 142.495 104.513Z" fill="white"/>
<path opacity="0.1" d="M133.015 43.7693C132.96 44.3112 132.707 44.814 132.306 45.1824C131.905 45.5508 131.382 45.7592 130.838 45.7681C130.582 45.7727 130.328 45.7227 130.092 45.6215C129.857 45.5203 129.646 45.3701 129.474 45.181C129.301 44.9919 129.171 44.7682 129.091 44.5247C129.012 44.2813 128.985 44.0238 129.013 43.7693C129.068 43.2273 129.321 42.7245 129.722 42.3561C130.123 41.9877 130.646 41.7793 131.19 41.7704C131.446 41.7658 131.7 41.8158 131.936 41.917C132.171 42.0183 132.382 42.1684 132.554 42.3575C132.727 42.5466 132.857 42.7703 132.937 43.0138C133.016 43.2572 133.043 43.5147 133.015 43.7693Z" fill="black"/>
<path opacity="0.1" d="M132.109 43.7693C132.078 44.0651 131.941 44.3395 131.722 44.5408C131.503 44.7421 131.218 44.8565 130.92 44.8623C130.78 44.865 130.641 44.8378 130.513 44.7825C130.384 44.7272 130.269 44.6451 130.174 44.5417C130.08 44.4382 130.009 44.3158 129.965 44.1826C129.922 44.0494 129.908 43.9085 129.923 43.7693C129.953 43.4731 130.09 43.1982 130.31 42.9967C130.529 42.7952 130.814 42.6812 131.112 42.6763C131.252 42.6742 131.39 42.7019 131.519 42.7574C131.647 42.813 131.762 42.8951 131.856 42.9984C131.951 43.1017 132.022 43.2239 132.066 43.3567C132.109 43.4896 132.124 43.6302 132.109 43.7693Z" fill="black"/>
<g opacity="0.8">
<path d="M149.267 47.105C149.192 47.1061 149.117 47.0912 149.048 47.0613C148.979 47.0314 148.917 46.9872 148.867 46.9316C148.816 46.876 148.778 46.8104 148.754 46.7389C148.731 46.6675 148.723 46.5919 148.731 46.5171L148.827 45.4459C148.843 45.2876 148.917 45.1407 149.034 45.0331C149.151 44.9255 149.304 44.8647 149.463 44.8623C149.537 44.8614 149.612 44.8762 149.68 44.9058C149.749 44.9355 149.811 44.9792 149.861 45.0343C149.912 45.0894 149.95 45.1545 149.974 45.2254C149.997 45.2964 150.006 45.3715 149.998 45.4459L149.903 46.5171C149.887 46.6759 149.813 46.8233 149.696 46.9316C149.579 47.0399 149.426 47.1016 149.267 47.105Z" fill="white"/>
<path d="M153.952 47.105C153.877 47.1061 153.803 47.0912 153.734 47.0613C153.665 47.0314 153.603 46.9872 153.552 46.9316C153.502 46.8761 153.463 46.8104 153.44 46.7389C153.417 46.6675 153.409 46.5919 153.417 46.5172L153.639 44.0045C153.655 43.8462 153.728 43.6993 153.846 43.5917C153.963 43.4841 154.116 43.4233 154.275 43.4209C154.349 43.42 154.424 43.4348 154.492 43.4644C154.561 43.494 154.622 43.5378 154.673 43.5929C154.724 43.648 154.762 43.7131 154.786 43.784C154.809 43.855 154.818 43.9301 154.81 44.0045L154.588 46.5172C154.572 46.6759 154.499 46.8233 154.382 46.9316C154.265 47.0399 154.112 47.1016 153.952 47.105Z" fill="white"/>
<path d="M151.61 47.105C151.534 47.1061 151.46 47.0912 151.391 47.0613C151.322 47.0314 151.26 46.9872 151.21 46.9316C151.159 46.876 151.121 46.8104 151.097 46.7389C151.074 46.6675 151.066 46.5919 151.074 46.5171L151.231 44.7274C151.247 44.5679 151.321 44.4199 151.439 44.3115C151.557 44.2031 151.711 44.1419 151.871 44.1395C151.946 44.1383 152.02 44.1532 152.089 44.1832C152.158 44.2131 152.219 44.2574 152.27 44.313C152.32 44.3687 152.358 44.4344 152.381 44.5059C152.404 44.5773 152.411 44.6528 152.402 44.7274L152.245 46.5171C152.229 46.6759 152.156 46.8233 152.039 46.9316C151.922 47.0399 151.769 47.1016 151.61 47.105Z" fill="white"/>
</g>
<g opacity="0.8">
<path d="M109.147 47.1051H106.203C106.161 47.106 106.119 47.0978 106.08 47.0811C106.041 47.0643 106.006 47.0394 105.977 47.0081C105.949 46.9767 105.927 46.9396 105.915 46.8992C105.902 46.8588 105.898 46.8162 105.903 46.7741L106.038 45.1933C106.047 45.1036 106.089 45.0204 106.156 44.9595C106.222 44.8985 106.309 44.864 106.399 44.8624H109.343C109.385 44.8615 109.427 44.8696 109.466 44.8864C109.505 44.9031 109.54 44.928 109.568 44.9594C109.597 44.9907 109.618 45.0279 109.631 45.0682C109.644 45.1086 109.648 45.1513 109.643 45.1933L109.504 46.7741C109.496 46.8638 109.455 46.9475 109.389 47.0087C109.323 47.0699 109.237 47.1043 109.147 47.1051Z" fill="white"/>
<path d="M110.51 46.6739C110.467 46.6748 110.425 46.6666 110.386 46.6499C110.347 46.6332 110.312 46.6084 110.283 46.5771C110.254 46.5458 110.232 46.5088 110.219 46.4684C110.205 46.428 110.201 46.3853 110.205 46.343L110.27 45.6201C110.279 45.53 110.321 45.4463 110.387 45.3851C110.454 45.324 110.541 45.2898 110.632 45.2891C110.674 45.2882 110.716 45.2964 110.755 45.3131C110.794 45.3299 110.829 45.3548 110.857 45.3861C110.886 45.4175 110.907 45.4546 110.92 45.495C110.933 45.5353 110.937 45.578 110.932 45.6201L110.871 46.343C110.862 46.4327 110.82 46.5159 110.753 46.5768C110.687 46.6378 110.6 46.6723 110.51 46.6739Z" fill="white"/>
</g>
<path d="M137.684 83.5805C143.544 77.9708 144.129 69.0713 138.99 63.703C133.851 58.3347 124.934 58.5304 119.074 64.1401C113.214 69.7498 112.63 78.6492 117.769 84.0176C122.908 89.3859 131.824 89.1902 137.684 83.5805Z" fill="white"/>
<path d="M128.429 73.3248C124.737 73.3248 121.614 74.7314 121.349 77.7841L121.053 81.1764H134.435L134.731 77.7841C134.996 74.7314 132.127 73.3248 128.429 73.3248Z" fill="#58B0CD"/>
<path d="M128.551 71.9269C130.267 71.9269 131.06 70.5377 131.208 68.822C131.356 67.1062 130.811 65.717 129.096 65.717C127.38 65.717 126.592 67.1105 126.439 68.822C126.287 70.5334 126.836 71.9269 128.551 71.9269Z" fill="#58B0CD"/>
<path d="M141.685 93.3564C140.775 93.3564 140.004 93.7048 139.943 94.4582L139.869 95.2986H143.175L143.249 94.4582C143.31 93.7048 142.6 93.3564 141.685 93.3564Z" fill="#58B0CD"/>
<path d="M141.716 93.0125C142.151 93.0125 142.334 92.6684 142.373 92.246C142.412 91.8236 142.273 91.4796 141.851 91.4796C141.428 91.4796 141.232 91.8236 141.193 92.246C141.154 92.6684 141.293 93.0125 141.716 93.0125Z" fill="#58B0CD"/>
<path d="M131.513 112.787H118.448C118.094 112.794 117.743 112.725 117.417 112.585C117.092 112.445 116.8 112.237 116.561 111.975C116.322 111.714 116.141 111.404 116.031 111.067C115.921 110.731 115.884 110.374 115.923 110.022C116 109.273 116.349 108.579 116.903 108.069C117.458 107.56 118.179 107.271 118.932 107.257H131.996C132.35 107.251 132.701 107.321 133.026 107.461C133.351 107.601 133.643 107.809 133.882 108.07C134.121 108.332 134.301 108.641 134.411 108.977C134.522 109.314 134.559 109.67 134.522 110.022C134.445 110.771 134.097 111.466 133.542 111.976C132.988 112.485 132.266 112.774 131.513 112.787Z" fill="#58B0CD"/>
<path d="M129.932 143.627H115.949C115.574 143.638 115.201 143.567 114.855 143.42C114.51 143.273 114.201 143.054 113.948 142.776C113.695 142.499 113.505 142.171 113.39 141.813C113.275 141.456 113.239 141.078 113.284 140.705L114.176 130.507C114.256 129.715 114.624 128.981 115.209 128.443C115.794 127.904 116.556 127.599 117.351 127.585H131.338C131.713 127.578 132.084 127.651 132.427 127.799C132.771 127.947 133.079 128.167 133.331 128.443C133.583 128.72 133.774 129.047 133.89 129.403C134.006 129.758 134.044 130.135 134.004 130.507L133.111 140.705C133.029 141.497 132.661 142.231 132.075 142.769C131.489 143.307 130.727 143.612 129.932 143.627Z" fill="#58B0CD"/>
<g opacity="0.6">
<path d="M125.621 133.08C125.644 132.858 125.619 132.633 125.548 132.421C125.478 132.208 125.363 132.013 125.212 131.849C125.06 131.684 124.875 131.553 124.67 131.465C124.464 131.377 124.242 131.334 124.018 131.338C123.542 131.345 123.084 131.526 122.732 131.847C122.38 132.168 122.157 132.607 122.106 133.08C122.079 133.345 122.118 133.613 122.221 133.859C122.323 134.104 122.486 134.32 122.694 134.487L122.389 138.001C122.375 138.134 122.388 138.269 122.43 138.396C122.471 138.524 122.539 138.641 122.629 138.74C122.72 138.839 122.83 138.917 122.953 138.97C123.076 139.023 123.209 139.049 123.343 139.046C123.627 139.04 123.899 138.931 124.107 138.738C124.316 138.546 124.447 138.284 124.475 138.001L124.785 134.487C125.018 134.327 125.214 134.119 125.358 133.876C125.502 133.633 125.592 133.361 125.621 133.08Z" fill="white"/>
</g>
<path d="M131.46 129.71H129.657L130.093 124.663C130.169 123.962 130.095 123.253 129.876 122.584C129.658 121.914 129.299 121.298 128.824 120.778C128.349 120.257 127.769 119.844 127.122 119.564C126.475 119.285 125.776 119.147 125.072 119.158C123.575 119.188 122.14 119.763 121.038 120.777C119.936 121.791 119.242 123.173 119.089 124.663L118.653 129.71H116.85L117.286 124.663C117.489 122.686 118.408 120.852 119.871 119.506C121.333 118.161 123.238 117.397 125.224 117.36C126.16 117.344 127.087 117.527 127.946 117.897C128.805 118.267 129.575 118.816 130.206 119.507C130.837 120.197 131.313 121.014 131.604 121.903C131.894 122.792 131.992 123.733 131.891 124.663L131.46 129.71Z" fill="#58B0CD"/>
<path d="M141.907 101.086L141.964 100.594C141.976 100.48 141.963 100.365 141.927 100.256C141.891 100.147 141.833 100.047 141.755 99.9623C141.678 99.8776 141.584 99.8102 141.479 99.7645C141.373 99.7187 141.26 99.6957 141.145 99.6969C140.901 99.702 140.668 99.7959 140.488 99.9611C140.308 100.126 140.195 100.351 140.17 100.594L140.126 101.077C140.029 101.08 139.936 101.118 139.864 101.185C139.793 101.251 139.748 101.342 139.739 101.439L139.625 102.745C139.62 102.791 139.624 102.837 139.638 102.881C139.652 102.925 139.675 102.965 139.706 102.999C139.737 103.033 139.775 103.06 139.818 103.078C139.86 103.096 139.906 103.104 139.952 103.102H141.746C141.843 103.101 141.936 103.063 142.008 102.998C142.079 102.932 142.124 102.842 142.134 102.745L142.247 101.439C142.251 101.393 142.245 101.346 142.229 101.303C142.214 101.259 142.189 101.219 142.157 101.186C142.125 101.152 142.086 101.126 142.043 101.109C142 101.092 141.954 101.084 141.907 101.086ZM141.093 99.9277C141.179 99.9267 141.265 99.9439 141.344 99.9782C141.424 100.013 141.495 100.063 141.553 100.127C141.612 100.191 141.656 100.266 141.683 100.348C141.71 100.43 141.72 100.517 141.711 100.603L141.668 101.086H140.318L140.361 100.603C140.38 100.42 140.465 100.251 140.6 100.127C140.735 100.003 140.91 99.9321 141.093 99.9277Z" fill="#58B0CD"/>
<path d="M114.899 101.604L114.272 101.474C114.255 101.47 114.238 101.463 114.224 101.452C114.21 101.441 114.199 101.427 114.191 101.411C114.183 101.395 114.178 101.378 114.178 101.36C114.178 101.342 114.182 101.324 114.189 101.308L114.451 100.69C114.462 100.663 114.463 100.633 114.454 100.606C114.445 100.579 114.426 100.555 114.402 100.54C114.377 100.525 114.348 100.519 114.32 100.523C114.291 100.528 114.265 100.542 114.246 100.564L113.771 101.051C113.76 101.066 113.745 101.077 113.729 101.086C113.712 101.094 113.694 101.098 113.676 101.098C113.657 101.098 113.639 101.094 113.622 101.086C113.606 101.077 113.591 101.066 113.58 101.051L113.192 100.564C113.11 100.459 112.931 100.564 112.961 100.69L113.114 101.308C113.118 101.326 113.119 101.345 113.116 101.363C113.113 101.382 113.106 101.399 113.096 101.415C113.085 101.43 113.072 101.443 113.056 101.454C113.041 101.464 113.023 101.471 113.005 101.474L112.356 101.604C112.217 101.63 112.199 101.826 112.334 101.853L112.961 101.983C112.979 101.986 112.996 101.994 113.01 102.005C113.024 102.016 113.035 102.03 113.043 102.046C113.05 102.062 113.054 102.08 113.054 102.098C113.053 102.115 113.048 102.133 113.04 102.149L112.787 102.771C112.776 102.798 112.775 102.828 112.784 102.855C112.793 102.883 112.812 102.906 112.836 102.921C112.861 102.936 112.89 102.942 112.918 102.938C112.947 102.934 112.973 102.919 112.992 102.898L113.467 102.41C113.479 102.397 113.494 102.386 113.51 102.379C113.527 102.372 113.544 102.368 113.562 102.368C113.58 102.368 113.598 102.372 113.615 102.379C113.631 102.386 113.646 102.397 113.658 102.41L114.046 102.898C114.129 103.002 114.307 102.898 114.272 102.771L114.12 102.153C114.113 102.116 114.122 102.078 114.143 102.047C114.164 102.016 114.196 101.995 114.233 101.988L114.882 101.857C115.017 101.826 115.034 101.63 114.899 101.604Z" fill="#263238"/>
<path d="M119.019 101.604L118.392 101.474C118.374 101.47 118.358 101.463 118.344 101.452C118.33 101.441 118.318 101.427 118.31 101.411C118.302 101.395 118.298 101.378 118.298 101.36C118.298 101.342 118.301 101.324 118.309 101.308L118.57 100.69C118.581 100.663 118.582 100.633 118.573 100.606C118.564 100.579 118.546 100.555 118.521 100.54C118.497 100.525 118.468 100.519 118.439 100.523C118.411 100.528 118.385 100.542 118.366 100.564L117.891 101.051C117.88 101.066 117.865 101.077 117.848 101.086C117.832 101.094 117.814 101.098 117.795 101.098C117.777 101.098 117.759 101.094 117.742 101.086C117.725 101.077 117.711 101.066 117.699 101.051L117.312 100.564C117.229 100.459 117.051 100.564 117.085 100.69L117.238 101.308C117.242 101.327 117.242 101.345 117.238 101.364C117.234 101.382 117.227 101.4 117.216 101.415C117.206 101.43 117.192 101.444 117.176 101.454C117.161 101.464 117.143 101.471 117.125 101.474L116.476 101.604C116.336 101.63 116.319 101.826 116.454 101.853L117.081 101.983C117.098 101.987 117.115 101.994 117.129 102.005C117.143 102.016 117.155 102.03 117.163 102.046C117.171 102.062 117.175 102.079 117.175 102.097C117.175 102.115 117.171 102.133 117.164 102.149L116.903 102.767C116.892 102.794 116.891 102.823 116.9 102.851C116.908 102.878 116.927 102.902 116.951 102.917C116.976 102.932 117.005 102.938 117.034 102.934C117.062 102.929 117.088 102.915 117.107 102.893L117.582 102.406C117.594 102.392 117.609 102.382 117.625 102.375C117.642 102.367 117.66 102.364 117.678 102.364C117.696 102.364 117.713 102.367 117.73 102.375C117.746 102.382 117.761 102.392 117.773 102.406L118.161 102.893C118.244 102.998 118.422 102.893 118.392 102.767L118.239 102.149C118.236 102.131 118.235 102.112 118.239 102.094C118.242 102.076 118.249 102.059 118.259 102.043C118.269 102.028 118.283 102.015 118.298 102.004C118.313 101.994 118.33 101.987 118.348 101.983L118.997 101.853C119.136 101.826 119.154 101.63 119.019 101.604Z" fill="#263238"/>
<path d="M123.138 101.604L122.516 101.474C122.498 101.471 122.481 101.464 122.466 101.453C122.451 101.443 122.44 101.429 122.431 101.412C122.423 101.396 122.419 101.378 122.42 101.36C122.42 101.342 122.424 101.324 122.433 101.308L122.694 100.69C122.711 100.662 122.716 100.629 122.708 100.597C122.701 100.566 122.681 100.539 122.653 100.522C122.625 100.505 122.592 100.5 122.56 100.508C122.529 100.516 122.502 100.536 122.485 100.564L122.015 101.051C122.003 101.066 121.988 101.078 121.971 101.086C121.954 101.094 121.936 101.098 121.917 101.098C121.898 101.098 121.88 101.094 121.863 101.086C121.846 101.078 121.831 101.066 121.819 101.051L121.431 100.564C121.349 100.459 121.17 100.564 121.205 100.69L121.357 101.308C121.361 101.326 121.361 101.345 121.358 101.363C121.355 101.381 121.348 101.398 121.337 101.414C121.327 101.429 121.314 101.442 121.299 101.453C121.284 101.463 121.267 101.47 121.248 101.474L120.6 101.604C120.46 101.631 120.443 101.826 120.578 101.853L121.201 101.983C121.218 101.987 121.234 101.994 121.249 102.005C121.263 102.016 121.274 102.03 121.282 102.046C121.29 102.062 121.294 102.079 121.295 102.097C121.295 102.115 121.291 102.133 121.283 102.149L121.022 102.767C121.005 102.795 121 102.828 121.008 102.859C121.016 102.891 121.036 102.918 121.063 102.935C121.091 102.951 121.124 102.957 121.156 102.949C121.187 102.941 121.214 102.921 121.231 102.893L121.701 102.406C121.714 102.392 121.728 102.382 121.745 102.375C121.761 102.368 121.779 102.364 121.797 102.364C121.815 102.364 121.833 102.368 121.849 102.375C121.866 102.382 121.881 102.392 121.893 102.406L122.285 102.893C122.368 102.998 122.546 102.893 122.511 102.767L122.359 102.149C122.352 102.112 122.36 102.075 122.38 102.044C122.401 102.013 122.432 101.992 122.468 101.983L123.117 101.853C123.239 101.826 123.273 101.631 123.138 101.604Z" fill="#263238"/>
<path d="M127.262 101.604L126.635 101.474C126.618 101.47 126.601 101.463 126.587 101.452C126.573 101.441 126.562 101.427 126.554 101.411C126.546 101.395 126.541 101.378 126.541 101.36C126.541 101.342 126.545 101.324 126.553 101.308L126.814 100.69C126.825 100.663 126.826 100.633 126.817 100.606C126.808 100.579 126.789 100.555 126.765 100.54C126.74 100.525 126.711 100.519 126.683 100.523C126.654 100.528 126.628 100.542 126.609 100.564L126.134 101.051C126.123 101.066 126.109 101.077 126.092 101.086C126.075 101.094 126.057 101.098 126.039 101.098C126.02 101.098 126.002 101.094 125.985 101.086C125.969 101.077 125.954 101.066 125.943 101.051L125.555 100.564C125.473 100.459 125.294 100.564 125.325 100.69L125.477 101.308C125.481 101.326 125.482 101.345 125.479 101.363C125.476 101.382 125.469 101.399 125.459 101.415C125.448 101.43 125.435 101.443 125.42 101.454C125.404 101.464 125.386 101.471 125.368 101.474L124.719 101.604C124.58 101.63 124.562 101.826 124.719 101.853L125.346 101.983C125.364 101.986 125.38 101.994 125.394 102.005C125.409 102.016 125.42 102.03 125.428 102.046C125.435 102.062 125.439 102.08 125.438 102.098C125.438 102.115 125.433 102.133 125.425 102.149L125.168 102.767C125.157 102.794 125.156 102.823 125.165 102.851C125.174 102.878 125.192 102.902 125.217 102.917C125.241 102.932 125.27 102.938 125.299 102.934C125.327 102.929 125.353 102.915 125.372 102.893L125.847 102.406C125.859 102.392 125.874 102.382 125.891 102.375C125.907 102.367 125.925 102.364 125.943 102.364C125.961 102.364 125.979 102.367 125.995 102.375C126.012 102.382 126.026 102.392 126.039 102.406L126.426 102.893C126.509 102.998 126.688 102.893 126.653 102.767L126.5 102.149C126.494 102.112 126.502 102.074 126.523 102.043C126.544 102.012 126.577 101.991 126.614 101.983L127.262 101.853C127.38 101.826 127.397 101.63 127.262 101.604Z" fill="#263238"/>
<path d="M131.382 101.604L130.755 101.474C130.737 101.47 130.721 101.463 130.707 101.452C130.693 101.441 130.681 101.427 130.673 101.411C130.665 101.395 130.661 101.378 130.661 101.36C130.661 101.342 130.664 101.324 130.672 101.308L130.933 100.69C130.944 100.663 130.945 100.633 130.936 100.606C130.927 100.579 130.909 100.555 130.884 100.54C130.86 100.525 130.831 100.519 130.802 100.523C130.774 100.528 130.748 100.542 130.729 100.564L130.254 101.051C130.243 101.066 130.228 101.077 130.211 101.086C130.195 101.094 130.177 101.098 130.158 101.098C130.14 101.098 130.122 101.094 130.105 101.086C130.088 101.077 130.074 101.066 130.062 101.051L129.675 100.564C129.592 100.459 129.414 100.564 129.448 100.69L129.601 101.308C129.605 101.327 129.605 101.345 129.601 101.364C129.597 101.382 129.59 101.4 129.579 101.415C129.569 101.43 129.555 101.444 129.539 101.454C129.524 101.464 129.506 101.471 129.488 101.474L128.839 101.604C128.699 101.63 128.682 101.826 128.817 101.853L129.444 101.983C129.462 101.987 129.478 101.994 129.492 102.005C129.506 102.016 129.518 102.03 129.526 102.046C129.534 102.062 129.538 102.079 129.538 102.097C129.538 102.115 129.534 102.133 129.527 102.149L129.266 102.767C129.255 102.794 129.254 102.823 129.263 102.851C129.272 102.878 129.29 102.902 129.314 102.917C129.339 102.932 129.368 102.938 129.397 102.934C129.425 102.929 129.451 102.915 129.47 102.893L129.945 102.406C129.957 102.392 129.972 102.382 129.988 102.375C130.005 102.367 130.023 102.364 130.041 102.364C130.059 102.364 130.076 102.367 130.093 102.375C130.109 102.382 130.124 102.392 130.136 102.406L130.524 102.893C130.607 102.998 130.785 102.893 130.755 102.767L130.602 102.149C130.599 102.131 130.598 102.112 130.602 102.094C130.605 102.076 130.612 102.059 130.622 102.043C130.632 102.028 130.646 102.015 130.661 102.004C130.676 101.994 130.693 101.987 130.711 101.983L131.36 101.853C131.513 101.826 131.513 101.63 131.382 101.604Z" fill="#263238"/>
<path d="M135.502 101.604L134.874 101.474C134.857 101.47 134.84 101.463 134.826 101.452C134.812 101.441 134.801 101.427 134.793 101.411C134.786 101.395 134.782 101.377 134.782 101.359C134.783 101.341 134.788 101.324 134.796 101.308L135.057 100.69C135.066 100.676 135.071 100.661 135.074 100.645C135.076 100.629 135.075 100.613 135.071 100.597C135.068 100.582 135.061 100.567 135.051 100.554C135.042 100.541 135.03 100.531 135.016 100.522C135.002 100.514 134.987 100.508 134.971 100.506C134.955 100.504 134.939 100.504 134.924 100.508C134.908 100.512 134.893 100.519 134.88 100.528C134.868 100.538 134.857 100.55 134.848 100.564L134.378 101.051C134.366 101.066 134.351 101.078 134.334 101.086C134.317 101.094 134.299 101.098 134.28 101.098C134.261 101.098 134.243 101.094 134.226 101.086C134.209 101.078 134.194 101.066 134.182 101.051L133.794 100.564C133.712 100.459 133.533 100.564 133.568 100.69L133.72 101.308C133.724 101.326 133.724 101.345 133.721 101.363C133.718 101.381 133.711 101.398 133.701 101.414C133.69 101.429 133.677 101.442 133.662 101.453C133.647 101.463 133.63 101.47 133.612 101.474L132.963 101.604C132.823 101.631 132.806 101.826 132.941 101.853L133.564 101.983C133.581 101.987 133.598 101.994 133.612 102.005C133.626 102.016 133.637 102.03 133.645 102.046C133.653 102.062 133.658 102.079 133.658 102.097C133.658 102.115 133.654 102.133 133.646 102.149L133.385 102.767C133.368 102.795 133.363 102.828 133.371 102.859C133.379 102.891 133.399 102.918 133.427 102.935C133.454 102.951 133.487 102.957 133.519 102.949C133.55 102.941 133.577 102.921 133.594 102.893L134.064 102.406C134.077 102.392 134.092 102.382 134.108 102.375C134.125 102.368 134.142 102.364 134.16 102.364C134.178 102.364 134.196 102.368 134.213 102.375C134.229 102.382 134.244 102.392 134.256 102.406L134.644 102.893C134.664 102.916 134.691 102.931 134.721 102.937C134.752 102.942 134.783 102.937 134.809 102.922C134.836 102.907 134.857 102.884 134.869 102.856C134.881 102.828 134.883 102.796 134.874 102.767L134.722 102.149C134.716 102.112 134.723 102.075 134.743 102.044C134.764 102.013 134.795 101.992 134.831 101.983L135.48 101.853C135.619 101.826 135.637 101.631 135.502 101.604Z" fill="#263238"/>
<path d="M125.568 92.5857H117.834C117.597 92.5897 117.369 92.6806 117.195 92.8411C117.02 93.0015 116.91 93.2205 116.885 93.4566C116.873 93.5677 116.884 93.6802 116.919 93.7866C116.953 93.8929 117.01 93.9906 117.086 94.0731C117.161 94.1556 117.254 94.221 117.356 94.2649C117.459 94.3088 117.57 94.3301 117.682 94.3276H125.416C125.653 94.3235 125.881 94.2327 126.056 94.0722C126.231 93.9117 126.341 93.6927 126.365 93.4566C126.377 93.3456 126.365 93.2334 126.33 93.1274C126.295 93.0214 126.238 92.924 126.163 92.8417C126.088 92.7594 125.996 92.694 125.893 92.6498C125.791 92.6057 125.68 92.5838 125.568 92.5857Z" fill="#263238"/>
<path d="M133.424 92.5857H128.935C128.698 92.5899 128.471 92.6809 128.296 92.8414C128.122 93.002 128.013 93.2209 127.99 93.4566C127.977 93.5674 127.989 93.6795 128.023 93.7855C128.057 93.8915 128.114 93.989 128.189 94.0714C128.264 94.1538 128.356 94.2193 128.458 94.2635C128.56 94.3077 128.671 94.3295 128.782 94.3276H133.254C133.491 94.3234 133.718 94.2324 133.893 94.0719C134.067 93.9113 134.176 93.6924 134.199 93.4566C134.212 93.3474 134.201 93.2367 134.167 93.1319C134.134 93.0272 134.079 92.9306 134.006 92.8484C133.933 92.7663 133.843 92.7004 133.743 92.6552C133.643 92.6099 133.534 92.5862 133.424 92.5857Z" fill="#263238"/>
<path d="M139.351 132.061C136.618 133.103 134.15 134.739 132.127 136.852C130.898 135.898 129.434 135.296 127.89 135.11L127.685 135.079L127.598 136.107L127.711 136.15C129.404 136.774 130.837 137.953 131.774 139.495L131.922 139.739L132.083 139.477C133.887 136.598 136.432 134.258 139.451 132.701L139.551 132.649L139.608 131.97L139.351 132.061Z" fill="#263238"/>
<path opacity="0.2" d="M100.437 46.3212C99.8823 47.2902 99.5408 48.3666 99.4356 49.4783L92.9514 123.604H113.018L117.05 108.15L115.722 92.6902L119.755 77.2353L118.448 61.7804L122.481 46.3212H100.437Z" fill="black"/>
<path d="M116.685 57.4257L120.717 41.9664H69.9717L65.9435 57.4257L67.2674 72.8806L63.2393 88.3355L64.5631 103.795L60.535 119.25H111.276L115.309 103.795L113.98 88.3355L118.013 72.8806L116.685 57.4257Z" fill="#58B0CD"/>
<path opacity="0.7" d="M116.685 57.4257L120.717 41.9664H69.9717L65.9435 57.4257L67.2674 72.8806L63.2393 88.3355L64.5631 103.795L60.535 119.25H111.276L115.309 103.795L113.98 88.3355L118.013 72.8806L116.685 57.4257Z" fill="white"/>
<path opacity="0.5" d="M116.685 57.4257H65.9435L69.9716 41.9664H120.717L116.685 57.4257Z" fill="white"/>
<path opacity="0.5" d="M113.98 88.3355H63.2392L67.2673 72.8806H118.013L113.98 88.3355Z" fill="white"/>
<path opacity="0.5" d="M111.276 119.25H60.5306L64.563 103.795H115.309L111.276 119.25Z" fill="white"/>
<path opacity="0.2" d="M109.896 63.8837C109.375 64.0342 108.835 64.1076 108.293 64.1015C107.558 64.134 106.827 63.9844 106.164 63.666C106.044 63.5949 105.907 63.5573 105.767 63.5571C105.64 63.5589 105.514 63.5918 105.402 63.6529H105.375C105.181 63.7621 104.973 63.8456 104.757 63.9012C104.27 64.0298 103.767 64.0928 103.263 64.0884C103.111 64.0884 102.963 64.0884 102.828 64.0884C102.437 64.0633 102.05 63.9947 101.674 63.8837C101.619 63.8673 101.562 63.8571 101.504 63.8533C101.408 63.8454 101.312 63.8575 101.221 63.8888C101.13 63.92 101.047 63.9697 100.976 64.0347C100.905 64.0997 100.849 64.1787 100.81 64.2666C100.771 64.3546 100.751 64.4496 100.751 64.5457V65.016H80.9978C80.6348 65.016 80.2754 65.0875 79.9402 65.2265C79.6049 65.3656 79.3004 65.5693 79.044 65.8261C78.7875 66.083 78.5843 66.3879 78.4458 66.7233C78.3073 67.0588 78.2363 67.4183 78.2369 67.7812V70.5639C78.2357 70.9272 78.3063 71.2871 78.4445 71.6231C78.5828 71.9591 78.7859 72.2645 79.0424 72.5218C79.2989 72.7791 79.6037 72.9832 79.9392 73.1225C80.2747 73.2618 80.6345 73.3335 80.9978 73.3335H103.438H103.586C103.825 73.5338 104.078 73.7341 104.348 73.9388C104.618 74.1435 105.001 74.4265 105.354 74.6791C105.474 74.7662 105.619 74.8131 105.767 74.8131C105.916 74.8131 106.061 74.7662 106.181 74.6791C109.003 72.6324 110.815 71.2214 110.815 67.3457V64.5587C110.816 64.4473 110.791 64.3371 110.741 64.2373C110.691 64.1376 110.618 64.0511 110.529 63.9851C110.439 63.9191 110.334 63.8755 110.224 63.8579C110.114 63.8402 110.002 63.8491 109.896 63.8837Z" fill="black"/>
<path d="M103.007 63.4875H80.571C79.0438 63.4875 77.8058 64.7256 77.8058 66.2528V69.0355C77.8058 70.5627 79.0438 71.8007 80.571 71.8007H103.007C104.534 71.8007 105.772 70.5627 105.772 69.0355V66.2528C105.772 64.7256 104.534 63.4875 103.007 63.4875Z" fill="#58B0CD"/>
<path d="M107.862 62.5687C107.127 62.6001 106.396 62.4506 105.733 62.1332C105.615 62.0608 105.479 62.0225 105.341 62.0225C105.202 62.0225 105.067 62.0608 104.949 62.1332C104.284 62.4511 103.551 62.6006 102.815 62.5687C102.273 62.5744 101.733 62.5011 101.212 62.3509C101.108 62.3156 100.996 62.3059 100.886 62.3224C100.777 62.3389 100.673 62.3813 100.583 62.446C100.493 62.5107 100.42 62.5959 100.37 62.6944C100.319 62.793 100.293 62.9022 100.294 63.0128V65.7999C100.294 69.6799 102.105 71.0908 104.927 73.1376C105.047 73.2247 105.192 73.2716 105.341 73.2716C105.489 73.2716 105.634 73.2247 105.754 73.1376C108.576 71.0908 110.388 69.6799 110.388 65.7999V63.0128C110.387 62.902 110.361 62.7928 110.31 62.6943C110.259 62.5958 110.185 62.5107 110.095 62.4461C110.005 62.3815 109.901 62.3392 109.791 62.3227C109.682 62.3061 109.57 62.3158 109.465 62.3509C108.944 62.5014 108.404 62.5747 107.862 62.5687Z" fill="#58B0CD"/>
<path opacity="0.3" d="M107.862 62.5687C107.127 62.6001 106.396 62.4506 105.733 62.1332C105.615 62.0608 105.479 62.0225 105.341 62.0225C105.202 62.0225 105.067 62.0608 104.949 62.1332C104.284 62.4511 103.551 62.6006 102.815 62.5687C102.273 62.5744 101.733 62.5011 101.212 62.3509C101.108 62.3156 100.996 62.3059 100.886 62.3224C100.777 62.3389 100.673 62.3813 100.583 62.446C100.493 62.5107 100.42 62.5959 100.37 62.6944C100.319 62.793 100.293 62.9022 100.294 63.0128V65.7999C100.294 69.6799 102.105 71.0908 104.927 73.1376C105.047 73.2247 105.192 73.2716 105.341 73.2716C105.489 73.2716 105.634 73.2247 105.754 73.1376C108.576 71.0908 110.388 69.6799 110.388 65.7999V63.0128C110.387 62.902 110.361 62.7928 110.31 62.6943C110.259 62.5958 110.185 62.5107 110.095 62.4461C110.005 62.3815 109.901 62.3392 109.791 62.3227C109.682 62.3061 109.57 62.3158 109.465 62.3509C108.944 62.5014 108.404 62.5747 107.862 62.5687Z" fill="white"/>
<path opacity="0.2" d="M104.949 62.1245C104.284 62.4424 103.551 62.5919 102.815 62.56C102.273 62.5654 101.733 62.4921 101.212 62.3422C101.108 62.3069 100.996 62.2972 100.886 62.3137C100.777 62.3302 100.673 62.3726 100.583 62.4373C100.493 62.502 100.42 62.5871 100.37 62.6857C100.319 62.7843 100.293 62.8934 100.294 63.0041V65.7912C100.294 69.6712 102.105 71.0821 104.927 73.1289C105.053 73.2205 105.206 73.268 105.362 73.2639V62.0113C105.217 62.0084 105.073 62.0477 104.949 62.1245Z" fill="white"/>
<path d="M109.386 65.0421C107.689 65.7071 106.177 66.7723 104.979 68.147C104.144 67.5314 103.165 67.14 102.136 67.0104H102.001V67.6767L102.075 67.7028C103.22 68.116 104.206 68.8775 104.897 69.8802L105.005 70.0369L105.097 69.8671C106.098 68.0066 107.623 66.4805 109.482 65.4776L109.547 65.4471V65.0116L109.386 65.0421Z" fill="#263238"/>
<path d="M119.82 46.3168H117.895C117.648 46.3214 117.402 46.2732 117.174 46.1753C116.947 46.0774 116.743 45.9321 116.576 45.7491C116.409 45.5661 116.283 45.3497 116.206 45.1142C116.13 44.8786 116.104 44.6295 116.132 44.3833L116.301 42.4585C116.354 41.9351 116.596 41.449 116.983 41.0926C117.37 40.7361 117.874 40.5342 118.4 40.525H120.325C120.573 40.5198 120.819 40.5676 121.047 40.6652C121.276 40.7628 121.48 40.908 121.647 41.0911C121.815 41.2741 121.941 41.4908 122.018 41.7267C122.095 41.9625 122.121 42.212 122.093 42.4585L121.923 44.3833C121.865 44.905 121.62 45.388 121.233 45.7433C120.847 46.0986 120.345 46.3023 119.82 46.3168Z" fill="#58B0CD"/>
<path d="M120.621 42.4542L120.203 41.9926L119.15 42.9593L118.27 41.9926L117.769 42.4542L118.653 43.4209L117.604 44.3877L118.022 44.8449L119.071 43.8781L119.955 44.8449L120.452 44.3877L119.568 43.4209L120.621 42.4542Z" fill="white"/>
<path d="M76.8042 62.9214C77.919 64.1364 78.9816 65.3949 80.0398 66.6621C81.098 67.9293 82.1214 69.2227 83.1404 70.5204C83.1839 70.577 83.1665 70.5552 83.1752 70.5726C83.1839 70.59 83.1752 70.5944 83.1752 70.5988C83.1828 70.6149 83.1931 70.6296 83.2057 70.6423C83.2428 70.6951 83.29 70.7399 83.3446 70.7743C83.3991 70.8087 83.46 70.8319 83.5236 70.8426C83.5727 70.8493 83.6225 70.8493 83.6716 70.8426C83.6977 70.8447 83.7239 70.8447 83.75 70.8426H83.7892C83.811 70.8426 83.7892 70.8426 83.8589 70.8165L84.9476 70.2242C86.4108 69.4491 87.887 68.6914 89.4112 68.0121L90.6871 69.5928C89.4591 70.7207 88.1788 72.136 86.8854 73.1724L85.91 73.9388C85.8494 73.9883 85.7853 74.0334 85.7184 74.0738C85.6444 74.1264 85.5673 74.1744 85.4876 74.2175C85.3299 74.3083 85.1671 74.3898 84.9998 74.4614C84.6624 74.6032 84.3083 74.7012 83.946 74.7532C83.2133 74.8607 82.4655 74.7859 81.7686 74.5354C81.4142 74.4096 81.0775 74.2383 80.767 74.0259C80.6103 73.9214 80.4622 73.7995 80.3316 73.6819C80.2575 73.6209 80.1966 73.5513 80.1269 73.4859L79.9527 73.3118C78.7987 72.1273 77.6621 70.9341 76.5473 69.7191C75.4325 68.5041 74.3308 67.2805 73.2769 66.0089L76.8042 62.9214Z" fill="#B55B52"/>
<path d="M88.8363 68.9701L89.851 65.7084L92.5248 67.0409C92.5248 67.0409 92.1328 69.4186 90.1906 69.8323L88.8363 68.9701Z" fill="#B55B52"/>
<path d="M90.9179 64.807L93.3304 65.4689L92.5204 67.041L89.8466 65.7084L90.9179 64.807Z" fill="#B55B52"/>
<path d="M62.7472 63.8097C62.4598 65.1945 62.1027 66.5663 61.7325 67.9336C61.3624 69.301 60.9574 70.6553 60.535 72.0097L60.3782 72.5192L60.2998 72.7717C60.2893 72.8081 60.2747 72.8432 60.2563 72.8762C60.2066 73.0163 60.1787 73.1632 60.1736 73.3117C60.1644 73.6281 60.2525 73.9397 60.4261 74.2044C60.5118 74.3205 60.6064 74.4297 60.7092 74.531L61.0706 74.9273L61.7848 75.7242C62.2508 76.2642 62.7211 76.8042 63.1653 77.3703L61.6455 79.1122C61.0184 78.7551 60.4174 78.3675 59.8165 77.9843L58.9238 77.3921L58.4883 77.0916C58.3402 76.9871 58.2183 76.9174 57.9788 76.7215C57.1267 75.9953 56.5388 75.0078 56.3066 73.9127C56.1897 73.3544 56.1618 72.7813 56.2238 72.2143C56.2238 72.075 56.2674 71.9182 56.2891 71.7789L56.337 71.5176L56.4285 70.995C56.6724 69.5971 56.9336 68.2036 57.2254 66.8188C57.5172 65.434 57.8307 64.0536 58.2009 62.6906L62.7472 63.8097Z" fill="#B55B52"/>
<path d="M61.6759 77.231L63.4701 76.3121L64.2626 79.3604C64.2626 79.3604 62.8212 79.9135 61.7064 79.2037L61.6759 77.231Z" fill="#B55B52"/>
<path d="M65.9522 75.3324L66.035 78.1368L64.0274 79.4476L63.3307 76.3688L65.9522 75.3324Z" fill="#B55B52"/>
<path d="M71.8268 49.4131C71.8703 49.6264 72.0228 49.7788 72.1621 49.7527C72.3015 49.7266 72.3842 49.5263 72.3407 49.3172C72.2971 49.1082 72.1447 48.9515 72.0053 48.9776C71.866 49.0037 71.7833 49.2084 71.8268 49.4131Z" fill="#263238"/>
<path d="M72.001 49.7832C72.393 50.3906 72.8663 50.9414 73.4076 51.4206C73.2815 51.5563 73.1274 51.6629 72.9559 51.7328C72.7844 51.8028 72.5997 51.8344 72.4147 51.8256L72.001 49.7832Z" fill="#A02724"/>
<path d="M70.7947 48.3766C70.7696 48.3763 70.7451 48.3688 70.7242 48.355C70.7033 48.3412 70.6868 48.3216 70.6767 48.2986C70.6666 48.2757 70.6633 48.2503 70.6672 48.2255C70.6712 48.2007 70.6822 48.1776 70.6989 48.1589C70.8352 48.0046 71.0061 47.8848 71.1976 47.8091C71.389 47.7334 71.5957 47.7041 71.8006 47.7234C71.8175 47.7266 71.8336 47.733 71.848 47.7424C71.8624 47.7517 71.8748 47.7638 71.8845 47.778C71.8942 47.7921 71.901 47.8081 71.9046 47.8249C71.9081 47.8417 71.9083 47.859 71.9051 47.8759C71.9025 47.8926 71.8966 47.9085 71.8877 47.9229C71.8787 47.9373 71.867 47.9497 71.8532 47.9594C71.8394 47.9692 71.8238 47.976 71.8073 47.9796C71.7908 47.9832 71.7737 47.9835 71.7571 47.9804C71.5947 47.9648 71.4309 47.9883 71.2793 48.0489C71.1278 48.1095 70.993 48.2054 70.8861 48.3287C70.8629 48.3558 70.8302 48.373 70.7947 48.3766Z" fill="#263238"/>
<path d="M65.5473 52.4482C66.0263 54.4471 66.5096 58.1094 64.7939 59.4376C64.7939 59.4376 65.4645 61.4669 70.0196 61.4669C75.0275 61.4669 72.4146 60.1604 72.4146 60.1604C69.6799 59.6292 69.7496 57.2559 70.2373 55.7012L65.5473 52.4482Z" fill="#B55B52"/>
<path d="M64.2583 59.8078C63.9621 59.2548 63.6312 58.619 64.3105 58.4187C65.0595 58.2009 69.8628 57.796 71.2781 58.2053C70.8426 58.9761 71.5785 59.9472 71.5785 59.9472L64.2583 59.8078Z" fill="#263238"/>
<path d="M68.2385 153.251H71.3782L71.6918 146.928H68.5477L68.2385 153.251Z" fill="#B55B52"/>
<path d="M48.2982 152.38L51.4815 152.55L53.415 146.319L50.2317 146.149L48.2982 152.38Z" fill="#B55B52"/>
<path d="M51.3857 152.298L48.3853 151.649C48.3328 151.637 48.2777 151.643 48.2294 151.667C48.181 151.691 48.1423 151.731 48.1197 151.779L47.0789 154.04C47.0533 154.094 47.0406 154.154 47.0418 154.215C47.043 154.276 47.058 154.335 47.0858 154.389C47.1135 154.443 47.1532 154.489 47.2019 154.525C47.2505 154.562 47.3068 154.586 47.3663 154.597C48.4158 154.806 48.9384 154.854 50.2578 155.141C51.0678 155.315 52.9012 155.764 54.0203 156.012C55.1395 156.26 55.5271 155.18 55.0916 154.98C53.132 154.087 52.3133 153.299 51.782 152.563C51.6866 152.429 51.5457 152.335 51.3857 152.298Z" fill="#263238"/>
<path d="M71.2128 152.933H68.2298C68.1759 152.934 68.1237 152.953 68.0818 152.987C68.04 153.021 68.0108 153.068 67.999 153.121L67.459 155.546C67.4451 155.605 67.4447 155.666 67.458 155.725C67.4713 155.784 67.4979 155.839 67.5357 155.886C67.5735 155.933 67.6215 155.971 67.6762 155.997C67.7308 156.022 67.7906 156.035 67.8509 156.034C68.9266 156.034 70.4638 155.951 71.8355 155.951C73.4163 155.951 74.7793 156.038 76.6257 156.038C77.7449 156.038 78.0584 154.906 77.5881 154.802C75.4499 154.336 73.708 154.283 71.8616 153.147C71.6687 153.018 71.4444 152.945 71.2128 152.933Z" fill="#263238"/>
<path d="M59.1023 60.3608C56.7333 61.4887 56.0888 68.3256 56.0888 68.3256L61.9546 71.0342C62.9462 69.3619 63.4863 67.4607 63.5223 65.5168C63.6399 61.9851 61.5279 59.2242 59.1023 60.3608Z" fill="#263238"/>
<path opacity="0.4" d="M62.2725 64.5762C61.2143 66.2223 61.3145 68.7654 61.6803 70.9123L61.9415 71.0342C62.9321 69.3615 63.4723 67.4605 63.5092 65.5168C63.5092 65.3078 63.5092 65.0813 63.5092 64.8941L62.2725 64.5762Z" fill="black"/>
<path d="M75.4717 60.1953C75.4717 60.1953 78.3806 63.4788 75.6328 83.7979H61.0314C60.9312 81.5552 62.3378 70.6205 60.1605 60.056C61.7742 59.7456 63.4062 59.539 65.0465 59.4376C67.1147 59.3199 69.188 59.3199 71.2563 59.4376C72.6788 59.5817 74.0881 59.835 75.4717 60.1953Z" fill="#58B0CD"/>
<path opacity="0.6" d="M75.4717 60.1953C75.4717 60.1953 78.3806 63.4788 75.6328 83.7979H61.0314C60.9312 81.5552 62.3378 70.6205 60.1605 60.056C61.7742 59.7456 63.4062 59.539 65.0465 59.4376C67.1147 59.3199 69.188 59.3199 71.2563 59.4376C72.6788 59.5817 74.0881 59.835 75.4717 60.1953Z" fill="#FAFAFA"/>
<path opacity="0.2" d="M76.7476 66.4052L76.6954 66.3573L73.7908 64.807C73.4947 69.2793 75.4935 72.0837 76.6823 73.3074C76.8313 71.0096 76.8531 68.7054 76.7476 66.4052Z" fill="black"/>
<path opacity="0.2" d="M71.6918 146.928L71.5307 150.19H68.3866L68.5477 146.928H71.6918Z" fill="black"/>
<path opacity="0.2" d="M50.2317 146.153L53.415 146.319L52.4178 149.532L49.2345 149.363L50.2317 146.153Z" fill="black"/>
<path d="M64.537 50.419C65.2381 53.0318 65.5168 54.6039 67.1499 55.6926C69.5798 57.3299 72.602 55.4487 72.6978 52.6747C72.7805 50.1795 71.6222 46.3168 68.8134 45.7899C68.1932 45.6672 67.552 45.7056 66.9509 45.9013C66.3498 46.0971 65.809 46.4437 65.38 46.908C64.9511 47.3723 64.6484 47.9389 64.5008 48.5536C64.3532 49.1683 64.3657 49.8105 64.537 50.419Z" fill="#B55B52"/>
<path d="M70.455 83.798C70.455 83.798 67.3544 104.661 65.6648 112.483C63.7923 121.061 53.8026 149.367 53.8026 149.367L48.9122 148.309C48.9122 148.309 55.1786 125.229 56.7507 113.262C57.3604 108.589 58.0963 101.069 59.0282 94.7849C59.9296 88.6883 61.0401 83.8023 61.0401 83.8023L70.455 83.798Z" fill="#263238"/>
<path d="M54.974 147.734L54.0595 149.502L48.5639 148.309L49.0255 146.658L54.974 147.734Z" fill="#58B0CD"/>
<path opacity="0.6" d="M54.974 147.734L54.0595 149.502L48.5639 148.309L49.0255 146.658L54.974 147.734Z" fill="white"/>
<path opacity="0.6" d="M68.4954 91.2315C64.9115 91.9326 65.2903 105.297 65.7214 112.169C66.7579 107.309 68.2689 97.9639 69.301 91.3273C69.0513 91.2044 68.767 91.1705 68.4954 91.2315Z" fill="black"/>
<path d="M75.6328 83.7979C75.6328 83.7979 77.0916 104.213 76.7955 112.539C76.4863 121.201 72.3798 149.554 72.3798 149.554H67.7551C67.7551 149.554 67.5853 121.684 67.3806 113.197C67.1542 103.921 66.035 83.7936 66.035 83.7936L75.6328 83.7979Z" fill="#263238"/>
<path d="M73.2682 147.717C73.29 147.717 73.0069 149.637 73.0069 149.637H67.3806L67.2282 147.921L73.2682 147.717Z" fill="#58B0CD"/>
<path opacity="0.6" d="M73.2682 147.717C73.29 147.717 73.0069 149.637 73.0069 149.637H67.3806L67.2282 147.921L73.2682 147.717Z" fill="white"/>
<path d="M73.769 64.0144C73.769 69.4927 76.6823 71.7484 76.6823 71.7484L81.4333 67.1237C80.3087 65.2444 79.0283 63.4628 77.6055 61.7979C74.8577 58.6494 73.769 60.4958 73.769 64.0144Z" fill="#263238"/>
<path opacity="0.2" d="M72.5148 53.6676C72.418 53.9421 72.2554 54.1888 72.0414 54.3862C71.8274 54.5835 71.5683 54.7255 71.2868 54.7998C70.9772 54.863 70.6961 55.0241 70.4851 55.2594C70.2742 55.4947 70.1445 55.7916 70.1154 56.1062C70.6793 55.9177 71.1906 55.5985 71.6076 55.1747C72.0246 54.7509 72.3354 54.2345 72.5148 53.6676Z" fill="black"/>
<path d="M71.2868 45.2151C72.2623 43.9827 70.7599 43.9087 70.7599 43.9087C71.1518 42.4411 69.3925 43.2293 69.3925 43.2293C68.3387 41.7748 67.7421 43.5472 67.7421 43.5472C66.649 42.3148 66.4356 44.3267 66.4356 44.3267C65.3383 42.7634 64.7809 45.0191 64.7809 45.0191C63.7706 43.3948 63.1522 45.5068 63.1522 45.5068C61.0663 44.7622 62.0548 46.9308 62.0548 46.9308C60.2781 46.9787 61.7064 48.3592 61.7064 48.3592C59.5726 48.3592 61.4538 49.5829 61.4538 49.5829C59.7599 50.6933 61.8893 50.9938 61.8893 50.9938C60.5089 53.1711 62.8822 52.3525 62.8822 52.3525C61.9198 54.495 64.0493 53.55 64.0493 53.55C63.9143 55.6141 65.1031 55.0524 65.6779 54.6692C65.7868 55.1046 65.9958 55.5401 66.379 55.575C67.1237 55.6751 67.25 54.2685 67.25 54.2685C67.25 54.2685 67.938 54.8085 68.5172 54.5168C69.0964 54.225 68.8786 53.489 68.8786 53.489C69.0044 53.583 69.1571 53.6338 69.3141 53.6338C69.4711 53.6338 69.6239 53.583 69.7496 53.489C69.9978 53.2974 69.9978 51.9126 69.6843 51.4249L70.8165 50.9894C70.8165 50.9894 71.657 50.8719 71.2825 49.7614C71.0565 49.1232 71.0367 48.4301 71.2258 47.78C72.5061 47.1791 71.4523 46.4736 71.4523 46.4736C72.9372 45.5199 71.2868 45.2151 71.2868 45.2151Z" fill="#263238"/>
<path d="M68.9919 50.5147C69.1691 51.1644 69.5566 51.7371 70.0936 52.1434C70.8034 52.6747 71.3347 52.1434 71.2825 51.3465C71.2389 50.6236 70.8121 49.4783 70.0283 49.2606C69.2445 49.0428 68.8046 49.744 68.9919 50.5147Z" fill="#B55B52"/>
</svg>
