<svg width="195" height="176" viewBox="0 0 195 176" fill="none" xmlns="http://www.w3.org/2000/svg">
<path d="M28.551 160.365C66.6167 180.269 128.338 180.269 166.403 160.365C204.469 140.461 204.469 108.234 166.403 88.3473C128.338 68.4608 66.6167 68.4431 28.551 88.3473C-9.51477 108.252 -9.5192 140.483 28.551 160.365Z" fill="#F5F5F5"/>
<path d="M142.403 142.314C152.392 142.314 160.489 137.639 160.489 131.871C160.489 126.104 152.392 121.428 142.403 121.428C132.414 121.428 124.317 126.104 124.317 131.871C124.317 137.639 132.414 142.314 142.403 142.314Z" fill="#E0E0E0"/>
<path d="M32.2399 126.418C31.9701 123.348 29.1967 117.186 25.6626 113.48C22.1285 109.773 16.8694 107.287 13.4193 108.822C10.2037 110.246 10.9423 114.572 15.2151 117.089C19.4879 119.606 25.8307 122.707 28.0423 127.532L32.2841 133.318L32.2399 126.418Z" fill="#58B0CD"/>
<path opacity="0.1" d="M32.2399 126.418C31.9701 123.348 29.1967 117.186 25.6626 113.48C22.1285 109.773 16.8694 107.287 13.4193 108.822C10.2037 110.246 10.9423 114.572 15.2151 117.089C19.4879 119.606 25.8307 122.707 28.0423 127.532L32.2841 133.318L32.2399 126.418Z" fill="black"/>
<path d="M32.8326 130.597C32.7832 130.599 32.7348 130.583 32.6954 130.554C32.656 130.524 32.6279 130.482 32.6158 130.434C29.6435 120.137 20.4256 112.365 15.1886 110.923C15.1595 110.915 15.1323 110.902 15.1085 110.883C15.0846 110.865 15.0647 110.842 15.0497 110.816C15.0347 110.79 15.025 110.761 15.0211 110.731C15.0172 110.702 15.0193 110.671 15.0271 110.642C15.035 110.613 15.0484 110.586 15.0668 110.562C15.0852 110.538 15.108 110.518 15.1341 110.503C15.1602 110.488 15.189 110.479 15.2188 110.475C15.2486 110.471 15.2789 110.473 15.308 110.481C20.6423 111.949 30.0327 119.849 33.0449 130.301C33.0537 130.329 33.0568 130.359 33.0539 130.388C33.0511 130.418 33.0424 130.446 33.0284 130.472C33.0144 130.498 32.9953 130.521 32.9723 130.539C32.9493 130.558 32.9229 130.572 32.8945 130.58L32.8326 130.597Z" fill="white"/>
<path d="M31.8551 137.44C31.2093 135.759 28.8562 133.096 25.2203 131.04C21.2395 128.771 16.3475 127.992 15.047 126.059C13.5122 123.746 15.3655 121.269 19.28 121.41C23.1945 121.552 30.4618 126.241 32.2487 134.101L31.8551 137.44Z" fill="#58B0CD"/>
<path d="M32.4477 135.565C32.404 135.565 32.361 135.553 32.3241 135.529C32.2871 135.506 32.2579 135.472 32.2399 135.432C28.259 126.74 21.12 124.188 17.9132 124.051C17.8836 124.05 17.8545 124.043 17.8276 124.031C17.8006 124.018 17.7764 124.001 17.7563 123.979C17.7361 123.957 17.7205 123.932 17.7102 123.904C17.7 123.876 17.6953 123.846 17.6965 123.817C17.697 123.787 17.7036 123.758 17.7158 123.731C17.7281 123.704 17.7457 123.68 17.7677 123.66C17.7897 123.64 17.8155 123.625 17.8436 123.615C17.8717 123.606 17.9014 123.602 17.9309 123.604C21.4695 123.75 28.5465 126.369 32.6512 135.246C32.6742 135.3 32.6755 135.361 32.655 135.416C32.6344 135.471 32.5935 135.517 32.5406 135.542C32.5115 135.556 32.4799 135.564 32.4477 135.565Z" fill="white"/>
<path d="M152.36 122.441C152.293 119.968 152.979 115.828 155.412 111.693C158.017 107.27 161.454 104.306 164.342 105.208C167.031 106.049 166.439 109.698 162.396 113.674C159.556 116.465 156.708 120.004 155.381 124.051L153.107 129.262L152.36 122.441Z" fill="#58B0CD"/>
<path d="M152.36 122.441C152.293 119.968 152.979 115.828 155.412 111.693C158.017 107.27 161.454 104.306 164.342 105.208C167.031 106.049 166.439 109.698 162.396 113.674C159.556 116.465 156.708 120.004 155.381 124.051L153.107 129.262L152.36 122.441Z" fill="#58B0CD"/>
<g opacity="0.1">
<path d="M152.36 122.441C152.293 119.968 152.979 115.828 155.412 111.693C158.017 107.27 161.454 104.306 164.342 105.208C167.031 106.049 166.439 109.698 162.396 113.674C159.556 116.465 156.708 120.004 155.381 124.051L153.107 129.262L152.36 122.441Z" fill="black"/>
</g>
<path d="M152.811 124.277C152.847 124.274 152.881 124.259 152.908 124.235C152.935 124.211 152.954 124.179 152.961 124.144C154.695 117.093 159.083 109.671 163.174 106.894C163.207 106.865 163.228 106.826 163.233 106.784C163.239 106.741 163.229 106.698 163.205 106.662C163.181 106.627 163.145 106.601 163.104 106.59C163.062 106.578 163.018 106.583 162.98 106.602C158.826 109.437 154.372 116.943 152.621 124.073C152.615 124.095 152.615 124.118 152.618 124.141C152.622 124.163 152.63 124.184 152.642 124.204C152.654 124.223 152.669 124.24 152.688 124.253C152.706 124.266 152.727 124.276 152.749 124.281C152.77 124.284 152.791 124.283 152.811 124.277Z" fill="white"/>
<path d="M152.338 130.434C153.702 131.645 155.362 132.475 157.15 132.84C160.246 133.517 161.688 132.115 161.688 132.115C161.688 132.115 160.635 129.129 158.924 128.204C160.807 128.746 162.586 129.603 164.183 130.739C164.183 130.739 166.076 130.881 167.005 128.032C167.005 128.032 165.983 126.218 162.268 125.055C164.149 124.831 166.057 125.04 167.845 125.666C168.088 125.781 169.367 122.101 169.791 120.393C170.216 118.686 169.517 118.659 168.195 118.221C166.872 117.784 162.294 117.284 161.409 117.974C160.525 118.664 159.941 121.167 159.941 121.167C159.941 121.167 159.22 119.69 159.499 118.42C158.576 118.096 157.576 118.06 156.632 118.319C155.089 118.761 155.142 119.5 155.075 120.601C155.004 121.709 155.09 122.822 155.332 123.905C155.332 123.905 154.341 122.937 154.505 119.601C154.505 119.601 152.355 121.229 151.444 122.698C150.533 124.166 150.515 128.072 152.338 130.434Z" fill="#58B0CD"/>
<path d="M152.324 130.611C152.357 130.613 152.39 130.605 152.419 130.59C152.448 130.574 152.472 130.551 152.488 130.522C155.305 125.462 164.988 119.964 168.367 119.513C168.39 119.51 168.412 119.502 168.431 119.491C168.451 119.479 168.468 119.464 168.482 119.445C168.496 119.427 168.506 119.406 168.511 119.384C168.517 119.362 168.518 119.339 168.515 119.316C168.512 119.293 168.504 119.272 168.493 119.252C168.481 119.232 168.466 119.215 168.448 119.201C168.429 119.188 168.408 119.178 168.386 119.172C168.364 119.166 168.341 119.165 168.318 119.168C164.886 119.61 155.049 125.21 152.183 130.35C152.16 130.39 152.155 130.438 152.167 130.483C152.18 130.527 152.209 130.565 152.249 130.589C152.272 130.602 152.298 130.61 152.324 130.611Z" fill="white"/>
<path d="M34.6284 140.828L33.4253 140.134C32.9101 139.798 32.4814 139.345 32.174 138.813C31.8666 138.28 31.6891 137.683 31.656 137.068V31.5805C31.6888 30.9657 31.8661 30.3674 32.1735 29.834C32.4809 29.3007 32.9098 28.8473 33.4253 28.5108L82.0801 0.423722C82.6283 0.145178 83.2345 0 83.8494 0C84.4642 0 85.0704 0.145178 85.6186 0.423722L86.8217 1.11816C87.3367 1.45422 87.7652 1.90687 88.0726 2.43941C88.3799 2.97196 88.5575 3.56943 88.591 4.18341V109.676C88.5575 110.29 88.3799 110.887 88.0726 111.42C87.7652 111.952 87.3367 112.405 86.8217 112.741L38.1669 140.828C37.6188 141.107 37.0126 141.252 36.3977 141.252C35.7828 141.252 35.1766 141.107 34.6284 140.828Z" fill="#37474F"/>
<path d="M38.7729 33.6638L32.1735 29.8555C31.856 30.3847 31.678 30.9858 31.656 31.6026V137.068C31.6891 137.683 31.8666 138.28 32.174 138.813C32.4814 139.345 32.9101 139.798 33.4253 140.134L34.6284 140.828C35.1765 141.107 35.7827 141.252 36.3976 141.252C37.0125 141.252 37.6187 141.107 38.1669 140.828L38.7685 140.483L38.7729 33.6638Z" fill="#263238"/>
<path d="M36.3976 34.3184V139.82C36.3976 140.952 37.1894 141.408 38.1669 140.841L86.8217 112.754C87.3366 112.418 87.7651 111.966 88.0725 111.433C88.3799 110.9 88.5575 110.303 88.591 109.689V4.18335C88.591 3.05544 87.7992 2.59986 86.8217 3.1616L38.1669 31.2531C37.6512 31.5884 37.2222 32.0408 36.9147 32.5736C36.6072 33.1063 36.43 33.7041 36.3976 34.3184Z" fill="#455A64"/>
<path d="M40.29 40.9886L84.5217 15.4449C85.3576 14.9627 86.0388 15.3564 86.0388 16.3295V100.48C86.0103 101.007 85.858 101.519 85.5944 101.975C85.3308 102.432 84.9633 102.82 84.5217 103.108L40.29 128.647C39.4496 129.133 38.7729 128.74 38.7729 127.762V43.616C38.8004 43.0894 38.9522 42.5767 39.2159 42.1201C39.4796 41.6634 39.8477 41.2757 40.29 40.9886Z" fill="#FAFAFA"/>
<g opacity="0.4">
<path d="M62.6536 47.6189C67.6119 44.7571 71.6326 47.0793 71.6326 52.8028C71.6326 58.5264 67.6119 65.4973 62.6536 68.3591C57.6952 71.2209 53.6746 68.9031 53.6746 63.1751C53.6746 57.4471 57.6952 50.4718 62.6536 47.6189Z" fill="#58B0CD"/>
<path d="M80.3506 78.2493C80.3506 68.8413 73.7469 64.6614 65.5994 69.3676L60.5039 72.309C52.3564 77.0108 45.7527 88.4536 45.7527 97.8616V100.396L80.3506 80.43V78.2493Z" fill="#58B0CD"/>
</g>
<path d="M62.4943 19.952C63.1489 19.5716 63.6797 19.8812 63.6797 20.6376C63.6577 21.0489 63.5389 21.4491 63.3329 21.8058C63.1269 22.1625 62.8396 22.4654 62.4943 22.6899C61.8396 23.0703 61.3089 22.7607 61.3089 22.0043C61.3308 21.593 61.4496 21.1927 61.6556 20.8361C61.8616 20.4794 62.149 20.1765 62.4943 19.952Z" fill="#263238"/>
<path d="M59.0708 25.8702C61.4814 24.5433 65.7807 21.9822 68.156 20.5845C68.5585 20.3457 68.8858 20.5093 68.8858 20.9472C68.8683 21.1942 68.7927 21.4335 68.6651 21.6457C68.5375 21.8578 68.3615 22.0368 68.1515 22.168L59.0531 27.4227C58.6462 27.6572 58.3188 27.4935 58.3188 27.0512C58.3394 26.8082 58.4185 26.5738 58.5495 26.3682C58.6804 26.1625 58.8593 25.9916 59.0708 25.8702Z" fill="#263238"/>
<path d="M56.7707 27.2016C57.1378 26.9893 57.4386 27.1618 57.4386 27.5864C57.4256 27.8177 57.3584 28.0427 57.2424 28.2433C57.1263 28.4438 56.9648 28.6143 56.7707 28.7408C56.4036 28.9531 56.1028 28.7806 56.1028 28.356C56.1158 28.1247 56.183 27.8997 56.2991 27.6991C56.4151 27.4986 56.5767 27.3282 56.7707 27.2016Z" fill="#263238"/>
<path d="M62.4943 118.589C63.8212 117.832 64.8695 118.447 64.8695 119.96C64.8251 120.783 64.5869 121.585 64.1741 122.299C63.7614 123.013 63.1858 123.619 62.4943 124.069C61.1673 124.825 60.1235 124.21 60.1235 122.698C60.1681 121.875 60.4059 121.074 60.8178 120.36C61.2298 119.646 61.8041 119.039 62.4943 118.589Z" fill="#263238"/>
<path d="M102.838 89.0152L97.5035 85.919L97.446 85.8881C94.7921 84.393 91.1563 84.6098 87.1268 86.9408C83.3582 89.1126 79.917 92.7351 77.325 96.9327C74.3306 101.763 72.4596 107.358 72.4596 112.37C72.4596 117.045 74.0961 120.331 76.7412 121.866L82.1596 124.962C84.8356 126.67 88.6085 126.515 92.8017 124.1C100.901 119.473 107.478 108.066 107.478 98.6843C107.478 93.8188 105.691 90.4616 102.838 89.0152Z" fill="#58B0CD"/>
<path opacity="0.1" d="M82.0447 124.936L76.7369 121.901C74.083 120.367 72.4553 117.08 72.4553 112.405C72.4553 107.389 74.3395 101.789 77.3207 96.968L82.9912 100.237C79.9923 105.071 78.1258 110.653 78.1258 115.66C78.1036 120.123 79.6031 123.321 82.0447 124.936Z" fill="black"/>
<path opacity="0.4" d="M102.745 88.9533C100.127 87.6838 96.6367 88.0067 92.8062 90.2139C88.9758 92.421 85.5788 96.0303 82.9824 100.228L77.3119 96.9592C79.9039 92.7616 83.3451 89.139 87.1136 86.9673C91.1387 84.6407 94.779 84.4195 97.4329 85.9146L97.4904 85.9455L102.745 88.9533Z" fill="white"/>
<path d="M100.441 94.9246L98.4059 93.748L90.4398 112.524L91.7977 113.307L100.441 94.9246Z" fill="white"/>
<path d="M88.8785 108.331L86.8438 107.159L84.6588 111.781L86.6934 112.953L88.8785 108.331Z" fill="white"/>
<path d="M92.3197 118.814L86.6934 112.953L88.8785 108.331L91.7977 113.307L100.441 94.9246L103.643 98.0473L92.3197 118.814Z" fill="#F5F5F5"/>
<path d="M84.6588 111.781L86.6934 112.953L92.3197 118.814L90.2895 117.651L84.6588 111.781Z" fill="#E0E0E0"/>
<path d="M144.323 42.917C146.627 42.917 148.836 42.0018 150.465 40.3726C152.095 38.7435 153.01 36.5339 153.01 34.2299V33.7169C153.01 32.7499 152.821 31.7924 152.451 30.8989C152.081 30.0054 151.539 29.1935 150.856 28.5096C150.172 27.8257 149.361 27.2831 148.467 26.913C147.574 26.5428 146.617 26.3523 145.65 26.3523H142.996C141.043 26.3523 139.169 27.1282 137.788 28.5093C136.407 29.8905 135.631 31.7637 135.631 33.7169V34.2299C135.631 35.3711 135.856 36.5011 136.293 37.5554C136.73 38.6096 137.37 39.5675 138.177 40.3742C138.984 41.1809 139.943 41.8207 140.997 42.257C142.052 42.6934 143.182 42.9176 144.323 42.917Z" fill="#263238"/>
<path d="M135.361 128.846C134.348 129.909 133.238 130.875 132.044 131.73C131.862 131.851 131.711 132.013 131.602 132.203C131.447 132.53 131.204 133.335 132.685 133.853C133.435 134.113 134.231 134.207 135.02 134.131C135.81 134.055 136.573 133.809 137.259 133.411C138.48 132.65 138.533 131.066 139.683 130.16C140.532 129.492 141.594 129.319 142.284 128.443C142.761 127.833 142.638 127.024 142.385 126.019C142.116 124.923 141.987 124.095 141.625 124.179L141.687 124.684C141.244 125.405 138.887 125.617 137.843 125.126C137.825 125.117 136.02 128.125 135.361 128.846Z" fill="#263238"/>
<path d="M134.331 129.868C134.685 129.545 135.03 129.209 135.361 128.846C136.056 127.944 136.695 127.002 137.277 126.024C137.677 125.431 137.866 124.72 137.812 124.007C137.728 123.246 137.52 121.304 137.52 121.304L141.235 121.039L141.678 124.684C141.766 125.511 141.085 126.245 139.873 127.289C138.661 128.333 137.131 130.761 136.034 131.371C134.937 131.982 134.158 131.96 133.689 131.646C133.221 131.332 133.154 131.075 134.331 129.868Z" fill="#B16668"/>
<path d="M149.493 129.178V128.616C149.277 129.275 148.255 132.092 146.702 133.508C145.473 134.631 143.792 135.927 143.363 137.184C142.934 138.44 145.703 138.922 146.853 138.718C148.18 138.484 149.923 137.723 150.865 136.569C151.524 135.755 151.948 134.799 152.422 134.149C152.895 133.499 153.983 132.796 154.24 132.053C154.381 131.646 154.213 130.757 154.014 130.005C153.815 129.253 153.638 128.554 153.404 128.616V129.058C152.846 129.495 152.156 129.728 151.448 129.717C150.878 129.726 149.489 129.611 149.493 129.178Z" fill="#263238"/>
<path d="M145.588 134.512C145.968 134.171 146.353 133.84 146.702 133.521C147.786 132.535 148.613 130.867 149.087 129.717C149.357 129.065 149.497 128.366 149.498 127.661V125.449H153.404V129.076V129.173C153.218 129.987 151.422 132.146 150.405 133.552C149.723 134.494 148.427 135.697 146.866 135.905C145.384 136.073 144.632 135.609 145.588 134.512Z" fill="#B16668"/>
<path d="M152.625 68.4652C155.655 75.0779 152.514 98.3791 152.514 98.3791C152.607 99.4539 153.841 101.568 154.284 106.292C154.823 111.874 153.435 125.887 153.435 125.887C152.839 126.233 152.168 126.429 151.479 126.457C150.791 126.485 150.106 126.344 149.485 126.046C149.485 126.046 145.765 104.934 145.061 99.3876C144.451 94.5442 143.292 83.159 143.292 83.159L140.249 99.4893C140.812 101.017 141.211 102.601 141.439 104.213C141.753 107.482 141.519 122.578 141.519 122.578C141.519 122.578 140.192 123.596 137.622 123.22C137.622 123.22 133.199 102.546 132.849 98.618C132.646 96.2737 135.317 67.4966 135.317 67.4966L152.625 68.4652Z" fill="#58B0CD"/>
<path opacity="0.6" d="M152.625 68.4652C155.655 75.0779 152.514 98.3791 152.514 98.3791C152.607 99.4539 153.841 101.568 154.284 106.292C154.823 111.874 153.435 125.887 153.435 125.887C152.839 126.233 152.168 126.429 151.479 126.457C150.791 126.485 150.106 126.344 149.485 126.046C149.485 126.046 145.765 104.934 145.061 99.3876C144.451 94.5442 143.292 83.159 143.292 83.159L140.249 99.4893C140.812 101.017 141.211 102.601 141.439 104.213C141.753 107.482 141.519 122.578 141.519 122.578C141.519 122.578 140.192 123.596 137.622 123.22C137.622 123.22 133.199 102.546 132.849 98.618C132.646 96.2737 135.317 67.4966 135.317 67.4966L152.625 68.4652Z" fill="black"/>
<path opacity="0.3" d="M143.288 83.159L142.306 77.7495C142.306 77.7495 138.144 76.887 136.259 75.0956C136.259 75.0956 138.237 77.5593 141.178 78.3643L142.284 83.0927L140.545 97.866L143.288 83.159Z" fill="black"/>
<path d="M157.561 65.5902C157.53 65.1479 156.716 60.5257 156.159 57.9337L150.714 59.6012L151.683 64.3694L156.265 68.0495C157.707 67.7664 157.592 66.0237 157.561 65.5902Z" fill="#B16668"/>
<path d="M131.226 55.8239L128.652 60.5434L132.659 63.9757L136.326 58.1593L131.226 55.8239Z" fill="#B16668"/>
<path d="M140.886 45.3101C138.334 45.3366 135.521 46.261 134.552 48.2647C133.583 50.2684 130.907 55.7841 130.907 55.7841C130.907 55.7841 133.291 59.0219 136.87 58.7874L140.886 45.3101Z" fill="#58B0CD"/>
<path opacity="0.6" d="M140.886 45.3101C138.334 45.3366 135.521 46.261 134.552 48.2647C133.583 50.2684 130.907 55.7841 130.907 55.7841C130.907 55.7841 133.291 59.0219 136.87 58.7874L140.886 45.3101Z" fill="black"/>
<path d="M146.167 45.3985L148.295 45.487C150.604 46.0399 151.44 47.6278 152.408 49.6757C153.119 51.2572 153.185 53.053 152.594 54.6827L149.887 62.5117C149.887 62.5117 151.152 65.5726 152.625 68.4653C145.835 72.256 137.356 70.2611 135.313 67.4966C135.229 66.9084 135.344 64.2677 135.18 61.26C135.008 58.0488 134.565 54.4262 135.07 52.4446C136.007 48.7646 137.759 45.3101 141.262 45.3101L146.167 45.3985Z" fill="#F5F5F5"/>
<path d="M148.304 45.4869C150.617 45.8143 154.023 46.2787 155.195 51.7855C156.385 57.3676 156.61 58.6989 156.61 58.6989C156.61 58.6989 154.585 60.7203 150.741 60.7026C150.732 60.7026 147.344 49.742 148.304 45.4869Z" fill="#58B0CD"/>
<path opacity="0.6" d="M148.304 45.4869C150.617 45.8143 154.023 46.2787 155.195 51.7855C156.385 57.3676 156.61 58.6989 156.61 58.6989C156.61 58.6989 154.585 60.7203 150.741 60.7026C150.732 60.7026 147.344 49.742 148.304 45.4869Z" fill="black"/>
<path d="M150.63 60.362C150.188 58.8979 149.746 57.226 149.325 55.4302C149.343 57.6877 149.573 59.9386 150.011 62.1534L150.63 60.362Z" fill="#EBEBEB"/>
<path d="M138.467 29.8643C137.551 30.4083 136.419 32.7172 136.529 37.5561C136.622 41.6564 137.953 42.6693 138.621 42.9612C139.289 43.2532 140.576 43.0762 141.828 42.8684V45.3321C141.828 45.3321 140.099 47.3402 140.205 48.4681C140.311 49.596 142.704 49.8658 144.323 48.76C145.371 48.0053 146.271 47.0636 146.977 45.9823V40.0287C146.977 40.0287 147.822 41.1566 149.188 40.241C150.555 39.3254 150.621 37.0519 149.821 36.2336C149.02 35.4153 147.282 35.6763 146.963 36.8042C146.963 36.8042 144.964 36.8794 142.306 35.4197C141.275 34.8597 140.39 34.065 139.724 33.1C139.057 32.1349 138.626 31.0265 138.467 29.8643Z" fill="#B16668"/>
<path d="M141.107 36.5256C141.106 36.6271 141.134 36.7269 141.189 36.8125C141.243 36.8981 141.322 36.9656 141.415 37.0068C141.508 37.048 141.611 37.0609 141.711 37.044C141.811 37.0271 141.904 36.9811 141.978 36.9118C142.052 36.8424 142.104 36.7527 142.128 36.6539C142.152 36.5551 142.146 36.4516 142.111 36.3562C142.076 36.2608 142.014 36.1777 141.932 36.1174C141.85 36.0571 141.753 36.0221 141.651 36.0169C141.582 36.0145 141.513 36.0258 141.448 36.0501C141.384 36.0744 141.324 36.1112 141.274 36.1585C141.223 36.2057 141.182 36.2625 141.154 36.3254C141.125 36.3884 141.109 36.4564 141.107 36.5256Z" fill="#263238"/>
<path d="M140.97 40.0022L139.771 40.387C139.792 40.4682 139.828 40.5444 139.879 40.611C139.93 40.6776 139.993 40.7333 140.066 40.7746C140.139 40.8159 140.219 40.8421 140.302 40.8515C140.385 40.8609 140.47 40.8534 140.55 40.8293C140.714 40.7737 140.85 40.656 140.929 40.5014C141.007 40.3468 141.022 40.1676 140.97 40.0022Z" fill="#9A4A4D"/>
<path d="M136.879 34.9421L137.922 34.2212C137.879 34.1481 137.821 34.0849 137.752 34.0356C137.682 33.9863 137.604 33.952 137.52 33.9349C137.437 33.9178 137.351 33.9184 137.268 33.9364C137.185 33.9545 137.106 33.9897 137.038 34.0398C136.901 34.1416 136.809 34.2916 136.779 34.4594C136.749 34.6271 136.785 34.7998 136.879 34.9421Z" fill="#263238"/>
<path d="M137.117 36.154C137.117 36.2554 137.146 36.3548 137.201 36.4398C137.256 36.5248 137.335 36.5917 137.428 36.6322C137.521 36.6727 137.624 36.685 137.724 36.6676C137.824 36.6502 137.916 36.6038 137.99 36.5343C138.064 36.4647 138.115 36.375 138.139 36.2763C138.162 36.1776 138.156 36.0743 138.121 35.9792C138.086 35.884 138.023 35.8012 137.942 35.7411C137.86 35.681 137.763 35.6462 137.661 35.641C137.522 35.6385 137.387 35.6908 137.285 35.7867C137.183 35.8826 137.123 36.0144 137.117 36.154Z" fill="#263238"/>
<path d="M139.55 35.8577L139.471 38.9627L137.838 38.4585L139.55 35.8577Z" fill="#9A4A4D"/>
<path d="M141.828 42.8683C143.155 42.6958 145.858 41.9174 146.282 40.8425C146.113 41.3861 145.781 41.8647 145.331 42.2137C144.522 42.9081 141.828 43.691 141.828 43.691V42.8683Z" fill="#9A4A4D"/>
<path d="M120.239 55.5364L135.211 59.4774L139.634 78.0635L125.396 73.9279L120.239 55.5364Z" fill="#58B0CD"/>
<path opacity="0.15" d="M126.767 67.8328C126.63 68.2132 125.807 69.2659 124.065 69.1818L123.852 68.4122L126.767 67.8328Z" fill="black"/>
<path opacity="0.15" d="M130.116 68.4122C130.182 68.9076 131.199 69.8276 132.92 70.3982C134.879 71.0529 137.883 70.7079 137.883 70.7079L137.613 69.7834L130.116 68.4122Z" fill="black"/>
<path opacity="0.15" d="M124.622 58.2257C124.622 58.2257 124.569 57.9691 124.498 57.6551C124.427 57.341 125.312 57.3234 126.462 57.6241L128.674 58.1947C129.824 58.4955 130.814 58.9953 130.885 59.3094L131.009 59.8799L124.622 58.2257Z" fill="black"/>
<path d="M123.587 56.0717C123.543 55.8726 123.897 55.824 124.379 55.9566L125.263 56.1955C125.263 56.1955 125.002 54.9614 126.94 55.3949C128.877 55.8284 129.302 57.2261 129.302 57.2261L130.235 57.4915C130.753 57.6374 131.217 57.9338 131.279 58.1152L131.389 58.469L123.675 56.4388C123.675 56.4388 123.627 56.2663 123.587 56.0717Z" fill="#37474F"/>
<path d="M124.649 56.6863C125.356 56.8588 125.648 56.9517 125.754 57.4383C125.874 57.9956 125.922 58.4025 125.922 58.4025L129.337 59.2871C129.337 59.2871 129.173 58.5839 129.12 58.3096C129.067 58.0354 129.182 57.8673 129.726 58.0133L129.771 57.7965L124.419 56.4519L124.649 56.6863Z" fill="#37474F"/>
<path d="M124.529 58.2788C124.529 58.2788 124.476 58.0222 124.405 57.7082C124.335 57.3941 125.219 57.3809 126.369 57.6772L128.581 58.2522C129.731 58.5486 130.722 59.0484 130.792 59.3624L130.916 59.933L124.529 58.2788Z" fill="#37474F"/>
<path d="M156.265 68.0496L151.679 64.3695C151.679 64.3695 141.541 66.1741 140.346 66.267C139.716 66.2841 139.096 66.1104 138.566 65.7686C138.036 65.4268 137.622 64.933 137.378 64.3518C136.936 63.1797 136.127 63.3256 136.127 63.3256C136.127 63.3256 136.476 64.8074 136.569 65.2807C136.662 65.7539 133.827 66.1653 132.243 65.608C130.66 65.0507 128.364 65.8513 129.784 68.0053C131.204 70.1594 133.968 70.4115 135.883 70.4115C136.686 70.4056 137.488 70.3524 138.285 70.2523C138.904 70.1727 139.524 70.1108 140.147 70.0665C144.097 69.7834 154.496 68.6069 156.265 68.0496Z" fill="#B16668"/>
<path d="M121.765 60.968L122.428 63.3388C122.556 63.7812 124.295 64.6216 125.396 64.9268C126.497 65.232 127.701 65.5858 127.165 67.1383C126.688 68.5582 124.874 68.8811 123.954 68.8413C123.034 68.8014 121.769 67.9212 121.274 66.5014C120.637 64.6879 120.977 62.7506 120.725 61.6934C120.473 60.6363 121.212 60.3355 121.765 60.968Z" fill="#B16668"/>
<path d="M151.904 52.4445C151.257 52.4451 150.617 52.3182 150.019 52.0711C149.421 51.8239 148.878 51.4614 148.42 51.0042C147.963 50.547 147.6 50.0041 147.352 49.4065C147.104 48.809 146.977 48.1684 146.977 47.5216V40.6082C148.282 40.6093 149.533 41.1284 150.456 42.0514C151.379 42.9743 151.898 44.2258 151.9 45.5311L151.904 52.4445Z" fill="#263238"/>
</svg>
