<svg width="143" height="120" viewBox="0 0 143 120" fill="none" xmlns="http://www.w3.org/2000/svg">
<path d="M79.5996 20.8182H66.1733V16.6835H67.042V19.9477H78.731V16.892H79.5996V20.8182Z" fill="#58B0CD"/>
<path d="M80.4846 14.9609H64.4049V14.9353C63.6522 14.8362 62.9654 14.4544 62.4839 13.8675C62.0023 13.2806 61.7621 12.5325 61.8119 11.7749C61.8617 11.0174 62.1978 10.3071 62.752 9.78828C63.3062 9.26944 64.0371 8.98087 64.7962 8.9811C64.895 8.9811 64.9919 8.9811 65.087 8.99573C65.1881 8.14939 65.5958 7.36942 66.233 6.80332C66.8702 6.23721 67.6927 5.92422 68.5451 5.92352C69.0181 5.92176 69.4864 6.01828 69.9202 6.20697C70.4119 5.00138 71.2987 3.99868 72.4352 3.36334C73.5716 2.728 74.8902 2.49775 76.1748 2.71035C77.4593 2.92294 78.6334 3.56577 79.5046 4.53339C80.3757 5.501 80.8922 6.73595 80.9692 8.03566C81.8751 8.11708 82.713 8.55049 83.3029 9.24283C83.8928 9.93517 84.1877 10.8312 84.1242 11.7386C84.0608 12.6459 83.6441 13.4922 82.9636 14.0957C82.2831 14.6992 81.393 15.0118 80.4846 14.9664V14.9609ZM64.7011 14.5952H80.4846C81.3091 14.6337 82.1151 14.3432 82.7254 13.7874C83.3357 13.2317 83.7002 12.4563 83.7387 11.6318C83.7773 10.8073 83.4868 10.0012 82.931 9.39097C82.3753 8.78069 81.5998 8.41618 80.7754 8.37763L80.6144 8.363V8.20207C80.5765 6.95328 80.1049 5.75669 79.2805 4.81787C78.4562 3.87906 77.3306 3.25664 76.0972 3.05756C74.8638 2.85849 73.5996 3.09518 72.5218 3.72698C71.4439 4.35878 70.6198 5.34623 70.1909 6.51968L70.1196 6.71352L69.9367 6.62025C69.5046 6.40245 69.0271 6.28967 68.5432 6.29109C67.7501 6.29191 66.9871 6.59496 66.4095 7.13854C65.832 7.68212 65.4833 8.42537 65.4345 9.217L65.4235 9.41998L65.2223 9.38524C65.0816 9.36149 64.939 9.34987 64.7962 9.35049C64.1172 9.35052 63.4647 9.61374 62.9757 10.0848C62.4867 10.5559 62.1994 11.1982 62.174 11.8768C62.1487 12.5553 62.3874 13.2172 62.8399 13.7235C63.2924 14.2297 63.9235 14.5409 64.6006 14.5915L64.7011 14.5952Z" fill="#58B0CD"/>
<path d="M74.9472 12.9365H70.8235V18.2434H74.9472V12.9365Z" fill="#58B0CD"/>
<path d="M68.7168 12.9365H77.0556L72.8862 8.62631L68.7168 12.9365Z" fill="#58B0CD"/>
<path d="M135.692 107.734H131.78V107.827H135.692V107.734Z" fill="#E0E0E0"/>
<path d="M129.073 107.779H113.162V107.871H129.073V107.779Z" fill="#E0E0E0"/>
<path d="M93.4946 106.901H66.6438V106.993H93.4946V106.901Z" fill="#E0E0E0"/>
<path d="M51.1978 108.501H42.6765V108.594H51.1978V108.501Z" fill="#E0E0E0"/>
<path d="M22.802 106.945H11.0691V107.038H22.802V106.945Z" fill="#E0E0E0"/>
<path d="M35.8146 106.945H24.8486V107.038H35.8146V106.945Z" fill="#E0E0E0"/>
<path d="M14.583 105.334H3.38477V105.426H14.583V105.334Z" fill="#E0E0E0"/>
<path d="M44.2842 30.5117C45.3646 29.1475 47.5327 28.0966 49.1367 28.163C49.3733 28.1544 49.6093 28.193 49.8309 28.2766C50.0524 28.3602 50.2552 28.487 50.4272 28.6497C53.3549 26.9535 56.7251 25.9137 59.509 26.028C60.9249 26.0833 62.0237 26.4336 62.7833 27.0051C65.9285 24.4462 69.9366 22.6283 72.8459 22.6283C74.4978 22.6283 75.5229 23.2183 75.8879 24.1954C79.1143 22.4772 82.4291 21.4226 85.1061 21.4226C89.3686 21.4226 90.7513 24.1033 89.0072 27.8717C89.7078 28.5833 93.0632 29.5752 92.9305 30.7625H44.0999C44.1588 30.6703 44.2068 30.5855 44.2842 30.5117Z" fill="#F0F0F0"/>
<path d="M116.647 78.2436C119.398 78.6123 121.101 72.6389 115.025 67.5726C115.371 73.4391 111.846 77.5799 116.647 78.2436Z" fill="#F0F0F0"/>
<path d="M71.4927 119.213C110.977 119.213 142.985 117.344 142.985 115.039C142.985 112.734 110.977 110.865 71.4927 110.865C32.0084 110.865 0 112.734 0 115.039C0 117.344 32.0084 119.213 71.4927 119.213Z" fill="#F5F5F5"/>
<path d="M122.237 104.573L119.604 105.592L121.872 111.453L124.506 110.433L122.237 104.573Z" fill="#E4897B"/>
<path d="M134.01 112.203H131.234L130.212 105.776H132.989L134.01 112.203Z" fill="#E4897B"/>
<path d="M131.053 111.883H134.176C134.23 111.882 134.282 111.9 134.324 111.935C134.365 111.969 134.392 112.018 134.401 112.071L134.807 114.541C134.815 114.603 134.81 114.666 134.792 114.725C134.774 114.785 134.743 114.84 134.702 114.887C134.661 114.933 134.61 114.97 134.553 114.995C134.496 115.02 134.434 115.033 134.372 115.032C133.284 115.013 132.757 114.95 131.385 114.95C130.541 114.95 127.993 115.039 126.827 115.039C125.662 115.039 125.577 113.885 126.06 113.782C128.225 113.313 129.877 112.675 130.596 112.052C130.725 111.946 130.886 111.886 131.053 111.883Z" fill="#263238"/>
<path d="M121.813 110.894L124.763 110.035C124.814 110.018 124.87 110.02 124.921 110.041C124.971 110.062 125.012 110.101 125.036 110.15L126.142 112.362C126.168 112.418 126.182 112.479 126.182 112.541C126.182 112.603 126.168 112.664 126.142 112.72C126.115 112.776 126.077 112.826 126.029 112.865C125.981 112.905 125.925 112.933 125.865 112.948C124.796 113.24 124.073 113.424 122.735 113.815C121.805 114.084 120.865 114.523 119.947 114.814C119.317 115.017 117.827 115.024 117.056 115.024C115.917 115.024 115.662 113.822 116.149 113.767C117.384 113.627 117.554 113.693 118.236 113.35C119.35 112.861 120.361 112.162 121.212 111.293C121.374 111.11 121.581 110.973 121.813 110.894Z" fill="#263238"/>
<path d="M117.694 22.3149C117.465 22.8938 117.248 23.399 117.001 23.93C116.754 24.4609 116.507 24.9698 116.245 25.4823C115.715 26.5221 115.128 27.5315 114.486 28.5059C113.816 29.5436 113.04 30.5087 112.17 31.3856C111.676 31.8857 111.124 32.3252 110.526 32.6946C109.775 33.1615 108.917 33.4258 108.033 33.4616C107.786 33.4681 107.539 33.4508 107.296 33.41C107.083 33.3752 106.872 33.3272 106.665 33.2661C106.314 33.159 105.971 33.0246 105.64 32.8642C105.074 32.5799 104.528 32.2558 104.007 31.8945C103.051 31.2297 102.139 30.503 101.278 29.719C99.6062 28.2053 98.0461 26.5725 96.6101 24.8333L98.0408 23.3953C99.7332 24.7301 101.47 26.0649 103.203 27.2817C104.047 27.8807 104.921 28.4369 105.821 28.9483C106.227 29.1797 106.65 29.3806 107.086 29.5494C107.325 29.6692 107.589 29.7287 107.856 29.7227C108.067 29.6601 108.265 29.5589 108.439 29.424C108.758 29.1879 109.052 28.9198 109.316 28.6239C109.951 27.8972 110.519 27.1148 111.013 26.2861C111.544 25.4233 112.041 24.5125 112.513 23.5834C112.749 23.1188 112.978 22.6468 113.199 22.1748C113.42 21.7028 113.645 21.2051 113.833 20.77L117.694 22.3149Z" fill="#E4897B"/>
<path d="M98.4355 24.2839L98.0409 22.0974L95.2275 23.823C95.2275 23.823 96.1162 25.202 97.0527 25.2242L98.4355 24.2839Z" fill="#E4897B"/>
<path d="M96.7281 20.781L94.5305 22.2744L95.2237 23.823L98.0371 22.0974L96.7281 20.781Z" fill="#E4897B"/>
<path d="M118.985 19.4905C119.663 22.0126 115.968 27.0789 115.968 27.0789L111.116 24.3577C111.116 24.3577 112.019 22.2744 113.129 20.1542C114.918 16.7287 118.207 16.6144 118.985 19.4905Z" fill="#58B0CD"/>
<path opacity="0.6" d="M118.985 19.4905C119.663 22.0126 115.968 27.0789 115.968 27.0789L111.116 24.3577C111.116 24.3577 112.019 22.2744 113.129 20.1542C114.918 16.7287 118.207 16.6144 118.985 19.4905Z" fill="#FAFAFA"/>
<path d="M113.052 25.438L114.958 26.5074L115.29 20.6593C114.184 21.5111 113.398 24.0774 113.052 25.438Z" fill="#58B0CD"/>
<path opacity="0.3" d="M113.052 25.438L114.958 26.5074L115.29 20.6593C114.184 21.5111 113.398 24.0774 113.052 25.438Z" fill="#FAFAFA"/>
<path d="M122.631 105.072L119.989 106.092L121.159 109.122L123.801 108.102L122.631 105.072Z" fill="#CE6F64"/>
<path d="M132.993 105.776H130.212L130.74 109.091H133.516L132.993 105.776Z" fill="#CE6F64"/>
<path d="M131.359 17.4477C128.531 28.1888 129.313 39.3096 129.077 41.5883H114.228C112.016 25.9764 115.799 17.5915 115.799 17.5915C115.799 17.5915 116.979 17.2744 118.498 17.0274L118.922 16.9647C119.309 16.9094 119.707 16.8577 120.113 16.8209C122.215 16.6991 124.323 16.6991 126.425 16.8209C126.754 16.8209 127.085 16.8614 127.41 16.8872L127.797 16.9241C129.711 17.1122 131.359 17.4477 131.359 17.4477Z" fill="#58B0CD"/>
<path opacity="0.6" d="M131.359 17.4477C128.531 28.1888 129.313 39.3096 129.077 41.5883H114.228C112.016 25.9764 115.799 17.5915 115.799 17.5915C115.799 17.5915 116.979 17.2744 118.498 17.0274L118.922 16.9647C119.309 16.9094 119.707 16.8577 120.113 16.8209C122.215 16.6991 124.323 16.6991 126.425 16.8209C126.754 16.8209 127.085 16.8614 127.41 16.8872L127.797 16.9241C129.711 17.1122 131.359 17.4477 131.359 17.4477Z" fill="#FAFAFA"/>
<path d="M113.756 37.3627C113.808 38.0289 113.873 38.7122 113.952 39.4128L125.013 35.8288C126.738 35.3146 128.236 34.2287 129.261 32.7499C129.302 31.7654 129.357 30.7293 129.442 29.6489C129.479 29.1216 129.527 28.5833 129.575 28.0376C129.622 27.4918 129.689 26.8908 129.755 26.3082L113.756 37.3627Z" fill="#58B0CD"/>
<path opacity="0.3" d="M113.756 37.3627C113.808 38.0289 113.873 38.7122 113.952 39.4128L125.013 35.8288C126.738 35.3146 128.236 34.2287 129.261 32.7499C129.302 31.7654 129.357 30.7293 129.442 29.6489C129.479 29.1216 129.527 28.5833 129.575 28.0376C129.622 27.4918 129.689 26.8908 129.755 26.3082L113.756 37.3627Z" fill="#FAFAFA"/>
<path d="M127.41 16.8872L127.263 17.2043C127.215 17.3113 126.039 19.8039 121.713 19.8039C121.138 19.8039 119.387 19.8039 118.837 18.5797C118.732 18.3207 118.685 18.0418 118.7 17.7627C118.715 17.4837 118.79 17.2112 118.922 16.9647L118.498 17.0274C118.384 17.2967 118.325 17.5864 118.325 17.8791C118.325 18.1718 118.384 18.4615 118.498 18.7309C119.143 20.1726 121.079 20.1726 121.71 20.1726C126.267 20.1726 127.543 17.4698 127.609 17.3555L127.805 16.9241L127.41 16.8872Z" fill="#FAFAFA"/>
<path d="M126.215 9.71179C125.699 11.7435 125.083 15.4639 126.426 16.8209C126.426 16.8209 125.489 18.8821 121.713 18.8821C118.266 18.8821 120.113 16.8209 120.113 16.8209C122.41 16.2788 122.451 14.6085 122.148 13.023L126.215 9.71179Z" fill="#E4897B"/>
<path d="M124.556 11.0613L122.148 13.0193C122.225 13.3833 122.268 13.7536 122.277 14.1255C122.982 14.8261 124.394 13.0525 124.541 12.1454C124.611 11.7878 124.616 11.4207 124.556 11.0613Z" fill="#CE6F64"/>
<path d="M117.808 8.7273C117.867 9.05656 117.993 9.37009 118.179 9.64807C118.365 9.92605 118.607 10.1624 118.889 10.3423C119.656 10.8291 120.364 10.2133 120.397 9.35783C120.441 8.59087 120.095 7.41094 119.199 7.27083C119.003 7.24168 118.804 7.25988 118.617 7.32388C118.431 7.38788 118.262 7.49581 118.126 7.63857C117.99 7.78134 117.89 7.95476 117.834 8.14424C117.779 8.33371 117.77 8.53368 117.808 8.7273Z" fill="#CE6F64"/>
<path d="M119.847 3.36598C118.428 3.90063 117.565 9.33568 119.239 10.2612C120.913 11.1867 122.535 2.35566 119.847 3.36598Z" fill="#263238"/>
<path d="M117.451 5.25019C118.498 6.35638 123.837 5.02896 124.04 3.12632C124.243 1.22369 115.471 3.17057 117.451 5.25019Z" fill="#263238"/>
<path d="M126.138 6.41538C126.038 9.18452 126.119 10.8032 124.77 12.315C124.356 12.8195 123.81 13.1997 123.194 13.4138C122.577 13.6279 121.913 13.6675 121.276 13.5283C120.638 13.3891 120.051 13.0765 119.58 12.6249C119.108 12.1733 118.771 11.6003 118.605 10.9692C117.956 8.54294 118.236 4.42424 120.883 3.1042C121.439 2.79918 122.066 2.64838 122.699 2.66744C123.333 2.6865 123.95 2.87472 124.486 3.21258C125.022 3.55043 125.458 4.02561 125.748 4.5888C126.039 5.15199 126.173 5.78266 126.138 6.41538Z" fill="#E4897B"/>
<path d="M124.468 0.666901C126.426 0.183868 126.853 0.736959 126.942 2.07544C127.03 3.41392 128.815 3.04151 128.214 5.06214C127.934 6.01715 127.215 5.93603 127.653 7.06065C128.155 8.35488 125.179 9.92197 124.479 9.91828C123.325 9.91828 123.579 7.51418 124.519 5.32762C125.223 3.69047 123.468 4.14401 121.455 4.7561C116.92 6.13145 113.915 2.175 116.728 0.279739C118.218 -0.726889 122.314 1.36011 124.468 0.666901Z" fill="#263238"/>
<path d="M127.451 9.35045C127.099 9.96519 126.529 10.4257 125.854 10.641C124.965 10.9139 124.549 10.1322 124.818 9.28777C125.061 8.5245 125.821 7.46625 126.699 7.56581C127.576 7.66536 127.878 8.58718 127.451 9.35045Z" fill="#E4897B"/>
<path d="M114.228 41.5736C114.228 41.5736 111.735 63.878 111.54 72.344C111.337 81.1529 119.987 108.627 119.987 108.627L124.412 106.765C124.412 106.765 119.25 81.6654 119.987 73.0187C120.754 63.6051 123.988 41.5736 123.988 41.5736H114.228Z" fill="#263238"/>
<path d="M120.419 47.7129C118.435 51.8353 119.774 59.9842 120.85 64.8145C121.26 61.4074 121.743 57.7054 122.204 54.2799C122.159 49.0108 121.75 44.9474 120.419 47.7129Z" fill="#182137"/>
<path d="M124.221 105.334C124.239 105.334 124.744 106.746 124.744 106.746L119.641 108.889L118.833 107.395L124.221 105.334Z" fill="#58B0CD"/>
<path opacity="0.6" d="M124.221 105.334C124.239 105.334 124.744 106.746 124.744 106.746L119.641 108.889L118.833 107.395L124.221 105.334Z" fill="#FAFAFA"/>
<path d="M119.493 41.5736C119.493 41.5736 121.4 62.7865 122.664 70.7363C124.047 79.442 129.482 108.435 129.482 108.435H134.571C134.571 108.435 131.521 80.1426 130.946 71.5254C130.323 62.1708 129.077 41.5736 129.077 41.5736H119.493Z" fill="#263238"/>
<path d="M134.648 106.912C134.667 106.912 134.818 108.546 134.818 108.546H129.228L128.83 106.702L134.648 106.912Z" fill="#58B0CD"/>
<path opacity="0.6" d="M134.648 106.912C134.667 106.912 134.818 108.546 134.818 108.546H129.228L128.83 106.702L134.648 106.912Z" fill="#FAFAFA"/>
<path d="M122.008 7.53261C122.008 7.75754 121.901 7.94928 121.754 7.96034C121.606 7.9714 121.484 7.80178 121.481 7.59161C121.477 7.38143 121.588 7.17495 121.735 7.16389C121.883 7.15282 122.008 7.30769 122.008 7.53261Z" fill="#263238"/>
<path d="M119.479 7.74279C119.479 7.96771 119.372 8.15945 119.224 8.17051C119.077 8.18158 118.955 8.01196 118.952 7.80179C118.948 7.59161 119.058 7.38512 119.206 7.37406C119.353 7.363 119.471 7.51787 119.479 7.74279Z" fill="#263238"/>
<path d="M120.283 7.78705C120.032 8.49828 119.69 9.17383 119.265 9.79662C119.667 10.1322 120.334 9.90723 120.334 9.90723L120.283 7.78705Z" fill="#DE5753"/>
<path d="M120.6 10.829C120.583 10.8291 120.566 10.8226 120.554 10.8109C120.542 10.7993 120.534 10.7833 120.533 10.7664C120.533 10.7484 120.54 10.7311 120.552 10.7181C120.565 10.705 120.582 10.6972 120.6 10.6963C120.883 10.6757 121.158 10.5918 121.404 10.4508C121.65 10.3097 121.862 10.1152 122.023 9.88141C122.031 9.86675 122.045 9.85598 122.061 9.85148C122.077 9.84699 122.095 9.84913 122.11 9.85745C122.124 9.86576 122.135 9.87956 122.139 9.89581C122.144 9.91206 122.142 9.92943 122.133 9.9441C121.962 10.199 121.735 10.4112 121.469 10.5646C121.203 10.718 120.906 10.8085 120.6 10.829Z" fill="#263238"/>
<path d="M122.797 6.10195C122.777 6.10267 122.757 6.09873 122.738 6.09042C122.72 6.08211 122.703 6.06965 122.69 6.05401C122.589 5.92443 122.459 5.82049 122.311 5.75065C122.162 5.68081 121.999 5.64705 121.835 5.6521C121.818 5.65414 121.801 5.65278 121.785 5.64808C121.769 5.64339 121.753 5.63547 121.74 5.6248C121.727 5.61412 121.716 5.60091 121.709 5.58596C121.701 5.57101 121.696 5.55463 121.695 5.53779C121.694 5.50242 121.706 5.46794 121.729 5.44126C121.752 5.41459 121.785 5.3977 121.82 5.39399C122.027 5.38454 122.234 5.42479 122.422 5.51138C122.611 5.59797 122.776 5.7284 122.904 5.89177C122.915 5.90514 122.923 5.92054 122.927 5.93703C122.932 5.95352 122.933 5.97076 122.93 5.98768C122.928 6.00461 122.922 6.02085 122.913 6.03543C122.904 6.05001 122.892 6.06261 122.878 6.07245C122.855 6.0908 122.827 6.10115 122.797 6.10195Z" fill="#263238"/>
<path d="M118.384 6.48175C118.365 6.47692 118.347 6.46812 118.332 6.45594C118.32 6.44392 118.31 6.42958 118.303 6.41375C118.297 6.39792 118.293 6.38092 118.293 6.36376C118.293 6.34659 118.297 6.32959 118.303 6.31376C118.31 6.29793 118.32 6.28359 118.332 6.27157C118.46 6.09901 118.627 5.95922 118.819 5.86371C119.011 5.7682 119.223 5.71969 119.438 5.72217C119.455 5.723 119.472 5.7274 119.487 5.73509C119.502 5.74278 119.516 5.75358 119.526 5.76679C119.537 5.78 119.545 5.79532 119.55 5.81177C119.554 5.82823 119.555 5.84544 119.552 5.86228C119.547 5.89712 119.529 5.92875 119.502 5.95119C119.475 5.97362 119.44 5.98529 119.405 5.98397C119.237 5.98778 119.071 6.02996 118.922 6.10727C118.772 6.18459 118.643 6.29501 118.542 6.43013C118.524 6.45414 118.499 6.47201 118.471 6.48126C118.443 6.49051 118.412 6.49068 118.384 6.48175Z" fill="#263238"/>
<path d="M132.786 21.076L128.948 20.0546C128.948 20.0546 125.187 29.3134 123.859 29.9181C122.052 30.7404 117.473 33.6054 115.53 34.9586C115.419 35.4158 115.504 36.64 115.751 36.9719C119.069 36.3708 125.423 33.9262 126.75 32.6799C129.774 29.848 132.786 21.076 132.786 21.076Z" fill="#E4897B"/>
<path d="M133.785 20.0178C134.799 23.2847 130.835 27.761 130.835 27.761L125.36 25.5265C126.006 23.6344 126.753 21.7783 127.598 19.9661C129.283 16.3415 132.76 16.7176 133.785 20.0178Z" fill="#58B0CD"/>
<path opacity="0.6" d="M133.785 20.0178C134.799 23.2847 130.835 27.761 130.835 27.761L125.36 25.5265C126.006 23.6344 126.753 21.7783 127.598 19.9661C129.283 16.3415 132.76 16.7176 133.785 20.0178Z" fill="#FAFAFA"/>
<path d="M130.12 112.369C129.933 112.386 129.746 112.337 129.593 112.229C129.545 112.186 129.51 112.132 129.49 112.071C129.47 112.01 129.466 111.945 129.478 111.883C129.481 111.843 129.493 111.805 129.514 111.772C129.536 111.739 129.565 111.713 129.6 111.695C129.914 111.54 130.78 112.089 130.876 112.152C130.887 112.159 130.895 112.169 130.901 112.181C130.906 112.192 130.908 112.205 130.905 112.218C130.902 112.231 130.895 112.243 130.885 112.252C130.876 112.261 130.863 112.267 130.85 112.27C130.611 112.33 130.366 112.364 130.12 112.369ZM129.751 111.798C129.723 111.792 129.694 111.792 129.667 111.798C129.653 111.805 129.641 111.817 129.632 111.83C129.624 111.844 129.619 111.859 129.619 111.875C129.61 111.918 129.612 111.963 129.625 112.004C129.638 112.046 129.661 112.084 129.692 112.115C130.002 112.256 130.355 112.273 130.677 112.163C130.39 111.976 130.067 111.851 129.729 111.794L129.751 111.798Z" fill="#58B0CD"/>
<path d="M130.824 112.27H130.795C130.515 112.111 129.995 111.503 130.057 111.193C130.071 111.145 130.1 111.102 130.14 111.071C130.18 111.041 130.228 111.024 130.279 111.023C130.328 111.016 130.378 111.02 130.425 111.034C130.472 111.049 130.516 111.074 130.552 111.108C130.861 111.37 130.88 112.17 130.88 112.214C130.88 112.233 130.872 112.251 130.859 112.264C130.846 112.277 130.828 112.285 130.81 112.285L130.824 112.27ZM130.33 111.145H130.301C130.216 111.145 130.205 111.197 130.201 111.212C130.153 111.396 130.481 111.853 130.754 112.071C130.754 111.759 130.657 111.455 130.478 111.2C130.437 111.165 130.385 111.145 130.33 111.145Z" fill="#58B0CD"/>
<path d="M120.316 111.908C120.091 111.987 119.847 111.987 119.622 111.908C119.569 111.883 119.522 111.844 119.488 111.796C119.454 111.747 119.433 111.691 119.427 111.632C119.423 111.596 119.427 111.559 119.44 111.525C119.453 111.491 119.474 111.461 119.501 111.436C119.799 111.175 121.001 111.459 121.138 111.492C121.15 111.495 121.162 111.502 121.17 111.512C121.179 111.522 121.184 111.534 121.186 111.547C121.186 111.561 121.183 111.575 121.176 111.586C121.168 111.598 121.158 111.608 121.145 111.613C120.878 111.736 120.6 111.835 120.316 111.908ZM119.718 111.47C119.675 111.477 119.635 111.495 119.6 111.521C119.59 111.532 119.582 111.544 119.577 111.559C119.572 111.573 119.572 111.588 119.575 111.602C119.575 111.641 119.586 111.678 119.607 111.71C119.627 111.743 119.655 111.769 119.689 111.787C119.884 111.894 120.341 111.809 120.924 111.566C120.531 111.464 120.123 111.432 119.718 111.47Z" fill="#58B0CD"/>
<path d="M121.145 111.606H121.12C120.751 111.54 120.013 111.116 119.991 110.799C119.991 110.725 120.024 110.622 120.198 110.559C120.319 110.518 120.451 110.525 120.566 110.581C120.968 110.78 121.179 111.488 121.186 111.518C121.191 111.528 121.194 111.539 121.194 111.551C121.194 111.562 121.191 111.574 121.186 111.584C121.181 111.591 121.175 111.596 121.168 111.6C121.161 111.604 121.153 111.606 121.145 111.606ZM120.275 110.677H120.235C120.12 110.717 120.124 110.765 120.124 110.78C120.124 110.968 120.659 111.318 121.031 111.436C120.944 111.141 120.762 110.882 120.515 110.699C120.441 110.661 120.355 110.653 120.275 110.677Z" fill="#58B0CD"/>
<path d="M52.8574 8.28954L2.4209 43.4615L35.7115 91.2001L86.148 56.0282L52.8574 8.28954Z" fill="#58B0CD"/>
<path opacity="0.8" d="M52.8574 8.28954L2.4209 43.4615L35.7115 91.2001L86.148 56.0282L52.8574 8.28954Z" fill="#FAFAFA"/>
<path d="M52.7246 9.0317L2.28809 44.2036L35.5787 91.9423L86.0152 56.7704L52.7246 9.0317Z" fill="#FAFAFA"/>
<path d="M51.6972 15.3191L8.5376 45.4164L31.4681 78.2988L74.6277 48.2014L51.6972 15.3191Z" fill="#58B0CD"/>
<path opacity="0.8" d="M51.6972 15.3191L8.5376 45.4164L31.4681 78.2988L74.6277 48.2014L51.6972 15.3191Z" fill="#FAFAFA"/>
<path d="M35.1727 43.6237C36.0073 44.8209 36.4679 46.2388 36.4963 47.698C36.5246 49.1571 36.1193 50.5918 35.3318 51.8205C34.5443 53.0492 33.41 54.0166 32.0723 54.6002C30.7347 55.1839 29.254 55.3575 27.8177 55.0992C26.3813 54.8408 25.0539 54.1621 24.0035 53.149C22.9531 52.1358 22.2269 50.8338 21.9169 49.4077C21.6068 47.9816 21.7269 46.4956 22.2619 45.1378C22.7968 43.78 23.7226 42.6115 24.9221 41.7801C26.5267 40.6679 28.5069 40.2374 30.4285 40.583C32.3501 40.9286 34.0562 42.0221 35.1727 43.6237Z" fill="#58B0CD"/>
<path opacity="0.1" d="M35.1727 43.6237C36.0073 44.8209 36.4679 46.2388 36.4963 47.698C36.5246 49.1571 36.1193 50.5918 35.3318 51.8205C34.5443 53.0492 33.41 54.0166 32.0723 54.6002C30.7347 55.1839 29.254 55.3575 27.8177 55.0992C26.3813 54.8408 25.0539 54.1621 24.0035 53.149C22.9531 52.1358 22.2269 50.8338 21.9169 49.4077C21.6068 47.9816 21.7269 46.4956 22.2619 45.1378C22.7968 43.78 23.7226 42.6115 24.9221 41.7801C26.5267 40.6679 28.5069 40.2374 30.4285 40.583C32.3501 40.9286 34.0562 42.0221 35.1727 43.6237Z" fill="#FAFAFA"/>
<path d="M62.702 40.3752C61.5909 39.2683 60.2499 38.4194 58.7741 37.8886C57.2983 37.3578 55.7238 37.1581 54.1622 37.3037C54.1143 37.2373 54.0774 37.1636 54.0295 37.0935C52.6012 35.02 50.487 33.517 48.0593 32.8492C45.6316 32.1814 43.0461 32.3918 40.7583 33.4432C38.4704 34.4945 36.6269 36.3195 35.5526 38.5967C34.4782 40.8738 34.2419 43.4571 34.8852 45.8914C34.5629 46.0433 34.2534 46.2208 33.9597 46.4224C32.9083 47.1534 32.1003 48.1829 31.6402 49.3779C31.18 50.5729 31.0889 51.8785 31.3786 53.1258C29.9712 53.6775 28.772 54.6562 27.9494 55.9245C27.1042 57.1853 26.6458 58.6657 26.6308 60.1835C26.6157 61.7014 27.0445 63.1905 27.8646 64.4679C28.4295 65.3164 29.1581 66.0435 30.0078 66.6065C30.8575 67.1696 31.811 67.5573 32.8126 67.7469C33.8141 67.9365 34.8434 67.9241 35.8401 67.7106C36.8368 67.497 37.7808 67.0866 38.6167 66.5033L51.0244 57.8492L62.3923 49.9216C63.6562 49.0582 64.5293 47.7318 64.8226 46.2295C65.1159 44.7271 64.8058 43.1697 63.9594 41.8944L63.9262 41.8428C63.5633 41.3176 63.1536 40.8264 62.702 40.3752Z" fill="#58B0CD"/>
<path opacity="0.3" d="M62.702 40.3752C61.5909 39.2683 60.2499 38.4194 58.7741 37.8886C57.2983 37.3578 55.7238 37.1581 54.1622 37.3037C54.1143 37.2373 54.0774 37.1636 54.0295 37.0935C52.6012 35.02 50.487 33.517 48.0593 32.8492C45.6316 32.1814 43.0461 32.3918 40.7583 33.4432C38.4704 34.4945 36.6269 36.3195 35.5526 38.5967C34.4782 40.8738 34.2419 43.4571 34.8852 45.8914C34.5629 46.0433 34.2534 46.2208 33.9597 46.4224C32.9083 47.1534 32.1003 48.1829 31.6402 49.3779C31.18 50.5729 31.0889 51.8785 31.3786 53.1258C29.9712 53.6775 28.772 54.6562 27.9494 55.9245C27.1042 57.1853 26.6458 58.6657 26.6308 60.1835C26.6157 61.7014 27.0445 63.1905 27.8646 64.4679C28.4295 65.3164 29.1581 66.0435 30.0078 66.6065C30.8575 67.1696 31.811 67.5573 32.8126 67.7469C33.8141 67.9365 34.8434 67.9241 35.8401 67.7106C36.8368 67.497 37.7808 67.0866 38.6167 66.5033L51.0244 57.8492L62.3923 49.9216C63.6562 49.0582 64.5293 47.7318 64.8226 46.2295C65.1159 44.7271 64.8058 43.1697 63.9594 41.8944L63.9262 41.8428C63.5633 41.3176 63.1536 40.8264 62.702 40.3752Z" fill="black"/>
<g style="mix-blend-mode:multiply">
<path d="M54.4506 16.701L2.77075 50.0191L34.3067 98.9346L85.9866 65.6165L54.4506 16.701Z" fill="#58B0CD"/>
</g>
<path opacity="0.8" d="M54.4506 16.701L2.77075 50.0191L34.3067 98.9346L85.9866 65.6165L54.4506 16.701Z" fill="#FAFAFA"/>
<path d="M54.2951 17.443L2.61523 50.7611L34.1512 99.6766L85.831 66.3584L54.2951 17.443Z" fill="#FAFAFA"/>
<path d="M53.0416 23.6899L8.81812 52.2009L30.5401 85.8938L74.7636 57.3828L53.0416 23.6899Z" fill="#58B0CD"/>
<path opacity="0.8" d="M53.0416 23.6899L8.81812 52.2009L30.5401 85.8938L74.7636 57.3828L53.0416 23.6899Z" fill="#FAFAFA"/>
<path d="M36.5016 56.9054C37.3508 52.9304 34.8169 49.0196 30.8419 48.1703C26.8669 47.3211 22.9561 49.855 22.1068 53.83C21.2576 57.805 23.7915 61.7158 27.7665 62.5651C31.7415 63.4143 35.6523 60.8804 36.5016 56.9054Z" fill="#58B0CD"/>
<path opacity="0.1" d="M36.5016 56.9054C37.3508 52.9304 34.8169 49.0196 30.8419 48.1703C26.8669 47.3211 22.9561 49.855 22.1068 53.83C21.2576 57.805 23.7915 61.7158 27.7665 62.5651C31.7415 63.4143 35.6523 60.8804 36.5016 56.9054Z" fill="#FAFAFA"/>
<path d="M63.1225 49.1399C62.0518 47.9922 60.7415 47.0943 59.2847 46.5099C57.828 45.9256 56.2604 45.6691 54.6934 45.7586C54.6491 45.6849 54.6159 45.6112 54.568 45.5411C53.2149 43.4167 51.1553 41.8382 48.7522 41.0837C46.3492 40.3292 43.7569 40.4472 41.4323 41.4169C39.1078 42.3865 37.2001 44.1457 36.0455 46.3842C34.891 48.6227 34.5637 51.1969 35.1213 53.6531C34.7919 53.7905 34.4749 53.9558 34.1737 54.1472C33.0988 54.8403 32.256 55.8394 31.7539 57.0157C31.2518 58.1921 31.1135 59.4918 31.3566 60.7474C29.9292 61.2447 28.6946 62.1787 27.8278 63.417C26.9371 64.6458 26.4251 66.1082 26.355 67.6242C26.2849 69.1403 26.6597 70.6437 27.4333 71.9494C27.9657 72.8191 28.6665 73.5737 29.4945 74.1689C30.3225 74.764 31.2611 75.1878 32.2552 75.4152C33.2493 75.6426 34.2787 75.669 35.2832 75.493C36.2876 75.3171 37.2468 74.9422 38.1043 74.3904L50.8438 66.1751L62.4957 58.6641C63.7869 57.8443 64.704 56.5496 65.049 55.0595C65.3939 53.5694 65.139 52.0034 64.3393 50.6996L64.3024 50.648C63.9567 50.1098 63.5617 49.6049 63.1225 49.1399Z" fill="#58B0CD"/>
<path opacity="0.3" d="M63.1225 49.1399C62.0518 47.9922 60.7415 47.0943 59.2847 46.5099C57.828 45.9256 56.2604 45.6691 54.6934 45.7586C54.6491 45.6849 54.6159 45.6112 54.568 45.5411C53.2149 43.4167 51.1553 41.8382 48.7522 41.0837C46.3492 40.3292 43.7569 40.4472 41.4323 41.4169C39.1078 42.3865 37.2001 44.1457 36.0455 46.3842C34.891 48.6227 34.5637 51.1969 35.1213 53.6531C34.7919 53.7905 34.4749 53.9558 34.1737 54.1472C33.0988 54.8403 32.256 55.8394 31.7539 57.0157C31.2518 58.1921 31.1135 59.4918 31.3566 60.7474C29.9292 61.2447 28.6946 62.1787 27.8278 63.417C26.9371 64.6458 26.4251 66.1082 26.355 67.6242C26.2849 69.1403 26.6597 70.6437 27.4333 71.9494C27.9657 72.8191 28.6665 73.5737 29.4945 74.1689C30.3225 74.764 31.2611 75.1878 32.2552 75.4152C33.2493 75.6426 34.2787 75.669 35.2832 75.493C36.2876 75.3171 37.2468 74.9422 38.1043 74.3904L50.8438 66.1751L62.4957 58.6641C63.7869 57.8443 64.704 56.5496 65.049 55.0595C65.3939 53.5694 65.139 52.0034 64.3393 50.6996L64.3024 50.648C63.9567 50.1098 63.5617 49.6049 63.1225 49.1399Z" fill="black"/>
<g style="mix-blend-mode:multiply">
<path d="M100.66 22.8016L39.5374 29.5063L45.8835 87.3593L107.006 80.6545L100.66 22.8016Z" fill="#58B0CD"/>
</g>
<path opacity="0.8" d="M100.66 22.8016L39.5374 29.5063L45.8835 87.3593L107.006 80.6545L100.66 22.8016Z" fill="#FAFAFA"/>
<path d="M100.185 23.3915L39.0625 30.0963L45.4087 87.9493L106.531 81.2445L100.185 23.3915Z" fill="#FAFAFA"/>
<path d="M96.2725 28.4182L43.9688 34.1556L48.34 74.0047L100.644 68.2673L96.2725 28.4182Z" fill="#58B0CD"/>
<path opacity="0.8" d="M96.2725 28.4182L43.9688 34.1556L48.34 74.0047L100.644 68.2673L96.2725 28.4182Z" fill="#FAFAFA"/>
<path d="M100.489 66.8093L100.648 68.2658L73.4797 71.2488L79.9657 63.5571L86.6064 55.6737L100.489 66.8093Z" fill="#58B0CD"/>
<path opacity="0.3" d="M100.489 66.8093L100.648 68.2658L73.4797 71.2488L79.9657 63.5571L86.6064 55.6737L100.489 66.8093Z" fill="black"/>
<path d="M88.8853 69.5563L48.3474 74.0032L47.9934 70.7989L63.904 52.7571L79.9658 63.5571L88.8853 69.5563Z" fill="#58B0CD"/>
<path opacity="0.3" d="M88.8853 69.5563L48.3474 74.0032L47.9934 70.7989L63.904 52.7571L79.9658 63.5571L88.8853 69.5563Z" fill="black"/>
<path d="M83.903 43.2225C84.0464 39.786 81.3768 36.8838 77.9403 36.7404C74.5038 36.597 71.6016 39.2665 71.4582 42.7031C71.3148 46.1396 73.9843 49.0418 77.4209 49.1852C80.8574 49.3286 83.7596 46.659 83.903 43.2225Z" fill="#58B0CD"/>
<path opacity="0.1" d="M83.903 43.2225C84.0464 39.786 81.3768 36.8838 77.9403 36.7404C74.5038 36.597 71.6016 39.2665 71.4582 42.7031C71.3148 46.1396 73.9843 49.0418 77.4209 49.1852C80.8574 49.3286 83.7596 46.659 83.903 43.2225Z" fill="#FAFAFA"/>
<path d="M115.839 34.741L112.889 35.7513L111.016 37.0714L114.379 38.3767C114.379 38.3767 117.521 38.0448 118.277 36.3413L115.839 34.741Z" fill="#E4897B"/>
</svg>
