<svg width="165" height="202" viewBox="0 0 165 202" fill="none" xmlns="http://www.w3.org/2000/svg">
<path d="M139.015 176.811H118.095L120.19 199.16H136.92L139.015 176.811Z" fill="#263238" stroke="#263238" stroke-miterlimit="10"/>
<path d="M128.939 180.607C128.939 180.607 137.842 146.907 148.574 122.671" stroke="#263238" stroke-linecap="round" stroke-linejoin="round"/>
<path d="M146.079 128.199C146.079 128.199 144.896 119.04 147.727 115.01C150.558 110.979 153.836 109.481 153.836 109.481C153.836 109.481 154.535 119.808 153.351 123.156C152.168 126.504 146.079 128.194 146.079 128.194V128.199Z" fill="#58B0CD"/>
<path d="M145.903 128.796C145.903 128.796 143.579 127.815 142.806 122.612C142.033 117.403 143.877 109.321 143.877 109.321C143.877 109.321 146.271 115.553 146.975 119.626C147.679 123.7 145.903 128.796 145.903 128.796Z" fill="#58B0CD"/>
<path d="M145.903 128.797C145.903 128.797 149.321 123.023 153.602 121.738C157.888 120.453 164.766 119.989 164.766 119.989C164.766 119.989 162.415 124.841 156.625 126.792C150.835 128.749 145.903 128.797 145.903 128.797Z" fill="#58B0CD"/>
<path d="M140.86 141.789C140.86 141.789 141.926 140.867 139.655 136.468C137.384 132.075 134.579 130.273 134.579 130.273C134.579 130.273 133.193 136.906 135.23 139.897C137.266 142.887 138.946 144.764 138.946 144.764C138.946 144.764 132.735 142.626 131.738 142.408C130.735 142.189 126.465 141.629 126.465 141.629C126.465 141.629 126.028 143.506 130.122 145.644C134.217 147.782 138.727 147.76 138.727 147.76C138.727 147.76 139.468 148.277 141.1 149.445C142.731 150.613 147.375 152.575 147.375 152.575C147.375 152.575 147.785 150.271 146.165 149.248C144.544 148.219 143.232 147.6 143.232 147.6C143.232 147.6 147.321 147.606 148.137 147.126C148.953 146.646 152.989 143.815 152.989 143.815C152.989 143.815 148.91 143.948 147.924 144.018C146.943 144.082 143.621 145.02 143.621 145.02C143.621 145.02 149.011 143.378 150.222 140.451C151.432 137.524 151.501 134.395 151.501 134.395C151.501 134.395 144.608 136.708 140.86 141.794V141.789Z" fill="#58B0CD"/>
<path d="M136.408 155.166C136.408 155.166 142.379 153.769 144.992 154.867C147.604 155.965 150.926 161.286 150.926 161.286C150.926 161.286 146.25 163.024 142.475 161.43C138.701 159.836 136.408 155.16 136.408 155.16V155.166Z" fill="#58B0CD"/>
<path d="M136.408 155.166C136.408 155.166 133.79 151.929 130.245 151.604C126.7 151.274 124.077 152.164 124.077 152.164C124.077 152.164 123.975 154.872 128.587 156.264C133.193 157.655 136.408 155.166 136.408 155.166Z" fill="#58B0CD"/>
<path d="M134.595 161.681C134.595 161.681 137.57 161.905 139.228 163.499C140.886 165.093 143.547 173.154 143.547 173.154C143.547 173.154 138.21 171.384 134.931 168.761C131.652 166.138 134.59 161.675 134.59 161.675L134.595 161.681Z" fill="#58B0CD"/>
<path d="M134.596 161.681C134.596 161.681 130.885 158.946 128.267 159.836C125.649 160.726 124.434 163.648 124.45 165.924C124.461 168.196 124.439 169.907 124.439 169.907C124.439 169.907 128.854 168.473 130.059 167.535C131.263 166.602 134.596 161.686 134.596 161.686V161.681Z" fill="#58B0CD"/>
<path d="M125.889 183.785C125.889 183.785 121.379 144.002 113.174 125.544" stroke="#263238" stroke-miterlimit="10"/>
<path d="M112.465 123.785C112.465 123.785 110.918 121.924 112.774 117.281C114.634 112.637 116.49 110.003 116.49 110.003C116.49 110.003 119.123 115.116 119.278 118.208C119.433 121.306 116.026 125.022 116.026 125.022C116.026 125.022 117.263 123.785 119.587 123.316C121.912 122.852 125.164 123.161 125.164 123.161C125.164 123.161 123.773 125.64 122.221 126.413C120.675 127.186 116.335 128.119 115.717 127.959C115.098 127.805 115.408 128.269 112.465 131.057C109.522 133.845 107.666 135.237 107.666 135.237C107.666 135.237 106.584 130.279 107.512 127.805C108.439 125.326 112.47 123.78 112.47 123.78L112.465 123.785Z" fill="#58B0CD"/>
<path d="M114.165 123.94C114.165 123.94 112.774 121.924 111.532 120.842C110.295 119.76 107.97 119.451 107.043 119.296C106.115 119.141 105.96 122.394 107.661 124.563C109.362 126.733 115.711 127.97 115.711 127.97L114.165 123.945V123.94Z" fill="#58B0CD"/>
<path d="M116.335 134.16C116.335 134.16 115.098 132.768 118.505 130.444C121.912 128.119 125.009 127.965 125.009 127.965C125.009 127.965 124.082 133.851 122.53 135.551C120.979 137.252 118.351 136.943 118.351 136.943C118.351 136.943 122.067 137.098 123.618 137.871C125.164 138.644 128.731 143.602 128.731 143.602C128.731 143.602 128.731 143.757 125.324 143.757C121.917 143.757 119.129 140.968 119.129 140.968C119.129 140.968 119.747 142.829 119.902 144.22C120.057 145.612 117.114 149.019 116.804 149.488C116.495 149.952 113.861 146.081 113.552 144.375C113.243 142.669 113.552 141.432 113.552 141.432C113.552 141.432 112.47 141.896 111.073 143.602C109.682 145.308 108.749 147.936 108.749 147.936C108.749 147.936 105.651 142.978 106.424 139.886C107.197 136.788 114.011 136.943 114.011 136.943C114.011 136.943 110.759 136.479 109.212 135.861C107.666 135.242 106.27 133.845 106.27 133.072C106.27 132.299 107.043 131.99 110.295 132.299C113.547 132.609 116.335 134.16 116.335 134.16Z" fill="#58B0CD"/>
<path d="M120.824 151.348C120.824 151.348 116.335 148.56 114.011 148.869C111.686 149.179 109.676 149.952 108.898 149.952C108.12 149.952 110.444 154.75 113.232 154.91C116.021 155.064 120.974 153.827 120.974 153.827C120.974 153.827 118.185 155.534 117.103 157.389C116.021 159.25 115.557 162.811 115.557 162.811C115.557 162.811 119.582 162.966 121.288 161.419C122.994 159.873 122.37 154.142 122.37 154.142C122.37 154.142 123.298 153.369 124.695 153.214C126.086 153.06 128.688 154.473 128.688 154.473C128.688 154.473 131.972 149.962 126.556 147.483C121.134 145.004 120.824 151.354 120.824 151.354V151.348Z" fill="#58B0CD"/>
<path d="M123.303 166.527C123.303 166.527 120.206 164.821 118.345 166.372C116.485 167.918 114.011 173.186 114.011 173.186C114.011 173.186 117.727 173.804 120.206 172.413C122.685 171.021 123.303 166.527 123.303 166.527Z" fill="#58B0CD"/>
<path d="M123.303 166.527C123.303 166.527 123.922 163.893 127.019 163.12C130.117 162.347 134.606 165.135 134.606 165.135C134.606 165.135 133.215 166.527 129.648 167.615C126.086 168.697 123.298 166.532 123.298 166.532L123.303 166.527Z" fill="#58B0CD"/>
<path d="M113.702 176.118H110.417V198.793H113.702V176.118Z" fill="white" stroke="#263238" stroke-linecap="round" stroke-linejoin="round"/>
<path d="M145.29 176.118H142.006V198.793H145.29V176.118Z" fill="white" stroke="#263238" stroke-linecap="round" stroke-linejoin="round"/>
<path d="M146.708 175.596H109.559V180.271H146.708V175.596Z" fill="white" stroke="#263238" stroke-linecap="round" stroke-linejoin="round"/>
<path d="M146.708 181.988H109.559V186.664H146.708V181.988Z" fill="white" stroke="#263238" stroke-linecap="round" stroke-linejoin="round"/>
<path d="M146.708 188.386H109.559V193.061H146.708V188.386Z" fill="white" stroke="#263238" stroke-linecap="round" stroke-linejoin="round"/>
<path d="M146.708 194.783H109.559V199.459H146.708V194.783Z" fill="white" stroke="#263238" stroke-linecap="round" stroke-linejoin="round"/>
<path d="M63.4415 5.94349C63.4415 5.94349 62.2952 1.2785 54.9059 1.01726C47.5165 0.750693 47.4312 3.64565 45.4799 4.56799C44.483 5.03715 42.393 7.79349 42.6116 9.27562L46.8981 7.26568C46.8981 7.26568 37.1256 13.1836 36.859 22.9507C36.5925 32.7178 40.559 40.7949 48.4815 40.7949C56.404 40.7949 59.9227 38.4171 59.8321 32.7019C59.7468 26.9812 58.6005 17.1288 60.3599 11.4935C62.1193 5.86352 63.4415 5.94882 63.4415 5.94882V5.94349Z" fill="#263238" stroke="#263238" stroke-miterlimit="10"/>
<path d="M86.8835 71.1733L89.7785 76.8566C89.7785 76.8566 94.1236 80.7539 95.2379 83.4303C96.3521 86.1013 100.665 93.384 102.254 93.9012C102.782 94.0718 105.037 94.4556 105.821 94.6795C106.599 94.9035 107.383 95.6818 107.937 95.7938C108.492 95.9058 109.499 96.1297 110.166 95.7938C110.832 95.4579 111.504 96.0177 111.28 96.6842C111.056 97.3506 108.716 97.7984 108.716 97.7984L105.373 97.132C105.373 97.132 108.156 99.0246 107.713 100.027C107.266 101.029 100.916 102.032 100.361 102.032C99.8069 102.032 99.0552 101.253 97.2745 99.9203C95.4938 98.5821 95.0353 95.7778 95.0353 95.7778C95.0353 95.7778 84.9909 86.7731 83.3168 84.5445C81.6481 82.316 79.6382 77.1925 79.6382 76.8566C79.6382 76.5207 78.7478 74.0736 78.7478 74.0736L86.8782 71.1787L86.8835 71.1733Z" fill="white" stroke="#263238" stroke-miterlimit="10"/>
<path d="M105.239 98.6674C105.239 98.6674 105.581 100.549 106.007 100.891C106.434 101.232 107.633 100.613 107.718 100.027C107.804 99.4404 106.865 98.1556 106.263 97.8143C105.666 97.4731 104.978 97.729 105.239 98.6674Z" stroke="#263238" stroke-miterlimit="10"/>
<path d="M105.24 98.6674C105.24 98.6674 104.248 98.4062 103.859 98.8433C103.47 99.2805 104.248 101.717 104.541 101.914C104.834 102.111 106.002 101.818 106.098 101.573C106.194 101.328 106.034 99.8563 105.24 98.6674Z" fill="white" stroke="#263238" stroke-miterlimit="10"/>
<path d="M103.517 99.8191C103.517 99.8191 102.59 98.5022 102.249 99.4779C101.907 100.454 102.105 102.058 102.297 102.352C102.494 102.645 103.416 102.741 103.565 102.208C103.709 101.669 103.565 100.502 103.517 99.8191Z" fill="white" stroke="#263238" stroke-miterlimit="10"/>
<path d="M101.955 100.261C101.955 100.261 101.273 99.0939 100.74 99.9203C100.201 100.747 100.351 102.213 100.596 102.554C100.841 102.895 101.524 102.799 101.716 102.309C101.913 101.824 101.961 100.261 101.961 100.261H101.955Z" fill="white" stroke="#263238" stroke-miterlimit="10"/>
<path d="M30.0613 69.0887L29.4215 75.9343C29.4215 75.9343 28.1367 78.7173 27.6035 81.8148C27.0704 84.9124 27.0704 100.853 27.0704 104.063C27.0704 107.272 26.8571 111.873 27.177 113.691C27.4969 115.509 28.6751 117.647 28.995 118.186C29.3149 118.719 31.1329 119.151 31.778 119.039C32.4231 118.927 34.0225 117.541 34.0225 117.541C34.0225 117.541 33.9159 116.794 33.1695 116.794C32.4231 116.794 31.8846 116.474 31.6714 116.154C31.4581 115.835 32.2045 113.052 32.2045 113.052C32.2045 113.052 32.7377 115.509 33.1695 115.189C33.596 114.87 34.1345 115.296 34.1345 114.011C34.1345 112.726 33.9212 111.335 33.9212 111.335C33.9212 111.335 34.2411 109.943 33.9212 108.019C33.6014 106.094 32.1032 104.489 32.1032 103.311C32.1032 102.133 36.2724 90.2598 37.5573 85.5575C38.8421 80.8498 39.0554 76.6807 39.0554 76.6807L39.9084 71.2266L30.0666 69.0887H30.0613Z" fill="white" stroke="#263238" stroke-miterlimit="10"/>
<path d="M56.857 24.3315C56.857 24.3315 57.9979 30.0414 56.6011 33.091C55.2043 36.1353 48.604 39.6273 47.3351 40.4537C46.0662 41.2801 37.8132 42.9915 34.513 48.3868C31.2129 53.7822 29.2776 69.2966 29.2776 70.1923L41.4705 73.1726C41.4705 73.1726 41.2733 79.4477 41.2733 81.6015C41.2733 83.7554 37.7439 90.8142 36.1764 103.562C34.609 116.304 41.2733 146.693 41.2733 146.693C41.2733 146.693 40.6868 155.516 40.2923 161.2C39.8978 166.883 41.2733 190.021 41.2733 190.021C41.2733 190.021 40.2923 193.94 39.114 194.921C37.9358 195.902 34.0172 198.253 33.82 199.234C33.6227 200.215 34.4064 200.412 35.3874 200.801C36.3684 201.196 50.0914 200.801 50.0914 200.801C50.0914 200.801 51.6589 199.82 51.4616 196.291C51.2643 192.762 51.2643 190.997 51.2643 190.997C51.2643 190.997 52.0481 187.862 52.4426 186.289C52.8371 184.722 52.6398 181.976 52.8371 179.625C53.0344 177.274 55.5828 146.101 55.5828 143.355C55.5828 140.61 59.3094 109.048 59.3094 109.048L61.6606 142.769C61.6606 142.769 63.0308 187.542 63.6226 188.918C64.209 190.288 64.9927 191.269 64.9927 191.269L64.5982 193.231L64.9927 196.563C64.9927 196.563 64.0118 200.876 64.9927 200.876H76.9511C76.9511 200.876 78.913 199.111 78.1293 197.347C77.3456 195.582 76.3646 193.817 76.3646 193.817L74.9945 189.899C74.9945 189.899 76.1727 187.547 76.1727 186.369V180.686C76.1727 177.94 78.5239 138.653 78.5239 138.653C78.5239 138.653 80.6831 120.814 81.2695 108.067C81.856 95.3193 78.7211 86.5011 77.5429 83.7554C76.3646 81.0098 75.9754 78.2641 75.9754 78.2641L76.37 72.1863L78.1347 75.1292L91.2713 70.8161L84.0152 50.6207C84.0152 50.6207 79.8994 44.7402 77.7401 42.9755C75.5809 41.2108 70.1109 39.9579 68.3302 38.737C66.9494 37.7933 66.0803 31.337 66.0803 31.337L56.8517 24.3262L56.857 24.3315Z" fill="#58B0CD" stroke="#263238" stroke-miterlimit="10"/>
<path d="M78.14 75.1292L91.2766 70.8161L84.0205 50.6207C84.0205 50.6207 79.9047 44.7402 77.7455 42.9755C75.5863 41.2108 70.1162 39.9579 68.3355 38.737C66.9547 37.7933 66.0857 31.337 66.0857 31.337L56.857 24.3262C56.857 24.3262 57.9979 30.0361 56.6011 33.0857C55.2043 36.1299 48.604 39.622 47.3351 40.4484C46.0662 41.2747 37.8132 42.9861 34.513 48.3815C31.2129 53.7769 29.2776 69.2913 29.2776 70.187L41.4705 73.1672C41.4705 73.1672 41.2733 79.4423 41.2733 81.5962C41.2733 83.3503 38.9434 88.3405 37.2267 96.9987C42.3129 98.5981 51.0404 100.768 60.1145 100.443C69.2845 100.118 76.8231 98.9393 80.9923 98.1503C80.2246 90.7769 78.3852 85.7121 77.5429 83.7501C76.3646 81.0044 75.9754 78.2588 75.9754 78.2588L76.37 72.1809L78.1347 75.1239L78.14 75.1292Z" fill="#58B0CD" stroke="#263238" stroke-miterlimit="10"/>
<path d="M69.8177 74.2229L60.637 80.1568" stroke="#263238" stroke-miterlimit="10"/>
<path d="M73.2992 71.9784L71.4119 73.194" stroke="#263238" stroke-miterlimit="10"/>
<path d="M70.3989 76.4622L65.3821 79.3624" stroke="#263238" stroke-miterlimit="10"/>
<path d="M62.2205 45.3213C62.2205 45.3213 63.8039 50.5994 63.8039 56.4053" stroke="#263238" stroke-miterlimit="10"/>
<path d="M64.3743 45.8651C64.3743 46.1637 64.1344 46.4036 63.8358 46.4036C63.5373 46.4036 63.2974 46.1637 63.2974 45.8651C63.2974 45.5666 63.5373 45.3267 63.8358 45.3267C64.1344 45.3267 64.3743 45.5666 64.3743 45.8651Z" stroke="#263238" stroke-miterlimit="10"/>
<path d="M65.2913 49.981C65.2913 50.2795 65.0514 50.5195 64.7528 50.5195C64.4543 50.5195 64.2144 50.2795 64.2144 49.981C64.2144 49.6824 64.4543 49.4425 64.7528 49.4425C65.0514 49.4425 65.2913 49.6824 65.2913 49.981Z" stroke="#263238" stroke-miterlimit="10"/>
<path d="M65.6644 54.6405C65.9618 54.6405 66.2029 54.3995 66.2029 54.1021C66.2029 53.8047 65.9618 53.5636 65.6644 53.5636C65.3671 53.5636 65.126 53.8047 65.126 54.1021C65.126 54.3995 65.3671 54.6405 65.6644 54.6405Z" stroke="#263238" stroke-miterlimit="10"/>
<path d="M58.078 43.0501C62.5937 45.4759 67.44 43.306 70.3936 39.718C69.5405 39.3821 68.8101 39.0569 68.341 38.737C66.9601 37.7933 66.0911 31.337 66.0911 31.337L56.8624 24.3262C56.8624 24.3262 58.0034 30.0361 56.6065 33.0857C55.9774 34.4559 54.2927 35.9167 52.5173 37.1855C53.2157 38.8703 54.7512 41.2641 58.078 43.0501Z" fill="white" stroke="#263238" stroke-miterlimit="10"/>
<path d="M61.7246 33.9761C61.7246 33.9761 64.0118 36.5511 64.9661 37.6921C65.9204 38.8383 67.4452 39.6007 67.4452 39.6007L67.8291 35.9807L61.7299 33.9814L61.7246 33.9761Z" fill="#263238" stroke="#263238" stroke-miterlimit="10"/>
<path d="M77.8682 54.2302C78.1187 53.2705 78.3587 52.4175 78.3587 52.4175" stroke="#263238" stroke-miterlimit="10"/>
<path d="M76.3752 72.1917C76.3752 72.1917 78.3585 68.0652 78.4545 65.4421C78.5505 62.8191 77.3296 57.3864 77.3296 56.7306C77.3296 56.56 77.3989 56.1975 77.5002 55.7496" stroke="#263238" stroke-miterlimit="10"/>
<path d="M44.8242 56.1654L41.7319 71.3386L42.7609 59.4442" stroke="#263238" stroke-miterlimit="10"/>
<path d="M76.3753 193.822L75.0051 189.904C75.0051 189.904 70.9373 187.217 68.9113 188.086C66.8854 188.955 66.4536 190.693 66.4536 190.693L65.0087 191.279L64.6142 193.241L65.0087 196.573C65.0087 196.573 64.0278 200.887 65.0087 200.887H76.9671C76.9671 200.887 78.9291 199.122 78.1454 197.357C77.3616 195.592 76.3806 193.828 76.3806 193.828L76.3753 193.822Z" fill="white" stroke="#263238" stroke-miterlimit="10"/>
<path d="M51.4776 196.291C51.3283 193.63 51.291 191.972 51.2857 191.317L48.652 191.503C48.652 191.503 47.4951 188.608 45.1759 188.032C42.8621 187.451 41.284 190.016 41.284 190.016C41.284 190.016 40.303 193.934 39.1247 194.915C37.9465 195.896 34.0279 198.247 33.8306 199.228C33.6334 200.209 34.4171 200.407 35.3981 200.796C36.3791 201.19 50.1021 200.796 50.1021 200.796C50.1021 200.796 51.6696 199.815 51.4723 196.285L51.4776 196.291Z" fill="white" stroke="#263238" stroke-miterlimit="10"/>
<path d="M54.8418 18.8668C54.8418 18.8668 54.2073 12.5651 56.7504 8.42789C59.2935 4.29071 65.6592 3.27241 69.9244 4.6106C74.1895 5.94878 77.6869 9.83005 78.2627 12.693C78.8331 15.556 78.0068 19.8211 77.6283 20.9674C77.2444 22.1136 76.418 22.6201 76.418 23.7024C76.418 24.7847 76.6099 28.1594 75.3357 30.1321C74.0615 32.1047 71.7744 35.858 70.6921 36.5618C69.6098 37.2655 67.8931 37.0682 67.1307 36.8177C66.3683 36.5618 65.9205 36.3112 65.9205 36.3112C65.9205 36.3112 61.5914 34.1466 60.1945 32.6218C58.7924 31.0971 58.03 29.1831 57.3316 27.4664C56.6331 25.7496 56.0574 23.7131 56.0574 23.7131L54.8471 18.8775L54.8418 18.8668Z" fill="white" stroke="#263238" stroke-miterlimit="10"/>
<path d="M78.2573 12.693C77.6868 9.83005 74.1841 5.94878 69.919 4.6106C65.6539 3.27241 59.2935 4.29071 56.7451 8.42789C54.202 12.5651 54.8364 18.8668 54.8364 18.8668L55.7054 22.3375L57.8913 21.09C57.8913 21.09 59.9279 20.1996 60.0559 18.9894C60.1838 17.7792 60.8822 17.5873 61.9005 16.6329C62.9188 15.6786 63.0468 10.2672 68.5808 9.50483C73.0112 8.89172 76.1354 10.3259 78.3479 13.2688C78.3213 13.0716 78.2893 12.8743 78.252 12.6877L78.2573 12.693Z" fill="#263238" stroke="#263238" stroke-miterlimit="10"/>
<path d="M58.5951 25.995C58.5951 25.995 57.5768 27.0133 56.4945 26.4428C55.4122 25.8724 53.9514 24.3423 53.6315 21.3513C53.3117 18.3604 54.9057 17.1502 56.6225 18.1685C58.3392 19.1868 58.6591 22.1137 58.6591 22.1137" fill="white"/>
<path d="M58.5951 25.995C58.5951 25.995 57.5768 27.0133 56.4945 26.4428C55.4122 25.8724 53.9514 24.3423 53.6315 21.3513C53.3117 18.3604 54.9057 17.1502 56.6225 18.1685C58.3392 19.1868 58.6591 22.1137 58.6591 22.1137" stroke="#263238" stroke-miterlimit="10"/>
<path d="M74.9516 20.3596L73.3629 20.9301C73.3629 20.9301 72.5365 24.1129 72.5365 24.8113C72.5365 25.5098 73.7467 27.2318 73.5548 27.8662C73.3629 28.5007 71.3903 29.0765 70.9478 28.8206" stroke="#263238" stroke-miterlimit="10"/>
<path d="M66.6133 29.7803C66.6133 29.7803 67.5676 31.6889 70.8784 31.561" stroke="#263238" stroke-miterlimit="10"/>
<path d="M65.3394 22.9081C65.3394 22.9081 67.5039 23.9264 69.6685 23.4785" stroke="#263238" stroke-miterlimit="10"/>
<path d="M70.4948 19.1494C70.4948 19.1494 67.6958 18.1311 65.4673 19.2134" stroke="#263238" stroke-miterlimit="10"/>
<path d="M68.3302 23.7344L68.0103 24.1822C68.0103 24.1822 67.6904 24.3741 66.6082 23.9263" stroke="#263238" stroke-miterlimit="10"/>
<path d="M73.0483 23.7504C73.0483 23.7504 74.5518 24.5554 76.0019 24.1022" stroke="#263238" stroke-miterlimit="10"/>
<path d="M75.1064 24.3635L74.9091 24.7581C74.9091 24.7581 74.7012 24.934 73.9495 24.5874" stroke="#263238" stroke-miterlimit="10"/>
<path d="M75.4583 20.5515C75.4583 20.5515 76.6045 20.3596 76.8604 21.186" stroke="#263238" stroke-miterlimit="10"/>
<path d="M26.468 162.628C26.468 162.628 21.0673 160.251 15.496 160.96C8.97032 161.791 4.80115 165.545 2.43933 171.239C0.0775167 176.933 0.16815 187.084 6.18732 193.46C8.94366 196.376 12.1692 198.551 15.1068 199.628C17.5486 200.524 20.1343 200.956 22.7307 200.956H62.1085C64.9821 200.956 67.6479 199.442 69.1087 196.968C71.2679 193.311 73.7577 187.515 72.846 181.235C71.3159 170.679 64.2358 167.763 63.5427 167.485C62.8496 167.208 26.4627 162.623 26.4627 162.623L26.468 162.628Z" fill="#9E9E9E" stroke="#263238" stroke-miterlimit="10"/>
<path d="M50.8005 60.0573C50.8005 60.0573 53.061 62.6537 53.7381 65.1381C54.4152 67.6226 55.0923 68.6409 55.5454 69.318C55.9986 69.9951 58.595 71.5785 58.595 73.0446C58.595 74.5108 56.7877 75.3051 56.7877 75.3051C56.7877 75.3051 57.0116 80.1621 57.1289 81.6335C57.2408 83.0997 57.4701 83.7821 56.6757 84.5711C55.8813 85.3602 54.1913 86.2665 54.1913 86.2665C54.1913 86.2665 48.7692 92.0298 48.0921 92.7069C47.415 93.384 32.0499 87.3968 32.0499 87.3968C32.0499 87.3968 32.5031 85.9307 32.8389 85.1363L33.1802 84.3472C33.1802 84.3472 28.2113 75.0866 27.081 70.3416C25.9508 65.5966 33.5214 58.5912 36.0058 57.0131C38.4902 55.4296 46.514 55.8828 48.6572 56.1067C50.8005 56.3306 51.8188 56.6719 51.8188 57.9141V59.1563L53.173 58.7031C53.173 58.7031 52.6078 60.5105 50.8005 60.0573Z" fill="white" stroke="#263238" stroke-linecap="round" stroke-linejoin="round"/>
<path d="M47.2977 60.0573C49.1051 60.1693 50.8005 60.0573 50.8005 60.0573C52.6078 60.5105 53.173 58.7031 53.173 58.7031L51.8188 59.1563V57.9141C51.8188 56.6719 50.8005 56.3306 48.6572 56.1067C46.5087 55.8828 38.4902 55.4296 36.0058 57.0131C33.5214 58.5965 25.9508 65.5966 27.081 70.3416C28.2113 75.0866 33.1802 84.3472 33.1802 84.3472C33.1802 84.3472 33.9692 84.3472 36.4536 83.5582C38.9381 82.7691 39.8444 79.4903 39.8444 79.4903C39.8444 79.4903 37.0188 78.472 36.3417 77.3417C35.6646 76.2115 36.4536 72.4848 37.8078 72.0317C39.162 71.5785 41.1986 73.1619 41.7637 73.2739C42.3289 73.3858 42.5528 72.9327 43.0059 72.2556C43.4591 71.5785 42.782 70.5602 42.782 69.9951C42.782 69.4299 45.4957 66.3804 46.0555 65.1381C46.6206 63.8959 42.2169 61.5234 42.4408 60.3932C42.6647 59.2629 45.4904 59.94 47.2977 60.052V60.0573Z" fill="#263238" stroke="#263238" stroke-linecap="round" stroke-linejoin="round"/>
<path d="M50.6832 86.2665C50.6832 86.2665 47.6336 86.4905 45.0372 84.9124C42.4408 83.3289 42.0996 81.8628 42.0996 81.8628" stroke="#263238" stroke-linecap="round" stroke-linejoin="round"/>
<path d="M50.9126 77.3418C50.9126 77.3418 51.9309 78.696 54.4153 78.584" stroke="#263238" stroke-linecap="round" stroke-linejoin="round"/>
<path d="M53.5944 69.0781C53.8129 69.7285 53.7596 70.331 53.4664 70.4323C53.1732 70.5336 52.7573 70.0857 52.5387 69.4406C52.3201 68.7955 52.3735 68.1877 52.6667 68.0864C52.9599 67.9852 53.3758 68.433 53.5944 69.0781Z" fill="#263238"/>
<path d="M50.8218 67.3773C50.8218 67.3773 51.6215 65.7779 53.2209 66.3377" stroke="#263238" stroke-linecap="round" stroke-linejoin="round"/>
<path d="M96.7415 189.547C96.7415 189.547 97.9357 193.38 101.108 195.641C104.285 197.901 108.812 198.514 109.617 199.207C110.422 199.895 109.041 200.7 109.041 200.7H90.5304L90.4131 189.893L96.7362 189.547H96.7415Z" fill="#263238" stroke="#263238" stroke-miterlimit="10"/>
<path d="M91.3354 145.163C91.3354 145.163 97.3119 143.67 98.2343 144.816C99.1566 145.968 101.225 176.666 102.03 182.067C102.835 187.473 102.606 189.083 102.606 189.083L91.2235 192.303C91.2235 192.303 88.5791 178.735 85.7054 173.446C82.8318 168.157 77.1965 154.935 80.9925 150.105C84.7884 145.275 91.3408 145.163 91.3408 145.163H91.3354Z" fill="#263238" stroke="#263238" stroke-miterlimit="10"/>
<path d="M54.2127 96.439C54.2127 96.439 63.3721 97.3987 65.4993 97.1854C67.6266 96.9722 71.0387 95.3727 76.6793 95.2661C82.3253 95.1595 105.218 94.6263 107.559 94.6263C109.899 94.6263 122.204 94.1412 122.204 94.1412C122.204 94.1412 128.485 93.7147 128.063 94.5677C127.637 95.4207 126.357 95.9538 124.87 96.2737C123.377 96.5936 121.676 97.34 121.676 97.34L118.909 98.0864C118.909 98.0864 121.037 98.6196 121.676 98.6196C122.316 98.6196 124.87 99.0461 124.337 99.5792C123.804 100.112 123.59 100.326 122.21 100.326C120.829 100.326 118.909 99.8991 118.163 99.8991C117.417 99.8991 116.457 100.326 114.543 100.539C112.624 100.752 108.204 100.598 108.204 100.598L100.431 101.664C100.431 101.664 85.844 105.71 79.4516 107.523C73.0646 109.336 70.1856 109.442 70.1856 109.442C70.1856 109.442 67.7385 109.762 61.4528 110.829C55.1724 111.895 46.5461 111.362 46.5461 111.362L54.2127 96.455V96.439Z" fill="#263238" stroke="#263238" stroke-linecap="round" stroke-linejoin="round"/>
<path d="M31.1597 85.8401C31.1597 85.8401 51.6057 92.6536 54.586 94.7862C57.5662 96.9134 60.8664 108.419 61.2929 112.998C61.7194 117.578 65.3394 132.698 65.6593 140.151C65.9792 147.604 65.0196 146.538 65.0196 146.538C65.0196 146.538 42.6543 150.798 38.1865 152.291C33.7135 153.784 26.3668 161.45 26.1535 161.13C25.9403 160.81 25.9403 154.637 26.7933 151.118C27.6463 147.599 28.3927 138.445 28.3927 138.445C28.3927 138.445 23.9197 120.66 23.7064 114.912C23.4932 109.16 26.0469 96.5935 27.2198 92.8669C28.3927 89.1402 30.4133 85.5202 31.1597 85.8401Z" fill="white" stroke="#263238" stroke-linecap="round" stroke-linejoin="round"/>
<path d="M50.8113 109.298L63.0149 127.036C63.0149 127.036 60.1199 113.83 60.1199 113.323C60.1199 112.817 59.992 107.912 59.992 107.912L50.8113 109.298Z" fill="#263238" stroke="#263238" stroke-linecap="round" stroke-linejoin="round"/>
<path d="M54.5914 94.7862C54.5914 94.7862 63.7507 95.7459 65.878 95.5326C68.0052 95.3193 71.4173 93.7199 77.058 93.6133C82.7039 93.5067 105.597 92.9735 107.937 92.9735C110.278 92.9735 122.21 94.1464 122.21 94.1464C122.21 94.1464 128.49 93.7199 128.069 94.5729C127.642 95.426 126.363 95.9591 124.875 96.279C123.383 96.5989 121.682 97.3453 121.682 97.3453L118.915 98.0917C118.915 98.0917 121.042 98.6248 121.682 98.6248C122.322 98.6248 124.875 99.0513 124.342 99.5845C123.809 100.118 123.596 100.331 122.215 100.331C120.834 100.331 118.915 99.9043 118.168 99.9043C117.422 99.9043 116.462 100.331 114.548 100.544C112.629 100.757 108.583 98.9447 108.583 98.9447L100.809 100.011C100.809 100.011 86.2226 104.058 79.8303 105.87C73.4432 107.683 70.5643 107.79 70.5643 107.79C70.5643 107.79 68.1172 108.109 61.8314 109.176C55.551 110.242 46.9248 109.709 46.9248 109.709L54.5914 94.8022V94.7862Z" fill="white" stroke="#263238" stroke-linecap="round" stroke-linejoin="round"/>
<path d="M125.403 95.5326C125.403 95.5326 122.743 95.8525 122.103 96.0657C121.463 96.279 119.443 96.9188 118.056 97.132C116.67 97.3453 115.076 97.5585 115.076 97.5585C115.076 97.5585 113.157 98.7314 111.136 98.4116C109.116 98.0917 108.583 97.4519 108.583 97.4519" stroke="#263238" stroke-miterlimit="10"/>
<path d="M33.3989 94.5729C33.3989 94.5729 40.8576 93.0375 44.4723 92.8669C48.087 92.7016 56.292 95.4206 56.292 95.4206L45.2187 112.886C45.2187 112.886 36.3792 112.46 35.9527 112.46" fill="white"/>
<path d="M33.3989 94.5729C33.3989 94.5729 40.8576 93.0375 44.4723 92.8669C48.087 92.7016 56.292 95.4206 56.292 95.4206L45.2187 112.886C45.2187 112.886 36.3792 112.46 35.9527 112.46" stroke="#263238" stroke-linecap="round" stroke-linejoin="round"/>
<path d="M44.2587 113.953C44.2587 113.953 41.705 125.772 34.6729 132.378" stroke="#263238" stroke-miterlimit="10"/>
<path d="M47.1377 111.825C47.1377 111.825 46.2847 119.172 42.8779 127.158" stroke="#263238" stroke-miterlimit="10"/>
<path d="M32.7163 151.379C32.7163 151.379 41.1879 148.463 47.7136 147.908" stroke="#263238" stroke-miterlimit="10"/>
<path d="M46.4661 146.522C46.4661 146.522 51.7442 146.106 55.3535 146.938" stroke="#263238" stroke-miterlimit="10"/>
<path d="M42.4515 128.225C42.4515 128.225 41.8117 129.931 41.2786 131.098" stroke="#263238" stroke-miterlimit="10"/>
<path d="M50.9709 112.252C50.9709 112.252 52.0372 118.324 52.2505 122.158" stroke="#263238" stroke-miterlimit="10"/>
<path d="M86.0144 191.237C86.0144 191.237 86.0144 200.295 86.4782 200.684C86.9421 201.073 88.9574 200.993 89.1866 200.993H106.604C106.604 200.993 107.996 200.759 108.076 199.831C108.156 198.903 104.594 197.896 104.28 197.896C103.965 197.896 94.1395 192.554 93.8303 192.09C93.521 191.626 92.748 189.536 92.748 189.536L86.0144 191.237Z" fill="white" stroke="#263238" stroke-miterlimit="10"/>
<path d="M64.1025 172.214C64.1025 172.214 75.3571 169.773 80.2994 165.977L78.0015 161.376L64.1025 172.214Z" fill="#263238" stroke="#263238" stroke-linecap="round" stroke-linejoin="round"/>
<path d="M26.1587 161.13C26.1587 161.13 26.3293 165.822 29.2455 168.322C32.1618 170.823 41.1879 172.348 45.0798 172.209C48.9664 172.07 64.1077 172.209 64.1077 172.209C64.1077 172.209 67.717 170.962 70.0788 169.709C72.4407 168.461 77.5801 164.846 77.5801 164.846C77.5801 164.846 78.6891 171.511 79.2489 173.872C79.8033 176.234 83.4127 186.929 83.4127 186.929L84.383 192.484L99.7961 189.152C99.7961 189.152 98.41 178.873 97.4343 171.655C96.464 164.431 93.5477 148.879 92.7107 146.24C91.879 143.601 92.0176 143.601 89.6558 143.601C87.294 143.601 78.961 144.294 70.628 145.408C62.295 146.517 52.4372 147.908 45.0745 149.716C37.7118 151.523 42.5741 150.132 36.6029 152.632C30.6317 155.133 26.1533 161.13 26.1533 161.13H26.1587Z" fill="#58B0CD" stroke="#263238" stroke-miterlimit="10"/>
<path d="M77.575 164.852C77.575 164.852 78.4067 161.242 79.6595 159.435C80.9071 157.628 83.2689 155.548 83.2689 155.548" stroke="#263238" stroke-miterlimit="10"/>
<path d="M82.4371 154.573C82.4371 154.573 78.8277 156.934 77.8521 159.435" stroke="#263238" stroke-miterlimit="10"/>
<path d="M93.5478 158.465C93.5478 158.465 90.7702 168.322 88.8242 172.076" stroke="#263238" stroke-miterlimit="10"/>
<path d="M93.4092 164.159C93.4092 164.159 91.3247 181.379 88.8242 186.241" stroke="#263238" stroke-miterlimit="10"/>
<path d="M36.3259 162.074C36.3259 162.074 40.7723 154.434 46.1837 150.963" stroke="#263238" stroke-miterlimit="10"/>
<path d="M42.0199 151.934C42.0199 151.934 39.3809 154.573 38.1333 156.796" stroke="#263238" stroke-miterlimit="10"/>
</svg>
