<svg width="266" height="220" viewBox="0 0 266 220" fill="none" xmlns="http://www.w3.org/2000/svg">
<path d="M38.8761 199.691C90.7141 226.77 174.753 226.77 226.591 199.691C278.429 172.612 278.423 128.705 226.591 101.626C174.76 74.5472 90.7141 74.5472 38.8761 101.626C-12.9618 128.705 -12.9556 172.63 38.8761 199.691Z" fill="#F5F5F5"/>
<path d="M238.847 152.703C231.058 156.415 218.431 156.415 210.63 152.703C202.829 148.991 202.835 142.965 210.63 139.253C218.425 135.541 231.046 135.541 238.847 139.253C246.649 142.965 246.642 148.985 238.847 152.703Z" fill="#E0E0E0"/>
<path d="M163.877 182.306L169.724 193.35C174.378 192.612 178.864 191.056 182.975 188.753L168.839 185.579C167.397 186.402 165.69 181.991 163.877 182.306Z" fill="#58B0CD"/>
<path opacity="0.2" d="M163.877 182.306L169.724 193.35C174.378 192.612 178.864 191.056 182.975 188.753L168.839 185.579C167.397 186.402 165.69 181.991 163.877 182.306Z" fill="black"/>
<path d="M151.893 175.779C154.721 174.146 158.594 173.509 162.256 173.843L165.38 155.902L162.256 150.334L146.134 152.45L128.811 177.815L129.349 178.588L148.441 179.974C148.751 178.44 149.864 176.961 151.893 175.779Z" fill="#58B0CD"/>
<path opacity="0.7" d="M151.893 175.779C154.721 174.146 158.594 173.509 162.256 173.843L165.38 155.902L162.256 150.334L146.134 152.45L128.811 177.815L129.349 178.588L148.441 179.974C148.751 178.44 149.864 176.961 151.893 175.779Z" fill="black"/>
<path d="M165.381 143.708V140.54L162.256 151.911L162.263 155.079L165.381 143.708Z" fill="#58B0CD"/>
<path opacity="0.7" d="M165.381 143.708V140.54L162.256 151.911L162.263 155.079L165.381 143.708Z" fill="black"/>
<path d="M151.894 153.848C154.721 152.221 158.594 151.577 162.256 151.911L165.38 140.54C147.946 138.95 131.577 145.811 128.817 155.877C128.737 156.161 128.65 156.551 128.601 156.836L148.448 158.042C148.751 156.508 149.864 155.023 151.894 153.848Z" fill="#58B0CD"/>
<path opacity="0.6" d="M151.894 153.848C154.721 152.221 158.594 151.577 162.256 151.911L165.38 140.54C147.946 138.95 131.577 145.811 128.817 155.877C128.737 156.161 128.65 156.551 128.601 156.836L148.448 158.042C148.751 156.508 149.864 155.023 151.894 153.848Z" fill="black"/>
<path d="M148.448 170.979V158.042L128.601 156.836V169.772L148.448 170.979Z" fill="#58B0CD"/>
<path opacity="0.8" d="M148.448 170.979V158.042L128.601 156.836V169.772L148.448 170.979Z" fill="black"/>
<path d="M168.858 157.015C171.258 158.407 172.421 160.232 172.353 162.051L192.33 162.256C192.614 152.945 181.311 145.168 165.381 143.696L162.256 155.067C164.57 155.243 166.819 155.907 168.858 157.015Z" fill="#58B0CD"/>
<path opacity="0.8" d="M168.858 157.015C171.258 158.407 172.421 160.232 172.353 162.051L192.33 162.256C192.614 152.945 181.311 145.168 165.381 143.696L162.256 155.067C164.57 155.243 166.819 155.907 168.858 157.015Z" fill="white"/>
<path d="M172.353 162.051V175.829L192.33 176.033V162.255L172.353 162.051Z" fill="#58B0CD"/>
<path opacity="0.6" d="M172.353 162.051V175.829L192.33 176.033V162.255L172.353 162.051Z" fill="white"/>
<path d="M172.359 162.051V175.724C172.359 173.954 171.196 172.179 168.857 170.824C167.001 169.747 164.675 174.097 162.262 173.874V155.079C167.719 155.543 172.458 158.296 172.359 162.051Z" fill="#58B0CD"/>
<path opacity="0.6" d="M172.359 162.051V175.724C172.359 173.954 171.196 172.179 168.857 170.824C167.001 169.747 164.675 174.097 162.262 173.874V155.079C167.719 155.543 172.458 158.296 172.359 162.051Z" fill="white"/>
<path d="M172.365 168.188H148.386V184.311H172.365V168.188Z" fill="#E0E0E0"/>
<path d="M151.894 173.169C147.21 170.465 147.21 166.079 151.894 163.375C156.577 160.672 164.174 160.672 168.857 163.375C173.541 166.079 173.534 170.465 168.857 173.169C164.18 175.872 156.577 175.872 151.894 173.169Z" fill="#FAFAFA"/>
<path d="M172.353 175.829C172.291 177.555 171.116 184.255 168.857 185.567L182.994 188.74C189.181 185.177 192.2 181.063 192.348 176.021L172.353 175.829Z" fill="#37474F"/>
<path d="M192.33 165.275V176.033L182.975 188.753V178L192.33 165.275Z" fill="#37474F"/>
<path d="M172.353 165.07C172.291 166.796 171.116 168.51 168.857 169.828L182.994 177.988C189.181 174.425 192.2 170.31 192.348 165.268L172.353 165.07Z" fill="#455A64"/>
<path d="M182.975 178V188.753L168.839 180.593L168.857 169.828L182.975 178Z" fill="#263238"/>
<path d="M182.975 181.397L169.724 185.993V193.349L182.975 188.753V181.397Z" fill="#58B0CD"/>
<path opacity="0.2" d="M182.975 181.397L169.724 185.993V193.349L182.975 188.753V181.397Z" fill="black"/>
<path d="M163.877 174.95L169.724 185.994C174.378 185.256 178.864 183.7 182.975 181.397L168.839 173.249C167.295 174.096 165.616 174.671 163.877 174.95Z" fill="#58B0CD"/>
<path d="M163.871 174.95V178.303L169.724 193.349V185.993L163.871 174.95Z" fill="#58B0CD"/>
<path opacity="0.4" d="M163.871 174.95V178.303L169.724 193.349V185.993L163.871 174.95Z" fill="black"/>
<path d="M154.721 184.385C152.073 182.851 148.095 181.991 148.448 179.992L128.421 170.385C128.421 170.385 128.421 175.148 128.421 175.81C128.465 185.09 140.652 193.09 157.041 194.079C161.281 194.371 165.542 194.134 169.723 193.374V187.986C165.622 188.678 157.963 186.241 154.721 184.385Z" fill="#58B0CD"/>
<path opacity="0.5" d="M154.721 184.385C152.073 182.851 148.095 181.991 148.448 179.992L128.421 170.385C128.421 170.385 128.421 175.148 128.421 175.81C128.465 185.09 140.652 193.09 157.041 194.079C161.281 194.371 165.542 194.134 169.723 193.374V187.986C165.622 188.678 157.963 186.241 154.721 184.385Z" fill="black"/>
<path d="M151.894 175.192C149.246 173.664 148.095 171.591 148.448 169.593L128.601 168.386C126.745 178.52 139.489 187.602 157.06 188.666C161.3 188.955 165.56 188.718 169.742 187.961L163.896 176.918C159.775 177.635 155.135 177.066 151.894 175.192Z" fill="#58B0CD"/>
<path opacity="0.3" d="M151.894 175.192C149.246 173.664 148.095 171.591 148.448 169.593L128.601 168.386C126.745 178.52 139.489 187.602 157.06 188.666C161.3 188.955 165.56 188.718 169.742 187.961L163.896 176.918C159.775 177.635 155.135 177.066 151.894 175.192Z" fill="black"/>
<path d="M79.4724 144.592C79.9892 140.826 79.7622 136.999 78.8037 133.318C77.7759 129.303 75.708 126.508 73.2623 125.038C70.8167 123.568 66.3649 125.111 69.9189 129.807C73.4728 134.502 77.0825 140.479 77.4663 144.993L79.4724 144.592Z" fill="#37474F"/>
<path d="M78.7855 145.029C78.7449 145.028 78.7048 145.02 78.6675 145.004C78.6303 144.988 78.5966 144.965 78.5684 144.936C78.5402 144.907 78.5181 144.873 78.5033 144.836C78.4885 144.799 78.4813 144.759 78.4821 144.719C78.6555 136.416 74.6867 128.063 71.0523 126.144C70.9792 126.106 70.9245 126.041 70.9001 125.964C70.8757 125.886 70.8837 125.803 70.9223 125.731C70.9609 125.659 71.0269 125.605 71.1059 125.581C71.1848 125.558 71.2702 125.565 71.3433 125.603C75.1635 127.608 79.3056 136.215 79.1261 144.731C79.1264 144.774 79.1175 144.816 79.1 144.854C79.0825 144.893 79.0567 144.928 79.0245 144.956C78.9923 144.984 78.9543 145.005 78.9131 145.018C78.8718 145.03 78.8284 145.034 78.7855 145.029Z" fill="white"/>
<path d="M79.776 159.279C75.8754 161.503 71.4422 159.462 70.6745 155.191C70.4082 153.703 70.142 152.154 68.7365 151.31C67.5601 150.593 65.9751 150.502 64.9659 149.542C63.5295 148.169 64.3467 146.402 65.2507 145.011C66.0928 143.747 66.7738 142.271 65.9813 140.826C65.4952 140.067 65.1102 139.25 64.8359 138.396C64.7024 137.969 64.6842 137.516 64.7829 137.081C64.8817 136.645 65.0941 136.242 65.3993 135.911C66.1423 135.219 67.3125 135.249 68.3093 135.486C69.9256 135.91 71.4128 136.713 72.6434 137.825C73.5164 138.56 74.0117 139.307 75.2686 139.532C76.1973 139.696 77.1632 139.532 78.0795 139.744C78.6572 139.898 79.1947 140.171 79.656 140.545C80.1173 140.919 80.4918 141.385 80.7543 141.913C81.6644 143.656 81.3734 145.685 81.231 147.562C81.0886 149.439 80.9091 151.134 80.6862 152.913C80.5004 154.42 80.2899 155.951 80.067 157.427C80.0299 157.658 79.9865 159.17 79.776 159.279Z" fill="#455A64"/>
<path d="M80.1471 157.178C80.0731 157.177 80.0017 157.15 79.9461 157.102C79.8904 157.054 79.8541 156.989 79.8437 156.917C78.4878 147.38 70.3026 138.505 67.2564 136.981C67.2202 136.962 67.188 136.937 67.1618 136.907C67.1355 136.876 67.1156 136.841 67.1033 136.803C67.0909 136.765 67.0863 136.724 67.0897 136.685C67.0932 136.645 67.1045 136.606 67.1232 136.571C67.1419 136.535 67.1676 136.504 67.1987 136.478C67.2298 136.452 67.2658 136.432 67.3046 136.42C67.3435 136.408 67.3843 136.404 67.4249 136.407C67.4655 136.41 67.505 136.422 67.5412 136.44C70.767 138.056 79.0512 146.943 80.4567 156.838C80.4672 156.917 80.4452 156.998 80.3952 157.062C80.3453 157.125 80.2717 157.167 80.1905 157.178H80.1471Z" fill="white"/>
<path d="M68.0493 146.851C67.9672 146.867 67.8819 146.851 67.8122 146.805C67.7426 146.76 67.6942 146.689 67.6778 146.608C67.6613 146.528 67.6782 146.444 67.7247 146.376C67.7711 146.307 67.8433 146.26 67.9254 146.244C70.3809 145.31 73.0248 144.953 75.6463 145.199C75.6867 145.202 75.7262 145.213 75.7622 145.231C75.7983 145.25 75.8303 145.275 75.8562 145.305C75.8822 145.336 75.9017 145.371 75.9135 145.409C75.9253 145.448 75.9291 145.488 75.9249 145.527C75.921 145.567 75.9091 145.606 75.8899 145.641C75.8706 145.677 75.8444 145.708 75.8127 145.733C75.7811 145.759 75.7446 145.778 75.7054 145.789C75.6662 145.801 75.625 145.805 75.5843 145.8C73.0589 145.587 70.5171 145.944 68.1545 146.845C68.1198 146.851 68.0845 146.853 68.0493 146.851Z" fill="white"/>
<path d="M80.6426 161.527C80.0922 161.163 79.6371 160.677 79.3144 160.108C78.9916 159.539 78.8103 158.903 78.7852 158.253V66.4575C78.8206 65.7867 79.0174 65.1336 79.3597 64.5519C79.7019 63.9701 80.1797 63.4762 80.7541 63.1105L191.329 0.484133C191.914 0.180115 192.564 0.0146389 193.226 0.000927762C193.888 -0.0127834 194.545 0.125648 195.143 0.405163C195.693 0.764317 196.149 1.24692 196.472 1.81306C196.795 2.37921 196.976 3.01264 197 3.66101V95.4867C196.965 96.1575 196.768 96.8105 196.425 97.3923C196.083 97.9741 195.605 98.468 195.031 98.8337L84.4566 161.46C83.8707 161.764 83.2202 161.928 82.5577 161.939C81.8952 161.951 81.2392 161.81 80.6426 161.527Z" fill="#58B0CD"/>
<path d="M89.8805 70.4848L79.3549 64.532C78.9991 65.1087 78.8008 65.7656 78.7791 66.4393V158.253C78.7602 158.91 78.9227 159.559 79.2493 160.133C79.5758 160.706 80.0544 161.183 80.6342 161.511C81.2141 161.84 81.8737 162.009 82.5433 162C83.213 161.991 83.8676 161.804 84.4381 161.46L89.8619 158.387L89.8805 70.4848Z" fill="#58B0CD"/>
<path opacity="0.2" d="M89.8805 70.4848L79.3549 64.532C78.9991 65.1087 78.8008 65.7656 78.7791 66.4393V158.253C78.7602 158.91 78.9227 159.559 79.2493 160.133C79.5758 160.706 80.0544 161.183 80.6342 161.511C81.2141 161.84 81.8737 162.009 82.5433 162C83.213 161.991 83.8676 161.804 84.4381 161.46L89.8619 158.387L89.8805 70.4848Z" fill="black"/>
<path d="M84.4566 65.2063L195.019 2.54952C196.108 1.94208 196.988 2.4341 196.988 3.66111V95.4868C196.952 96.1576 196.755 96.8107 196.413 97.3924C196.071 97.9742 195.593 98.4681 195.019 98.8338L84.4566 161.46C83.3731 162.068 82.4939 161.576 82.4939 160.342V68.5532C82.5286 67.883 82.7245 67.2303 83.0657 66.6486C83.4068 66.0668 83.8834 65.5726 84.4566 65.2063Z" fill="#58B0CD"/>
<g opacity="0.5">
<path d="M84.4566 65.2063L195.019 2.54952C196.108 1.94208 196.988 2.4341 196.988 3.66111V95.4868C196.952 96.1576 196.755 96.8107 196.413 97.3924C196.071 97.9742 195.593 98.4681 195.019 98.8338L84.4566 161.46C83.3731 162.068 82.4939 161.576 82.4939 160.342V68.5532C82.5286 67.883 82.7245 67.2303 83.0657 66.6486C83.4068 66.0668 83.8834 65.5726 84.4566 65.2063Z" fill="white"/>
</g>
<path opacity="0.4" d="M93.5708 139.556C93.6836 132.935 94.1568 126.325 94.9887 119.754C95.8493 112.616 97.6139 100.571 104.635 96.5984C111.656 92.6258 114.288 99.8056 115.297 103.347C116.616 107.933 123.476 105.03 124.436 97.4609C125.395 89.8923 126.008 65.8076 134.231 61.1486C142.453 56.4896 145.115 67.7028 146.05 70.8311C147.908 76.9783 153.294 75.2835 155.059 71.2077C156.823 67.1318 161.622 66.1417 163.436 71.8698C165.25 77.5979 166.377 84.1764 172.259 80.799C177.416 77.8348 175.045 72.4347 180.079 69.8652C181.546 69.1242 184.469 69.5372 185.125 73.765C185.725 78.2349 185.987 82.7421 185.911 87.25L93.5708 139.556Z" fill="white"/>
<path d="M93.5709 140.006C93.4504 140.004 93.3355 139.956 93.2509 139.872C93.1663 139.788 93.1189 139.674 93.1189 139.556C93.2322 132.913 93.7055 126.281 94.5368 119.687C95.2302 113.934 96.8586 100.468 104.406 96.1913C106.641 94.9279 108.66 94.6424 110.412 95.3409C112.746 96.2703 114.486 98.8458 115.737 103.238C116.108 104.525 116.975 105.194 118.17 105.102C120.572 104.92 123.402 101.998 123.984 97.4184C124.138 96.2035 124.287 94.5391 124.454 92.6135C125.371 82.2082 126.931 64.7931 134.008 60.7719C136.181 59.557 138.175 59.2776 139.945 59.9822C143.84 61.5312 145.518 67.3322 146.316 70.1203C146.378 70.345 146.434 70.5455 146.49 70.7277C147.177 73.0299 148.446 74.3723 150.062 74.4391C151.839 74.5546 153.746 73.121 154.638 71.0557C155.629 68.7657 157.56 67.3504 159.492 67.4476C161.424 67.5448 163.034 69.112 163.869 71.7664C164.068 72.3739 164.26 73.0238 164.445 73.6556C165.479 77.0997 166.445 80.3373 168.439 81.127C169.399 81.4975 170.575 81.2728 172.03 80.4406C174.457 79.0435 175.126 77.1179 175.782 75.0769C176.438 73.036 177.187 70.8674 179.868 69.5007C180.36 69.264 180.901 69.144 181.449 69.1503C181.996 69.1566 182.534 69.2891 183.02 69.5372C183.961 70.0049 185.168 71.1165 185.571 73.7284C186.173 78.2246 186.438 82.7582 186.363 87.2924C186.364 87.3514 186.353 87.41 186.329 87.4644C186.306 87.5188 186.272 87.5678 186.228 87.6084C186.184 87.649 186.132 87.6802 186.076 87.7C186.019 87.7199 185.959 87.7279 185.899 87.7237C185.779 87.7205 185.664 87.6709 185.581 87.5857C185.497 87.5004 185.451 87.3863 185.453 87.2681C185.532 82.7867 185.271 78.3056 184.673 73.8621C184.326 71.6207 183.36 70.7034 182.611 70.3329C182.254 70.1494 181.858 70.0505 181.455 70.0441C181.052 70.0378 180.652 70.1242 180.289 70.2965C177.937 71.5113 177.311 73.3701 176.649 75.3564C175.943 77.4642 175.212 79.6449 172.488 81.212C170.773 82.19 169.343 82.4269 168.104 81.9531C165.702 81.0177 164.668 77.5614 163.572 73.9046C163.387 73.2972 163.201 72.6472 163.003 72.0276C162.284 69.7558 160.984 68.4134 159.449 68.3344C157.913 68.2555 156.303 69.4946 155.474 71.4081C154.421 73.8378 152.18 75.4536 150.007 75.3321C148.83 75.2653 146.7 74.6092 145.617 70.9829C145.561 70.8067 145.505 70.6002 145.437 70.3754C144.676 67.727 143.085 62.2054 139.599 60.8205C138.107 60.2131 136.379 60.4743 134.46 61.5555C127.773 65.3459 126.206 83.1437 125.364 92.7047C125.191 94.6363 125.042 96.3067 124.888 97.5641C124.268 102.6 121.006 105.819 118.238 106.026C116.61 106.147 115.346 105.206 114.864 103.511C113.693 99.435 112.127 97.0539 110.065 96.2217C108.592 95.6143 106.839 95.8998 104.858 97.0174C97.7068 101.069 96.1156 114.226 95.4407 119.845C94.614 126.398 94.1427 132.99 94.0291 139.592C94.0197 139.705 93.9673 139.81 93.8824 139.887C93.7975 139.964 93.6862 140.006 93.5709 140.006Z" fill="#F5F5F5"/>
<path d="M106.66 96.5133C106.582 96.5133 106.508 96.4832 106.454 96.4297C106.399 96.3761 106.369 96.3035 106.369 96.2278V95.6689C106.362 95.6284 106.365 95.587 106.377 95.5476C106.389 95.5083 106.409 95.4718 106.436 95.4408C106.464 95.4098 106.497 95.3849 106.535 95.3678C106.573 95.3507 106.615 95.3419 106.656 95.3419C106.698 95.3419 106.74 95.3507 106.778 95.3678C106.816 95.3849 106.849 95.4098 106.877 95.4408C106.904 95.4718 106.924 95.5083 106.936 95.5476C106.948 95.587 106.95 95.6284 106.944 95.6689V96.2278C106.944 96.3025 106.915 96.3742 106.861 96.4275C106.808 96.4809 106.736 96.5117 106.66 96.5133Z" fill="#F5F5F5"/>
<path d="M106.66 130.22C106.621 130.22 106.584 130.212 106.548 130.198C106.513 130.184 106.481 130.163 106.454 130.136C106.427 130.11 106.405 130.078 106.391 130.043C106.376 130.009 106.369 129.972 106.369 129.934V128.798C106.379 128.731 106.413 128.669 106.466 128.624C106.519 128.579 106.587 128.554 106.656 128.554C106.726 128.554 106.794 128.579 106.847 128.624C106.9 128.669 106.934 128.731 106.944 128.798V129.922C106.946 129.96 106.94 129.998 106.926 130.034C106.913 130.069 106.892 130.102 106.866 130.13C106.839 130.157 106.807 130.18 106.772 130.195C106.737 130.211 106.698 130.219 106.66 130.22ZM106.66 127.972C106.582 127.972 106.508 127.942 106.454 127.889C106.399 127.835 106.369 127.762 106.369 127.687V126.563C106.379 126.495 106.413 126.433 106.466 126.388C106.519 126.344 106.587 126.319 106.656 126.319C106.726 126.319 106.794 126.344 106.847 126.388C106.9 126.433 106.934 126.495 106.944 126.563V127.687C106.944 127.761 106.915 127.833 106.861 127.886C106.808 127.94 106.736 127.971 106.66 127.972ZM106.66 125.725C106.621 125.725 106.584 125.717 106.548 125.703C106.513 125.689 106.481 125.668 106.454 125.641C106.427 125.615 106.405 125.583 106.391 125.548C106.376 125.514 106.369 125.477 106.369 125.439V124.322C106.362 124.281 106.365 124.24 106.377 124.2C106.389 124.161 106.409 124.124 106.436 124.093C106.464 124.062 106.497 124.037 106.535 124.02C106.573 124.003 106.615 123.995 106.656 123.995C106.698 123.995 106.74 124.003 106.778 124.02C106.816 124.037 106.849 124.062 106.877 124.093C106.904 124.124 106.924 124.161 106.936 124.2C106.948 124.24 106.95 124.281 106.944 124.322V125.439C106.944 125.514 106.915 125.586 106.861 125.639C106.808 125.692 106.736 125.723 106.66 125.725ZM106.66 123.477C106.583 123.477 106.51 123.448 106.456 123.396C106.402 123.344 106.37 123.272 106.369 123.198V122.074C106.362 122.033 106.365 121.992 106.377 121.953C106.389 121.913 106.409 121.877 106.436 121.846C106.464 121.815 106.497 121.79 106.535 121.773C106.573 121.756 106.615 121.747 106.656 121.747C106.698 121.747 106.74 121.756 106.778 121.773C106.816 121.79 106.849 121.815 106.877 121.846C106.904 121.877 106.924 121.913 106.936 121.953C106.948 121.992 106.95 122.033 106.944 122.074V123.198C106.943 123.271 106.912 123.342 106.859 123.394C106.806 123.446 106.735 123.476 106.66 123.477ZM106.66 121.23C106.583 121.23 106.51 121.2 106.456 121.148C106.402 121.096 106.37 121.025 106.369 120.95V119.827C106.362 119.786 106.365 119.745 106.377 119.705C106.389 119.666 106.409 119.629 106.436 119.598C106.464 119.567 106.497 119.542 106.535 119.525C106.573 119.508 106.615 119.5 106.656 119.5C106.698 119.5 106.74 119.508 106.778 119.525C106.816 119.542 106.849 119.567 106.877 119.598C106.904 119.629 106.924 119.666 106.936 119.705C106.948 119.745 106.95 119.786 106.944 119.827V120.95C106.943 121.024 106.912 121.094 106.859 121.146C106.806 121.198 106.735 121.228 106.66 121.23ZM106.66 118.982C106.583 118.982 106.51 118.953 106.456 118.901C106.402 118.849 106.37 118.777 106.369 118.703V117.579C106.362 117.538 106.365 117.497 106.377 117.458C106.389 117.418 106.409 117.382 106.436 117.351C106.464 117.32 106.497 117.295 106.535 117.278C106.573 117.261 106.615 117.252 106.656 117.252C106.698 117.252 106.74 117.261 106.778 117.278C106.816 117.295 106.849 117.32 106.877 117.351C106.904 117.382 106.924 117.418 106.936 117.458C106.948 117.497 106.95 117.538 106.944 117.579V118.703C106.943 118.776 106.912 118.847 106.859 118.899C106.806 118.951 106.735 118.981 106.66 118.982ZM106.66 116.735C106.583 116.735 106.51 116.705 106.456 116.653C106.402 116.601 106.37 116.53 106.369 116.455V115.332C106.362 115.291 106.365 115.25 106.377 115.21C106.389 115.171 106.409 115.134 106.436 115.103C106.464 115.072 106.497 115.047 106.535 115.03C106.573 115.013 106.615 115.005 106.656 115.005C106.698 115.005 106.74 115.013 106.778 115.03C106.816 115.047 106.849 115.072 106.877 115.103C106.904 115.134 106.924 115.171 106.936 115.21C106.948 115.25 106.95 115.291 106.944 115.332V116.455C106.943 116.529 106.912 116.599 106.859 116.651C106.806 116.703 106.735 116.733 106.66 116.735ZM106.66 114.487C106.622 114.488 106.584 114.481 106.549 114.468C106.513 114.454 106.481 114.434 106.454 114.408C106.427 114.382 106.406 114.35 106.391 114.316C106.376 114.282 106.369 114.245 106.369 114.208V113.084C106.362 113.043 106.365 113.002 106.377 112.963C106.389 112.923 106.409 112.887 106.436 112.856C106.464 112.825 106.497 112.8 106.535 112.783C106.573 112.766 106.615 112.757 106.656 112.757C106.698 112.757 106.74 112.766 106.778 112.783C106.816 112.8 106.849 112.825 106.877 112.856C106.904 112.887 106.924 112.923 106.936 112.963C106.948 113.002 106.95 113.043 106.944 113.084V114.22C106.941 114.292 106.91 114.36 106.857 114.41C106.804 114.46 106.733 114.487 106.66 114.487ZM106.66 112.24C106.622 112.241 106.584 112.234 106.549 112.22C106.513 112.207 106.481 112.186 106.454 112.16C106.427 112.134 106.406 112.103 106.391 112.069C106.376 112.034 106.369 111.997 106.369 111.96V110.837C106.362 110.796 106.365 110.755 106.377 110.715C106.389 110.676 106.409 110.639 106.436 110.608C106.464 110.577 106.497 110.552 106.535 110.535C106.573 110.518 106.615 110.51 106.656 110.51C106.698 110.51 106.74 110.518 106.778 110.535C106.816 110.552 106.849 110.577 106.877 110.608C106.904 110.639 106.924 110.676 106.936 110.715C106.948 110.755 106.95 110.796 106.944 110.837V111.96C106.944 111.997 106.937 112.033 106.923 112.067C106.908 112.101 106.887 112.132 106.861 112.158C106.835 112.184 106.803 112.204 106.769 112.218C106.734 112.232 106.697 112.24 106.66 112.24ZM106.66 109.992C106.622 109.993 106.584 109.986 106.549 109.973C106.513 109.959 106.481 109.939 106.454 109.913C106.427 109.887 106.406 109.855 106.391 109.821C106.376 109.787 106.369 109.75 106.369 109.713V108.589C106.379 108.521 106.413 108.459 106.466 108.415C106.519 108.37 106.587 108.345 106.656 108.345C106.726 108.345 106.794 108.37 106.847 108.415C106.9 108.459 106.934 108.521 106.944 108.589V109.713C106.938 109.783 106.905 109.848 106.853 109.895C106.8 109.942 106.731 109.968 106.66 109.968V109.992ZM106.66 107.751C106.582 107.751 106.508 107.721 106.454 107.667C106.399 107.614 106.369 107.541 106.369 107.465V106.323C106.379 106.256 106.413 106.194 106.466 106.149C106.519 106.104 106.587 106.079 106.656 106.079C106.726 106.079 106.794 106.104 106.847 106.149C106.9 106.194 106.934 106.256 106.944 106.323V107.447C106.947 107.486 106.941 107.524 106.928 107.56C106.915 107.597 106.895 107.63 106.868 107.659C106.842 107.687 106.809 107.71 106.773 107.726C106.738 107.741 106.699 107.75 106.66 107.751ZM106.66 105.503C106.582 105.503 106.508 105.473 106.454 105.42C106.399 105.366 106.369 105.293 106.369 105.218V104.094C106.379 104.026 106.413 103.964 106.466 103.919C106.519 103.875 106.587 103.85 106.656 103.85C106.726 103.85 106.794 103.875 106.847 103.919C106.9 103.964 106.934 104.026 106.944 104.094V105.218C106.944 105.292 106.915 105.364 106.861 105.418C106.808 105.471 106.736 105.502 106.66 105.503ZM106.66 103.256C106.582 103.256 106.508 103.226 106.454 103.172C106.399 103.119 106.369 103.046 106.369 102.97V101.847C106.379 101.779 106.413 101.717 106.466 101.672C106.519 101.627 106.587 101.603 106.656 101.603C106.726 101.603 106.794 101.627 106.847 101.672C106.9 101.717 106.934 101.779 106.944 101.847V102.97C106.949 103.01 106.945 103.05 106.932 103.087C106.92 103.125 106.9 103.16 106.873 103.19C106.846 103.22 106.813 103.243 106.777 103.26C106.74 103.277 106.7 103.286 106.66 103.286V103.256ZM106.66 101.008C106.582 101.008 106.508 100.978 106.454 100.925C106.399 100.871 106.369 100.798 106.369 100.723V99.599C106.379 99.5312 106.413 99.4693 106.466 99.4245C106.519 99.3797 106.587 99.3551 106.656 99.3551C106.726 99.3551 106.794 99.3797 106.847 99.4245C106.9 99.4693 106.934 99.5312 106.944 99.599V100.723C106.944 100.797 106.915 100.869 106.861 100.923C106.808 100.976 106.736 101.007 106.66 101.008ZM106.66 98.7608C106.582 98.7608 106.508 98.7307 106.454 98.6771C106.399 98.6236 106.369 98.551 106.369 98.4753V97.3515C106.379 97.2837 106.413 97.2218 106.466 97.177C106.519 97.1322 106.587 97.1075 106.656 97.1075C106.726 97.1075 106.794 97.1322 106.847 97.177C106.9 97.2218 106.934 97.2837 106.944 97.3515V98.4753C106.944 98.5499 106.915 98.6217 106.861 98.675C106.808 98.7284 106.736 98.7592 106.66 98.7608Z" fill="#F5F5F5"/>
<path d="M106.66 131.908C106.622 131.908 106.584 131.901 106.549 131.887C106.513 131.872 106.481 131.851 106.454 131.825C106.427 131.798 106.406 131.767 106.391 131.732C106.376 131.697 106.369 131.66 106.369 131.623V131.058C106.379 130.99 106.414 130.928 106.467 130.883C106.519 130.839 106.587 130.814 106.657 130.814C106.727 130.814 106.794 130.839 106.847 130.883C106.9 130.928 106.935 130.99 106.945 131.058V131.623C106.945 131.698 106.915 131.769 106.862 131.823C106.808 131.876 106.736 131.907 106.66 131.908Z" fill="#F5F5F5"/>
<path d="M136.367 61.2335C136.291 61.2319 136.22 61.202 136.167 61.1499C136.114 61.0979 136.083 61.0277 136.082 60.9541V60.3892C136.076 60.3486 136.079 60.3072 136.09 60.2679C136.102 60.2285 136.122 60.192 136.149 60.161C136.177 60.13 136.211 60.1051 136.249 60.088C136.287 60.071 136.328 60.0621 136.37 60.0621C136.411 60.0621 136.453 60.071 136.491 60.088C136.529 60.1051 136.563 60.13 136.59 60.161C136.617 60.192 136.637 60.2285 136.649 60.2679C136.661 60.3072 136.664 60.3486 136.658 60.3892V60.9541C136.656 61.0287 136.625 61.0998 136.57 61.152C136.516 61.2043 136.443 61.2335 136.367 61.2335Z" fill="#F5F5F5"/>
<path d="M136.367 113.922C136.29 113.921 136.218 113.89 136.165 113.837C136.112 113.783 136.082 113.712 136.082 113.637V112.495C136.076 112.454 136.079 112.413 136.09 112.374C136.102 112.334 136.122 112.298 136.149 112.267C136.177 112.236 136.211 112.211 136.249 112.194C136.287 112.177 136.328 112.168 136.37 112.168C136.411 112.168 136.453 112.177 136.491 112.194C136.529 112.211 136.563 112.236 136.59 112.267C136.617 112.298 136.637 112.334 136.649 112.374C136.661 112.413 136.664 112.454 136.658 112.495V113.613C136.661 113.652 136.656 113.692 136.643 113.729C136.63 113.767 136.609 113.801 136.582 113.83C136.554 113.859 136.521 113.883 136.484 113.899C136.447 113.914 136.407 113.922 136.367 113.922ZM136.367 111.632C136.29 111.631 136.218 111.6 136.165 111.547C136.112 111.493 136.082 111.422 136.082 111.347V110.199C136.092 110.131 136.127 110.069 136.179 110.024C136.232 109.979 136.3 109.955 136.37 109.955C136.439 109.955 136.507 109.979 136.56 110.024C136.613 110.069 136.647 110.131 136.658 110.199V111.347C136.658 111.384 136.65 111.421 136.635 111.456C136.621 111.491 136.599 111.522 136.572 111.549C136.545 111.575 136.513 111.596 136.478 111.611C136.443 111.625 136.405 111.632 136.367 111.632ZM136.367 109.336C136.291 109.336 136.219 109.307 136.165 109.254C136.112 109.202 136.082 109.131 136.082 109.057V107.909C136.092 107.841 136.127 107.779 136.179 107.734C136.232 107.689 136.3 107.665 136.37 107.665C136.439 107.665 136.507 107.689 136.56 107.734C136.613 107.779 136.647 107.841 136.658 107.909V109.057C136.661 109.096 136.656 109.135 136.643 109.173C136.63 109.21 136.609 109.244 136.581 109.273C136.554 109.301 136.521 109.324 136.483 109.339C136.446 109.354 136.407 109.362 136.367 109.361V109.336ZM136.367 107.046C136.291 107.045 136.22 107.015 136.167 106.963C136.114 106.911 136.083 106.84 136.082 106.767V105.619C136.092 105.551 136.127 105.489 136.179 105.444C136.232 105.399 136.3 105.375 136.37 105.375C136.439 105.375 136.507 105.399 136.56 105.444C136.613 105.489 136.647 105.551 136.658 105.619V106.767C136.656 106.841 136.625 106.913 136.57 106.965C136.516 107.017 136.443 107.046 136.367 107.046ZM136.367 104.756C136.291 104.755 136.22 104.725 136.167 104.673C136.114 104.621 136.083 104.55 136.082 104.477V103.329C136.092 103.261 136.127 103.199 136.179 103.154C136.232 103.109 136.3 103.085 136.37 103.085C136.439 103.085 136.507 103.109 136.56 103.154C136.613 103.199 136.647 103.261 136.658 103.329V104.501C136.65 104.571 136.616 104.636 136.562 104.684C136.508 104.731 136.439 104.757 136.367 104.756ZM136.367 102.466C136.291 102.465 136.22 102.435 136.167 102.383C136.114 102.331 136.083 102.26 136.082 102.187V101.039C136.092 100.971 136.127 100.909 136.179 100.864C136.232 100.819 136.3 100.795 136.37 100.795C136.439 100.795 136.507 100.819 136.56 100.864C136.613 100.909 136.647 100.971 136.658 101.039V102.187C136.656 102.261 136.625 102.332 136.57 102.385C136.516 102.437 136.443 102.466 136.367 102.466ZM136.367 100.176C136.29 100.175 136.218 100.144 136.165 100.09C136.112 100.037 136.082 99.9653 136.082 99.8906V98.7487C136.076 98.7081 136.079 98.6667 136.09 98.6274C136.102 98.588 136.122 98.5515 136.149 98.5205C136.177 98.4895 136.211 98.4646 136.249 98.4475C136.287 98.4305 136.328 98.4216 136.37 98.4216C136.411 98.4216 136.453 98.4305 136.491 98.4475C136.529 98.4646 136.563 98.4895 136.59 98.5205C136.617 98.5515 136.637 98.588 136.649 98.6274C136.661 98.6667 136.664 98.7081 136.658 98.7487V99.8906C136.658 99.9281 136.65 99.9653 136.635 99.9999C136.621 100.035 136.599 100.066 136.572 100.093C136.545 100.119 136.513 100.14 136.478 100.154C136.443 100.169 136.405 100.176 136.367 100.176ZM136.367 97.8861C136.29 97.8845 136.218 97.8537 136.165 97.8004C136.112 97.747 136.082 97.6753 136.082 97.6006V96.4586C136.076 96.4181 136.079 96.3767 136.09 96.3373C136.102 96.298 136.122 96.2615 136.149 96.2305C136.177 96.1995 136.211 96.1746 136.249 96.1575C136.287 96.1404 136.328 96.1316 136.37 96.1316C136.411 96.1316 136.453 96.1404 136.491 96.1575C136.529 96.1746 136.563 96.1995 136.59 96.2305C136.617 96.2615 136.637 96.298 136.649 96.3373C136.661 96.3767 136.664 96.4181 136.658 96.4586V97.6006C136.658 97.6381 136.65 97.6752 136.635 97.7099C136.621 97.7445 136.599 97.776 136.572 97.8025C136.545 97.829 136.513 97.85 136.478 97.8644C136.443 97.8787 136.405 97.8861 136.367 97.8861ZM136.367 95.5961C136.29 95.5945 136.218 95.5637 136.165 95.5103C136.112 95.457 136.082 95.3853 136.082 95.3106V94.1747C136.076 94.1341 136.079 94.0928 136.09 94.0534C136.102 94.014 136.122 93.9776 136.149 93.9465C136.177 93.9155 136.211 93.8906 136.249 93.8736C136.287 93.8565 136.328 93.8477 136.37 93.8477C136.411 93.8477 136.453 93.8565 136.491 93.8736C136.529 93.8906 136.563 93.9155 136.59 93.9465C136.617 93.9776 136.637 94.014 136.649 94.0534C136.661 94.0928 136.664 94.1341 136.658 94.1747V95.3167C136.656 95.3913 136.625 95.4624 136.57 95.5146C136.516 95.5669 136.443 95.5961 136.367 95.5961ZM136.367 93.3061C136.29 93.3045 136.218 93.2737 136.165 93.2203C136.112 93.167 136.082 93.0952 136.082 93.0206V91.8786C136.076 91.838 136.079 91.7967 136.09 91.7573C136.102 91.7179 136.122 91.6815 136.149 91.6504C136.177 91.6194 136.211 91.5945 136.249 91.5775C136.287 91.5604 136.328 91.5516 136.37 91.5516C136.411 91.5516 136.453 91.5604 136.491 91.5775C136.529 91.5945 136.563 91.6194 136.59 91.6504C136.617 91.6815 136.637 91.7179 136.649 91.7573C136.661 91.7967 136.664 91.838 136.658 91.8786V93.0206C136.658 93.0581 136.65 93.0952 136.635 93.1298C136.621 93.1645 136.599 93.1959 136.572 93.2224C136.545 93.249 136.513 93.27 136.478 93.2843C136.443 93.2987 136.405 93.3061 136.367 93.3061ZM136.367 91.016C136.29 91.0145 136.218 90.9837 136.165 90.9303C136.112 90.8769 136.082 90.8052 136.082 90.7305V89.5886C136.076 89.548 136.079 89.5066 136.09 89.4673C136.102 89.4279 136.122 89.3914 136.149 89.3604C136.177 89.3294 136.211 89.3045 136.249 89.2874C136.287 89.2704 136.328 89.2615 136.37 89.2615C136.411 89.2615 136.453 89.2704 136.491 89.2874C136.529 89.3045 136.563 89.3294 136.59 89.3604C136.617 89.3914 136.637 89.4279 136.649 89.4673C136.661 89.5066 136.664 89.548 136.658 89.5886V90.7305C136.658 90.768 136.65 90.8052 136.635 90.8398C136.621 90.8744 136.599 90.9059 136.572 90.9324C136.545 90.9589 136.513 90.98 136.478 90.9943C136.443 91.0087 136.405 91.016 136.367 91.016ZM136.367 88.7199C136.291 88.7199 136.219 88.6905 136.165 88.6381C136.112 88.5857 136.082 88.5146 136.082 88.4405V87.2925C136.092 87.2247 136.127 87.1627 136.179 87.1179C136.232 87.0732 136.3 87.0485 136.37 87.0485C136.439 87.0485 136.507 87.0732 136.56 87.1179C136.613 87.1627 136.647 87.2247 136.658 87.2925V88.4405C136.654 88.5136 136.622 88.5825 136.568 88.6324C136.513 88.6824 136.441 88.7094 136.367 88.7078V88.7199ZM136.367 86.4299C136.291 86.4299 136.219 86.4005 136.165 86.3481C136.112 86.2957 136.082 86.2246 136.082 86.1505V85.0024C136.092 84.9347 136.127 84.8727 136.179 84.8279C136.232 84.7831 136.3 84.7585 136.37 84.7585C136.439 84.7585 136.507 84.7831 136.56 84.8279C136.613 84.8727 136.647 84.9347 136.658 85.0024V86.1505C136.658 86.1877 136.65 86.2245 136.635 86.2588C136.621 86.2931 136.599 86.3242 136.572 86.3503C136.545 86.3763 136.513 86.3967 136.477 86.4104C136.442 86.4241 136.404 86.4307 136.367 86.4299ZM136.367 84.1399C136.291 84.1383 136.22 84.1084 136.167 84.0563C136.114 84.0043 136.083 83.9341 136.082 83.8605V82.7124C136.092 82.6446 136.127 82.5827 136.179 82.5379C136.232 82.4931 136.3 82.4685 136.37 82.4685C136.439 82.4685 136.507 82.4931 136.56 82.5379C136.613 82.5827 136.647 82.6446 136.658 82.7124V83.8483C136.658 83.8863 136.651 83.9241 136.637 83.9594C136.623 83.9948 136.602 84.027 136.575 84.0541C136.547 84.0813 136.515 84.1029 136.479 84.1176C136.444 84.1323 136.405 84.1399 136.367 84.1399ZM136.367 81.8499C136.291 81.8483 136.22 81.8184 136.167 81.7663C136.114 81.7142 136.083 81.6441 136.082 81.5704V80.4224C136.092 80.3546 136.127 80.2927 136.179 80.2479C136.232 80.2031 136.3 80.1784 136.37 80.1784C136.439 80.1784 136.507 80.2031 136.56 80.2479C136.613 80.2927 136.647 80.3546 136.658 80.4224V81.5704C136.656 81.6451 136.625 81.7162 136.57 81.7684C136.516 81.8206 136.443 81.8499 136.367 81.8499ZM136.367 79.5598C136.291 79.5583 136.22 79.5284 136.167 79.4763C136.114 79.4242 136.083 79.354 136.082 79.2804V78.1324C136.092 78.0646 136.127 78.0026 136.179 77.9578C136.232 77.9131 136.3 77.8884 136.37 77.8884C136.439 77.8884 136.507 77.9131 136.56 77.9578C136.613 78.0026 136.647 78.0646 136.658 78.1324V79.2804C136.656 79.3551 136.625 79.4261 136.57 79.4784C136.516 79.5306 136.443 79.5599 136.367 79.5598ZM136.367 77.2698C136.29 77.2682 136.218 77.2375 136.165 77.1841C136.112 77.1307 136.082 77.059 136.082 76.9843V75.8424C136.076 75.8018 136.079 75.7604 136.09 75.721C136.102 75.6817 136.122 75.6452 136.149 75.6142C136.177 75.5832 136.211 75.5583 136.249 75.5412C136.287 75.5242 136.328 75.5153 136.37 75.5153C136.411 75.5153 136.453 75.5242 136.491 75.5412C136.529 75.5583 136.563 75.5832 136.59 75.6142C136.617 75.6452 136.637 75.6817 136.649 75.721C136.661 75.7604 136.664 75.8018 136.658 75.8424V76.9843C136.658 77.0218 136.65 77.0589 136.635 77.0936C136.621 77.1282 136.599 77.1597 136.572 77.1862C136.545 77.2127 136.513 77.2337 136.478 77.2481C136.443 77.2624 136.405 77.2698 136.367 77.2698ZM136.367 74.9798C136.29 74.9782 136.218 74.9474 136.165 74.8941C136.112 74.8407 136.082 74.769 136.082 74.6943V73.5523C136.076 73.5118 136.079 73.4704 136.09 73.431C136.102 73.3917 136.122 73.3552 136.149 73.3242C136.177 73.2931 136.211 73.2683 136.249 73.2512C136.287 73.2341 136.328 73.2253 136.37 73.2253C136.411 73.2253 136.453 73.2341 136.491 73.2512C136.529 73.2683 136.563 73.2931 136.59 73.3242C136.617 73.3552 136.637 73.3917 136.649 73.431C136.661 73.4704 136.664 73.5118 136.658 73.5523V74.6943C136.658 74.7318 136.65 74.7689 136.635 74.8036C136.621 74.8382 136.599 74.8697 136.572 74.8962C136.545 74.9227 136.513 74.9437 136.478 74.9581C136.443 74.9724 136.405 74.9798 136.367 74.9798ZM136.367 72.6898C136.29 72.6882 136.218 72.6574 136.165 72.604C136.112 72.5507 136.082 72.479 136.082 72.4043V71.2623C136.076 71.2217 136.079 71.1804 136.09 71.141C136.102 71.1016 136.122 71.0652 136.149 71.0342C136.177 71.0031 136.211 70.9782 136.249 70.9612C136.287 70.9441 136.328 70.9353 136.37 70.9353C136.411 70.9353 136.453 70.9441 136.491 70.9612C136.529 70.9782 136.563 71.0031 136.59 71.0342C136.617 71.0652 136.637 71.1016 136.649 71.141C136.661 71.1804 136.664 71.2217 136.658 71.2623V72.4043C136.658 72.4418 136.65 72.4789 136.635 72.5135C136.621 72.5482 136.599 72.5796 136.572 72.6062C136.545 72.6327 136.513 72.6537 136.478 72.668C136.443 72.6824 136.405 72.6898 136.367 72.6898ZM136.367 70.3997C136.29 70.3982 136.218 70.3674 136.165 70.314C136.112 70.2606 136.082 70.1889 136.082 70.1143V68.9723C136.076 68.9317 136.079 68.8903 136.09 68.851C136.102 68.8116 136.122 68.7752 136.149 68.7441C136.177 68.7131 136.211 68.6882 136.249 68.6711C136.287 68.6541 136.328 68.6452 136.37 68.6452C136.411 68.6452 136.453 68.6541 136.491 68.6711C136.529 68.6882 136.563 68.7131 136.59 68.7441C136.617 68.7752 136.637 68.8116 136.649 68.851C136.661 68.8903 136.664 68.9317 136.658 68.9723V70.1143C136.658 70.1517 136.65 70.1889 136.635 70.2235C136.621 70.2581 136.599 70.2896 136.572 70.3161C136.545 70.3426 136.513 70.3637 136.478 70.378C136.443 70.3924 136.405 70.3997 136.367 70.3997ZM136.367 68.1097C136.29 68.1081 136.218 68.0774 136.165 68.024C136.112 67.9706 136.082 67.8989 136.082 67.8242V66.6762C136.092 66.6084 136.127 66.5464 136.179 66.5017C136.232 66.4569 136.3 66.4322 136.37 66.4322C136.439 66.4322 136.507 66.4569 136.56 66.5017C136.613 66.5464 136.647 66.6084 136.658 66.6762V67.8242C136.658 67.8617 136.65 67.8988 136.635 67.9335C136.621 67.9681 136.599 67.9996 136.572 68.0261C136.545 68.0526 136.513 68.0736 136.478 68.088C136.443 68.1023 136.405 68.1097 136.367 68.1097ZM136.367 65.8136C136.291 65.8136 136.219 65.7842 136.165 65.7318C136.112 65.6794 136.082 65.6083 136.082 65.5342V64.4105C136.092 64.3427 136.127 64.2807 136.179 64.2359C136.232 64.1911 136.3 64.1665 136.37 64.1665C136.439 64.1665 136.507 64.1911 136.56 64.2359C136.613 64.2807 136.647 64.3427 136.658 64.4105V65.5585C136.651 65.6294 136.618 65.6952 136.564 65.7426C136.509 65.7901 136.439 65.8154 136.367 65.8136ZM136.367 63.5236C136.291 63.5236 136.219 63.4942 136.165 63.4418C136.112 63.3894 136.082 63.3183 136.082 63.2442V62.0961C136.092 62.0283 136.127 61.9664 136.179 61.9216C136.232 61.8768 136.3 61.8522 136.37 61.8522C136.439 61.8522 136.507 61.8768 136.56 61.9216C136.613 61.9664 136.647 62.0283 136.658 62.0961V63.2442C136.658 63.2814 136.65 63.3182 136.635 63.3525C136.621 63.3868 136.599 63.4179 136.572 63.4439C136.545 63.47 136.513 63.4904 136.477 63.5041C136.442 63.5178 136.404 63.5244 136.367 63.5236Z" fill="#F5F5F5"/>
<path d="M136.367 115.629C136.291 115.628 136.22 115.598 136.167 115.546C136.114 115.493 136.083 115.423 136.082 115.35V114.785C136.076 114.744 136.079 114.703 136.09 114.663C136.102 114.624 136.122 114.588 136.149 114.557C136.177 114.526 136.211 114.501 136.249 114.484C136.287 114.467 136.328 114.458 136.37 114.458C136.411 114.458 136.453 114.467 136.491 114.484C136.529 114.501 136.563 114.526 136.59 114.557C136.617 114.588 136.637 114.624 136.649 114.663C136.661 114.703 136.664 114.744 136.658 114.785V115.35C136.656 115.424 136.625 115.495 136.57 115.548C136.516 115.6 136.443 115.629 136.367 115.629Z" fill="#F5F5F5"/>
<path d="M159.071 68.9176C158.995 68.916 158.922 68.8852 158.869 68.8318C158.816 68.7784 158.786 68.7067 158.786 68.6321V68.055C158.796 67.9872 158.831 67.9253 158.884 67.8805C158.937 67.8357 159.004 67.811 159.074 67.811C159.144 67.811 159.211 67.8357 159.264 67.8805C159.317 67.9253 159.352 67.9872 159.362 68.055V68.6624C159.354 68.7328 159.32 68.7978 159.267 68.8449C159.213 68.8921 159.143 68.918 159.071 68.9176Z" fill="#F5F5F5"/>
<path d="M159.071 101.148C158.996 101.146 158.925 101.117 158.871 101.064C158.818 101.012 158.788 100.942 158.786 100.869V99.7145C158.796 99.6467 158.831 99.5848 158.884 99.54C158.937 99.4952 159.004 99.4705 159.074 99.4705C159.144 99.4705 159.212 99.4952 159.264 99.54C159.317 99.5848 159.352 99.6467 159.362 99.7145V100.856C159.363 100.894 159.356 100.932 159.342 100.968C159.328 101.003 159.306 101.035 159.279 101.062C159.252 101.089 159.22 101.111 159.184 101.126C159.148 101.14 159.11 101.148 159.071 101.148ZM159.071 98.8459C158.996 98.8443 158.925 98.8144 158.871 98.7623C158.818 98.7102 158.788 98.6401 158.786 98.5664V97.4123C158.796 97.3445 158.831 97.2826 158.884 97.2378C158.937 97.193 159.004 97.1684 159.074 97.1684C159.144 97.1684 159.212 97.193 159.264 97.2378C159.317 97.2826 159.352 97.3445 159.362 97.4123V98.5664C159.36 98.6411 159.329 98.7122 159.275 98.7644C159.22 98.8166 159.147 98.8459 159.071 98.8459ZM159.071 96.5437C158.996 96.5421 158.925 96.5122 158.871 96.4601C158.818 96.4081 158.788 96.3379 158.786 96.2643V95.1101C158.796 95.0424 158.831 94.9804 158.884 94.9356C158.937 94.8908 159.004 94.8662 159.074 94.8662C159.144 94.8662 159.212 94.8908 159.264 94.9356C159.317 94.9804 159.352 95.0424 159.362 95.1101V96.2643C159.36 96.3389 159.329 96.41 159.275 96.4622C159.22 96.5145 159.147 96.5437 159.071 96.5437ZM159.071 94.2415C158.996 94.24 158.925 94.21 158.871 94.158C158.818 94.1059 158.788 94.0357 158.786 93.9621V92.808C158.796 92.7402 158.831 92.6782 158.884 92.6334C158.937 92.5887 159.004 92.564 159.074 92.564C159.144 92.564 159.212 92.5887 159.264 92.6334C159.317 92.6782 159.352 92.7402 159.362 92.808V93.9621C159.36 94.0368 159.329 94.1078 159.275 94.1601C159.22 94.2123 159.147 94.2415 159.071 94.2415ZM159.071 91.9394C158.996 91.9378 158.925 91.9079 158.871 91.8558C158.818 91.8037 158.788 91.7336 158.786 91.6599V90.5301C158.796 90.4623 158.831 90.4004 158.884 90.3556C158.937 90.3108 159.004 90.2861 159.074 90.2861C159.144 90.2861 159.212 90.3108 159.264 90.3556C159.317 90.4004 159.352 90.4623 159.362 90.5301V91.6842C159.354 91.7546 159.32 91.8196 159.267 91.8667C159.213 91.9139 159.143 91.9398 159.071 91.9394ZM159.071 89.6372C158.996 89.6356 158.925 89.6057 158.871 89.5536C158.818 89.5016 158.788 89.4314 158.786 89.3578V88.2036C158.796 88.1358 158.831 88.0739 158.884 88.0291C158.937 87.9843 159.004 87.9597 159.074 87.9597C159.144 87.9597 159.212 87.9843 159.264 88.0291C159.317 88.0739 159.352 88.1358 159.362 88.2036V89.3578C159.36 89.4324 159.329 89.5035 159.275 89.5557C159.22 89.6079 159.147 89.6372 159.071 89.6372ZM159.071 87.335C158.996 87.3335 158.925 87.3035 158.871 87.2514C158.818 87.1994 158.788 87.1292 158.786 87.0556V85.9015C158.796 85.8337 158.831 85.7717 158.884 85.7269C158.937 85.6821 159.004 85.6575 159.074 85.6575C159.144 85.6575 159.212 85.6821 159.264 85.7269C159.317 85.7717 159.352 85.8337 159.362 85.9015V87.0556C159.36 87.1302 159.329 87.2013 159.275 87.2535C159.22 87.3058 159.147 87.335 159.071 87.335ZM159.071 85.0328C158.996 85.0313 158.925 85.0013 158.871 84.9493C158.818 84.8972 158.788 84.827 158.786 84.7534V83.5993C158.796 83.5315 158.831 83.4695 158.884 83.4248C158.937 83.38 159.004 83.3553 159.074 83.3553C159.144 83.3553 159.212 83.38 159.264 83.4248C159.317 83.4695 159.352 83.5315 159.362 83.5993V84.7534C159.366 84.7929 159.361 84.8327 159.347 84.8701C159.334 84.9076 159.314 84.942 159.286 84.9712C159.259 85.0003 159.226 85.0236 159.189 85.0394C159.151 85.0552 159.111 85.0633 159.071 85.0632V85.0328ZM159.071 82.7307C158.996 82.7291 158.925 82.6992 158.871 82.6471C158.818 82.595 158.788 82.5249 158.786 82.4512V81.2971C158.796 81.2293 158.831 81.1674 158.884 81.1226C158.937 81.0778 159.004 81.0532 159.074 81.0532C159.144 81.0532 159.212 81.0778 159.264 81.1226C159.317 81.1674 159.352 81.2293 159.362 81.2971V82.4512C159.36 82.5259 159.329 82.597 159.275 82.6492C159.22 82.7014 159.147 82.7307 159.071 82.7307ZM159.071 80.4285C158.996 80.4269 158.925 80.397 158.871 80.3449C158.818 80.2929 158.788 80.2227 158.786 80.1491V78.9889C158.796 78.9211 158.831 78.8591 158.884 78.8143C158.937 78.7696 159.004 78.7449 159.074 78.7449C159.144 78.7449 159.212 78.7696 159.264 78.8143C159.317 78.8591 159.352 78.9211 159.362 78.9889V80.143C159.362 80.1805 159.355 80.2176 159.34 80.2522C159.325 80.2869 159.304 80.3184 159.277 80.3449C159.25 80.3714 159.218 80.3924 159.182 80.4068C159.147 80.4211 159.109 80.4285 159.071 80.4285ZM159.071 78.1263C158.996 78.1248 158.925 78.0948 158.871 78.0428C158.818 77.9907 158.788 77.9205 158.786 77.8469V76.6928C158.796 76.625 158.831 76.563 158.884 76.5182C158.937 76.4735 159.004 76.4488 159.074 76.4488C159.144 76.4488 159.212 76.4735 159.264 76.5182C159.317 76.563 159.352 76.625 159.362 76.6928V77.8469C159.36 77.9216 159.329 77.9926 159.275 78.0449C159.22 78.0971 159.147 78.1263 159.071 78.1263ZM159.071 75.8241C158.995 75.8225 158.923 75.7918 158.869 75.7384C158.816 75.685 158.786 75.6133 158.786 75.5387V74.3906C158.78 74.35 158.783 74.3087 158.795 74.2693C158.806 74.2299 158.827 74.1935 158.854 74.1625C158.881 74.1314 158.915 74.1065 158.953 74.0895C158.991 74.0724 159.032 74.0636 159.074 74.0636C159.116 74.0636 159.157 74.0724 159.195 74.0895C159.233 74.1065 159.267 74.1314 159.294 74.1625C159.322 74.1935 159.342 74.2299 159.354 74.2693C159.365 74.3087 159.368 74.35 159.362 74.3906V75.5387C159.362 75.6144 159.331 75.687 159.277 75.7405C159.222 75.7941 159.148 75.8241 159.071 75.8241ZM159.071 73.522C158.995 73.5204 158.923 73.4896 158.869 73.4362C158.816 73.3829 158.786 73.3112 158.786 73.2365V72.0884C158.78 72.0479 158.783 72.0065 158.795 71.9671C158.806 71.9277 158.827 71.8913 158.854 71.8603C158.881 71.8292 158.915 71.8044 158.953 71.7873C158.991 71.7702 159.032 71.7614 159.074 71.7614C159.116 71.7614 159.157 71.7702 159.195 71.7873C159.233 71.8044 159.267 71.8292 159.294 71.8603C159.322 71.8913 159.342 71.9277 159.354 71.9671C159.365 72.0065 159.368 72.0479 159.362 72.0884V73.2365C159.362 73.3122 159.331 73.3848 159.277 73.4383C159.222 73.4919 159.148 73.522 159.071 73.522ZM159.071 71.2198C158.995 71.2182 158.923 71.1874 158.869 71.1341C158.816 71.0807 158.786 71.009 158.786 70.9343V69.7863C158.78 69.7457 158.783 69.7043 158.795 69.6649C158.806 69.6256 158.827 69.5891 158.854 69.5581C158.881 69.5271 158.915 69.5022 158.953 69.4851C158.991 69.4681 159.032 69.4592 159.074 69.4592C159.116 69.4592 159.157 69.4681 159.195 69.4851C159.233 69.5022 159.267 69.5271 159.294 69.5581C159.322 69.5891 159.342 69.6256 159.354 69.6649C159.365 69.7043 159.368 69.7457 159.362 69.7863V70.9343C159.362 71.01 159.331 71.0826 159.277 71.1362C159.222 71.1897 159.148 71.2198 159.071 71.2198Z" fill="#F5F5F5"/>
<path d="M159.071 102.867C158.995 102.866 158.922 102.835 158.869 102.781C158.816 102.728 158.786 102.656 158.786 102.582V102.017C158.796 101.949 158.831 101.887 158.884 101.842C158.937 101.797 159.004 101.773 159.074 101.773C159.144 101.773 159.211 101.797 159.264 101.842C159.317 101.887 159.352 101.949 159.362 102.017V102.582C159.362 102.619 159.354 102.656 159.34 102.691C159.325 102.726 159.304 102.757 159.277 102.784C159.25 102.81 159.218 102.831 159.182 102.845C159.147 102.86 159.109 102.867 159.071 102.867Z" fill="#F5F5F5"/>
<path d="M181.441 70.4241C181.364 70.4241 181.29 70.394 181.235 70.3405C181.181 70.2869 181.15 70.2143 181.15 70.1386V69.5737C181.16 69.5059 181.195 69.4439 181.248 69.3991C181.3 69.3544 181.368 69.3297 181.438 69.3297C181.508 69.3297 181.575 69.3544 181.628 69.3991C181.681 69.4439 181.716 69.5059 181.726 69.5737V70.1386C181.726 70.2133 181.696 70.285 181.643 70.3383C181.589 70.3917 181.517 70.4225 181.441 70.4241Z" fill="#F5F5F5"/>
<path d="M181.441 88.4587C181.364 88.4587 181.29 88.4287 181.235 88.3751C181.18 88.3216 181.15 88.249 181.15 88.1732V87.0495C181.144 87.0089 181.147 86.9676 181.158 86.9282C181.17 86.8888 181.19 86.8524 181.218 86.8214C181.245 86.7903 181.279 86.7654 181.317 86.7484C181.355 86.7313 181.396 86.7225 181.438 86.7225C181.48 86.7225 181.521 86.7313 181.559 86.7484C181.597 86.7654 181.631 86.7903 181.658 86.8214C181.685 86.8524 181.705 86.8888 181.717 86.9282C181.729 86.9676 181.732 87.0089 181.726 87.0495V88.1732C181.726 88.2479 181.696 88.3196 181.643 88.373C181.589 88.4264 181.517 88.4572 181.441 88.4587ZM181.441 86.2052C181.364 86.2052 181.29 86.1751 181.235 86.1215C181.18 86.068 181.15 85.9954 181.15 85.9197V84.7959C181.144 84.7554 181.147 84.714 181.158 84.6746C181.17 84.6352 181.19 84.5988 181.218 84.5678C181.245 84.5367 181.279 84.5119 181.317 84.4948C181.355 84.4777 181.396 84.4689 181.438 84.4689C181.48 84.4689 181.521 84.4777 181.559 84.4948C181.597 84.5119 181.631 84.5367 181.658 84.5678C181.685 84.5988 181.705 84.6352 181.717 84.6746C181.729 84.714 181.732 84.7554 181.726 84.7959V85.9197C181.726 85.9944 181.696 86.0661 181.643 86.1194C181.589 86.1728 181.517 86.2036 181.441 86.2052ZM181.441 83.9516C181.364 83.9516 181.29 83.9215 181.235 83.868C181.18 83.8144 181.15 83.7418 181.15 83.6661V82.5423C181.144 82.5018 181.147 82.4604 181.158 82.421C181.17 82.3817 181.19 82.3452 181.218 82.3142C181.245 82.2832 181.279 82.2583 181.317 82.2412C181.355 82.2241 181.396 82.2153 181.438 82.2153C181.48 82.2153 181.521 82.2241 181.559 82.2412C181.597 82.2583 181.631 82.2832 181.658 82.3142C181.685 82.3452 181.705 82.3817 181.717 82.421C181.729 82.4604 181.732 82.5018 181.726 82.5423V83.6661C181.726 83.7408 181.696 83.8125 181.643 83.8659C181.589 83.9192 181.517 83.95 181.441 83.9516ZM181.441 81.698C181.364 81.698 181.29 81.6679 181.235 81.6144C181.18 81.5609 181.15 81.4882 181.15 81.4125V80.2827C181.16 80.2149 181.195 80.153 181.248 80.1082C181.3 80.0634 181.368 80.0387 181.438 80.0387C181.508 80.0387 181.575 80.0634 181.628 80.1082C181.681 80.153 181.715 80.2149 181.726 80.2827V81.4186C181.724 81.4922 181.694 81.5624 181.64 81.6145C181.587 81.6665 181.516 81.6965 181.441 81.698ZM181.441 79.4384C181.403 79.4392 181.365 79.4325 181.33 79.4189C181.295 79.4052 181.263 79.3847 181.235 79.3587C181.208 79.3327 181.187 79.3016 181.172 79.2673C181.157 79.233 181.15 79.1961 181.15 79.1589V78.0291C181.16 77.9613 181.195 77.8994 181.248 77.8546C181.3 77.8098 181.368 77.7852 181.438 77.7852C181.508 77.7852 181.575 77.8098 181.628 77.8546C181.681 77.8994 181.715 77.9613 181.726 78.0291V79.1589C181.726 79.233 181.696 79.3041 181.642 79.3565C181.589 79.4089 181.516 79.4384 181.441 79.4384ZM181.441 77.1848C181.365 77.1848 181.292 77.1556 181.237 77.1033C181.183 77.0511 181.151 76.98 181.15 76.9054V75.7755C181.16 75.7077 181.195 75.6458 181.248 75.601C181.3 75.5562 181.368 75.5316 181.438 75.5316C181.508 75.5316 181.575 75.5562 181.628 75.601C181.681 75.6458 181.715 75.7077 181.726 75.7755V76.9054C181.72 76.9758 181.687 77.0414 181.634 77.0897C181.582 77.1379 181.513 77.1653 181.441 77.1666V77.1848ZM181.441 74.9312C181.365 74.9312 181.292 74.902 181.237 74.8497C181.183 74.7975 181.151 74.7264 181.15 74.6518V73.522C181.16 73.4542 181.195 73.3922 181.248 73.3474C181.3 73.3026 181.368 73.278 181.438 73.278C181.508 73.278 181.575 73.3026 181.628 73.3474C181.681 73.3922 181.715 73.4542 181.726 73.522V74.6518C181.724 74.7254 181.694 74.7956 181.64 74.8477C181.587 74.8997 181.516 74.9297 181.441 74.9312ZM181.441 72.6776C181.365 72.6776 181.292 72.6484 181.237 72.5962C181.183 72.5439 181.151 72.4729 181.15 72.3982V71.2684C181.16 71.2006 181.195 71.1386 181.248 71.0939C181.3 71.0491 181.368 71.0244 181.438 71.0244C181.508 71.0244 181.575 71.0491 181.628 71.0939C181.681 71.1386 181.715 71.2006 181.726 71.2684V72.3982C181.724 72.4718 181.694 72.542 181.64 72.5941C181.587 72.6461 181.516 72.6761 181.441 72.6776Z" fill="#F5F5F5"/>
<path d="M181.441 90.1474C181.403 90.1482 181.365 90.1415 181.33 90.1279C181.295 90.1142 181.263 90.0937 181.235 90.0677C181.208 90.0417 181.187 90.0106 181.172 89.9763C181.157 89.942 181.15 89.9052 181.15 89.868V89.3152C181.144 89.2746 181.147 89.2332 181.158 89.1939C181.17 89.1545 181.19 89.1181 181.218 89.087C181.245 89.056 181.279 89.0311 181.317 89.0141C181.355 88.997 181.396 88.9882 181.438 88.9882C181.48 88.9882 181.521 88.997 181.559 89.0141C181.597 89.0311 181.631 89.056 181.658 89.087C181.685 89.1181 181.705 89.1545 181.717 89.1939C181.729 89.2332 181.732 89.2746 181.726 89.3152V89.8801C181.722 89.9521 181.691 90.0201 181.638 90.0699C181.585 90.1197 181.514 90.1474 181.441 90.1474Z" fill="#F5F5F5"/>
<path d="M163.745 50.5913C163.745 50.0386 163.349 49.8138 162.86 50.0932L154.706 54.6915C154.448 54.8578 154.233 55.0814 154.079 55.3441C153.925 55.6069 153.837 55.9014 153.82 56.204V62.6792C153.82 63.232 154.217 63.4568 154.706 63.1773L157.733 61.4644L159.003 63.6268C159.021 63.6578 159.049 63.6827 159.082 63.6988C159.115 63.7149 159.151 63.7214 159.188 63.7176C159.224 63.7137 159.259 63.6997 159.288 63.6772C159.316 63.6546 159.338 63.6245 159.349 63.5904L160.693 59.7879L162.86 58.573C163.119 58.4087 163.334 58.1864 163.488 57.9245C163.642 57.6626 163.73 57.3685 163.745 57.0666V50.5913Z" fill="#F5F5F5"/>
<path d="M156.65 57.3764C156.568 57.3827 156.486 57.3707 156.41 57.3412C156.334 57.3117 156.266 57.2656 156.21 57.2063C156.092 57.0559 156.034 56.8675 156.05 56.6779C156.05 56.4304 156.105 56.1859 156.21 55.9611C156.319 55.7146 156.468 55.487 156.65 55.2869C156.826 55.084 157.035 54.9115 157.269 54.7766C157.456 54.6626 157.669 54.5977 157.888 54.5883C157.97 54.5837 158.052 54.5971 158.129 54.6275C158.205 54.658 158.273 54.7048 158.328 54.7645C158.449 54.914 158.509 55.1025 158.495 55.2929C158.491 55.5387 158.434 55.7809 158.328 56.0036C158.216 56.25 158.068 56.4792 157.888 56.684C157.711 56.8818 157.502 57.0501 157.269 57.1821C157.084 57.2998 156.87 57.3669 156.65 57.3764ZM156.452 60.6505C156.454 60.6122 156.464 60.5748 156.483 60.5412L160.024 53.4767L160.117 53.3188C160.156 53.2787 160.199 53.244 160.247 53.2155L160.972 52.8085C160.985 52.8028 161 52.7999 161.015 52.7999C161.03 52.7999 161.045 52.8028 161.058 52.8085C161.07 52.8114 161.081 52.8186 161.088 52.8288C161.095 52.8389 161.098 52.8512 161.096 52.8632C161.095 52.9044 161.082 52.9445 161.058 52.9786L157.486 60.0491C157.486 60.1099 157.424 60.1524 157.405 60.1828C157.372 60.2182 157.332 60.2471 157.288 60.2678L156.557 60.6869C156.495 60.7659 156.452 60.7234 156.452 60.6505ZM157.69 56.1676C157.801 56.0101 157.864 55.8245 157.87 55.6331C157.88 55.5642 157.869 55.4938 157.837 55.4317C157.804 55.3697 157.753 55.319 157.69 55.2869C157.615 55.2648 157.535 55.2604 157.458 55.2742C157.38 55.2879 157.307 55.3193 157.244 55.3658C157.063 55.4699 156.91 55.6159 156.799 55.791C156.687 55.9526 156.624 56.1424 156.619 56.3377C156.609 56.4049 156.621 56.4733 156.654 56.5333C156.686 56.5933 156.737 56.6418 156.799 56.6718C156.874 56.6938 156.953 56.6987 157.03 56.686C157.107 56.6734 157.181 56.6436 157.244 56.5989C157.435 56.4957 157.597 56.3475 157.715 56.1676H157.69ZM159.659 58.8889C159.576 58.895 159.493 58.8822 159.415 58.8517C159.338 58.8212 159.269 58.7736 159.213 58.7128C159.092 58.5657 159.033 58.379 159.046 58.1904C159.05 57.9465 159.107 57.7064 159.213 57.4858C159.325 57.2376 159.475 57.008 159.659 56.8054C159.835 56.6041 160.044 56.4336 160.278 56.3013C160.463 56.1835 160.677 56.1164 160.897 56.1069C160.98 56.1026 161.062 56.1156 161.139 56.1449C161.216 56.1743 161.285 56.2193 161.343 56.277C161.465 56.4259 161.525 56.6149 161.51 56.8054C161.507 57.0513 161.45 57.2936 161.343 57.5161C161.229 57.7628 161.079 57.9919 160.897 58.1965C160.72 58.3961 160.511 58.5664 160.278 58.7006C160.099 58.8101 159.895 58.8747 159.684 58.8889H159.659ZM160.718 57.6741C160.832 57.5156 160.894 57.3273 160.897 57.1335C160.897 56.9573 160.842 56.848 160.718 56.7994C160.643 56.7768 160.563 56.7722 160.485 56.7859C160.408 56.7997 160.335 56.8313 160.272 56.8783C160.089 56.9806 159.936 57.1269 159.826 57.3035C159.716 57.4615 159.654 57.6468 159.647 57.8381C159.647 58.0203 159.709 58.1357 159.826 58.1782C159.902 58.1976 159.981 58.2006 160.058 58.187C160.135 58.1733 160.208 58.1434 160.272 58.0993C160.46 58 160.621 57.8585 160.743 57.6862L160.718 57.6741Z" fill="#58B0CD"/>
<path opacity="0.4" d="M156.65 57.3764C156.568 57.3827 156.486 57.3707 156.41 57.3412C156.334 57.3117 156.266 57.2656 156.21 57.2063C156.092 57.0559 156.034 56.8675 156.05 56.6779C156.05 56.4304 156.105 56.1859 156.21 55.9611C156.319 55.7146 156.468 55.487 156.65 55.2869C156.826 55.084 157.035 54.9115 157.269 54.7766C157.456 54.6626 157.669 54.5977 157.888 54.5883C157.97 54.5837 158.052 54.5971 158.129 54.6275C158.205 54.658 158.273 54.7048 158.328 54.7645C158.449 54.914 158.509 55.1025 158.495 55.2929C158.491 55.5387 158.434 55.7809 158.328 56.0036C158.216 56.25 158.068 56.4792 157.888 56.684C157.711 56.8818 157.502 57.0501 157.269 57.1821C157.084 57.2998 156.87 57.3669 156.65 57.3764ZM156.452 60.6505C156.454 60.6122 156.464 60.5748 156.483 60.5412L160.024 53.4767L160.117 53.3188C160.156 53.2787 160.199 53.244 160.247 53.2155L160.972 52.8085C160.985 52.8028 161 52.7999 161.015 52.7999C161.03 52.7999 161.045 52.8028 161.058 52.8085C161.07 52.8114 161.081 52.8186 161.088 52.8288C161.095 52.8389 161.098 52.8512 161.096 52.8632C161.095 52.9044 161.082 52.9445 161.058 52.9786L157.486 60.0491C157.486 60.1099 157.424 60.1524 157.405 60.1828C157.372 60.2182 157.332 60.2471 157.288 60.2678L156.557 60.6869C156.495 60.7659 156.452 60.7234 156.452 60.6505ZM157.69 56.1676C157.801 56.0101 157.864 55.8245 157.87 55.6331C157.88 55.5642 157.869 55.4938 157.837 55.4317C157.804 55.3697 157.753 55.319 157.69 55.2869C157.615 55.2648 157.535 55.2604 157.458 55.2742C157.38 55.2879 157.307 55.3193 157.244 55.3658C157.063 55.4699 156.91 55.6159 156.799 55.791C156.687 55.9526 156.624 56.1424 156.619 56.3377C156.609 56.4049 156.621 56.4733 156.654 56.5333C156.686 56.5933 156.737 56.6418 156.799 56.6718C156.874 56.6938 156.953 56.6987 157.03 56.686C157.107 56.6734 157.181 56.6436 157.244 56.5989C157.435 56.4957 157.597 56.3475 157.715 56.1676H157.69ZM159.659 58.8889C159.576 58.895 159.493 58.8822 159.415 58.8517C159.338 58.8212 159.269 58.7736 159.213 58.7128C159.092 58.5657 159.033 58.379 159.046 58.1904C159.05 57.9465 159.107 57.7064 159.213 57.4858C159.325 57.2376 159.475 57.008 159.659 56.8054C159.835 56.6041 160.044 56.4336 160.278 56.3013C160.463 56.1835 160.677 56.1164 160.897 56.1069C160.98 56.1026 161.062 56.1156 161.139 56.1449C161.216 56.1743 161.285 56.2193 161.343 56.277C161.465 56.4259 161.525 56.6149 161.51 56.8054C161.507 57.0513 161.45 57.2936 161.343 57.5161C161.229 57.7628 161.079 57.9919 160.897 58.1965C160.72 58.3961 160.511 58.5664 160.278 58.7006C160.099 58.8101 159.895 58.8747 159.684 58.8889H159.659ZM160.718 57.6741C160.832 57.5156 160.894 57.3273 160.897 57.1335C160.897 56.9573 160.842 56.848 160.718 56.7994C160.643 56.7768 160.563 56.7722 160.485 56.7859C160.408 56.7997 160.335 56.8313 160.272 56.8783C160.089 56.9806 159.936 57.1269 159.826 57.3035C159.716 57.4615 159.654 57.6468 159.647 57.8381C159.647 58.0203 159.709 58.1357 159.826 58.1782C159.902 58.1976 159.981 58.2006 160.058 58.187C160.135 58.1733 160.208 58.1434 160.272 58.0993C160.46 58 160.621 57.8585 160.743 57.6862L160.718 57.6741Z" fill="black"/>
<path d="M185.762 51.7029C185.762 51.1501 185.366 50.9253 184.877 51.1987L176.723 55.8273C176.465 55.993 176.251 56.2157 176.098 56.4773C175.944 56.7389 175.855 57.0322 175.837 57.3338V63.8029C175.837 64.3618 176.234 64.5865 176.723 64.3071L179.775 62.5881L181.051 64.7505C181.065 64.783 181.089 64.8107 181.119 64.8301C181.149 64.8496 181.185 64.8599 181.221 64.8599C181.257 64.8599 181.292 64.8496 181.323 64.8301C181.353 64.8107 181.377 64.783 181.391 64.7505L182.735 60.9419L184.908 59.727C185.165 59.5613 185.379 59.3387 185.533 59.0771C185.687 58.8155 185.776 58.5221 185.793 58.2206L185.762 51.7029Z" fill="#F5F5F5"/>
<path d="M178.667 58.4881C178.584 58.4932 178.501 58.4801 178.424 58.4496C178.347 58.4191 178.277 58.3721 178.221 58.3119C178.104 58.1631 178.047 57.9772 178.06 57.7895C178.064 57.5424 178.119 57.2985 178.221 57.0728C178.332 56.8241 178.482 56.5944 178.667 56.3924C178.844 56.1928 179.054 56.0225 179.286 55.8883C179.472 55.7727 179.686 55.7077 179.905 55.7C179.988 55.6939 180.072 55.7067 180.149 55.7372C180.226 55.7677 180.296 55.8153 180.351 55.8761C180.474 56.0248 180.534 56.2139 180.518 56.4046C180.514 56.6484 180.457 56.8886 180.351 57.1092C180.24 57.3574 180.089 57.587 179.905 57.7895C179.73 57.9909 179.52 58.1614 179.286 58.2937C179.101 58.4114 178.887 58.4785 178.667 58.4881ZM178.463 61.7621C178.464 61.7211 178.477 61.6813 178.5 61.6467L182.041 54.5823C182.065 54.526 182.097 54.4729 182.134 54.4243C182.168 54.3825 182.211 54.3474 182.258 54.3211L182.989 53.908C183.026 53.908 183.051 53.8777 183.075 53.908C183.1 53.9384 183.106 53.908 183.106 53.9627C183.107 54.0032 183.096 54.0432 183.075 54.0781L179.515 61.179C179.493 61.2261 179.466 61.2709 179.435 61.3126C179.404 61.3478 179.366 61.3767 179.323 61.3977L178.587 61.8168C178.537 61.8411 178.463 61.829 178.463 61.7621ZM179.701 57.2793C179.811 57.1213 179.873 56.936 179.881 56.7447C179.891 56.6759 179.88 56.6055 179.847 56.5434C179.815 56.4813 179.764 56.4306 179.701 56.3985C179.626 56.3764 179.546 56.3721 179.469 56.3858C179.391 56.3995 179.318 56.4309 179.255 56.4775C179.075 56.5818 178.925 56.7278 178.816 56.9027C178.701 57.063 178.638 57.2535 178.636 57.4494C178.625 57.5166 178.637 57.5854 178.669 57.6456C178.702 57.7058 178.753 57.7542 178.816 57.7834C178.89 57.8055 178.969 57.8098 179.045 57.7961C179.122 57.7824 179.194 57.751 179.255 57.7045C179.447 57.6056 179.61 57.459 179.726 57.2793H179.701ZM181.67 60.0006C181.587 60.0053 181.504 59.9919 181.427 59.9615C181.35 59.931 181.281 59.8842 181.224 59.8244C181.109 59.6746 181.052 59.4894 181.063 59.302C181.068 59.0569 181.122 58.8152 181.224 58.5913C181.339 58.3447 181.489 58.1156 181.67 57.911C181.847 57.7131 182.057 57.5449 182.289 57.4129C182.475 57.297 182.688 57.2301 182.908 57.2185C182.991 57.2131 183.073 57.2255 183.15 57.2549C183.228 57.2843 183.297 57.3299 183.354 57.3886C183.476 57.5354 183.536 57.7223 183.521 57.911C183.518 58.1589 183.461 58.4034 183.354 58.6278C183.241 58.8733 183.091 59.1006 182.908 59.302C182.732 59.5027 182.523 59.6731 182.289 59.8062C182.11 59.9171 181.906 59.9838 181.695 60.0006H181.67ZM182.735 58.7857C182.847 58.6241 182.909 58.4344 182.914 58.239C182.923 58.172 182.911 58.1039 182.879 58.0441C182.846 57.9843 182.796 57.9357 182.735 57.9049C182.658 57.8855 182.577 57.883 182.499 57.8977C182.421 57.9124 182.347 57.9439 182.283 57.99C182.103 58.0913 181.952 58.2355 181.843 58.4091C181.729 58.5675 181.664 58.7555 181.658 58.9497C181.658 59.1319 181.719 59.2413 181.843 59.2899C181.918 59.3092 181.996 59.3121 182.072 59.2985C182.148 59.2848 182.22 59.2549 182.283 59.2109C182.473 59.1119 182.636 58.9704 182.76 58.7979L182.735 58.7857Z" fill="#58B0CD"/>
<path opacity="0.4" d="M178.667 58.4881C178.584 58.4932 178.501 58.4801 178.424 58.4496C178.347 58.4191 178.277 58.3721 178.221 58.3119C178.104 58.1631 178.047 57.9772 178.06 57.7895C178.064 57.5424 178.119 57.2985 178.221 57.0728C178.332 56.8241 178.482 56.5944 178.667 56.3924C178.844 56.1928 179.054 56.0225 179.286 55.8883C179.472 55.7727 179.686 55.7077 179.905 55.7C179.988 55.6939 180.072 55.7067 180.149 55.7372C180.226 55.7677 180.296 55.8153 180.351 55.8761C180.474 56.0248 180.534 56.2139 180.518 56.4046C180.514 56.6484 180.457 56.8886 180.351 57.1092C180.24 57.3574 180.089 57.587 179.905 57.7895C179.73 57.9909 179.52 58.1614 179.286 58.2937C179.101 58.4114 178.887 58.4785 178.667 58.4881ZM178.463 61.7621C178.464 61.7211 178.477 61.6813 178.5 61.6467L182.041 54.5823C182.065 54.526 182.097 54.4729 182.134 54.4243C182.168 54.3825 182.211 54.3474 182.258 54.3211L182.989 53.908C183.026 53.908 183.051 53.8777 183.075 53.908C183.1 53.9384 183.106 53.908 183.106 53.9627C183.107 54.0032 183.096 54.0432 183.075 54.0781L179.515 61.179C179.493 61.2261 179.466 61.2709 179.435 61.3126C179.404 61.3478 179.366 61.3767 179.323 61.3977L178.587 61.8168C178.537 61.8411 178.463 61.829 178.463 61.7621ZM179.701 57.2793C179.811 57.1213 179.873 56.936 179.881 56.7447C179.891 56.6759 179.88 56.6055 179.847 56.5434C179.815 56.4813 179.764 56.4306 179.701 56.3985C179.626 56.3764 179.546 56.3721 179.469 56.3858C179.391 56.3995 179.318 56.4309 179.255 56.4775C179.075 56.5818 178.925 56.7278 178.816 56.9027C178.701 57.063 178.638 57.2535 178.636 57.4494C178.625 57.5166 178.637 57.5854 178.669 57.6456C178.702 57.7058 178.753 57.7542 178.816 57.7834C178.89 57.8055 178.969 57.8098 179.045 57.7961C179.122 57.7824 179.194 57.751 179.255 57.7045C179.447 57.6056 179.61 57.459 179.726 57.2793H179.701ZM181.67 60.0006C181.587 60.0053 181.504 59.9919 181.427 59.9615C181.35 59.931 181.281 59.8842 181.224 59.8244C181.109 59.6746 181.052 59.4894 181.063 59.302C181.068 59.0569 181.122 58.8152 181.224 58.5913C181.339 58.3447 181.489 58.1156 181.67 57.911C181.847 57.7131 182.057 57.5449 182.289 57.4129C182.475 57.297 182.688 57.2301 182.908 57.2185C182.991 57.2131 183.073 57.2255 183.15 57.2549C183.228 57.2843 183.297 57.3299 183.354 57.3886C183.476 57.5354 183.536 57.7223 183.521 57.911C183.518 58.1589 183.461 58.4034 183.354 58.6278C183.241 58.8733 183.091 59.1006 182.908 59.302C182.732 59.5027 182.523 59.6731 182.289 59.8062C182.11 59.9171 181.906 59.9838 181.695 60.0006H181.67ZM182.735 58.7857C182.847 58.6241 182.909 58.4344 182.914 58.239C182.923 58.172 182.911 58.1039 182.879 58.0441C182.846 57.9843 182.796 57.9357 182.735 57.9049C182.658 57.8855 182.577 57.883 182.499 57.8977C182.421 57.9124 182.347 57.9439 182.283 57.99C182.103 58.0913 181.952 58.2355 181.843 58.4091C181.729 58.5675 181.664 58.7555 181.658 58.9497C181.658 59.1319 181.719 59.2413 181.843 59.2899C181.918 59.3092 181.996 59.3121 182.072 59.2985C182.148 59.2848 182.22 59.2549 182.283 59.2109C182.473 59.1119 182.636 58.9704 182.76 58.7979L182.735 58.7857Z" fill="black"/>
<path d="M140.595 43.0652C140.595 42.5124 140.199 42.2877 139.71 42.5671L131.556 47.1897C131.297 47.356 131.083 47.5796 130.929 47.8423C130.775 48.105 130.686 48.3996 130.67 48.7022V55.1774C130.67 55.7302 131.066 55.9549 131.556 55.6755L134.577 53.9625L135.852 56.1189C135.867 56.1515 135.891 56.1791 135.921 56.1985C135.951 56.218 135.987 56.2283 136.023 56.2283C136.059 56.2283 136.094 56.218 136.125 56.1985C136.155 56.1791 136.179 56.1515 136.193 56.1189L137.537 52.3164L139.71 51.1015C139.969 50.9373 140.184 50.715 140.338 50.4531C140.492 50.1911 140.58 49.8971 140.595 49.5951V43.0652Z" fill="#F5F5F5"/>
<path d="M133.494 49.832C133.412 49.8374 133.33 49.825 133.254 49.7956C133.178 49.7662 133.11 49.7205 133.054 49.662C132.938 49.5103 132.881 49.3228 132.893 49.1335C132.897 48.8863 132.951 48.6424 133.054 48.4167C133.165 48.1714 133.313 47.9441 133.494 47.7425C133.671 47.541 133.88 47.3688 134.113 47.2322C134.299 47.1189 134.513 47.0541 134.732 47.0439C134.815 47.0379 134.898 47.0506 134.976 47.0812C135.053 47.1117 135.122 47.1592 135.178 47.2201C135.299 47.3696 135.358 47.5581 135.345 47.7485C135.341 47.9943 135.284 48.2365 135.178 48.4592C135.063 48.7059 134.913 48.935 134.732 49.1396C134.554 49.3374 134.345 49.5057 134.113 49.6376C133.928 49.7554 133.714 49.8225 133.494 49.832ZM133.295 53.1061C133.296 53.0668 133.309 53.0287 133.333 52.9968L136.874 45.9262C136.9 45.8707 136.931 45.8178 136.967 45.7683C137.001 45.7264 137.043 45.6914 137.091 45.665L137.821 45.2581C137.835 45.252 137.85 45.2489 137.865 45.2489C137.88 45.2489 137.895 45.252 137.908 45.2581C137.908 45.2581 137.939 45.2581 137.939 45.3127C137.941 45.3533 137.93 45.3935 137.908 45.4281L134.348 52.529C134.326 52.5761 134.299 52.6209 134.268 52.6627C134.238 52.6996 134.2 52.7288 134.156 52.7477L133.419 53.1668C133.339 53.2094 133.295 53.1972 133.295 53.1243V53.1061ZM134.534 48.6232C134.645 48.4657 134.707 48.2801 134.713 48.0887C134.724 48.0198 134.712 47.9494 134.68 47.8873C134.648 47.8253 134.597 47.7746 134.534 47.7425C134.458 47.7204 134.379 47.716 134.301 47.7298C134.224 47.7435 134.151 47.7749 134.088 47.8214C133.908 47.9259 133.757 48.0719 133.648 48.2466C133.534 48.407 133.471 48.5975 133.469 48.7933C133.469 48.9695 133.525 49.0788 133.648 49.1274C133.723 49.1495 133.801 49.1538 133.878 49.1401C133.954 49.1263 134.026 49.0949 134.088 49.0484C134.288 48.9506 134.457 48.8015 134.577 48.6172L134.534 48.6232ZM136.503 51.3445C136.42 51.3506 136.336 51.3378 136.259 51.3073C136.182 51.2768 136.113 51.2292 136.057 51.1684C135.941 51.0191 135.883 50.8335 135.896 50.646C135.901 50.4029 135.956 50.1634 136.057 49.9414C136.168 49.6932 136.319 49.4636 136.503 49.261C136.678 49.0597 136.888 48.8892 137.122 48.7569C137.307 48.6391 137.521 48.572 137.741 48.5625C137.823 48.5582 137.906 48.5712 137.982 48.6005C138.059 48.6298 138.129 48.6749 138.187 48.7326C138.307 48.8824 138.364 49.0713 138.348 49.261C138.347 49.5065 138.292 49.7489 138.187 49.9717C138.072 50.2184 137.922 50.4475 137.741 50.6521C137.563 50.8514 137.354 51.0216 137.122 51.1562C136.944 51.2721 136.74 51.3431 136.527 51.3628L136.503 51.3445ZM137.568 50.1297C137.679 49.9699 137.741 49.7824 137.747 49.5891C137.757 49.5219 137.745 49.4535 137.713 49.3935C137.68 49.3335 137.63 49.285 137.568 49.255C137.491 49.2324 137.411 49.2277 137.332 49.2415C137.253 49.2552 137.179 49.2869 137.116 49.3339C136.935 49.437 136.784 49.5833 136.676 49.7591C136.562 49.9154 136.497 50.1014 136.49 50.2937C136.49 50.4759 136.552 50.5913 136.676 50.6338C136.751 50.6531 136.829 50.6561 136.905 50.6424C136.981 50.6288 137.053 50.5989 137.116 50.5549C137.303 50.461 137.467 50.3259 137.592 50.16L137.568 50.1297Z" fill="#58B0CD"/>
<path opacity="0.4" d="M133.494 49.832C133.412 49.8374 133.33 49.825 133.254 49.7956C133.178 49.7662 133.11 49.7205 133.054 49.662C132.938 49.5103 132.881 49.3228 132.893 49.1335C132.897 48.8863 132.951 48.6424 133.054 48.4167C133.165 48.1714 133.313 47.9441 133.494 47.7425C133.671 47.541 133.88 47.3688 134.113 47.2322C134.299 47.1189 134.513 47.0541 134.732 47.0439C134.815 47.0379 134.898 47.0506 134.976 47.0812C135.053 47.1117 135.122 47.1592 135.178 47.2201C135.299 47.3696 135.358 47.5581 135.345 47.7485C135.341 47.9943 135.284 48.2365 135.178 48.4592C135.063 48.7059 134.913 48.935 134.732 49.1396C134.554 49.3374 134.345 49.5057 134.113 49.6376C133.928 49.7554 133.714 49.8225 133.494 49.832ZM133.295 53.1061C133.296 53.0668 133.309 53.0287 133.333 52.9968L136.874 45.9262C136.9 45.8707 136.931 45.8178 136.967 45.7683C137.001 45.7264 137.043 45.6914 137.091 45.665L137.821 45.2581C137.835 45.252 137.85 45.2489 137.865 45.2489C137.88 45.2489 137.895 45.252 137.908 45.2581C137.908 45.2581 137.939 45.2581 137.939 45.3127C137.941 45.3533 137.93 45.3935 137.908 45.4281L134.348 52.529C134.326 52.5761 134.299 52.6209 134.268 52.6627C134.238 52.6996 134.2 52.7288 134.156 52.7477L133.419 53.1668C133.339 53.2094 133.295 53.1972 133.295 53.1243V53.1061ZM134.534 48.6232C134.645 48.4657 134.707 48.2801 134.713 48.0887C134.724 48.0198 134.712 47.9494 134.68 47.8873C134.648 47.8253 134.597 47.7746 134.534 47.7425C134.458 47.7204 134.379 47.716 134.301 47.7298C134.224 47.7435 134.151 47.7749 134.088 47.8214C133.908 47.9259 133.757 48.0719 133.648 48.2466C133.534 48.407 133.471 48.5975 133.469 48.7933C133.469 48.9695 133.525 49.0788 133.648 49.1274C133.723 49.1495 133.801 49.1538 133.878 49.1401C133.954 49.1263 134.026 49.0949 134.088 49.0484C134.288 48.9506 134.457 48.8015 134.577 48.6172L134.534 48.6232ZM136.503 51.3445C136.42 51.3506 136.336 51.3378 136.259 51.3073C136.182 51.2768 136.113 51.2292 136.057 51.1684C135.941 51.0191 135.883 50.8335 135.896 50.646C135.901 50.4029 135.956 50.1634 136.057 49.9414C136.168 49.6932 136.319 49.4636 136.503 49.261C136.678 49.0597 136.888 48.8892 137.122 48.7569C137.307 48.6391 137.521 48.572 137.741 48.5625C137.823 48.5582 137.906 48.5712 137.982 48.6005C138.059 48.6298 138.129 48.6749 138.187 48.7326C138.307 48.8824 138.364 49.0713 138.348 49.261C138.347 49.5065 138.292 49.7489 138.187 49.9717C138.072 50.2184 137.922 50.4475 137.741 50.6521C137.563 50.8514 137.354 51.0216 137.122 51.1562C136.944 51.2721 136.74 51.3431 136.527 51.3628L136.503 51.3445ZM137.568 50.1297C137.679 49.9699 137.741 49.7824 137.747 49.5891C137.757 49.5219 137.745 49.4535 137.713 49.3935C137.68 49.3335 137.63 49.285 137.568 49.255C137.491 49.2324 137.411 49.2277 137.332 49.2415C137.253 49.2552 137.179 49.2869 137.116 49.3339C136.935 49.437 136.784 49.5833 136.676 49.7591C136.562 49.9154 136.497 50.1014 136.49 50.2937C136.49 50.4759 136.552 50.5913 136.676 50.6338C136.751 50.6531 136.829 50.6561 136.905 50.6424C136.981 50.6288 137.053 50.5989 137.116 50.5549C137.303 50.461 137.467 50.3259 137.592 50.16L137.568 50.1297Z" fill="black"/>
<path d="M110.994 77.5431C110.994 76.9903 110.597 76.7656 110.108 77.0389L101.954 81.6675C101.696 81.8339 101.481 82.0574 101.327 82.3202C101.174 82.5829 101.085 82.8775 101.069 83.1801V89.6492C101.069 90.2081 101.465 90.4328 101.954 90.1534L104.982 88.4404L106.251 90.5968C106.269 90.6279 106.296 90.6532 106.329 90.6697C106.361 90.6862 106.398 90.6933 106.434 90.6901C106.471 90.6869 106.505 90.6736 106.534 90.6517C106.563 90.6298 106.585 90.6002 106.598 90.5664L107.941 86.7578L110.108 85.543C110.366 85.378 110.581 85.1555 110.735 84.8938C110.889 84.632 110.977 84.3383 110.994 84.0365V77.5431Z" fill="#F5F5F5"/>
<path d="M103.898 84.3283C103.816 84.3348 103.733 84.3222 103.657 84.2916C103.581 84.261 103.513 84.2133 103.459 84.1522C103.339 84.0047 103.281 83.8177 103.298 83.6298C103.298 83.3823 103.353 83.1378 103.459 82.913C103.569 82.6654 103.717 82.4359 103.898 82.2327C104.075 82.032 104.284 81.8616 104.517 81.7285C104.703 81.6129 104.917 81.5479 105.137 81.5402C105.22 81.5342 105.303 81.5469 105.38 81.5774C105.458 81.608 105.527 81.6555 105.582 81.7163C105.704 81.8653 105.764 82.0542 105.75 82.2448C105.745 82.4887 105.688 82.7289 105.582 82.9494C105.469 83.1987 105.319 83.4301 105.137 83.6358C104.959 83.8337 104.75 84.0019 104.517 84.1339C104.332 84.2499 104.118 84.3168 103.898 84.3283ZM103.7 87.6024C103.702 87.5622 103.713 87.523 103.731 87.487L107.273 80.4225C107.297 80.3662 107.328 80.3132 107.366 80.2646C107.401 80.2241 107.443 80.1892 107.489 80.1613L108.22 79.7483C108.248 79.7385 108.279 79.7385 108.307 79.7483C108.319 79.7512 108.329 79.7584 108.336 79.7685C108.343 79.7786 108.346 79.7909 108.344 79.8029C108.342 79.844 108.329 79.8838 108.307 79.9183L104.753 87.0192C104.722 87.08 104.691 87.1225 104.672 87.1529C104.637 87.1865 104.598 87.2151 104.555 87.2379L103.818 87.657C103.737 87.6813 103.7 87.6753 103.7 87.6024ZM104.939 83.1195C105.047 82.9612 105.107 82.7757 105.112 82.585C105.112 82.4027 105.056 82.2873 104.939 82.2387C104.863 82.2167 104.783 82.2123 104.706 82.226C104.629 82.2397 104.555 82.2711 104.493 82.3177C104.31 82.4199 104.156 82.5663 104.047 82.7429C103.935 82.9045 103.873 83.0943 103.867 83.2896C103.858 83.3567 103.87 83.4252 103.902 83.4852C103.934 83.5452 103.985 83.5937 104.047 83.6237C104.122 83.6458 104.202 83.6501 104.279 83.6364C104.357 83.6227 104.43 83.5913 104.493 83.5447C104.683 83.4439 104.845 83.2977 104.963 83.1195H104.939ZM106.907 85.8408C106.824 85.8455 106.741 85.8322 106.664 85.8017C106.587 85.7713 106.518 85.7245 106.462 85.6647C106.342 85.517 106.282 85.3307 106.294 85.1423C106.299 84.8984 106.356 84.6582 106.462 84.4376C106.575 84.1883 106.725 83.957 106.907 83.7512C107.086 83.5545 107.295 83.3864 107.527 83.2532C107.712 83.1372 107.926 83.0703 108.146 83.0588C108.228 83.0533 108.311 83.0657 108.388 83.0951C108.465 83.1245 108.534 83.1702 108.591 83.2289C108.714 83.3775 108.774 83.5667 108.759 83.7573C108.755 84.0032 108.698 84.2455 108.591 84.468C108.478 84.7135 108.328 84.9409 108.146 85.1423C107.971 85.3447 107.761 85.5153 107.527 85.6464C107.349 85.7602 107.144 85.8271 106.932 85.8408H106.907ZM107.966 84.626C108.078 84.4643 108.14 84.2746 108.146 84.0793C108.155 84.0122 108.142 83.9441 108.11 83.8843C108.078 83.8245 108.028 83.7759 107.966 83.7452C107.889 83.7257 107.809 83.7233 107.73 83.738C107.652 83.7527 107.578 83.7842 107.514 83.8302C107.336 83.9339 107.185 84.0776 107.075 84.2493C106.962 84.4086 106.9 84.5965 106.895 84.79C106.895 84.9722 106.951 85.0815 107.075 85.1301C107.149 85.1494 107.227 85.1523 107.303 85.1387C107.379 85.125 107.451 85.0952 107.514 85.0512C107.704 84.9521 107.867 84.8106 107.991 84.6381L107.966 84.626Z" fill="#58B0CD"/>
<path opacity="0.4" d="M103.898 84.3283C103.816 84.3348 103.733 84.3222 103.657 84.2916C103.581 84.261 103.513 84.2133 103.459 84.1522C103.339 84.0047 103.281 83.8177 103.298 83.6298C103.298 83.3823 103.353 83.1378 103.459 82.913C103.569 82.6654 103.717 82.4359 103.898 82.2327C104.075 82.032 104.284 81.8616 104.517 81.7285C104.703 81.6129 104.917 81.5479 105.137 81.5402C105.22 81.5342 105.303 81.5469 105.38 81.5774C105.458 81.608 105.527 81.6555 105.582 81.7163C105.704 81.8653 105.764 82.0542 105.75 82.2448C105.745 82.4887 105.688 82.7289 105.582 82.9494C105.469 83.1987 105.319 83.4301 105.137 83.6358C104.959 83.8337 104.75 84.0019 104.517 84.1339C104.332 84.2499 104.118 84.3168 103.898 84.3283ZM103.7 87.6024C103.702 87.5622 103.713 87.523 103.731 87.487L107.273 80.4225C107.297 80.3662 107.328 80.3132 107.366 80.2646C107.401 80.2241 107.443 80.1892 107.489 80.1613L108.22 79.7483C108.248 79.7385 108.279 79.7385 108.307 79.7483C108.319 79.7512 108.329 79.7584 108.336 79.7685C108.343 79.7786 108.346 79.7909 108.344 79.8029C108.342 79.844 108.329 79.8838 108.307 79.9183L104.753 87.0192C104.722 87.08 104.691 87.1225 104.672 87.1529C104.637 87.1865 104.598 87.2151 104.555 87.2379L103.818 87.657C103.737 87.6813 103.7 87.6753 103.7 87.6024ZM104.939 83.1195C105.047 82.9612 105.107 82.7757 105.112 82.585C105.112 82.4027 105.056 82.2873 104.939 82.2387C104.863 82.2167 104.783 82.2123 104.706 82.226C104.629 82.2397 104.555 82.2711 104.493 82.3177C104.31 82.4199 104.156 82.5663 104.047 82.7429C103.935 82.9045 103.873 83.0943 103.867 83.2896C103.858 83.3567 103.87 83.4252 103.902 83.4852C103.934 83.5452 103.985 83.5937 104.047 83.6237C104.122 83.6458 104.202 83.6501 104.279 83.6364C104.357 83.6227 104.43 83.5913 104.493 83.5447C104.683 83.4439 104.845 83.2977 104.963 83.1195H104.939ZM106.907 85.8408C106.824 85.8455 106.741 85.8322 106.664 85.8017C106.587 85.7713 106.518 85.7245 106.462 85.6647C106.342 85.517 106.282 85.3307 106.294 85.1423C106.299 84.8984 106.356 84.6582 106.462 84.4376C106.575 84.1883 106.725 83.957 106.907 83.7512C107.086 83.5545 107.295 83.3864 107.527 83.2532C107.712 83.1372 107.926 83.0703 108.146 83.0588C108.228 83.0533 108.311 83.0657 108.388 83.0951C108.465 83.1245 108.534 83.1702 108.591 83.2289C108.714 83.3775 108.774 83.5667 108.759 83.7573C108.755 84.0032 108.698 84.2455 108.591 84.468C108.478 84.7135 108.328 84.9409 108.146 85.1423C107.971 85.3447 107.761 85.5153 107.527 85.6464C107.349 85.7602 107.144 85.8271 106.932 85.8408H106.907ZM107.966 84.626C108.078 84.4643 108.14 84.2746 108.146 84.0793C108.155 84.0122 108.142 83.9441 108.11 83.8843C108.078 83.8245 108.028 83.7759 107.966 83.7452C107.889 83.7257 107.809 83.7233 107.73 83.738C107.652 83.7527 107.578 83.7842 107.514 83.8302C107.336 83.9339 107.185 84.0776 107.075 84.2493C106.962 84.4086 106.9 84.5965 106.895 84.79C106.895 84.9722 106.951 85.0815 107.075 85.1301C107.149 85.1494 107.227 85.1523 107.303 85.1387C107.379 85.125 107.451 85.0952 107.514 85.0512C107.704 84.9521 107.867 84.8106 107.991 84.6381L107.966 84.626Z" fill="black"/>
<path d="M103.669 138.019L109.644 134.636C110.517 134.144 111.216 134.356 111.216 135.11C111.152 135.58 110.976 136.028 110.703 136.42C110.43 136.811 110.067 137.134 109.644 137.363L103.675 140.747C102.802 141.239 102.096 141.026 102.096 140.273C102.164 139.804 102.341 139.356 102.613 138.965C102.886 138.574 103.247 138.251 103.669 138.019Z" fill="#F5F5F5"/>
<path d="M133.382 121.187L139.357 117.804C140.224 117.312 140.929 117.524 140.929 118.278C140.862 118.747 140.685 119.194 140.412 119.585C140.139 119.976 139.778 120.3 139.357 120.531L133.382 123.939C132.515 124.431 131.809 124.218 131.809 123.465C131.874 122.992 132.05 122.54 132.323 122.145C132.595 121.749 132.958 121.422 133.382 121.187Z" fill="#F5F5F5"/>
<path d="M156.087 108.346L162.061 104.963C162.928 104.471 163.634 104.683 163.634 105.437C163.567 105.906 163.39 106.353 163.117 106.744C162.844 107.135 162.483 107.459 162.061 107.69L156.087 111.074C155.22 111.566 154.514 111.359 154.514 110.606C154.581 110.136 154.758 109.687 155.03 109.295C155.303 108.903 155.665 108.579 156.087 108.346Z" fill="#F5F5F5"/>
<path d="M178.45 95.6629L184.425 92.2795C185.298 91.7875 186.004 91.994 185.998 92.7473C185.934 93.2183 185.759 93.6682 185.486 94.0607C185.212 94.4531 184.849 94.7772 184.425 95.0069L178.457 98.3903C177.584 98.8823 176.878 98.6697 176.878 97.9165C176.945 97.4474 177.122 96.9999 177.395 96.6089C177.668 96.218 178.029 95.8943 178.45 95.6629Z" fill="#F5F5F5"/>
<path d="M219.898 63.5412C218.369 63.4298 216.247 63.4237 214.15 66.8511C212.053 70.2785 206.355 79.7069 206.355 79.7069L210.067 82.2187L216.563 73.0934C216.563 73.0934 217.182 65.7993 218.382 64.7785C219.582 63.7577 219.898 63.5412 219.898 63.5412Z" fill="#F28F8F"/>
<path d="M225.045 132.553L221.56 133.681L223.201 138.748L226.685 137.62L225.045 132.553Z" fill="#FFA8A7"/>
<path d="M222.502 136.544C222.524 136.959 222.418 137.372 222.199 137.725C221.644 138.647 220.991 139.506 220.25 140.287C219.204 141.406 217.639 142.761 216.538 143.708C215.919 144.252 215.888 145.075 216.779 145.36C218.438 145.767 220.189 145.524 221.673 144.679C222.787 144.06 224.37 141.326 225.292 140.905C226.356 140.429 226.956 140.188 227.315 139.668C227.587 139.389 227.756 139.026 227.795 138.638C227.835 138.251 227.742 137.862 227.532 137.534C227.031 136.599 226.294 135.164 225.966 135.325L226.059 135.616C225.818 136.377 223.745 137.261 222.681 137.051L222.502 136.544Z" fill="#263238"/>
<path d="M226.047 135.646C225.063 135.343 224.767 135.863 223.702 135.646L222.502 136.544C222.527 136.959 222.421 137.373 222.199 137.725C221.645 138.647 220.991 139.506 220.25 140.286C219.737 140.831 219.106 141.425 218.469 142.006C217.955 142.811 219.669 143.046 220.615 142.773C221.654 142.402 222.55 141.714 223.177 140.806C223.863 139.903 225.732 137.806 226.01 137.094C226.21 136.635 226.224 136.115 226.047 135.646Z" fill="#FFA8A7"/>
<path d="M237.752 84.4087C237.245 80.6967 236.106 76.3661 234.609 69.7031C234.071 67.2965 233.372 65.1249 231.652 64.4568C231.652 64.4568 226.932 66.3994 226.932 69.8887C226.932 73.3779 230.749 75.1659 230.749 75.1659L232.927 82.6765L236.379 86.8648C236.878 86.7085 237.299 86.3668 237.554 85.9101C237.81 85.4533 237.88 84.9161 237.752 84.4087Z" fill="#FFA8A7"/>
<path d="M230.378 140.819H226.82V145.997H230.378V140.819Z" fill="#FFA8A7"/>
<path d="M233.056 88.0343C234.467 94.0725 233.094 102.22 232.611 107.3C232.141 112.249 231.559 118.033 231.559 118.033C231.559 118.033 233.075 123.261 233.001 127.313C232.927 131.595 230.421 141.901 230.421 141.901C229.877 142.252 229.243 142.438 228.596 142.438C227.949 142.438 227.315 142.252 226.771 141.901C226.771 141.901 226.152 133.24 225.534 128.34C224.915 123.205 224.717 119.469 224.191 116.468C223.529 112.756 222.422 96.9307 222.422 96.9307L220.516 112.62C221.659 114.5 222.549 116.521 223.164 118.634C223.944 121.671 225.639 133.729 225.639 133.729C224.578 134.679 223.214 135.221 221.791 135.257C221.791 135.257 214.169 117.149 213.129 115.342C212.016 113.418 211.849 92.3464 213.624 87.0692L233.056 88.0343Z" fill="#455A64"/>
<path d="M226.542 63.6216C226.542 63.6216 231.046 64.1846 231.652 64.4568C226.932 67.779 230.749 75.1659 230.749 75.1659L228.466 81.4577L233.05 88.0155C231.733 89.5375 223.35 94.8209 214.354 89.0302C214.536 85.9751 214.889 82.9327 215.412 79.9172C214.113 73.7306 213.977 71.757 214.354 70.3032C215.412 66.2138 217.831 63.603 220.609 63.4484L226.542 63.6216Z" fill="#58B0CD"/>
<path opacity="0.7" d="M226.542 63.6216C226.542 63.6216 231.046 64.1846 231.652 64.4568C226.932 67.779 230.749 75.1659 230.749 75.1659L228.466 81.4577L233.05 88.0155C231.733 89.5375 223.35 94.8209 214.354 89.0302C214.536 85.9751 214.889 82.9327 215.412 79.9172C214.113 73.7306 213.977 71.757 214.354 70.3032C215.412 66.2138 217.831 63.603 220.609 63.4484L226.542 63.6216Z" fill="white"/>
<path d="M203.726 74.6896L219.068 78.7356L223.597 97.7781L209.009 93.5403L203.726 74.6896Z" fill="#58B0CD"/>
<path d="M210.413 87.2919C210.271 87.6816 209.436 88.7581 207.648 88.6777L207.425 87.8858L210.413 87.2919Z" fill="#58B0CD"/>
<path opacity="0.2" d="M210.413 87.2919C210.271 87.6816 209.436 88.7581 207.648 88.6777L207.425 87.8858L210.413 87.2919Z" fill="black"/>
<path d="M213.847 87.8734C213.909 88.3807 214.954 89.3211 216.718 89.9088C218.728 90.5832 221.803 90.2243 221.803 90.2243L221.531 89.2778L213.847 87.8734Z" fill="#58B0CD"/>
<path opacity="0.2" d="M213.847 87.8734C213.909 88.3807 214.954 89.3211 216.718 89.9088C218.728 90.5832 221.803 90.2243 221.803 90.2243L221.531 89.2778L213.847 87.8734Z" fill="black"/>
<path d="M208.217 77.4488L208.093 76.8673C208.019 76.5394 208.922 76.527 210.104 76.8301L212.362 77.4179C213.544 77.7272 214.558 78.2345 214.626 78.5562L214.756 79.1439L208.217 77.4488Z" fill="#58B0CD"/>
<path opacity="0.3" d="M208.217 77.4488L208.093 76.8673C208.019 76.5394 208.922 76.527 210.104 76.8301L212.362 77.4179C213.544 77.7272 214.558 78.2345 214.626 78.5562L214.756 79.1439L208.217 77.4488Z" fill="black"/>
<path d="M207.153 75.2401C207.11 75.0421 207.475 74.9865 207.97 75.1226L208.867 75.37C208.867 75.37 208.594 74.1327 210.587 74.5472C211.116 74.6213 211.617 74.8312 212.041 75.1565C212.464 75.4817 212.797 75.9113 213.005 76.4032L213.958 76.6754C214.49 76.8239 214.967 77.1085 215.029 77.2941L215.14 77.6591L207.24 75.5804C207.24 75.5804 207.196 75.4443 207.153 75.2401Z" fill="#455A64"/>
<path d="M208.242 75.8713C208.966 76.0507 209.269 76.1435 209.374 76.6446C209.479 77.1457 209.547 77.6283 209.547 77.6283L213.049 78.5563C213.049 78.5563 212.882 77.8325 212.826 77.5541C212.77 77.2757 212.888 77.1024 213.445 77.2509L213.494 77.0282L208.013 75.63L208.242 75.8713Z" fill="#455A64"/>
<path d="M208.143 77.5046C208.143 77.5046 208.087 77.2447 208.013 76.8859C207.939 76.5271 208.842 76.5518 210.023 76.8859L212.288 77.4736C213.469 77.783 214.478 78.2903 214.552 78.612L214.676 79.1997L208.143 77.5046Z" fill="#455A64"/>
<path d="M236.379 86.8649L232.927 82.6765C232.927 82.6765 225.156 85.9369 223.931 86.0297C222.706 86.1225 221.76 84.9223 221.289 83.7282C220.819 82.5342 219.891 82.6827 219.891 82.6827C219.891 82.6827 220.256 84.1984 220.368 84.6872C220.479 85.1759 217.676 85.5657 216.037 85.0151C214.398 84.4645 212.065 85.2625 213.525 87.4897C214.985 89.7169 217.806 89.9644 219.774 89.9644C220.601 89.9582 221.428 89.9024 222.248 89.7973C222.867 89.7169 223.486 89.6489 224.16 89.6056C228.175 89.2962 234.547 87.434 236.379 86.8649Z" fill="#FFA8A7"/>
<path d="M205.285 80.2575L205.965 82.6888C206.101 83.1528 207.883 84.0066 209.009 84.3159C210.135 84.6252 211.372 84.9903 210.865 86.5679C210.37 88.0217 208.514 88.3558 207.567 88.3125C206.621 88.2692 205.334 87.3721 204.821 85.9121C204.202 84.0561 204.524 82.0764 204.264 80.9628C204.004 79.8492 204.722 79.6141 205.285 80.2575Z" fill="#FFA8A7"/>
<path d="M226.82 144.246V143.733C226.381 145.416 225.503 146.952 224.278 148.187C223.152 149.214 221.624 150.396 221.234 151.534C220.844 152.672 223.04 153.192 224.494 153.05C225.901 152.872 227.197 152.193 228.144 151.138C229.066 150.08 229.048 149.356 229.481 148.775C229.914 148.193 230.904 147.537 231.139 146.863C231.208 146.237 231.138 145.603 230.934 145.007C230.767 144.388 230.588 143.689 230.378 143.77V144.159C229.872 144.563 229.243 144.781 228.596 144.778C228.076 144.747 226.814 144.642 226.82 144.246Z" fill="#263238"/>
<path d="M230.378 144.122C230.118 144.407 229.988 143.708 229.184 143.733C228.664 143.733 227.792 144.129 227.792 143.733H226.82C226.381 145.416 225.503 146.952 224.278 148.187C224.005 148.434 223.715 148.688 223.418 148.948C222.799 149.616 222.991 150.185 224.395 150.315C225.8 150.445 227.031 149.591 228.107 148.286C229.006 146.98 229.767 145.585 230.378 144.122Z" fill="#FFA8A7"/>
<path d="M223.461 60.5779H222.62C220.47 60.5779 218.409 59.724 216.889 58.2041C215.369 56.6842 214.515 54.6228 214.515 52.4734V51.6506C214.515 49.8243 215.241 48.0729 216.532 46.7816C217.823 45.4903 219.575 44.7648 221.401 44.7648H224.717C226.543 44.7648 228.295 45.4903 229.586 46.7816C230.877 48.0729 231.603 49.8243 231.603 51.6506V52.4301C231.603 54.5899 230.745 56.6614 229.219 58.1893C227.692 59.7171 225.621 60.5762 223.461 60.5779Z" fill="#263238"/>
<path d="M217.324 48.223C216.421 48.7551 215.307 51.0256 215.418 55.7831C215.511 59.8168 216.817 60.8128 217.472 61.1036C218.128 61.3944 219.396 61.215 220.628 61.0108V63.4298C220.628 63.4298 218.926 65.4095 219.038 66.5231C219.149 67.6367 221.512 67.8966 223.084 66.8077C224.234 65.9168 225.226 64.8375 226.016 63.6154L225.985 58.0474C225.985 58.0474 226.709 58.7527 227.94 57.6762C228.955 56.7915 229.295 55.2944 228.503 54.4963C228.299 54.3052 228.052 54.1655 227.783 54.0887C227.514 54.0119 227.23 54.0002 226.956 54.0546C226.682 54.109 226.424 54.2279 226.205 54.4016C225.985 54.5752 225.81 54.7985 225.694 55.0531C224.079 54.9875 222.505 54.5197 221.116 53.692C220.1 53.1411 219.227 52.3592 218.569 51.4092C217.91 50.4593 217.484 49.3679 217.324 48.223Z" fill="#FFA8A7"/>
<path d="M219.897 54.7747C219.892 54.8422 219.901 54.91 219.922 54.9742C219.943 55.0384 219.977 55.0979 220.021 55.149C220.065 55.2002 220.119 55.2421 220.18 55.2724C220.24 55.3026 220.306 55.3206 220.374 55.3253C220.512 55.3286 220.646 55.2772 220.747 55.1823C220.848 55.0873 220.907 54.9564 220.912 54.818C220.918 54.6835 220.87 54.5521 220.779 54.4529C220.734 54.4038 220.679 54.3641 220.619 54.3359C220.558 54.3078 220.493 54.2919 220.426 54.289C220.292 54.2833 220.161 54.3312 220.061 54.4223C219.962 54.5134 219.903 54.6401 219.897 54.7747Z" fill="#263238"/>
<path d="M219.786 58.1774L218.611 58.5548C218.657 58.7109 218.762 58.8426 218.905 58.9213C219.047 59.0001 219.215 59.0195 219.372 58.9754C219.453 58.9523 219.528 58.9129 219.593 58.8597C219.659 58.8064 219.712 58.7404 219.751 58.6657C219.79 58.591 219.813 58.5091 219.819 58.4252C219.825 58.3412 219.814 58.2569 219.786 58.1774Z" fill="#F28F8F"/>
<path d="M215.765 53.228L216.792 52.5165C216.701 52.3809 216.561 52.2866 216.401 52.2542C216.241 52.2217 216.074 52.2538 215.938 52.3433C215.867 52.3883 215.805 52.4474 215.757 52.517C215.709 52.5866 215.676 52.6653 215.66 52.7482C215.644 52.8311 215.645 52.9164 215.663 52.9989C215.681 53.0814 215.716 53.1594 215.765 53.228Z" fill="#263238"/>
<path d="M216 54.4036C215.999 54.5031 216.027 54.6007 216.081 54.6843C216.135 54.7679 216.212 54.8338 216.304 54.8738C216.395 54.9137 216.496 54.926 216.594 54.909C216.692 54.8921 216.783 54.8467 216.855 54.7784C216.928 54.7102 216.978 54.6222 217.001 54.5253C217.024 54.4284 217.018 54.327 216.983 54.2336C216.949 54.1402 216.888 54.0591 216.807 54.0002C216.727 53.9413 216.631 53.9073 216.532 53.9024C216.464 53.9 216.396 53.911 216.333 53.9349C216.269 53.9589 216.211 53.9952 216.161 54.0418C216.112 54.0884 216.072 54.1444 216.044 54.2065C216.017 54.2686 216.002 54.3356 216 54.4036Z" fill="#263238"/>
<path d="M218.394 54.119L218.314 57.169L216.705 56.6679L218.394 54.119Z" fill="#F28F8F"/>
<path d="M220.627 61.0109C221.927 60.8377 224.593 60.0705 225.008 59.0188C224.842 59.5536 224.516 60.0244 224.073 60.3675C223.275 61.048 220.627 61.8152 220.627 61.8152V61.0109Z" fill="#F28F8F"/>
<path d="M229.815 77.7396L226.264 82.5528L228.466 81.4578L229.815 77.7396Z" fill="#58B0CD"/>
<path opacity="0.3" d="M229.815 77.7396L226.264 82.5528L228.466 81.4578L229.815 77.7396Z" fill="white"/>
</svg>
