<svg width="170" height="170" viewBox="0 0 170 170" fill="none" xmlns="http://www.w3.org/2000/svg">
<path d="M91.7979 170C134.988 170 170.001 147.064 170.001 118.771C170.001 90.4775 134.988 67.5414 91.7979 67.5414C48.6077 67.5414 13.5952 90.4775 13.5952 118.771C13.5952 147.064 48.6077 170 91.7979 170Z" fill="#F5F5F5"/>
<path d="M141.406 142.61C151.734 142.61 160.106 136.564 160.106 129.106C160.106 121.648 151.734 115.602 141.406 115.602C131.077 115.602 122.705 121.648 122.705 129.106C122.705 136.564 131.077 142.61 141.406 142.61Z" fill="#E6E6E6"/>
<path d="M17.937 89.9056C17.7129 86.7979 17.0899 83.7456 16.0884 80.8484C14.4399 76.1668 11.2849 71.4642 7.6495 70.5841C4.01411 69.7039 2.47845 72.512 3.24264 75.2782C3.90494 77.6589 6.6051 79.6371 8.65751 81.716C10.7099 83.7948 14.5382 88.841 15.6008 93.6735L17.6532 93.9334L17.937 89.9056Z" fill="#58B0CD"/>
<g opacity="0.15">
<path d="M17.937 89.9056C17.7129 86.7979 17.0899 83.7456 16.0884 80.8484C14.4399 76.1668 11.2849 71.4642 7.6495 70.5841C4.01411 69.7039 2.47845 72.512 3.24264 75.2782C3.90494 77.6589 6.6051 79.6371 8.65751 81.716C10.7099 83.7948 14.5382 88.841 15.6008 93.6735L17.6532 93.9334L17.937 89.9056Z" fill="black"/>
</g>
<path d="M16.5279 92.0774C16.4693 92.0775 16.413 92.0512 16.3709 92.0043C16.3288 91.9574 16.3042 91.8934 16.3023 91.826C15.9202 79.6211 5.56352 72.7978 5.45071 72.7224C5.40133 72.6863 5.36579 72.6299 5.35134 72.5646C5.3369 72.4994 5.34465 72.4302 5.373 72.3714C5.40136 72.3125 5.44818 72.2683 5.50388 72.2478C5.55959 72.2274 5.61998 72.2322 5.67269 72.2613C5.78186 72.3326 16.3678 79.3026 16.7572 91.7966C16.7591 91.866 16.7373 91.9334 16.6965 91.9844C16.6556 92.0354 16.599 92.0658 16.5388 92.0691L16.5279 92.0774Z" fill="white"/>
<path d="M19.5707 111.391C19.5707 111.391 17.4528 112.933 14.1413 112.275C13.0704 112.111 12.0726 111.559 11.2919 110.699C10.4367 109.685 10.3021 108.662 10.0619 107.304C9.99576 106.737 9.82717 106.191 9.567 105.703C8.83919 104.58 7.44181 104.601 6.26276 104.308C4.58881 103.888 3.0495 102.505 2.56551 100.615C2.08152 98.7248 2.86755 96.4239 4.45417 95.6778L2.50729 94.2402C1.90206 93.831 1.34238 93.3384 0.840615 92.7733C0.339763 92.1971 0.0405403 91.4288 0 90.6148C0 89.4245 0.767835 88.36 1.71398 87.8738C2.68317 87.4428 3.73482 87.3184 4.75985 87.5133C5.79813 87.6596 6.81871 87.9408 7.80207 88.3516C8.07004 88.4909 8.35967 88.5665 8.6536 88.5737C9.03614 88.4957 9.39467 88.3052 9.69436 88.0205C11.9214 86.344 15.5496 86.4571 16.7432 89.6509C16.9178 90.1203 17.0234 90.6232 17.2126 91.0842C17.904 92.8068 19.8509 92.2871 21.11 93.0918C21.5051 93.3801 21.8404 93.7649 22.092 94.219C22.3435 94.6732 22.5052 95.1855 22.5656 95.7197C22.8167 97.4214 22.4055 99.3619 22.1326 101.043C21.8596 102.723 21.5139 104.287 21.1173 105.879C20.7934 107.195 20.4368 108.499 20.0583 109.794C19.9783 110.062 19.8036 111.223 19.5707 111.391Z" fill="#58B0CD"/>
<path d="M20.9032 107.459C19.7934 103.942 17.9707 100.781 15.5866 98.2385C15.5618 98.1772 15.5175 98.1292 15.4629 98.1044C14.776 97.3628 14.0557 96.6632 13.305 96.0088C13.0213 93.7456 13.2727 91.4362 14.0328 89.3238C14.0583 89.261 14.0612 89.1891 14.0407 89.1238C14.0203 89.0586 13.9781 89.0054 13.9236 88.9759C13.8691 88.9465 13.8066 88.9432 13.75 88.9667C13.6933 88.9903 13.6471 89.0389 13.6216 89.1017C12.8679 91.1383 12.5785 93.3629 12.7809 95.5645C9.73077 93.0309 6.34704 91.0781 2.75907 89.7806C2.70072 89.7638 2.63897 89.7735 2.58674 89.8079C2.5345 89.8423 2.49585 89.8986 2.47886 89.9651C2.47062 89.9984 2.46824 90.0332 2.47186 90.0676C2.47548 90.102 2.48502 90.1352 2.49994 90.1652C2.51486 90.1953 2.53484 90.2216 2.55872 90.2427C2.5826 90.2637 2.60988 90.2791 2.63898 90.2878C2.73359 90.3171 9.18923 92.4295 14.5313 97.832C11.2562 97.174 7.35152 98.9929 7.17321 99.0893C7.1231 99.111 7.08131 99.1525 7.05532 99.2064C7.02933 99.2603 7.02082 99.3231 7.03132 99.3836C7.04182 99.444 7.07064 99.4982 7.11263 99.5364C7.15462 99.5747 7.20705 99.5945 7.26054 99.5923C7.28942 99.5983 7.319 99.5983 7.34788 99.5923C7.39155 99.5671 11.9804 97.4296 15.2227 98.5906C17.5776 101.078 19.3818 104.177 20.4848 107.631C20.5 107.683 20.529 107.727 20.5675 107.759C20.606 107.791 20.6522 107.807 20.6995 107.807H20.7759C20.8046 107.795 20.8308 107.776 20.853 107.751C20.8751 107.727 20.8927 107.697 20.9046 107.665C20.9165 107.632 20.9225 107.597 20.9223 107.562C20.9221 107.526 20.9156 107.492 20.9032 107.459Z" fill="white"/>
<path d="M19.6433 111.025C19.682 111.638 19.8459 112.232 20.1216 112.759C20.3973 113.285 20.777 113.729 21.2299 114.055L65.6078 143.553C66.0983 143.84 66.6407 143.989 67.1908 143.989C67.741 143.989 68.2833 143.84 68.7738 143.553L129.484 103.183C129.961 102.891 130.36 102.455 130.639 101.921C130.917 101.388 131.065 100.777 131.065 100.155C131.065 99.5322 130.917 98.9214 130.639 98.3879C130.36 97.8545 129.961 97.4184 129.484 97.1265L85.113 67.6203C84.6221 67.3351 84.0799 67.1866 83.53 67.1866C82.9802 67.1866 82.438 67.3351 81.9471 67.6203L21.2299 107.999C20.7773 108.323 20.3977 108.767 20.122 109.293C19.8463 109.819 19.6823 110.412 19.6433 111.025Z" fill="#37474F"/>
<path d="M67.1844 140.05V143.994C66.6343 144.011 66.0895 143.867 65.6014 143.574L21.2126 114.056C20.7487 113.774 20.3579 113.356 20.0801 112.844C19.8023 112.331 19.6473 111.744 19.6311 111.14C19.6148 110.536 19.7378 109.938 19.9875 109.407C20.2372 108.876 20.6046 108.431 21.0525 108.117C20.3428 108.703 20.3974 109.563 21.2126 110.103L65.6087 139.61C66.093 139.908 66.6352 140.059 67.1844 140.05Z" fill="#263238"/>
<path d="M18.1593 108.062C17.7185 107.717 17.3545 107.257 17.0966 106.719C16.8387 106.182 16.6941 105.582 16.6746 104.969V43.9825C16.7044 43.3501 16.8633 42.7348 17.1384 42.1865C17.4134 41.6381 17.7968 41.1722 18.2575 40.8265L78.9674 0.456669C79.4388 0.168558 79.9625 0.0123536 80.4961 0.000703334C81.0297 -0.010947 81.5582 0.122283 82.0387 0.389608C82.4795 0.734962 82.8435 1.19488 83.1014 1.7322C83.3594 2.26952 83.5039 2.86918 83.5235 3.48273V64.4692C83.4936 65.1015 83.3347 65.7168 83.0597 66.2652C82.7846 66.8135 82.4012 67.2795 81.9405 67.6252L21.2306 107.999C20.7586 108.286 20.2349 108.441 19.7014 108.452C19.168 108.462 18.6398 108.329 18.1593 108.062Z" fill="#455A64"/>
<path d="M21.0414 108.108C20.5871 108.343 20.0937 108.46 19.5959 108.452C19.0981 108.444 18.6078 108.311 18.1593 108.062C17.7185 107.717 17.3545 107.257 17.0966 106.72C16.8387 106.182 16.6941 105.583 16.6746 104.969V43.9825C16.6919 43.3481 16.8525 42.7299 17.1404 42.1887L20.1098 44.1586C19.8245 44.7011 19.6642 45.3185 19.644 45.9524V106.943C19.644 108.024 20.2554 108.506 21.0414 108.108Z" fill="#263238"/>
<path d="M19.6433 45.9604V106.943C19.6433 108.108 20.3711 108.577 21.2299 107.999L81.9398 67.6248C82.4005 67.2791 82.7839 66.8132 83.059 66.2648C83.334 65.7165 83.4929 65.1011 83.5228 64.4688V3.48236C83.5228 2.32139 82.8132 1.84778 81.9398 2.43036L21.2299 42.8002C20.7681 43.1458 20.3836 43.6122 20.1079 44.1614C19.8322 44.7105 19.673 45.3269 19.6433 45.9604Z" fill="#37474F"/>
<path d="M21.2298 110.103L65.6077 139.609C66.0986 139.894 66.6408 140.043 67.1907 140.043C67.7405 140.043 68.2827 139.894 68.7736 139.609L129.484 99.2394C130.361 98.6569 130.361 97.7138 129.484 97.1438L85.1129 67.6376C84.6219 67.3525 84.0797 67.2039 83.5299 67.2039C82.98 67.2039 82.4379 67.3525 81.9469 67.6376L21.2298 107.999C20.3528 108.577 20.3528 109.521 21.2298 110.103Z" fill="#455A64"/>
<path d="M22.0811 46.1869L80.6148 7.27144C81.1389 6.92357 81.5646 7.20857 81.5646 7.90431V60.7137C81.5464 61.0931 81.451 61.4623 81.286 61.7914C81.121 62.1205 80.8911 62.4003 80.6148 62.6081L22.0811 101.503C21.5535 101.851 21.1277 101.57 21.1277 100.87V48.0604C21.1479 47.6839 21.2448 47.3181 21.4104 46.9927C21.576 46.6673 21.8058 46.3912 22.0811 46.1869Z" fill="#FAFAFA"/>
<path d="M26.3792 108.523L82.7331 71.0454C82.9781 70.9009 83.2494 70.8255 83.5246 70.8255C83.7999 70.8255 84.0711 70.9009 84.3161 71.0454L87.1982 72.9608C87.2928 72.999 87.3748 73.0702 87.4328 73.1644C87.4908 73.2586 87.522 73.3713 87.522 73.4868C87.522 73.6023 87.4908 73.7149 87.4328 73.8092C87.3748 73.9034 87.2928 73.9745 87.1982 74.0128L30.837 111.486C30.592 111.631 30.3207 111.706 30.0455 111.706C29.7703 111.706 29.499 111.631 29.254 111.486L26.3792 109.575C26.2845 109.537 26.2026 109.466 26.1446 109.372C26.0866 109.277 26.0554 109.165 26.0554 109.049C26.0554 108.934 26.0866 108.821 26.1446 108.727C26.2026 108.633 26.2845 108.562 26.3792 108.523Z" fill="#37474F"/>
<path d="M33.807 113.464L90.1609 75.9904C90.4064 75.8478 90.6775 75.7736 90.9524 75.7736C91.2273 75.7736 91.4984 75.8478 91.7439 75.9904L109.473 87.7803C109.568 87.8186 109.65 87.8897 109.708 87.9839C109.766 88.0782 109.797 88.1908 109.797 88.3063C109.797 88.4218 109.766 88.5345 109.708 88.6287C109.65 88.7229 109.568 88.7941 109.473 88.8323L53.1848 126.252C52.9389 126.395 52.6671 126.47 52.3915 126.47C52.1158 126.47 51.844 126.395 51.5982 126.252L33.8106 114.516C33.7141 114.48 33.6299 114.41 33.57 114.316C33.5102 114.222 33.4777 114.108 33.4773 113.992C33.4769 113.875 33.5086 113.761 33.5678 113.666C33.627 113.571 33.7107 113.501 33.807 113.464Z" fill="#263238"/>
<path d="M84.3231 92.8394L86.0844 91.67C86.1608 91.6197 86.1572 91.5359 86.0844 91.4814L84.0429 90.1234C83.9996 90.0977 83.9515 90.0843 83.9028 90.0843C83.854 90.0843 83.806 90.0977 83.7627 90.1234L81.9978 91.297C81.9213 91.3431 81.925 91.4269 81.9978 91.4814L84.0356 92.8394C84.08 92.8658 84.1293 92.8796 84.1794 92.8796C84.2294 92.8796 84.2787 92.8658 84.3231 92.8394ZM80.8405 88.1787L79.072 89.3606C78.9956 89.4109 79.0028 89.4948 79.072 89.5492L81.1098 90.903C81.1538 90.9288 81.2024 90.9422 81.2518 90.9422C81.3011 90.9422 81.3497 90.9288 81.3937 90.903L83.1586 89.7295C83.2314 89.6792 83.2277 89.5954 83.1586 89.5409L81.1171 88.1871C81.0743 88.1621 81.0269 88.149 80.9788 88.149C80.9308 88.149 80.8834 88.1621 80.8405 88.1871V88.1787ZM75.1382 92.0011L72.1542 93.9836C72.0778 94.0339 72.0814 94.1177 72.1542 94.1722L74.192 95.5301C74.2363 95.5549 74.2848 95.5678 74.334 95.5678C74.3831 95.5678 74.4317 95.5549 74.4759 95.5301L77.4599 93.5477C77.5363 93.4974 77.529 93.4135 77.4599 93.3591L75.433 92.0011C75.3876 91.9732 75.337 91.9586 75.2856 91.9586C75.2342 91.9586 75.1835 91.9732 75.1382 92.0011ZM78.2605 89.9055L76.4955 91.079C76.4228 91.1293 76.4264 91.2132 76.4955 91.2676L78.537 92.6256C78.5806 92.6504 78.6286 92.6633 78.6771 92.6633C78.7257 92.6633 78.7737 92.6504 78.8172 92.6256L80.5822 91.4521C80.655 91.4018 80.6513 91.3179 80.5822 91.2676L78.5407 89.9055C78.4974 89.8798 78.4493 89.8663 78.4006 89.8663C78.3518 89.8663 78.3038 89.8798 78.2605 89.9055ZM71.3463 94.5158L69.5814 95.6852C69.5086 95.7355 69.5123 95.8193 69.5814 95.8738L71.6229 97.2318C71.6662 97.2575 71.7142 97.2709 71.763 97.2709C71.8117 97.2709 71.8598 97.2575 71.9031 97.2318L73.668 96.0582C73.7408 96.0121 73.7372 95.9283 73.668 95.8738L71.6193 94.5158C71.5759 94.4901 71.5279 94.4767 71.4791 94.4767C71.4304 94.4767 71.3824 94.4901 71.3391 94.5158H71.3463ZM68.7663 96.23L67.005 97.4036C66.9285 97.4497 66.9322 97.5335 67.005 97.588L69.0465 98.946C69.09 98.9707 69.138 98.9836 69.1866 98.9836C69.2352 98.9836 69.2831 98.9707 69.3267 98.946L71.0916 97.7724C71.168 97.7221 71.1607 97.6383 71.0916 97.5838L69.0537 96.2259C69.0087 96.1973 68.9582 96.182 68.9068 96.1813C68.8554 96.1806 68.8046 96.1944 68.759 96.2217L68.7663 96.23ZM76.794 101.746L78.5589 100.572C78.6317 100.522 78.628 100.438 78.5589 100.384L76.5174 99.0298C76.4741 99.004 76.426 98.9906 76.3773 98.9906C76.3285 98.9906 76.2805 99.004 76.2372 99.0298L74.4723 100.203C74.3958 100.254 74.4031 100.337 74.4723 100.392L76.5101 101.746C76.5537 101.769 76.6013 101.78 76.6492 101.779C76.6972 101.777 76.7442 101.763 76.7867 101.737L76.794 101.746ZM74.2139 103.46L75.9788 102.286C76.0552 102.236 76.048 102.152 75.9788 102.098L73.941 100.744C73.897 100.718 73.8484 100.705 73.799 100.705C73.7497 100.705 73.7011 100.718 73.6571 100.744L71.8922 101.918C71.8194 101.968 71.823 102.052 71.8922 102.106L73.9337 103.464C73.9771 103.486 74.0242 103.496 74.0714 103.493C74.1186 103.491 74.1648 103.477 74.2066 103.452L74.2139 103.46ZM71.6338 105.174L73.3987 104.001C73.4752 103.95 73.4715 103.866 73.3987 103.816L71.3609 102.458C71.3176 102.432 71.2695 102.419 71.2208 102.419C71.172 102.419 71.124 102.432 71.0807 102.458L69.3158 103.632C69.2393 103.682 69.243 103.766 69.3158 103.82L71.3572 105.178C71.4002 105.199 71.4466 105.209 71.4931 105.207C71.5397 105.204 71.5852 105.191 71.6265 105.166L71.6338 105.174ZM69.0574 106.888L70.8223 105.715C70.8951 105.669 70.8914 105.585 70.8223 105.53L68.7626 104.156C68.7193 104.13 68.6713 104.116 68.6225 104.116C68.5738 104.116 68.5257 104.13 68.4824 104.156L66.7175 105.325C66.6411 105.375 66.6483 105.459 66.7175 105.514L68.7553 106.872C68.8001 106.901 68.8504 106.917 68.9018 106.918C68.9532 106.92 69.0042 106.907 69.0501 106.88L69.0574 106.888ZM81.7503 94.5745L83.5152 93.401C83.588 93.3507 83.5844 93.2669 83.5152 93.2124L81.4737 91.8544C81.4302 91.8296 81.3822 91.8168 81.3336 91.8168C81.285 91.8168 81.2371 91.8296 81.1935 91.8544L79.4286 93.028C79.3558 93.0783 79.3595 93.1621 79.4286 93.2124L81.4701 94.5703C81.513 94.5931 81.5597 94.6046 81.607 94.6039C81.6542 94.6031 81.7007 94.5902 81.743 94.5661L81.7503 94.5745ZM79.3704 100.023L83.3078 97.4036C83.3842 97.3533 83.3769 97.2695 83.3078 97.2192L78.3442 93.9249C78.3002 93.8991 78.2516 93.8857 78.2023 93.8857C78.1529 93.8857 78.1043 93.8991 78.0603 93.9249L76.0261 95.2786C75.9497 95.3289 75.9533 95.4128 76.0261 95.4672L78.6462 97.2108C78.7299 97.2653 78.7336 97.3491 78.6462 97.3952L77.0196 98.4807C76.9431 98.531 76.9468 98.6149 77.0196 98.6693L79.0611 100.023C79.1071 100.053 79.1591 100.069 79.2121 100.069C79.265 100.069 79.3171 100.053 79.3631 100.023H79.3704ZM66.1898 97.9275L64.4249 99.101C64.3485 99.1513 64.3558 99.2352 64.4249 99.2855L66.4628 100.643C66.5067 100.669 66.5554 100.683 66.6047 100.683C66.654 100.683 66.7026 100.669 66.7466 100.643L68.5079 99.4699C68.5843 99.4196 68.5807 99.3357 68.5079 99.2813L66.4664 97.9233C66.4215 97.8998 66.3725 97.8887 66.3232 97.8909C66.2739 97.8931 66.2257 97.9085 66.1826 97.9359L66.1898 97.9275ZM63.6098 99.6417L61.8448 100.815C61.7721 100.866 61.7757 100.949 61.8448 101.004L63.8863 102.358C63.9296 102.383 63.9777 102.397 64.0264 102.397C64.0752 102.397 64.1232 102.383 64.1665 102.358L65.9315 101.184C66.0042 101.134 66.0006 101.05 65.9315 100.995L63.89 99.6417C63.8451 99.6158 63.7955 99.6031 63.7453 99.6045C63.6952 99.606 63.6461 99.6216 63.6025 99.6501L63.6098 99.6417ZM50.724 118.871C50.7675 118.896 50.8155 118.909 50.8641 118.909C50.9127 118.909 50.9606 118.896 51.0042 118.871L52.7691 117.697C52.8455 117.647 52.8419 117.563 52.7691 117.513L50.7312 116.155C50.687 116.13 50.6385 116.117 50.5893 116.117C50.5401 116.117 50.4916 116.13 50.4474 116.155L48.6861 117.329C48.6097 117.379 48.6133 117.463 48.6861 117.517L50.724 118.871ZM42.9728 113.376L41.2079 114.55C41.1351 114.6 41.1388 114.684 41.2079 114.738L43.2494 116.092C43.2927 116.118 43.3408 116.131 43.3895 116.131C43.4383 116.131 43.4863 116.118 43.5296 116.092L45.2945 114.919C45.3673 114.868 45.3637 114.785 45.2945 114.73L43.2531 113.376C43.2097 113.351 43.1617 113.337 43.1129 113.337C43.0642 113.337 43.0162 113.351 42.9728 113.376ZM47.125 117.4C47.1685 117.425 47.2165 117.438 47.2651 117.438C47.3137 117.438 47.3616 117.425 47.4052 117.4L49.1701 116.226C49.2429 116.176 49.2392 116.092 49.1701 116.038L47.1286 114.68C47.0853 114.654 47.0373 114.641 46.9885 114.641C46.9398 114.641 46.8917 114.654 46.8484 114.68L45.0835 115.853C45.0107 115.904 45.0143 115.983 45.0835 116.038L47.125 117.4ZM55.2691 119.915L57.034 118.741C57.1105 118.695 57.1032 118.611 57.034 118.557L54.9962 117.199C54.9522 117.173 54.9036 117.16 54.8543 117.16C54.8049 117.16 54.7563 117.173 54.7123 117.199L52.9474 118.368C52.8746 118.418 52.8783 118.502 52.9474 118.557L54.9889 119.915C55.0319 119.941 55.0798 119.955 55.1286 119.956C55.1773 119.957 55.2255 119.944 55.2691 119.919V119.915ZM52.4088 121.625C52.453 121.649 52.5016 121.662 52.5508 121.662C52.5999 121.662 52.6485 121.649 52.6927 121.625L54.454 120.451C54.5304 120.401 54.5268 120.317 54.454 120.263L52.4125 118.905C52.3692 118.879 52.3211 118.865 52.2724 118.865C52.2236 118.865 52.1756 118.879 52.1323 118.905L50.3601 120.082C50.2836 120.128 50.2873 120.212 50.3601 120.267L52.4088 121.625ZM45.5529 111.65L43.788 112.823C43.7116 112.873 43.7152 112.957 43.788 113.008L45.8258 114.365C45.8692 114.391 45.9172 114.405 45.9659 114.405C46.0147 114.405 46.0627 114.391 46.106 114.365L47.871 113.192C47.9474 113.142 47.9438 113.058 47.871 113.003L45.8295 111.645C45.7858 111.623 45.7383 111.611 45.6904 111.613C45.6425 111.614 45.5955 111.628 45.5529 111.654V111.65ZM58.446 103.074L56.6811 104.248C56.6046 104.298 56.6119 104.382 56.6811 104.436L58.7189 105.79C58.7629 105.816 58.8115 105.829 58.8608 105.829C58.9102 105.829 58.9588 105.816 59.0028 105.79L60.7677 104.617C60.8405 104.566 60.8368 104.483 60.7677 104.428L58.7262 103.074C58.6826 103.049 58.6344 103.037 58.5856 103.037C58.5369 103.038 58.489 103.052 58.446 103.079V103.074ZM48.1403 109.94L46.3753 111.113C46.3026 111.163 46.3062 111.247 46.3753 111.297L48.4168 112.655C48.4601 112.681 48.5082 112.695 48.5569 112.695C48.6057 112.695 48.6537 112.681 48.697 112.655L50.462 111.482C50.5384 111.432 50.5311 111.348 50.462 111.293L48.4241 109.935C48.3796 109.911 48.3309 109.899 48.2818 109.9C48.2326 109.9 48.1842 109.914 48.1403 109.94ZM61.0333 101.364L59.272 102.538C59.1956 102.588 59.1993 102.672 59.272 102.726L61.3135 104.08C61.3569 104.106 61.4049 104.119 61.4536 104.119C61.5024 104.119 61.5504 104.106 61.5937 104.08L63.3587 102.907C63.4351 102.856 63.4314 102.773 63.3587 102.718L61.3208 101.364C61.275 101.336 61.2237 101.321 61.1716 101.321C61.1195 101.321 61.0682 101.336 61.0224 101.364H61.0333ZM55.8768 104.793L54.1119 105.966C54.0391 106.017 54.0428 106.1 54.1119 106.155L56.1461 107.509C56.1897 107.533 56.2376 107.546 56.2862 107.546C56.3348 107.546 56.3827 107.533 56.4263 107.509L58.1912 106.335C58.2677 106.285 58.2604 106.201 58.1912 106.151L56.1461 104.801C56.1034 104.774 56.0556 104.759 56.0069 104.758C55.9582 104.756 55.9098 104.768 55.8659 104.793H55.8768ZM53.3004 106.507L51.5355 107.68C51.4591 107.731 51.4627 107.815 51.5355 107.869L53.577 109.227C53.6203 109.253 53.6683 109.266 53.7171 109.266C53.7658 109.266 53.8139 109.253 53.8572 109.227L55.6221 108.053C55.6985 108.003 55.6949 107.919 55.6221 107.869L53.5806 106.511C53.5359 106.484 53.4861 106.469 53.4355 106.468C53.3848 106.467 53.3348 106.481 53.2895 106.507H53.3004ZM50.7203 108.225L48.9554 109.399C48.879 109.445 48.8863 109.529 48.9554 109.583L50.9933 110.941C51.0372 110.967 51.0858 110.98 51.1352 110.98C51.1845 110.98 51.2331 110.967 51.2771 110.941L53.042 109.772C53.1148 109.722 53.1112 109.638 53.042 109.583L51.0005 108.225C50.9558 108.197 50.9058 108.183 50.855 108.183C50.8041 108.183 50.7541 108.197 50.7094 108.225H50.7203ZM63.9009 110.321L65.6658 109.147C65.7422 109.097 65.7386 109.013 65.6658 108.959L63.6243 107.601C63.5807 107.576 63.5328 107.563 63.4842 107.563C63.4356 107.563 63.3877 107.576 63.3441 107.601L61.5792 108.774C61.5028 108.825 61.5064 108.908 61.5792 108.959L63.6207 110.317C63.6629 110.34 63.7091 110.351 63.7557 110.351C63.8024 110.35 63.8483 110.337 63.89 110.313L63.9009 110.321ZM86.5502 84.4066L84.7852 85.5802C84.7125 85.6305 84.7161 85.7143 84.7852 85.7646L86.8267 87.1225C86.8701 87.1483 86.9181 87.1617 86.9669 87.1617C87.0156 87.1617 87.0636 87.1483 87.1069 87.1225L88.8719 85.949C88.9483 85.8987 88.941 85.8149 88.8719 85.7604L86.834 84.4024C86.7887 84.3749 86.7383 84.3602 86.6871 84.3595C86.6358 84.3587 86.5852 84.372 86.5393 84.3982L86.5502 84.4066ZM83.4279 86.4813L81.6666 87.6548C81.5902 87.7051 81.5938 87.7889 81.6666 87.8434L83.7081 89.1972C83.7514 89.2229 83.7995 89.2363 83.8482 89.2363C83.8969 89.2363 83.945 89.2229 83.9883 89.1972L85.7532 88.0236C85.8297 87.9734 85.826 87.8895 85.7532 87.835L83.7154 86.4813C83.6702 86.4514 83.6192 86.4349 83.5671 86.4335C83.515 86.432 83.4634 86.4456 83.417 86.4729L83.4279 86.4813ZM89.1303 82.7092L87.3653 83.8827C87.2889 83.9288 87.2962 84.0126 87.3653 84.0671L89.4032 85.4251C89.4474 85.4499 89.4959 85.4628 89.5451 85.4628C89.5943 85.4628 89.6428 85.4499 89.687 85.4251L91.4519 84.2515C91.5247 84.2013 91.5211 84.1174 91.4519 84.0629L89.4105 82.705C89.3673 82.6738 89.318 82.6556 89.2672 82.6519C89.2164 82.6483 89.1655 82.6593 89.1193 82.684L89.1303 82.7092ZM75.7823 98.5604L77.5472 97.3868C77.62 97.3365 77.6164 97.2527 77.5472 97.1982L75.5057 95.8445C75.4624 95.8187 75.4144 95.8053 75.3656 95.8053C75.3169 95.8053 75.2688 95.8187 75.2255 95.8445L73.4606 97.018C73.3878 97.0683 73.3915 97.1521 73.4606 97.2066L75.5021 98.5604C75.5457 98.5802 75.5926 98.5883 75.6393 98.5839C75.686 98.5796 75.7312 98.5629 75.7714 98.5352L75.7823 98.5604ZM91.9905 80.9992C91.9466 80.9734 91.8979 80.96 91.8486 80.96C91.7993 80.96 91.7506 80.9734 91.7067 80.9992L89.9454 82.1685C89.869 82.2188 89.8726 82.3026 89.9454 82.3571L91.9869 83.7151C92.0302 83.7408 92.0782 83.7542 92.127 83.7542C92.1757 83.7542 92.2238 83.7408 92.2671 83.7151L94.032 82.5415C94.1084 82.4954 94.1048 82.4116 94.032 82.3571L91.9905 80.9992ZM66.4809 108.619L68.2459 107.45C68.3223 107.4 68.315 107.316 68.2459 107.261L66.208 105.903C66.1641 105.878 66.1154 105.864 66.0661 105.864C66.0168 105.864 65.9681 105.878 65.9242 105.903L64.152 107.048C64.0792 107.094 64.0828 107.178 64.152 107.232L66.1935 108.59C66.236 108.616 66.2833 108.629 66.3313 108.63C66.3794 108.631 66.4269 108.619 66.47 108.594L66.4809 108.619ZM98.1041 87.592L99.869 86.4184C99.9454 86.3681 99.9382 86.2843 99.869 86.234L97.8312 84.876C97.7872 84.8503 97.7386 84.8368 97.6892 84.8368C97.6399 84.8368 97.5913 84.8503 97.5473 84.876L95.786 86.0496C95.7096 86.0999 95.7132 86.1837 95.786 86.2382L97.8275 87.5961C97.871 87.6138 97.9173 87.6203 97.9632 87.6153C98.009 87.6102 98.0534 87.5937 98.0932 87.5668L98.1041 87.592ZM92.6128 87.3698L94.3777 86.1963C94.4505 86.146 94.4469 86.0622 94.3777 86.0077L92.3362 84.6539C92.2929 84.6282 92.2449 84.6147 92.1961 84.6147C92.1474 84.6147 92.0993 84.6282 92.056 84.6539L90.2911 85.8274C90.2147 85.8777 90.222 85.9616 90.2911 86.016L92.3289 87.3698C92.3731 87.3897 92.4207 87.3978 92.4679 87.3934C92.5152 87.3891 92.561 87.3724 92.6019 87.3447L92.6128 87.3698ZM94.9054 82.9397C94.8614 82.9139 94.8128 82.9005 94.7635 82.9005C94.7141 82.9005 94.6655 82.9139 94.6215 82.9397L92.8603 84.1132C92.7838 84.1635 92.7875 84.2474 92.8603 84.3018L94.9017 85.6556C94.9451 85.6813 94.9931 85.6948 95.0418 85.6948C95.0906 85.6948 95.1386 85.6813 95.1819 85.6556L96.9469 84.4821C97.0233 84.4318 97.0197 84.3479 96.9469 84.2934L94.9054 82.9397ZM95.4476 82.5751L100.404 85.8735C100.448 85.8983 100.495 85.9112 100.544 85.9112C100.593 85.9112 100.641 85.8983 100.684 85.8735L102.449 84.7C102.522 84.6497 102.518 84.5659 102.449 84.5156L97.4927 81.2171C97.4492 81.1923 97.4012 81.1795 97.3526 81.1795C97.304 81.1795 97.2561 81.1923 97.2125 81.2171L95.4476 82.3906C95.353 82.4158 95.3566 82.4996 95.4476 82.5499V82.5751ZM89.465 86.3472L87.7001 87.5207C87.6273 87.571 87.631 87.6548 87.7001 87.7093L89.7416 89.0631C89.7849 89.0888 89.833 89.1022 89.8817 89.1022C89.9304 89.1022 89.9785 89.0888 90.0218 89.0631L91.7867 87.8895C91.8632 87.8392 91.8559 87.7554 91.7867 87.7009L89.7489 86.3472C89.7044 86.3173 89.6543 86.3006 89.6029 86.2984C89.5515 86.2962 89.5004 86.3086 89.4541 86.3346L89.465 86.3472ZM70.0472 99.2393L68.2823 100.413C68.2058 100.463 68.2131 100.547 68.2823 100.601L70.3201 101.959C70.3641 101.985 70.4127 101.999 70.462 101.999C70.5114 101.999 70.56 101.985 70.604 101.959L72.3653 100.786C72.4417 100.736 72.438 100.656 72.3653 100.601L70.3383 99.2477C70.2939 99.2196 70.2443 99.2042 70.1936 99.2027C70.143 99.2012 70.0928 99.2138 70.0472 99.2393ZM95.2329 89.2768C95.2769 89.3026 95.3255 89.316 95.3748 89.316C95.4241 89.316 95.4728 89.3026 95.5167 89.2768L97.2817 88.1033C97.3545 88.0572 97.3508 87.9734 97.2817 87.9189L95.2293 86.5525C95.1857 86.5278 95.1377 86.5149 95.0892 86.5149C95.0406 86.5149 94.9926 86.5278 94.9491 86.5525L93.1841 87.7261C93.1077 87.7764 93.115 87.8602 93.1841 87.9147L95.2329 89.2768ZM72.6236 97.5251L70.8623 98.6987C70.7859 98.749 70.7896 98.8328 70.8623 98.8873L72.9038 100.245C72.9474 100.27 72.9953 100.283 73.0439 100.283C73.0925 100.283 73.1405 100.27 73.184 100.245L74.949 99.0717C75.0254 99.0214 75.0217 98.9376 74.949 98.8873L72.9111 97.5293C72.867 97.5022 72.8178 97.4877 72.7678 97.487C72.7178 97.4862 72.6683 97.4993 72.6236 97.5251ZM53.2968 117.148C53.3403 117.173 53.3883 117.186 53.4369 117.186C53.4855 117.186 53.5334 117.173 53.577 117.148L55.3419 115.975C55.4147 115.925 55.411 115.841 55.3419 115.79L53.3004 114.433C53.2571 114.407 53.209 114.393 53.1603 114.393C53.1116 114.393 53.0635 114.407 53.0202 114.433L51.2553 115.606C51.1825 115.656 51.1861 115.74 51.2553 115.795L53.2968 117.148ZM49.4176 112.957L47.6526 114.127C47.5762 114.177 47.5799 114.261 47.6526 114.315L49.6905 115.673C49.7344 115.699 49.7831 115.712 49.8324 115.712C49.8817 115.712 49.9304 115.699 49.9743 115.673L51.7356 114.5C51.812 114.453 51.8084 114.37 51.7356 114.315L49.6978 112.957C49.6544 112.931 49.6064 112.918 49.5577 112.918C49.5089 112.918 49.4609 112.931 49.4176 112.957ZM56.1461 115.472L57.9074 114.298C57.9838 114.248 57.9802 114.164 57.9074 114.11L55.8659 112.756C55.8226 112.73 55.7746 112.717 55.7258 112.717C55.6771 112.717 55.629 112.73 55.5857 112.756L53.8208 113.93C53.7444 113.98 53.748 114.064 53.8208 114.118L55.8586 115.472C55.9031 115.498 55.9524 115.512 56.0024 115.512C56.0524 115.512 56.1017 115.498 56.1461 115.472ZM58.7225 113.758L60.4875 112.584C60.5639 112.534 60.5566 112.45 60.4875 112.396L58.4496 111.042C58.4057 111.016 58.357 111.003 58.3077 111.003C58.2584 111.003 58.2097 111.016 58.1658 111.042L56.4008 112.215C56.3281 112.266 56.3317 112.349 56.4008 112.404L58.4423 113.758C58.4882 113.783 58.5389 113.795 58.5897 113.792C58.6406 113.789 58.69 113.771 58.7335 113.741L58.7225 113.758ZM61.3026 112.044L63.0675 110.87C63.1403 110.82 63.1367 110.736 63.0675 110.681L61.0261 109.323C60.9825 109.299 60.9345 109.286 60.8859 109.286C60.8374 109.286 60.7894 109.299 60.7458 109.323L58.9809 110.497C58.9045 110.547 58.9118 110.631 58.9809 110.681L61.0188 112.039C61.065 112.065 61.1161 112.078 61.1675 112.076C61.2189 112.073 61.2691 112.057 61.3135 112.027L61.3026 112.044ZM51.9831 111.26L50.2181 112.433C50.1454 112.484 50.149 112.567 50.2181 112.622L52.2596 113.98C52.3032 114.005 52.3512 114.018 52.3997 114.018C52.4483 114.018 52.4963 114.005 52.5398 113.98L54.3048 112.806C54.3812 112.756 54.3739 112.672 54.3048 112.622L52.2669 111.264C52.2255 111.238 52.1796 111.222 52.1325 111.219C52.0853 111.215 52.0381 111.223 51.994 111.243L51.9831 111.26ZM54.5631 109.546L52.7982 110.719C52.7218 110.769 52.7291 110.853 52.7982 110.908L54.8361 112.266C54.8803 112.29 54.9288 112.303 54.978 112.303C55.0272 112.303 55.0757 112.29 55.1199 112.266L56.8848 111.092C56.9576 111.042 56.954 110.958 56.8848 110.908L54.8433 109.55C54.8028 109.523 54.7575 109.507 54.7108 109.503C54.6641 109.5 54.6173 109.508 54.5741 109.529L54.5631 109.546ZM64.8798 102.672L63.1185 103.846C63.0421 103.896 63.0457 103.98 63.1185 104.03L65.16 105.388C65.2033 105.414 65.2513 105.427 65.3001 105.427C65.3488 105.427 65.3969 105.414 65.4402 105.388L67.2051 104.214C67.2815 104.164 67.2779 104.08 67.2051 104.026L65.1673 102.668C65.1223 102.643 65.073 102.63 65.0231 102.631C64.9732 102.632 64.9242 102.646 64.8798 102.672ZM62.3033 104.386L60.5384 105.56C60.462 105.61 60.4693 105.694 60.5384 105.744L62.5763 107.102C62.6202 107.128 62.6689 107.141 62.7182 107.141C62.7675 107.141 62.8162 107.128 62.8601 107.102L64.625 105.929C64.6978 105.878 64.6942 105.794 64.625 105.74L62.5836 104.382C62.5407 104.359 62.4939 104.348 62.4467 104.348C62.3995 104.349 62.353 104.362 62.3106 104.386H62.3033ZM67.4598 100.958L65.6949 102.131C65.6221 102.177 65.6258 102.261 65.6949 102.316L67.7364 103.674C67.7797 103.699 67.8278 103.713 67.8765 103.713C67.9253 103.713 67.9733 103.699 68.0166 103.674L69.7815 102.504C69.8543 102.454 69.8507 102.37 69.7815 102.316L67.7401 100.958C67.6977 100.933 67.651 100.921 67.6036 100.921C67.5562 100.921 67.5095 100.933 67.4671 100.958H67.4598ZM57.1469 107.815L55.3819 108.988C55.3055 109.038 55.3091 109.122 55.3819 109.177L57.4234 110.53C57.4667 110.556 57.5148 110.57 57.5635 110.57C57.6123 110.57 57.6603 110.556 57.7036 110.53L59.4685 109.357C59.545 109.307 59.5413 109.223 59.4685 109.168L57.4271 107.815C57.3847 107.79 57.338 107.778 57.2906 107.778C57.2432 107.778 57.1965 107.79 57.1541 107.815H57.1469ZM59.7233 106.1L57.9584 107.274C57.8856 107.324 57.8892 107.408 57.9584 107.463L59.9998 108.816C60.0432 108.842 60.0912 108.855 60.1399 108.855C60.1887 108.855 60.2367 108.842 60.2801 108.816L62.045 107.643C62.1214 107.592 62.1141 107.509 62.045 107.454L60.0035 106.1C59.9611 106.076 59.9144 106.063 59.867 106.063C59.8197 106.063 59.7729 106.076 59.7306 106.1H59.7233ZM57.8419 118.205L59.6068 117.031C59.6796 116.981 59.676 116.897 59.6068 116.847L57.5617 115.472C57.5184 115.446 57.4703 115.433 57.4216 115.433C57.3729 115.433 57.3248 115.446 57.2815 115.472L55.5166 116.645C55.4401 116.696 55.4474 116.78 55.5166 116.834L57.5544 118.192C57.5992 118.221 57.6492 118.237 57.7005 118.239C57.7517 118.241 57.8027 118.23 57.8492 118.205H57.8419ZM42.7072 116.444L40.6693 115.091C40.6254 115.065 40.5767 115.051 40.5274 115.051C40.4781 115.051 40.4295 115.065 40.3855 115.091L38.6206 116.264C38.5478 116.314 38.5514 116.398 38.6206 116.453L40.6621 117.806C40.7054 117.832 40.7534 117.846 40.8022 117.846C40.8509 117.846 40.8989 117.832 40.9423 117.806L42.7072 116.633C42.8018 116.583 42.7945 116.499 42.7145 116.444H42.7072ZM46.5718 117.752L44.534 116.394C44.4898 116.369 44.4412 116.356 44.3921 116.356C44.3429 116.356 44.2943 116.369 44.2501 116.394L41.5354 118.196C41.4626 118.247 41.4663 118.33 41.5354 118.385L43.5769 119.743C43.6202 119.769 43.6683 119.782 43.717 119.782C43.7658 119.782 43.8138 119.769 43.8571 119.743L46.5718 117.941C46.6847 117.89 46.6592 117.806 46.5791 117.752H46.5718ZM39.5776 113.825L37.5398 112.467C37.4958 112.441 37.4472 112.428 37.3979 112.428C37.3485 112.428 37.2999 112.441 37.2559 112.467L35.0725 113.913C34.9997 113.963 35.0034 114.047 35.0725 114.097L37.114 115.455C37.1573 115.481 37.2054 115.494 37.2541 115.494C37.3029 115.494 37.3509 115.481 37.3942 115.455L39.5776 114.009C39.6722 113.959 39.665 113.875 39.5849 113.825H39.5776ZM41.2443 112.714C41.2876 112.74 41.3357 112.753 41.3844 112.753C41.4332 112.753 41.4812 112.74 41.5245 112.714L43.2894 111.541C43.3622 111.49 43.3586 111.406 43.2894 111.352L41.2443 110.023C41.201 109.998 41.1529 109.984 41.1042 109.984C41.0555 109.984 41.0074 109.998 40.9641 110.023L39.1992 111.197C39.1264 111.247 39.13 111.331 39.1992 111.386L41.2443 112.714ZM50.1745 119.244L48.1403 117.882C48.0969 117.856 48.0489 117.843 48.0002 117.843C47.9514 117.843 47.9034 117.856 47.8601 117.882L44.4648 120.137C44.3921 120.187 44.3957 120.271 44.4648 120.325L46.5063 121.679C46.5497 121.705 46.5977 121.718 46.6464 121.718C46.6952 121.718 46.7432 121.705 46.7865 121.679L50.1781 119.424C50.2582 119.378 50.2545 119.294 50.1745 119.244ZM51.8666 121.993L49.8251 120.636C49.7816 120.611 49.7336 120.598 49.685 120.598C49.6364 120.598 49.5885 120.611 49.5449 120.636L47.3615 122.077C47.2887 122.128 47.2924 122.211 47.3615 122.266L49.403 123.624C49.4466 123.649 49.4945 123.662 49.5431 123.662C49.5917 123.662 49.6396 123.649 49.6832 123.624L51.8666 122.182C51.9503 122.128 51.9467 122.044 51.8666 121.989V121.993ZM60.422 99.9644C60.4662 99.9892 60.5147 100.002 60.5639 100.002C60.6131 100.002 60.6616 99.9892 60.7058 99.9644L62.4707 98.7909C62.5435 98.7406 62.5399 98.6568 62.4707 98.6065L60.4293 97.2485C60.3859 97.2228 60.3379 97.2094 60.2891 97.2094C60.2404 97.2094 60.1924 97.2228 60.149 97.2485L58.3841 98.4221C58.3077 98.4724 58.315 98.5562 58.3841 98.6107L60.422 99.9644ZM55.2655 103.393C55.3094 103.419 55.3581 103.432 55.4074 103.432C55.4567 103.432 55.5054 103.419 55.5493 103.393L57.3106 102.219C57.387 102.173 57.3834 102.089 57.3106 102.035L55.2691 100.677C55.2255 100.652 55.1776 100.639 55.129 100.639C55.0804 100.639 55.0325 100.652 54.9889 100.677L53.2349 101.85C53.1585 101.901 53.1621 101.985 53.2349 102.039L55.2655 103.393ZM43.828 110.996C43.872 111.021 43.9206 111.035 43.9699 111.035C44.0193 111.035 44.0679 111.021 44.1119 110.996L45.8731 109.822C45.9496 109.772 45.9459 109.688 45.8731 109.634L43.8317 108.28C43.7883 108.254 43.7403 108.241 43.6915 108.241C43.6428 108.241 43.5948 108.254 43.5514 108.28L41.7865 109.453C41.7101 109.504 41.7174 109.587 41.7865 109.642L43.828 110.996ZM57.8455 101.679C57.8891 101.703 57.9371 101.716 57.9856 101.716C58.0342 101.716 58.0822 101.703 58.1257 101.679L59.8907 100.505C59.9671 100.455 59.9598 100.371 59.8907 100.321L57.8528 98.9627C57.8089 98.937 57.7602 98.9235 57.7109 98.9235C57.6616 98.9235 57.6129 98.937 57.569 98.9627L55.804 100.136C55.7313 100.187 55.7349 100.27 55.804 100.325L57.8455 101.679ZM52.689 105.107C52.7324 105.133 52.7804 105.146 52.8291 105.146C52.8779 105.146 52.9259 105.133 52.9692 105.107L54.7342 103.938C54.807 103.887 54.8033 103.804 54.7342 103.749L52.6927 102.391C52.6494 102.365 52.6013 102.352 52.5526 102.352C52.5038 102.352 52.4558 102.365 52.4125 102.391L50.6475 103.565C50.5748 103.611 50.5784 103.695 50.6475 103.749L52.689 105.107ZM53.2858 122.207C53.2419 122.181 53.1932 122.168 53.1439 122.168C53.0946 122.168 53.046 122.181 53.002 122.207L50.2873 124.014C50.2145 124.064 50.2181 124.148 50.2873 124.198L52.3288 125.556C52.3721 125.582 52.4201 125.595 52.4689 125.595C52.5176 125.595 52.5657 125.582 52.609 125.556L55.3237 123.75C55.3965 123.699 55.3928 123.615 55.3237 123.561L53.2858 122.207ZM48.9882 107.567C49.0317 107.592 49.0797 107.605 49.1283 107.605C49.1768 107.605 49.2248 107.592 49.2684 107.567L51.0333 106.394C51.1061 106.343 51.1024 106.26 51.0333 106.205L48.9918 104.847C48.9482 104.822 48.9003 104.81 48.8517 104.81C48.8031 104.81 48.7552 104.822 48.7116 104.847L46.9467 106.021C46.8739 106.071 46.8775 106.155 46.9467 106.205L48.9882 107.567ZM46.4081 109.282C46.4514 109.307 46.4994 109.321 46.5482 109.321C46.5969 109.321 46.645 109.307 46.6883 109.282L48.4532 108.108C48.5296 108.058 48.526 107.974 48.4532 107.919L46.4154 106.561C46.3712 106.537 46.3226 106.524 46.2734 106.524C46.2243 106.524 46.1757 106.537 46.1315 106.561L44.3702 107.735C44.2938 107.785 44.2974 107.869 44.3702 107.919L46.4081 109.282ZM101.059 90.421C101.016 90.3953 100.968 90.3819 100.919 90.3819C100.87 90.3819 100.822 90.3953 100.779 90.421L96.4338 93.3088C96.361 93.3591 96.3646 93.4429 96.4338 93.4974L98.4753 94.8553C98.5188 94.8801 98.5668 94.893 98.6154 94.893C98.664 94.893 98.7119 94.8801 98.7555 94.8553L103.108 92.0011C103.184 91.9508 103.181 91.867 103.108 91.8167L101.059 90.421ZM95.3566 94.1931C95.313 94.1684 95.2651 94.1555 95.2165 94.1555C95.1679 94.1555 95.12 94.1684 95.0764 94.1931L93.3115 95.3667C93.2387 95.417 93.2423 95.5008 93.3115 95.5511L95.353 96.909C95.3966 96.9338 95.4445 96.9467 95.4931 96.9467C95.5417 96.9467 95.5896 96.9338 95.6332 96.909L97.3981 95.7355C97.4709 95.6852 97.4673 95.6014 97.3981 95.5469L95.3566 94.1931ZM60.422 116.453L62.1869 115.279C62.2633 115.229 62.2597 115.145 62.1869 115.095L60.149 113.795C60.1057 113.77 60.0577 113.756 60.0089 113.756C59.9602 113.756 59.9122 113.77 59.8688 113.795L58.1039 114.969C58.0275 115.019 58.0311 115.103 58.1039 115.158L60.1454 116.516C60.1906 116.536 60.2395 116.545 60.2881 116.541C60.3367 116.536 60.3837 116.519 60.4256 116.49L60.422 116.453ZM90.1965 97.6257C90.1532 97.6 90.1051 97.5866 90.0564 97.5866C90.0076 97.5866 89.9596 97.6 89.9163 97.6257L88.1514 98.7993C88.0749 98.8496 88.0822 98.9334 88.1514 98.9879L90.1892 100.342C90.2332 100.367 90.2818 100.381 90.3311 100.381C90.3805 100.381 90.4291 100.367 90.473 100.342L92.238 99.1681C92.3108 99.1178 92.3071 99.034 92.238 98.9795L90.1965 97.6257ZM103.635 88.69C103.591 88.6643 103.543 88.6509 103.493 88.6509C103.444 88.6509 103.396 88.6643 103.352 88.69L101.587 89.8636C101.514 89.9139 101.517 89.9977 101.587 90.0522L103.628 91.406C103.671 91.4317 103.719 91.4451 103.768 91.4451C103.817 91.4451 103.865 91.4317 103.908 91.406L105.673 90.2324C105.75 90.1821 105.742 90.0983 105.673 90.0438L103.635 88.69ZM108.253 88.3296L103.297 85.0353C103.254 85.0096 103.206 84.9962 103.157 84.9962C103.108 84.9962 103.06 85.0096 103.017 85.0353L101.252 86.2088C101.175 86.2549 101.183 86.3388 101.252 86.3933L106.205 89.6876C106.249 89.7133 106.297 89.7268 106.346 89.7268C106.396 89.7268 106.444 89.7133 106.488 89.6876L108.253 88.514C108.341 88.5056 108.337 88.4218 108.257 88.3673L108.253 88.3296ZM80.5603 104.03C80.5168 104.005 80.4688 103.992 80.4202 103.992C80.3717 103.992 80.3237 104.005 80.2801 104.03L78.0967 105.472C78.0203 105.522 78.0276 105.606 78.0967 105.66L80.1346 107.018C80.1788 107.043 80.2273 107.056 80.2765 107.056C80.3257 107.056 80.3742 107.043 80.4184 107.018L82.6018 105.576C82.6746 105.526 82.671 105.442 82.6018 105.388L80.5603 104.03ZM87.0778 99.7381C87.0345 99.7124 86.9865 99.6989 86.9377 99.6989C86.889 99.6989 86.841 99.7124 86.7976 99.7381L84.0829 101.545C84.0101 101.595 84.0138 101.679 84.0829 101.733L86.1244 103.087C86.1677 103.113 86.2158 103.126 86.2645 103.126C86.3133 103.126 86.3613 103.113 86.4046 103.087L89.1193 101.28C89.1921 101.23 89.1885 101.146 89.1193 101.096L87.0778 99.7381ZM74.5923 108.041C74.549 108.015 74.501 108.002 74.4522 108.002C74.4035 108.002 74.3555 108.015 74.3121 108.041L59.7888 117.681C59.7124 117.731 59.7196 117.815 59.7888 117.869L61.8266 119.227C61.8708 119.252 61.9194 119.265 61.9686 119.265C62.0177 119.265 62.0663 119.252 62.1105 119.227L76.6302 109.587C76.7066 109.537 76.703 109.453 76.6302 109.403L74.5923 108.041ZM59.2575 118.238C59.2135 118.212 59.1649 118.199 59.1156 118.199C59.0662 118.199 59.0176 118.212 58.9736 118.238L56.7902 119.68C56.7174 119.73 56.7211 119.814 56.7902 119.869L58.8317 121.222C58.875 121.248 58.9231 121.261 58.9718 121.261C59.0206 121.261 59.0686 121.248 59.1119 121.222L61.2953 119.776C61.3718 119.73 61.3645 119.646 61.2953 119.592L59.2575 118.238ZM77.58 106.054C77.536 106.029 77.4874 106.015 77.4381 106.015C77.3887 106.015 77.3401 106.029 77.2961 106.054L75.1127 107.496C75.0363 107.546 75.0399 107.63 75.1127 107.685L77.1542 109.038C77.1975 109.064 77.2456 109.078 77.2943 109.078C77.3431 109.078 77.3911 109.064 77.4344 109.038L79.6178 107.592C79.6943 107.546 79.687 107.463 79.6178 107.408L77.58 106.054ZM56.2698 120.225C56.2265 120.199 56.1785 120.186 56.1297 120.186C56.081 120.186 56.033 120.199 55.9896 120.225L53.8062 121.671C53.7298 121.721 53.7371 121.805 53.8062 121.859L55.8441 123.213C55.888 123.239 55.9367 123.252 55.986 123.252C56.0353 123.252 56.084 123.239 56.1279 123.213L58.3113 121.767C58.3878 121.717 58.3841 121.633 58.3113 121.583L56.2698 120.225ZM83.5625 102.085C83.5186 102.059 83.4699 102.046 83.4206 102.046C83.3713 102.046 83.3227 102.059 83.2787 102.085L81.0953 103.531C81.0189 103.581 81.0225 103.665 81.0953 103.716L83.1368 105.074C83.1803 105.098 83.2283 105.111 83.2769 105.111C83.3255 105.111 83.3734 105.098 83.417 105.074L85.6004 103.628C85.6768 103.577 85.6695 103.493 85.6004 103.439L83.5625 102.085ZM92.7911 95.945C92.7469 95.9202 92.6984 95.9073 92.6492 95.9073C92.6 95.9073 92.5515 95.9202 92.5073 95.945L90.746 97.1186C90.6696 97.1689 90.6732 97.2527 90.746 97.303L92.7875 98.661C92.8308 98.6867 92.8788 98.7001 92.9276 98.7001C92.9763 98.7001 93.0243 98.6867 93.0677 98.661L94.8326 97.4874C94.909 97.4371 94.9054 97.3533 94.8326 97.2988L92.7911 95.945ZM98.4425 91.2215L100.204 90.048C100.28 89.9977 100.277 89.9139 100.204 89.8594L98.1623 88.5056C98.119 88.4799 98.071 88.4665 98.0222 88.4665C97.9735 88.4665 97.9254 88.4799 97.8821 88.5056L96.1172 89.6792C96.0408 89.7295 96.0444 89.8133 96.1172 89.8678L98.155 91.2215C98.1981 91.246 98.2454 91.2586 98.2933 91.2586C98.3413 91.2586 98.3886 91.246 98.4316 91.2215H98.4425ZM86.9104 91.1335L88.6754 89.96C88.7518 89.9139 88.7445 89.8301 88.6754 89.7756L86.6375 88.4176C86.5933 88.3928 86.5448 88.3799 86.4956 88.3799C86.4464 88.3799 86.3979 88.3928 86.3537 88.4176L84.5887 89.5912C84.516 89.6415 84.5196 89.7253 84.5887 89.7798L86.6302 91.1377C86.6724 91.1607 86.7186 91.1723 86.7653 91.1716C86.812 91.1709 86.8579 91.1579 86.8995 91.1335H86.9104ZM81.088 102.773L86.2445 99.3441C86.3173 99.2938 86.3136 99.21 86.2445 99.1555L84.1666 97.7976C84.123 97.7728 84.0751 97.7599 84.0265 97.7599C83.9779 97.7599 83.93 97.7728 83.8864 97.7976L78.7263 101.222C78.6499 101.272 78.6535 101.356 78.7263 101.41L80.7641 102.764C80.8089 102.793 80.8592 102.809 80.9106 102.811C80.962 102.812 81.0129 102.799 81.0589 102.773H81.088ZM95.6004 92.9274C95.6438 92.9531 95.6918 92.9665 95.7405 92.9665C95.7893 92.9665 95.8373 92.9531 95.8806 92.9274L97.6456 91.7538C97.7184 91.7035 97.7147 91.6197 97.6456 91.5652L95.6041 90.2115C95.5607 90.1857 95.5127 90.1723 95.464 90.1723C95.4152 90.1723 95.3672 90.1857 95.3239 90.2115L93.5589 91.385C93.4862 91.4353 93.4898 91.5191 93.5589 91.5736L95.6004 92.9274ZM92.9658 90.9994L94.7307 89.8259C94.8035 89.7756 94.7999 89.6917 94.7307 89.6373L92.6892 88.2793C92.6459 88.2536 92.5979 88.2402 92.5491 88.2402C92.5004 88.2402 92.4523 88.2536 92.409 88.2793L90.6441 89.4529C90.5713 89.499 90.5749 89.5828 90.6441 89.6373L92.6856 90.9952C92.725 91.0156 92.7676 91.0265 92.8107 91.0272C92.8539 91.0279 92.8968 91.0185 92.9367 90.9994H92.9658ZM78.5079 104.487L80.2729 103.313C80.3456 103.263 80.342 103.179 80.2729 103.129L78.2314 101.771C78.188 101.745 78.14 101.732 78.0913 101.732C78.0425 101.732 77.9945 101.745 77.9512 101.771L76.1862 102.944C76.1135 102.995 76.1171 103.079 76.1862 103.133L78.2277 104.491C78.2676 104.51 78.3105 104.519 78.3536 104.519C78.3968 104.518 78.4394 104.507 78.4788 104.487H78.5079ZM89.8981 96.7204C89.9414 96.7462 89.9894 96.7596 90.0382 96.7596C90.0869 96.7596 90.135 96.7462 90.1783 96.7204L91.9432 95.5469C92.0196 95.4966 92.016 95.4128 91.9432 95.3625L89.9017 94.0045C89.8582 93.9797 89.8102 93.9669 89.7616 93.9669C89.713 93.9669 89.6651 93.9797 89.6215 94.0045L87.8566 95.178C87.7802 95.2283 87.7838 95.3122 87.8566 95.3667L89.8981 96.7204ZM65.6149 113.066L67.3798 111.893C67.4526 111.842 67.4489 111.759 67.3798 111.704L65.3383 110.35C65.295 110.325 65.2469 110.311 65.1982 110.311C65.1495 110.311 65.1014 110.325 65.0581 110.35L63.2932 111.524C63.2167 111.574 63.224 111.658 63.2932 111.712L65.331 113.066C65.3714 113.086 65.4149 113.096 65.4588 113.095C65.5027 113.095 65.5459 113.083 65.5858 113.062L65.6149 113.066ZM68.1913 111.352L69.9562 110.178C70.0326 110.128 70.029 110.044 69.9562 109.99L67.9184 108.632C67.8748 108.607 67.8269 108.594 67.7783 108.594C67.7297 108.594 67.6817 108.607 67.6382 108.632L65.8732 109.805C65.7968 109.856 65.8005 109.94 65.8732 109.99L67.9147 111.348C67.9527 111.366 67.9935 111.376 68.0348 111.376C68.0761 111.376 68.1169 111.366 68.1549 111.348L68.1913 111.352ZM63.0348 114.78L64.7997 113.607C64.8761 113.557 64.8689 113.473 64.7997 113.418L62.7619 112.064C62.7179 112.039 62.6693 112.025 62.6199 112.025C62.5706 112.025 62.522 112.039 62.478 112.064L60.7131 113.238C60.6403 113.288 60.644 113.372 60.7131 113.427L62.7546 114.78C62.7943 114.8 62.8372 114.81 62.8805 114.809C62.9238 114.809 62.9665 114.797 63.0057 114.776L63.0348 114.78ZM73.3223 107.928L75.0836 106.758C75.16 106.708 75.1564 106.624 75.0836 106.57L73.0421 105.212C72.9988 105.186 72.9508 105.173 72.902 105.173C72.8533 105.173 72.8052 105.186 72.7619 105.212L70.997 106.385C70.9206 106.431 70.9278 106.515 70.997 106.57L73.0348 107.928C73.0793 107.954 73.1286 107.968 73.1786 107.968C73.2286 107.968 73.2779 107.954 73.3223 107.928ZM70.7422 109.646L72.5072 108.473C72.58 108.422 72.5763 108.338 72.5072 108.284L70.4657 106.926C70.4221 106.901 70.3742 106.888 70.3256 106.888C70.277 106.888 70.2291 106.901 70.1855 106.926L68.4205 108.1C68.3478 108.15 68.3514 108.234 68.4205 108.284L70.462 109.642C70.5062 109.665 70.5544 109.677 70.603 109.675C70.6516 109.674 70.6992 109.66 70.7422 109.634V109.646ZM75.8988 106.214L77.6637 105.04C77.7401 104.99 77.7328 104.906 77.6637 104.856L75.6258 103.498C75.5816 103.473 75.5331 103.46 75.4839 103.46C75.4347 103.46 75.3862 103.473 75.342 103.498L73.5807 104.671C73.5043 104.721 73.5079 104.805 73.5807 104.86L75.6222 106.218C75.6664 106.239 75.7142 106.249 75.7621 106.246C75.8101 106.243 75.8568 106.228 75.8988 106.201V106.214ZM87.6965 80.8483C87.7404 80.874 87.7891 80.8875 87.8384 80.8875C87.8877 80.8875 87.9364 80.874 87.9803 80.8483L89.7452 79.6747C89.818 79.6286 89.8144 79.5448 89.7452 79.4903L89.203 79.1299C89.1591 79.1041 89.1104 79.0907 89.0611 79.0907C89.0118 79.0907 88.9631 79.1041 88.9192 79.1299L87.1543 80.3034C87.0815 80.3537 87.0851 80.4375 87.1543 80.492L87.6965 80.8483ZM75.0108 90.2785C75.0541 90.3043 75.1022 90.3177 75.1509 90.3177C75.1997 90.3177 75.2477 90.3043 75.291 90.2785L77.056 89.105C77.1287 89.0547 77.1251 88.9709 77.056 88.9164L75.0145 87.5626C74.9711 87.5369 74.9231 87.5235 74.8744 87.5235C74.8256 87.5235 74.7776 87.5369 74.7343 87.5626L72.9693 88.7361C72.8966 88.7864 72.9002 88.8703 72.9693 88.9248L75.0108 90.2785ZM80.1637 86.8375C80.207 86.8633 80.255 86.8767 80.3038 86.8767C80.3525 86.8767 80.4006 86.8633 80.4439 86.8375L82.2088 85.664C82.2852 85.6137 82.278 85.5299 82.2088 85.4754L80.171 84.1174C80.1268 84.0926 80.0782 84.0797 80.029 84.0797C79.9799 84.0797 79.9313 84.0926 79.8871 84.1174L78.1222 85.291C78.0494 85.3413 78.0531 85.4251 78.1222 85.4754L80.1637 86.8375ZM71.8558 92.3615C71.9 92.3864 71.9485 92.3993 71.9977 92.3993C72.0469 92.3993 72.0954 92.3864 72.1396 92.3615L73.9046 91.188C73.9773 91.1377 73.9737 91.0539 73.9046 90.9994L71.8631 89.6414C71.8195 89.6167 71.7716 89.6038 71.723 89.6038C71.6744 89.6038 71.6264 89.6167 71.5829 89.6414L69.8179 90.815C69.7415 90.8611 69.7488 90.9449 69.8179 90.9994L71.8558 92.3615ZM77.5836 88.5517C77.6276 88.5775 77.6762 88.5909 77.7255 88.5909C77.7749 88.5909 77.8235 88.5775 77.8675 88.5517L79.6287 87.3782C79.7052 87.3279 79.7015 87.2441 79.6287 87.1896L77.5873 85.8358C77.5439 85.8101 77.4959 85.7967 77.4472 85.7967C77.3984 85.7967 77.3504 85.8101 77.307 85.8358L75.5421 87.0094C75.4657 87.0597 75.4693 87.1435 75.5421 87.198L77.5836 88.5517ZM66.6993 95.7732C66.7426 95.7989 66.7906 95.8124 66.8394 95.8124C66.8881 95.8124 66.9362 95.7989 66.9795 95.7732L68.7444 94.5997C68.8208 94.5494 68.8172 94.4655 68.7444 94.4111L66.6993 93.0824C66.656 93.0567 66.6079 93.0433 66.5592 93.0433C66.5104 93.0433 66.4624 93.0567 66.4191 93.0824L64.6542 94.256C64.5777 94.3063 64.5814 94.3901 64.6542 94.4446L66.6993 95.7732ZM69.283 94.0967C69.3263 94.1224 69.3744 94.1359 69.4231 94.1359C69.4718 94.1359 69.5199 94.1224 69.5632 94.0967L71.3281 92.9232C71.4046 92.8729 71.3973 92.7891 71.3281 92.7346L69.2866 91.3766C69.2431 91.3519 69.1951 91.339 69.1465 91.339C69.0979 91.339 69.05 91.3519 69.0064 91.3766L67.2415 92.5502C67.1687 92.6005 67.1724 92.6843 67.2415 92.7346L69.283 94.0967ZM82.54 84.2851C82.5833 84.3108 82.6313 84.3242 82.6801 84.3242C82.7288 84.3242 82.7769 84.3108 82.8202 84.2851L84.5851 83.1115C84.6615 83.0612 84.6579 82.9774 84.5851 82.9229L84.0429 82.5625C83.9996 82.5367 83.9515 82.5233 83.9028 82.5233C83.854 82.5233 83.806 82.5367 83.7627 82.5625L81.9978 83.736C81.9213 83.7863 81.9286 83.8701 81.9978 83.9246L82.54 84.2851ZM90.2765 79.1424C90.3201 79.1672 90.368 79.1801 90.4166 79.1801C90.4652 79.1801 90.5132 79.1672 90.5567 79.1424L92.3217 77.9689C92.3981 77.9186 92.3945 77.8348 92.3217 77.7845L91.7795 77.424C91.7361 77.3983 91.6881 77.3849 91.6394 77.3849C91.5906 77.3849 91.5426 77.3983 91.4993 77.424L89.7343 78.5976C89.6579 78.6479 89.6652 78.7317 89.7343 78.7862L90.2765 79.1424ZM94.5633 81.9925C94.6069 82.0172 94.6548 82.0301 94.7034 82.0301C94.752 82.0301 94.7999 82.0172 94.8435 81.9925L96.6084 80.8189C96.6849 80.7686 96.6776 80.6848 96.6084 80.6345L94.5669 79.2766C94.5236 79.2508 94.4756 79.2374 94.4269 79.2374C94.3781 79.2374 94.3301 79.2508 94.2867 79.2766L92.5218 80.4501C92.449 80.5004 92.4527 80.5842 92.5218 80.6387L94.5633 81.9925ZM101.008 89.5367L102.773 88.3631C102.849 88.3128 102.842 88.229 102.773 88.1745L100.735 86.8166C100.691 86.7918 100.642 86.7789 100.593 86.7789C100.544 86.7789 100.495 86.7918 100.451 86.8166L98.6863 87.9901C98.6135 88.0404 98.6172 88.1242 98.6863 88.1745L100.728 89.5325C100.773 89.5544 100.822 89.5636 100.871 89.5592C100.919 89.5548 100.966 89.537 101.008 89.5073V89.5367ZM85.12 82.5792C85.1636 82.604 85.2116 82.6169 85.2601 82.6169C85.3087 82.6169 85.3567 82.604 85.4002 82.5792L87.1652 81.4057C87.2379 81.3554 87.2343 81.2716 87.1652 81.2171L86.623 80.8567C86.5796 80.8309 86.5316 80.8175 86.4829 80.8175C86.4341 80.8175 86.3861 80.8309 86.3428 80.8567L84.5778 82.0302C84.5014 82.0805 84.505 82.1643 84.5778 82.2188L85.12 82.5792ZM64.1229 97.5335C64.1668 97.5593 64.2155 97.5727 64.2648 97.5727C64.3141 97.5727 64.3627 97.5593 64.4067 97.5335L66.1716 96.36C66.2444 96.3097 66.2408 96.2259 66.1716 96.1714L64.1301 94.8176C64.0868 94.7919 64.0388 94.7785 63.99 94.7785C63.9413 94.7785 63.8933 94.7919 63.8499 94.8176L62.085 95.9911C62.0086 96.0414 62.0159 96.1253 62.085 96.1798L64.1229 97.5335Z" fill="#455A64"/>
<path d="M75.5612 115.334L92.9739 103.737C93.2684 103.565 93.5937 103.476 93.9237 103.476C94.2537 103.476 94.5791 103.565 94.8735 103.737L104.859 110.376C105.383 110.728 105.383 111.293 104.859 111.633L87.4426 123.234C87.1487 123.408 86.8231 123.498 86.4928 123.498C86.1625 123.498 85.837 123.408 85.543 123.234L75.5576 116.595C75.0372 116.247 75.0372 115.682 75.5612 115.334Z" fill="#263238"/>
<path d="M79.3673 13.2982V16.362L39.7347 42.7164C39.4617 42.8966 39.2398 42.7499 39.2398 42.3853L39.2689 41.2872C39.0326 41.1786 38.7892 41.0917 38.5411 41.0273L26.6706 48.9194C26.526 49.0288 26.4057 49.1756 26.3191 49.348C26.2325 49.5205 26.1822 49.7139 26.172 49.9127V51.0695C26.1637 51.2684 26.1145 51.4621 26.0285 51.6348C25.9424 51.8075 25.822 51.9542 25.6771 52.0628L24.3088 52.9723V49.9127C24.3172 49.7138 24.3664 49.5201 24.4524 49.3474C24.5384 49.1747 24.6589 49.028 24.8037 48.9194L78.8724 12.9671C79.1453 12.7869 79.3673 12.9336 79.3673 13.2982Z" fill="#58B0CD"/>
<path d="M79.3709 59.175C79.3616 59.3735 79.3116 59.5667 79.225 59.7386C79.1383 59.9105 79.0175 60.0564 78.8724 60.1641L24.8037 96.1164C24.5308 96.3008 24.3088 96.1499 24.3088 95.7853V52.972L25.6771 52.0625C25.95 51.8823 26.4049 49.1035 26.6706 48.9191L38.5411 41.027C38.814 40.8468 39.4617 42.8963 39.7347 42.7035L79.3673 16.3617V59.175H79.3709Z" fill="#EBEBEB"/>
<path d="M26.6714 64.7078L50.4197 48.9027C50.6926 48.7182 50.9146 48.8691 50.9146 49.2338V76.1163C50.9063 76.3151 50.8571 76.5089 50.7711 76.6816C50.685 76.8543 50.5646 77.001 50.4197 77.1096L26.6714 92.9147C26.3985 93.0949 26.1765 92.9482 26.1765 92.5836V65.7011C26.1848 65.5022 26.234 65.3084 26.3201 65.1357C26.4061 64.9631 26.5265 64.8164 26.6714 64.7078Z" fill="#FAFAFA"/>
<path d="M26.6714 57.6074L77.0101 24.1364C77.283 23.952 77.505 24.1028 77.505 24.4675V28.4952C77.4961 28.6934 77.4466 28.8863 77.3606 29.0582C77.2746 29.2301 77.1545 29.3762 77.0101 29.4844L26.6714 62.9596C26.3985 63.1399 26.1765 62.9932 26.1765 62.6285V58.6008C26.1848 58.4019 26.234 58.2081 26.3201 58.0354C26.4061 57.8628 26.5265 57.7161 26.6714 57.6074Z" fill="#455A64"/>
<path d="M58.8401 39.4098V40.4743C58.8401 40.6965 58.9747 40.7845 59.1385 40.6755L73.771 30.9435V29.0826L59.1385 38.8146C59.0518 38.88 58.9796 38.9679 58.9278 39.0713C58.876 39.1746 58.8459 39.2906 58.8401 39.4098Z" fill="#FAFAFA"/>
<path d="M75.3397 28.0383C75.5071 27.9294 75.6381 28.0383 75.6381 28.2353V29.3041C75.6328 29.4234 75.603 29.5396 75.5511 29.6431C75.4992 29.7465 75.4268 29.8343 75.3397 29.8992L73.7712 30.9429V29.082L75.3397 28.0383Z" fill="#58B0CD"/>
<path d="M75.2256 29.5018L75.0473 29.439C75.0661 29.354 75.0759 29.2668 75.0764 29.1791C75.083 29.0993 75.0717 29.0189 75.0437 28.9455C75.0157 28.8722 74.9718 28.8083 74.9163 28.76C74.8778 28.7334 74.8338 28.7193 74.7889 28.7193C74.744 28.7193 74.7 28.7334 74.6616 28.76C74.5475 28.8564 74.455 28.9827 74.3917 29.1285C74.3284 29.2743 74.2962 29.4353 74.2976 29.5982C74.2917 29.6779 74.3033 29.7581 74.3313 29.8313C74.3593 29.9045 74.4027 29.9685 74.4578 30.0173C74.4924 30.0392 74.5311 30.0507 74.5706 30.0509C74.6209 30.0491 74.67 30.0317 74.7125 30.0006C74.8432 29.8989 74.9426 29.7522 74.9963 29.5815L75.171 29.6443H75.1892C75.2029 29.645 75.2164 29.6405 75.2276 29.6314C75.2388 29.6223 75.2471 29.6091 75.2511 29.594C75.2569 29.5777 75.2575 29.5595 75.2529 29.5426C75.2482 29.5258 75.2386 29.5113 75.2256 29.5018ZM74.6616 29.8874C74.6429 29.9004 74.6215 29.9072 74.5997 29.9072C74.5779 29.9072 74.5565 29.9004 74.5378 29.8874C74.5024 29.8494 74.4754 29.8021 74.4589 29.7497C74.4425 29.6972 74.4371 29.641 74.4432 29.5857C74.4417 29.4507 74.4664 29.317 74.5155 29.1945C74.5646 29.0719 74.6369 28.9636 74.7271 28.8773C74.7514 28.8606 74.7788 28.8506 74.8071 28.848C74.8212 28.8419 74.8367 28.8419 74.8508 28.848C74.9126 28.8857 74.9454 28.9989 74.9454 29.1456C74.9532 29.2864 74.9314 29.4273 74.882 29.5564C74.8326 29.6855 74.757 29.799 74.6616 29.8874Z" fill="#FAFAFA"/>
<path d="M79.3673 16.3617V20.0877L24.3088 56.698V52.972L25.3314 52.293C25.6043 52.1086 25.6953 51.832 25.8263 51.2997L26.172 49.9124C26.1921 49.7165 26.2466 49.5273 26.3324 49.3565C26.4181 49.1857 26.5332 49.0369 26.6706 48.9191L38.5411 41.027C38.5939 40.9728 38.6574 40.9342 38.7261 40.9145C38.7948 40.8948 38.8666 40.8947 38.9354 40.914C39.0041 40.9334 39.0677 40.9718 39.1208 41.0257C39.1738 41.0797 39.2146 41.1478 39.2398 41.224L39.6655 42.1125C39.822 42.4227 39.8984 42.6071 40.1714 42.4227L79.3673 16.3617Z" fill="#E6E6E6"/>
<path d="M77.0385 15.2218C77.4024 14.9913 77.6644 15.1757 77.6644 15.6409C77.6539 15.8926 77.5916 16.1378 77.4828 16.3564C77.374 16.575 77.2217 16.7607 77.0385 16.8983C76.6746 17.1288 76.4089 16.9402 76.4089 16.4792C76.419 16.2269 76.4814 15.9811 76.5909 15.7623C76.7005 15.5435 76.854 15.3582 77.0385 15.2218Z" fill="#455A64"/>
<path d="M74.7824 16.7192C75.1281 16.4886 75.4083 16.6731 75.4083 17.1383C75.3978 17.3899 75.3355 17.6351 75.2267 17.8537C75.1179 18.0723 74.9657 18.258 74.7824 18.3957C74.4185 18.6262 74.1565 18.4376 74.1565 17.9765C74.1667 17.7248 74.2288 17.4795 74.3377 17.2608C74.4465 17.0422 74.599 16.8565 74.7824 16.7192Z" fill="#455A64"/>
<path d="M72.5222 18.2351C72.8679 18.0046 73.1481 18.189 73.1481 18.6542C73.1375 18.9059 73.0753 19.1511 72.9665 19.3697C72.8577 19.5882 72.7054 19.774 72.5222 19.9116C72.1583 20.1421 71.8962 19.9535 71.8962 19.4925C71.9065 19.2407 71.9686 18.9954 72.0774 18.7768C72.1863 18.5581 72.3387 18.3725 72.5222 18.2351Z" fill="#455A64"/>
<path opacity="0.5" d="M26.5896 53.2451L25.8073 53.7607L26.1057 53.1026C26.1171 53.0782 26.1231 53.0508 26.1231 53.023C26.1231 52.9952 26.1171 52.9678 26.1057 52.9434C26.0802 52.9098 26.0401 52.9434 26.0147 52.9895L25.5926 53.9283V53.9618C25.5908 53.9785 25.5908 53.9954 25.5926 54.0121C25.5906 54.0246 25.5906 54.0374 25.5926 54.0499V54.0708L26.0147 54.448C26.0214 54.4521 26.0289 54.4542 26.0365 54.4542C26.0441 54.4542 26.0516 54.4521 26.0583 54.448C26.0784 54.4285 26.0945 54.4042 26.1057 54.3768C26.1178 54.3533 26.1243 54.3265 26.1243 54.2992C26.1243 54.2719 26.1178 54.2451 26.1057 54.2217L25.8073 53.9618L26.5896 53.4421C26.6092 53.4231 26.6249 53.3993 26.6356 53.3725C26.6463 53.3457 26.6517 53.3165 26.6515 53.2871C26.6697 53.2493 26.6224 53.22 26.5896 53.2451Z" fill="#455A64"/>
<path opacity="0.5" d="M27.2418 52.8088L28.0242 52.2891L27.7258 52.025C27.7003 52.0041 27.6967 51.9328 27.7258 51.8742C27.7549 51.8155 27.7876 51.7819 27.8131 51.8029L28.2389 52.1801C28.2409 52.194 28.2409 52.2082 28.2389 52.222C28.2406 52.2387 28.2406 52.2556 28.2389 52.2723C28.2398 52.2835 28.2398 52.2947 28.2389 52.3058L27.8131 53.2447C27.8038 53.2663 27.79 53.285 27.7731 53.2992C27.7662 53.305 27.7579 53.3081 27.7494 53.3081C27.7409 53.3081 27.7326 53.305 27.7258 53.2992C27.7143 53.2747 27.7083 53.2473 27.7083 53.2195C27.7083 53.1917 27.7143 53.1644 27.7258 53.1399L28.0242 52.4777L27.2418 53.0225C27.2054 53.0477 27.1799 53.0225 27.1799 52.9555C27.1801 52.9273 27.1857 52.8994 27.1964 52.874C27.2071 52.8487 27.2226 52.8264 27.2418 52.8088Z" fill="#455A64"/>
<path opacity="0.5" d="M29.8029 50.2189C29.8029 50.1645 29.7556 50.1728 29.7374 50.2189L29.6282 50.5207C29.4463 50.4956 29.2243 50.7009 29.0751 51.0656C28.8822 51.5392 28.8822 52.0966 29.0751 52.3229C29.1235 52.3757 29.1865 52.4071 29.2531 52.4117C29.3196 52.4163 29.3854 52.3938 29.439 52.3481C29.5997 52.2297 29.7264 52.059 29.8029 51.8577C29.8283 51.7948 29.8283 51.7236 29.8029 51.6984C29.7774 51.6733 29.7374 51.6984 29.7155 51.7571C29.57 52.1092 29.3516 52.2643 29.1915 52.105C29.1183 51.9652 29.0797 51.8051 29.0797 51.6419C29.0797 51.4786 29.1183 51.3185 29.1915 51.1787C29.2934 50.9273 29.4426 50.7596 29.5554 50.7596L29.4754 50.9859C29.4535 51.0446 29.4754 51.1033 29.5045 51.0781L29.8247 50.8392C29.8369 50.8267 29.8466 50.8111 29.8529 50.7937C29.8592 50.7763 29.862 50.7575 29.8611 50.7387L29.8029 50.2189Z" fill="#455A64"/>
<path opacity="0.5" d="M38.1953 42.7289L38.4828 42.0332C38.4991 42.0007 38.5077 41.9638 38.5077 41.9263C38.5077 41.8888 38.4991 41.8519 38.4828 41.8194C38.4464 41.7817 38.3919 41.8194 38.3591 41.899L38.0753 42.5948L37.7914 42.2762C37.755 42.2427 37.7041 42.2762 37.6677 42.3601C37.6514 42.3926 37.6428 42.4294 37.6428 42.4669C37.6428 42.5045 37.6514 42.5413 37.6677 42.5738L37.9515 42.8924L37.6677 43.5839C37.6511 43.617 37.6423 43.6546 37.6423 43.6929C37.6423 43.7311 37.6511 43.7687 37.6677 43.8019C37.6768 43.8091 37.6876 43.8129 37.6986 43.8129C37.7097 43.8129 37.7204 43.8091 37.7296 43.8019C37.7563 43.779 37.7776 43.7487 37.7914 43.7138L38.0753 43.0223L38.3591 43.3366C38.3632 43.3413 38.368 43.345 38.3733 43.3476C38.3786 43.3501 38.3843 43.3514 38.39 43.3514C38.3958 43.3514 38.4015 43.3501 38.4068 43.3476C38.4121 43.345 38.4169 43.3413 38.421 43.3366C38.4485 43.3166 38.4701 43.2873 38.4828 43.2528C38.4994 43.2197 38.5082 43.1821 38.5082 43.1438C38.5082 43.1056 38.4994 43.068 38.4828 43.0349L38.1953 42.7289Z" fill="#455A64"/>
<path d="M30.8396 51.074V49.9131C30.8479 49.7142 30.8971 49.5204 30.9832 49.3477C31.0692 49.1751 31.1896 49.0284 31.3345 48.9198L76.0727 19.1872C76.3456 19.007 76.5676 19.1537 76.5676 19.5183V20.6793C76.5593 20.8782 76.5101 21.0719 76.424 21.2446C76.338 21.4173 76.2176 21.564 76.0727 21.6726L31.3345 51.4051C31.0616 51.5854 30.8396 51.4387 30.8396 51.074Z" fill="#FAFAFA"/>
<path d="M75.7961 19.8028L75.9271 20.1213C75.9328 20.1264 75.9399 20.1292 75.9471 20.1292C75.9543 20.1292 75.9614 20.1264 75.9671 20.1213L76.2619 19.9914C76.3055 19.9914 76.3274 20.0458 76.291 20.1171L76.0799 20.5739C76.0733 20.6028 76.0733 20.6331 76.0799 20.662L76.1309 21.0811C76.1309 21.1439 76.0872 21.232 76.0472 21.2278L75.7852 21.1901C75.7748 21.1895 75.7645 21.1923 75.7554 21.1983C75.7464 21.2042 75.7391 21.213 75.7342 21.2236L75.4722 21.6092C75.4285 21.6679 75.3812 21.6469 75.3885 21.5715L75.4395 21.0937C75.4442 21.0833 75.4467 21.0718 75.4467 21.0601C75.4467 21.0484 75.4442 21.0369 75.4395 21.0266L75.2247 20.8506C75.192 20.8212 75.2248 20.7206 75.2575 20.6787L75.5486 20.4231C75.57 20.4024 75.5853 20.3745 75.5923 20.3434L75.7233 19.8531C75.7015 19.7902 75.7597 19.7525 75.7961 19.8028Z" stroke="#E0E0E0" stroke-width="0.75" stroke-miterlimit="10"/>
<g opacity="0.5">
<path d="M77.1559 19.0485C77.1257 19.0477 77.0962 19.0381 77.0701 19.0205C77.044 19.0029 77.0222 18.9779 77.0068 18.948C76.9844 18.9018 76.9787 18.8473 76.991 18.7963C77.0032 18.7453 77.0324 18.7019 77.0723 18.6755L78.4696 17.7451C78.5085 17.7269 78.5519 17.7254 78.5916 17.7409C78.6314 17.7565 78.665 17.7881 78.6862 17.8298C78.7074 17.8716 78.7149 17.9207 78.7072 17.9683C78.6995 18.0158 78.6772 18.0586 78.6443 18.0888L77.2542 19.0192C77.2253 19.0416 77.1906 19.0519 77.1559 19.0485Z" fill="#455A64"/>
<path d="M77.1557 19.9792C77.1255 19.9784 77.0959 19.9687 77.0698 19.9511C77.0437 19.9335 77.0219 19.9086 77.0065 19.8786C76.9955 19.8561 76.9885 19.8312 76.9858 19.8055C76.9832 19.7798 76.9849 19.7538 76.991 19.7289C76.9971 19.704 77.0074 19.6807 77.0213 19.6603C77.0352 19.64 77.0524 19.623 77.072 19.6104L78.4694 18.6757C78.5083 18.6575 78.5516 18.656 78.5914 18.6716C78.6312 18.6872 78.6647 18.7187 78.686 18.7605C78.7072 18.8022 78.7146 18.8514 78.7069 18.8989C78.6992 18.9465 78.6769 18.9893 78.6441 19.0194L77.254 19.9541C77.2239 19.9729 77.1899 19.9816 77.1557 19.9792Z" fill="#455A64"/>
<path d="M77.1557 20.9093C77.1179 20.9093 77.0811 20.8949 77.0512 20.8683C77.0212 20.8416 76.9997 20.8043 76.9902 20.7621C76.9806 20.72 76.9835 20.6753 76.9983 20.6352C77.0131 20.5951 77.039 20.5618 77.072 20.5405L78.4694 19.61C78.4888 19.596 78.5105 19.5866 78.5331 19.5826C78.5558 19.5785 78.5789 19.5799 78.6011 19.5866C78.6233 19.5932 78.644 19.6051 78.6621 19.6214C78.6801 19.6377 78.695 19.6581 78.706 19.6813C78.7286 19.727 78.7349 19.7811 78.7233 19.8321C78.7117 19.883 78.6833 19.9267 78.6441 19.9537L77.254 20.8842C77.2239 20.903 77.1899 20.9117 77.1557 20.9093Z" fill="#455A64"/>
</g>
<path d="M37.549 71.0455C39.5468 68.7026 40.0599 67.6381 40.0599 66.6992C40.0599 65.7604 39.7178 65.1694 38.6552 65.861C37.9048 66.344 37.3426 67.1384 37.0832 68.0823C37.0167 68.2807 36.9121 68.4591 36.7773 68.6043C36.6424 68.7495 36.4807 68.8576 36.3044 68.9206L34.9179 69.2726C34.5868 69.3606 34.3648 69.1176 34.4449 68.7362C35.0526 65.8819 36.5846 63.2457 38.7353 61.8164C41.319 60.098 42.8255 61.3973 42.8255 64.2976C42.8255 67.0848 41.5519 69.4109 40.2782 71.0832C40.041 71.4336 39.9025 71.8592 39.8816 72.3029V73.2501C39.8713 73.4624 39.8178 73.669 39.7256 73.8532C39.6333 74.0373 39.5047 74.194 39.3503 74.3105L37.6472 75.4421C37.3524 75.6391 37.1159 75.4798 37.1159 75.09V72.2316C37.1417 71.7918 37.2941 71.3744 37.549 71.0455Z" fill="#455A64"/>
<path d="M37.0824 79.3732C37.0787 78.7912 37.2066 78.2181 37.4535 77.7103C37.7004 77.2025 38.0579 76.7775 38.4907 76.477C39.4041 75.8651 39.8808 76.4058 39.8808 77.5122C39.8882 78.0944 39.764 78.6687 39.5203 79.1787C39.2765 79.6887 38.9217 80.1168 38.4907 80.421C37.5554 81.0413 37.0824 80.4796 37.0824 79.3732Z" fill="#455A64"/>
<path d="M93.5082 3.51652L92.1727 2.6196C92.0433 2.54789 91.8993 2.51819 91.7563 2.5337C91.6133 2.54921 91.4767 2.60934 91.3612 2.70762L58.1114 24.8121C57.7792 25.0615 57.5026 25.3975 57.3041 25.7929C57.1056 26.1882 56.9907 26.6319 56.9688 27.0879V82.1648C56.956 82.3247 56.979 82.4858 57.0357 82.6326C57.0924 82.7793 57.1809 82.9069 57.2926 83.003L58.6391 83.8999L91.3467 60.8063C91.6784 60.5567 91.9544 60.2206 92.1523 59.8252C92.3502 59.4298 92.4644 58.9862 92.4857 58.5305L93.5082 3.51652Z" fill="#58B0CD"/>
<path opacity="0.15" d="M58.6173 83.9003L57.289 83.016C57.1769 82.9205 57.0883 82.7929 57.0322 82.6459C56.976 82.4988 56.9541 82.3375 56.9688 82.1777V27.0883C56.9839 26.6053 57.1094 26.1354 57.3327 25.7262L58.6937 26.6189C58.4691 27.029 58.3435 27.5006 58.3298 27.9852V83.0662C58.3138 83.2218 58.3317 83.3796 58.3819 83.5252C58.4321 83.6708 58.513 83.7997 58.6173 83.9003Z" fill="black"/>
<path d="M59.4464 25.7133L92.6961 3.6046C93.3257 3.18547 93.8352 3.52496 93.8352 4.36321V59.44C93.8139 59.8958 93.6997 60.3393 93.5018 60.7347C93.3039 61.1301 93.0279 61.4663 92.6961 61.7159L59.4464 83.8246C58.8168 84.2437 58.3037 83.9042 58.3037 83.0659V27.9849C58.3262 27.5296 58.4414 27.0868 58.6399 26.6922C58.8384 26.2976 59.1146 25.9623 59.4464 25.7133Z" fill="#58B0CD"/>
<path opacity="0.4" d="M92.1734 2.61963L93.4761 3.48722C93.3499 3.4348 93.2146 3.41809 93.0816 3.43852C92.9486 3.45894 92.8218 3.51589 92.7119 3.60457L59.4622 25.7133C59.1458 25.9382 58.8822 26.249 58.6943 26.6186L57.3442 25.7258C57.5319 25.3539 57.7954 25.0403 58.1121 24.8121L91.3437 2.7286C91.4594 2.63057 91.5962 2.57092 91.7392 2.55614C91.8823 2.54136 92.0262 2.57202 92.1552 2.64478L92.1734 2.61963Z" fill="white"/>
<path d="M63.2211 27.8766L89.8478 10.1686C90.3245 9.85011 90.7103 10.11 90.7103 10.7428V57.8564C90.694 58.2013 90.6075 58.537 90.4576 58.8363C90.3078 59.1355 90.0989 59.3899 89.8478 59.5789L63.2211 77.2533C62.7444 77.5677 62.355 77.312 62.355 76.6791V29.6075C62.3694 29.2604 62.4554 28.9223 62.6061 28.6213C62.7567 28.3202 62.9675 28.0649 63.2211 27.8766Z" fill="white"/>
<path d="M84.3192 38.249L84.5885 37.9933C84.144 37.4381 83.5665 37.0473 82.9291 36.8701L82.8418 37.2557C83.4069 37.4165 83.9198 37.7614 84.3192 38.249Z" fill="#37474F"/>
<path d="M84.9129 39.8135L84.3634 39.1932C84.2333 39.0371 84.1606 38.8291 84.1606 38.6127C84.1606 38.3963 84.2333 38.1883 84.3634 38.0322C84.4989 37.8823 84.6795 37.7987 84.8674 37.7987C85.0553 37.7987 85.2359 37.8823 85.3714 38.0322L85.9173 38.6525C86.0474 38.8086 86.12 39.0166 86.12 39.233C86.12 39.4494 86.0474 39.6574 85.9173 39.8135C85.7819 39.9621 85.6021 40.045 85.4151 40.045C85.2281 40.045 85.0482 39.9621 84.9129 39.8135Z" fill="#58B0CD"/>
<mask id="mask0_994_216" style="mask-type:luminance" maskUnits="userSpaceOnUse" x="62" y="10" width="29" height="68">
<path d="M63.2211 27.8766L89.8478 10.1686C90.3245 9.85011 90.7103 10.11 90.7103 10.7428V57.8564C90.694 58.2013 90.6075 58.537 90.4576 58.8363C90.3078 59.1355 90.0989 59.3899 89.8478 59.5789L63.2211 77.2533C62.7444 77.5677 62.355 77.312 62.355 76.6791V29.6075C62.3694 29.2604 62.4554 28.9223 62.6061 28.6213C62.7567 28.3202 62.9675 28.0649 63.2211 27.8766Z" fill="white"/>
</mask>
<g mask="url(#mask0_994_216)">
<path d="M89.7579 54.1389L90.9879 56.5614C90.9879 56.5614 99.0447 51.6409 99.4996 50.9955C99.9544 50.35 99.9253 49.0466 99.9945 48.3424C100.107 47.1689 99.7325 46.1588 99.6779 45.7355C99.5869 44.9978 100.508 44.9559 100.962 45.9828C101.297 46.7288 101.326 47.5838 101.61 47.5922C102.017 47.2634 102.396 46.8916 102.742 46.4815C103.24 45.8529 104.143 44.805 104.827 44.9476C104.943 44.9787 105.049 45.0492 105.13 45.1501C105.211 45.2509 105.264 45.3775 105.282 45.5134C105.302 45.9466 105.388 46.3723 105.537 46.7707C105.648 46.9219 105.739 47.0915 105.806 47.2737C105.828 47.5441 105.828 47.8163 105.806 48.0868C105.835 48.4766 106.17 48.64 106.206 49.0214C106.196 49.3153 106.168 49.6079 106.123 49.8974C106.123 50.086 106.174 50.2494 106.174 50.4381C106.139 50.8253 105.993 51.188 105.759 51.4691C105.077 52.3836 104.269 53.1625 103.368 53.7743C102.64 54.3275 101.665 54.8179 100.821 55.3376C99.9763 55.8573 90.493 64.2481 89.2302 63.259C88.7135 62.8399 87.3525 60.8407 85.9224 58.6025" fill="#FFA8A7"/>
<path d="M85.6244 58.8926C84.1705 56.5617 82.834 54.1365 81.6215 51.6292C80.1658 46.935 81.8143 43.8084 81.8143 43.8084C81.8143 43.8084 83.9068 43.0624 85.6499 46.2309C86.4177 47.6266 88.4264 51.5496 89.7438 54.1398" fill="#FFA8A7"/>
<path d="M78.1519 43.8792C78.1519 43.8792 80.459 42.802 81.9546 42.9152C83.4503 43.0284 84.5565 43.5145 85.6555 45.5473C87.1111 48.259 89.5456 52.9448 89.5456 52.9448C88.5168 55.3811 86.8746 57.4039 84.8331 58.7496L80.3644 50.9875L78.1519 43.8792Z" fill="#455A64"/>
<path d="M70.8294 48.5736C70.0599 49.2874 69.4923 50.2489 69.1991 51.3356C68.8578 52.6487 68.691 54.0137 68.7042 55.3843V64.2068L68.606 80.9047C73.4677 82.8117 79.6468 81.131 84.8324 74.4921C84.8324 74.4921 84.5449 53.1169 84.5449 49.6256C84.5449 49.4663 84.5449 49.3071 84.5449 49.1436C84.3557 44.1938 80.6475 41.897 76.9939 44.2776L73.9226 46.2726L70.8403 48.5736H70.8294Z" fill="#F0F0F0"/>
<path d="M72.5225 28.2627C72.5225 28.2627 70.1389 28.0489 69.6112 30.5972C69.1273 32.8688 72.7226 41.838 72.6426 41.6872C72.5625 41.5363 72.5225 28.2627 72.5225 28.2627Z" fill="#263238"/>
<path d="M80.9391 23.1321C80.9391 23.1321 80.0548 20.3911 75.7607 22.34C73.5773 23.3333 72.7585 26.4474 72.7585 26.4474L80.9391 23.1321Z" fill="#58B0CD"/>
<path opacity="0.4" d="M80.9391 23.1321C80.9391 23.1321 80.0548 20.3911 75.7607 22.34C73.5773 23.3333 72.7585 26.4474 72.7585 26.4474L80.9391 23.1321Z" fill="black"/>
<path d="M74.1597 30.4126C74.1597 34.1847 76.4523 36.5234 79.2834 35.6474C82.1146 34.7715 84.4072 31.0371 84.4072 27.265C84.4072 23.4929 81.9654 23.4929 79.1342 24.373C76.3031 25.2532 74.1597 26.6489 74.1597 30.4126Z" fill="#263238"/>
<path d="M71.4868 36.3721C71.4868 36.3721 72.2401 40.8567 72.5421 41.5398C72.6332 41.7378 72.7658 41.9063 72.9279 42.03C73.09 42.1537 73.2764 42.2287 73.4701 42.2482L73.4191 38.9455L71.4868 36.3721Z" fill="#263238"/>
<path d="M72.431 29.3228C72.1326 29.3785 71.848 29.5077 71.5968 29.7015C71.3456 29.8954 71.1337 30.1493 70.9754 30.446C70.3568 31.4813 70.7025 34.0211 71.4776 36.3724L72.8968 36.1503L72.431 29.3228Z" fill="#263238"/>
<path d="M73.3344 36.0201C73.0469 36.3344 72.643 35.7309 72.29 35.3495C71.937 34.9681 70.7907 34.6537 70.2157 36.435C69.6408 38.2163 70.7216 40.0772 71.6277 40.1778C73.1852 40.3454 73.4181 38.9456 73.4181 38.9456L73.469 46.6029C76.0855 49.7966 80.6634 46.0329 78.6037 44.6205V42.3446C79.3185 42.2737 80.0233 42.1049 80.7034 41.8417C81.8497 41.2507 82.5702 39.8299 82.9196 38.0696C83.4763 35.2489 83.6874 33.0401 83.2143 27.9813C82.6976 22.4321 77.7012 23.9158 75.0047 27.0048C72.3082 30.0937 73.3344 36.0201 73.3344 36.0201Z" fill="#FFA8A7"/>
<path d="M73.3342 36.6782C73.1886 36.7285 72.6428 35.6933 72.2898 35.3705C71.7985 34.9263 72.4317 29.3436 72.4317 29.3436C71.864 27.9018 72.9121 25.7265 74.0074 24.8422C74.7944 24.2603 75.6825 23.884 76.6093 23.7399C77.3954 23.5778 78.179 23.4535 78.9601 23.3669C79.9153 23.3093 80.866 23.1777 81.8059 22.9729C82.5416 22.7719 83.2547 22.4738 83.931 22.0844C84.5278 21.77 85.0228 22.4784 84.4951 23.6561C84.0227 24.7272 83.3666 25.6768 82.5664 26.4474C80.2447 28.455 77.5482 28.937 75.201 29.2346C74.6734 29.3017 74.5569 30.0184 74.2731 31.9673C74.022 33.6605 73.8146 36.498 73.3342 36.6782Z" fill="#263238"/>
<path d="M70.6443 29.3692L68.9194 28.6693C69.1632 27.9358 69.7491 27.4999 70.2222 27.6927C70.6953 27.8855 70.8881 28.6358 70.6443 29.3692Z" fill="#263238"/>
<path d="M78.6001 42.3446C78.6001 42.3446 76.0528 42.4494 75.1504 42.0932C74.611 41.8766 74.1668 41.4252 73.9131 40.8358C74.0362 41.4554 74.276 42.0362 74.6154 42.5374C75.2704 43.4469 78.6001 43.2374 78.6001 43.2374V42.3446Z" fill="#F28F8F"/>
<path d="M77.9799 33.7446C77.9778 33.9271 77.9281 34.1046 77.8373 34.2541C77.7464 34.4036 77.6186 34.5182 77.4705 34.5829C77.1903 34.6667 76.961 34.4194 76.961 34.0296C76.9587 33.8429 77.0063 33.6599 77.0975 33.5054C77.1886 33.3509 77.3189 33.2325 77.4705 33.1663C77.7543 33.095 77.9799 33.3255 77.9799 33.7446Z" fill="#263238"/>
<path d="M77.1621 31.167L76.0703 32.3112C75.9937 32.0972 75.9771 31.8609 76.0228 31.6355C76.0685 31.4101 76.1741 31.2067 76.3251 31.0538C76.379 30.9805 76.4479 30.9237 76.5255 30.8885C76.6031 30.8533 76.6871 30.8407 76.7699 30.8519C76.8528 30.8631 76.9319 30.8977 77.0004 30.9527C77.0688 31.0077 77.1243 31.0813 77.1621 31.167Z" fill="#263238"/>
<path d="M78.37 38.3259L79.5381 38.5481C79.5047 38.7619 79.4068 38.9553 79.2616 39.094C79.1165 39.2328 78.9335 39.3081 78.7448 39.3067C78.421 39.248 78.2536 38.8079 78.37 38.3259Z" fill="#F28F8F"/>
<path d="M82.6863 30.0604L81.6855 29.3437C81.893 28.9246 82.2787 28.7024 82.5553 28.8994C82.6956 29.0418 82.7862 29.238 82.8103 29.4515C82.8344 29.6651 82.7903 29.8814 82.6863 30.0604Z" fill="#263238"/>
<path d="M82.2494 32.2232C82.2523 32.4111 82.2044 32.5955 82.1125 32.7508C82.0207 32.9062 81.8892 33.025 81.7363 33.0908C81.4525 33.1746 81.2232 32.9273 81.2232 32.5375C81.2207 32.3501 81.2686 32.1665 81.3605 32.0118C81.4524 31.8572 81.5838 31.7392 81.7363 31.6741C82.0202 31.5861 82.2494 31.8334 82.2494 32.2232Z" fill="#263238"/>
<path d="M79.7173 32.4584L79.7755 36.5742L81.6132 35.4677L79.7173 32.4584Z" fill="#F28F8F"/>
<path d="M63.1308 73.5605C64.5646 56.5861 66.8827 50.5549 70.5144 48.8658C71.7335 49.9639 71.93 54.9724 70.5508 58.732C70.5508 58.732 67.5159 69.9896 67.2757 73.8204C67.1225 77.4031 67.2382 80.9943 67.6214 84.5541C67.6409 84.768 67.6992 84.9749 67.7926 85.1612C67.886 85.3475 68.0124 85.509 68.1636 85.6354C68.9387 86.2473 68.8696 87.1023 69.4154 87.928C69.8448 88.5735 70.2524 88.6992 70.1432 88.9339C70.0524 89.1687 69.8946 89.3607 69.6961 89.4781C69.4975 89.5955 69.2701 89.6312 69.0515 89.5794C68.7035 89.4404 68.3812 89.2271 68.1017 88.9507C68.307 89.8543 68.631 90.7165 69.0624 91.5073C70.045 93.3389 69.9722 94.5502 67.5632 94.8896C66.053 95.1034 64.9795 93.9969 64.3135 89.6338C64.1243 88.3765 63.6585 86.1132 63.4802 84.487C62.9634 79.8473 62.8979 76.2932 63.1308 73.5605Z" fill="#FFA8A7"/>
<path d="M71.5538 48.0618C71.5538 48.0618 68.9119 49.0425 67.5509 51.4776C66.1899 53.9127 64.8289 57.8525 63.7954 64.8895C63.7954 64.8895 65.3966 67.5468 69.767 65.4972C69.767 65.4972 71.8377 56.5448 72.0815 52.9865C72.3326 49.1054 71.5538 48.0618 71.5538 48.0618Z" fill="#455A64"/>
<path d="M74.0101 23.2661C71.5392 25.0474 70.4729 27.2101 70.4111 29.817C70.3894 31.6078 70.4514 33.3986 70.5967 35.1818C70.1313 35.5677 69.7476 36.0697 69.4741 36.6503C69.2007 37.2308 69.0445 37.875 69.0173 38.5347C69.0173 40.2992 70.2582 41.347 71.7903 40.8734C72.5591 40.6114 73.2385 40.0814 73.7351 39.3563C74.2317 38.6313 74.521 37.7469 74.5632 36.8247C74.5946 36.2523 74.4392 35.687 74.1276 35.2396C73.8159 34.7922 73.3704 34.4951 72.8783 34.4064C72.5689 31.9164 72.5751 29.3879 72.8965 26.8999C73.446 23.1278 79.5669 20.9526 80.9388 23.1278C80.5276 21.2501 77.4453 20.7723 74.0101 23.2661Z" fill="#58B0CD"/>
<path opacity="0.15" d="M74.0101 23.2661C71.5392 25.0474 70.4729 27.2101 70.4111 29.817C70.3894 31.6078 70.4514 33.3986 70.5967 35.1818C70.1313 35.5677 69.7476 36.0697 69.4741 36.6503C69.2007 37.2308 69.0445 37.875 69.0173 38.5347C69.0173 40.2992 70.2582 41.347 71.7903 40.8734C72.5591 40.6114 73.2385 40.0814 73.7351 39.3563C74.2317 38.6313 74.521 37.7469 74.5632 36.8247C74.5946 36.2523 74.4392 35.687 74.1276 35.2396C73.8159 34.7922 73.3704 34.4951 72.8783 34.4064C72.5689 31.9164 72.5751 29.3879 72.8965 26.8999C73.446 23.1278 79.5669 20.9526 80.9388 23.1278C80.5276 21.2501 77.4453 20.7723 74.0101 23.2661Z" fill="black"/>
<path d="M73.1195 37.2697C73.1273 37.0822 73.0945 36.8953 73.0242 36.7258C72.9539 36.5564 72.8483 36.4096 72.7167 36.2988C72.5851 36.1879 72.4316 36.1163 72.2701 36.0905C72.1086 36.0646 71.9441 36.0853 71.7912 36.1507C71.4229 36.2765 71.0975 36.5306 70.8596 36.8781C70.6218 37.2256 70.4832 37.6494 70.463 38.0912C70.4574 38.2779 70.492 38.4633 70.5635 38.631C70.635 38.7986 70.7414 38.9434 70.8731 39.0524C71.0048 39.1614 71.1579 39.2313 71.3186 39.2559C71.4794 39.2805 71.643 39.2591 71.7949 39.1935C72.1605 39.0685 72.4839 38.8167 72.7209 38.4725C72.9579 38.1283 73.0971 37.7083 73.1195 37.2697Z" fill="#58B0CD"/>
</g>
<path d="M52.1668 64.1967C52.1069 64.2639 52.0521 64.3368 52.003 64.4146C51.9156 64.5385 51.8501 64.6809 51.8101 64.8337C51.7838 64.922 51.7838 65.0179 51.8101 65.1062C51.8198 65.1687 51.8466 65.2259 51.8866 65.2696C51.9058 65.2952 51.9278 65.3177 51.9521 65.3367L50.6165 64.4482C50.563 64.4139 50.5189 64.3631 50.4892 64.3015C50.468 64.2431 50.457 64.1804 50.457 64.1171C50.457 64.0537 50.468 63.991 50.4892 63.9326C50.5183 63.8286 50.5599 63.7299 50.6129 63.6393C50.6819 63.5199 50.7598 63.4077 50.8458 63.304L52.1668 64.1967Z" fill="#58B0CD"/>
<path d="M52.1757 64.1804C51.4806 65.0186 51.7244 65.5845 52.7215 65.4378L58.3038 64.6959V56.8458L52.1757 64.1804Z" fill="#58B0CD"/>
<path d="M52.1763 64.1809C51.736 64.709 51.6742 65.1282 51.9362 65.3335L50.6006 64.445C50.3204 64.2438 50.3823 63.8163 50.8263 63.2798L56.958 55.9578L58.3081 56.8589L52.1763 64.1809Z" fill="#58B0CD"/>
<path opacity="0.15" d="M52.1668 64.1967C52.1069 64.2639 52.0521 64.3368 52.003 64.4146C51.9185 64.5407 51.8533 64.6824 51.8101 64.8337C51.7888 64.9229 51.7888 65.017 51.8101 65.1062C51.8207 65.1683 51.8474 65.2253 51.8866 65.2696C51.9058 65.2952 51.9278 65.3177 51.9521 65.3367L50.6165 64.4482C50.563 64.4139 50.5189 64.3631 50.4892 64.3015C50.468 64.2431 50.457 64.1804 50.457 64.1171C50.457 64.0537 50.468 63.991 50.4892 63.9326C50.5198 63.8294 50.5614 63.7308 50.6129 63.6393C50.6819 63.5199 50.7598 63.4077 50.8458 63.304L52.1668 64.1967Z" fill="black"/>
<path opacity="0.4" d="M58.3082 56.8463L52.1765 64.1809L50.8228 63.2798L56.9582 55.9578L58.3082 56.8463Z" fill="white"/>
<path d="M89.7565 54.1378L90.9865 56.5603C90.9865 56.5603 99.0433 51.6399 99.4982 50.9944C99.953 50.349 99.9239 49.0455 99.9931 48.3414C100.106 47.1678 99.7311 46.1577 99.6765 45.7344C99.5673 44.8333 100.692 45.0429 101.048 45.3991C101.283 45.6864 101.478 46.0128 101.627 46.3673C101.802 46.7026 102.129 47.7965 102.464 47.8636C102.726 47.9181 103.246 47.4905 103.461 47.3061C104.345 46.5349 104.891 45.4662 105.572 44.4896C105.693 44.2795 105.861 44.1114 106.059 44.0034C106.233 43.9636 106.412 43.9697 106.584 44.0213C106.755 44.0728 106.914 44.1685 107.049 44.301C107.336 44.4857 107.584 44.7403 107.777 45.0471C107.894 45.2769 107.978 45.5276 108.024 45.7889C108.388 47.566 107.595 49.0664 106.66 50.3993C105.721 51.7101 104.608 52.8417 103.363 53.7522C102.635 54.3055 101.66 54.7958 100.815 55.3156C99.9712 55.8353 90.9246 64.5656 89.6582 63.5764C88.1443 62.22 86.788 60.6452 85.6226 58.8907" fill="#FFA8A7"/>
<path d="M149.188 38.9949C152.099 38.9949 153.628 40.0008 154.836 43.0981C155.993 46.0613 159.585 54.6575 159.406 56.7405C159.228 58.8236 151.852 67.6922 151.852 67.6922L149.745 64.7583L154.315 55.9149L149.814 48.4126L149.188 38.9949Z" fill="#FFA8A7"/>
<path d="M142.122 130.209C142.122 130.209 142.45 131.353 142.628 132.359C142.77 133.155 142.97 134.484 142.726 135.083C142.482 135.683 141.54 136.068 140.077 136.056C139.127 136.056 137.65 136.789 136.638 137.443C135.626 138.097 133.417 138.382 132.311 138.231C131.008 138.055 129.658 137.183 129.447 136.555C129.236 135.926 129.058 135.083 132.588 133.78C132.617 133.78 136.856 132.179 138.341 130.289L142.122 130.209Z" fill="#263238"/>
<path d="M142.123 130.321L141.45 130.225L138.342 130.296C136.858 132.186 132.618 133.779 132.589 133.787L132.025 134.005C131.41 134.575 131.93 135.543 133.386 135.682C134.842 135.82 139.379 134.072 140.384 133.515C140.911 133.233 141.355 132.781 141.664 132.214C141.973 131.648 142.132 130.99 142.123 130.321Z" fill="#FFA8A7"/>
<path d="M142.122 128.783C142.122 128.783 142.122 129.76 142.122 130.321C142.122 130.883 141.555 131.713 140.07 131.65C139.029 131.608 138.301 131.285 138.341 130.296V128.884L142.122 128.783Z" fill="#FFA8A7"/>
<path d="M152.086 123.783C152.351 123.908 152.406 124.504 152.417 125.681C152.417 126.57 152.559 128.129 151.645 128.414C150.732 128.699 149.411 128.494 148.851 127.639C148.152 126.57 147.682 125.631 146.667 124.319C145.797 123.183 144.848 122.119 144.527 120.547C144.233 119.13 144.527 118.531 145.361 118.146C146.194 117.76 146.962 118.078 148.126 119.198C148.451 119.451 148.799 119.663 149.163 119.83C149.939 120.111 151.816 123.657 152.086 123.783Z" fill="#263238"/>
<path d="M152.111 122.694L152.074 124.14C152.074 124.14 151.237 126.03 148.905 124.14C148.854 123.997 148.643 121.206 148.643 121.206L152.111 122.694Z" fill="#FFA8A7"/>
<path d="M149.175 119.839C148.81 119.672 148.463 119.46 148.138 119.206C147.199 118.859 145.227 119.261 146.111 120.837C146.852 122.132 147.8 123.253 148.906 124.14C149.961 124.739 150.328 123.997 150.328 123.997L149.965 120.606C149.755 120.286 149.485 120.023 149.175 119.839Z" fill="#FFA8A7"/>
<path d="M153.814 102.71C153.348 97.97 152.456 95.2331 152.456 95.2331C152.456 95.2331 153.246 88.8541 153.865 82.7391C155.32 68.3758 154.352 68.1453 152.591 63.1493C152.591 63.1493 136.605 60.7813 135.935 68.4387C135.102 77.9737 135.48 96.4653 135.619 99.8477C135.757 103.23 135.982 104.76 136.87 111.843C137.533 117.237 138.162 129.027 138.162 129.027C140.258 130.418 142.274 128.784 142.274 128.784C142.274 128.784 144.279 114.286 144.232 110.384C144.191 107.496 143.824 104.626 143.14 101.847C143.14 101.847 144.501 86.3058 144.847 83.8246C144.847 83.8246 145.233 88.7828 145.375 92.1652C145.517 95.5475 146.31 98.7957 147.012 105.095C147.62 110.544 148.632 121.956 148.632 121.956C150.728 123.348 152.191 122.719 152.191 122.719C152.191 122.719 154.276 107.446 153.814 102.71Z" fill="#58B0CD"/>
<path d="M142.424 35.8936L143.01 43.0522L148.468 42.654L148.032 34.7159L142.424 35.8936Z" fill="#FFA8A7"/>
<path d="M153.375 42.0335C152.819 40.1391 151.691 39.0284 149.191 38.9949L148.27 39.0284C148.095 40.0846 145.406 40.9396 142.749 39.8667C142.386 39.9798 141.348 40.1978 140.77 40.2858L139.496 40.4996C137.564 41.2288 136.709 45.1099 136.523 51.2333C136.337 57.3566 135.541 70.4877 135.541 70.4877C135.541 70.4877 139.7 73.0528 146.265 72.0594C152.142 71.1709 154.427 67.1683 154.223 67.6796C153.534 64.283 152.516 60.9862 151.188 57.8512C154.282 49.0874 154.198 44.8458 153.375 42.0335Z" fill="#455A64"/>
<path d="M143.011 72.2774C144.099 72.2906 145.186 72.215 146.265 72.0511C151.621 71.2422 153.994 67.8599 154.216 67.6377C153.527 64.2527 152.512 60.9673 151.188 57.8428C152.753 53.4169 153.503 50.1478 153.757 47.6288C153.503 49.4646 151.148 56.5729 148.066 58.7062C148.066 58.7062 149.805 59.0164 151.294 61.3719C152.782 63.7273 151.559 71.7703 143.011 72.2774Z" fill="#37474F"/>
<path d="M140.768 40.2774C138.203 40.6504 135.994 41.1785 135.058 44.0788C133.825 48.0285 131.932 51.6621 129.487 54.7748C127.893 56.7405 121.35 60.5042 119.876 60.2234C118.403 59.9426 117.074 57.5243 116.317 58.0272C115.561 58.5302 117.22 60.257 117.129 60.6845C117.038 61.112 114.382 60.2234 113.126 59.1966C111.871 58.1697 111.125 61.1162 112.762 63.3207C114.4 65.5253 117.464 65.6972 120.797 64.9302C124.13 64.1632 130.222 61.8831 132.642 59.2846C135.815 55.8687 136.394 54.012 137.77 51.0698C142.151 47.1552 140.768 40.2774 140.768 40.2774Z" fill="#FFA8A7"/>
<path d="M139.567 27.0042C139.567 27.0042 137.507 24.1751 139.123 21.4173C141.029 18.1649 144.385 17.0668 148.533 18.4834C150.586 19.1834 153.602 22.4525 153.755 27.0377C153.872 30.5709 145.269 32.9054 145.407 35.3279L139.567 27.0042Z" fill="#263238"/>
<path d="M138.388 28.039C138.388 28.039 137.18 30.1346 137.337 30.3693C137.62 30.5834 137.934 30.7381 138.265 30.8262L138.388 28.039Z" fill="#F28F8F"/>
<path d="M142.067 21.3703C140.891 22.0702 138.861 23.3611 138.337 28.3487C137.802 33.4662 138.792 35.2432 139.396 35.9138C139.807 36.3665 141.918 36.53 143.035 36.136C144.414 35.6456 147.402 33.9482 148.795 31.3077C150.44 28.1978 150.779 24.0569 148.879 22.4307C146.19 20.1465 143.06 20.7794 142.067 21.3703Z" fill="#FFA8A7"/>
<path d="M141.723 21.5886C141.723 21.5886 140.697 26.2576 141.923 29.2083C141.923 29.2083 142.651 27.3851 144.001 27.909C145.351 28.4329 145.245 30.5369 144.168 31.6098C143.894 31.9186 143.548 32.1313 143.173 32.2233C142.797 32.3153 142.407 32.2828 142.047 32.1295C142.047 32.1295 142.083 34.7155 144.001 35.7382C144.001 35.7382 148.004 37.947 151.643 33.4875C154.918 29.4388 154.507 22.1712 149.663 20.3313C144.82 18.4913 141.723 21.5886 141.723 21.5886Z" fill="#263238"/>
<path d="M158.017 41.2874C157.253 41.2874 156.497 41.1137 155.792 40.7764C155.087 40.4391 154.446 39.9448 153.908 39.3217C153.369 38.6987 152.942 37.9592 152.652 37.1458C152.361 36.3323 152.213 35.4609 152.216 34.5814V26.0146C153.754 26.0146 155.228 26.718 156.315 27.9701C157.403 29.2222 158.013 30.9204 158.013 32.6912L158.017 41.2874Z" fill="#263238"/>
<path d="M138.599 19.4934C136.798 21.589 136.696 27.7123 141.922 29.2128L145.346 18.4036C143.352 16.9074 140.208 17.5989 138.599 19.4934Z" fill="#263238"/>
<path d="M141.397 30.8766C141.266 30.8265 141.145 30.7467 141.041 30.6419C140.937 30.5371 140.853 30.4094 140.793 30.2664C140.732 30.1235 140.698 29.968 140.69 29.8093C140.683 29.6506 140.704 29.4918 140.75 29.3424C140.797 29.1929 140.87 29.0558 140.963 28.9391C141.057 28.8224 141.17 28.7284 141.296 28.6628C141.421 28.5972 141.557 28.5613 141.695 28.5571C141.833 28.5529 141.97 28.5806 142.099 28.6385L141.397 30.8766Z" fill="#263238"/>
<path opacity="0.1" d="M144.854 83.8324L145.724 77.4241C147.476 77.1825 149.162 76.5077 150.666 75.4458C150.666 75.4458 149.574 77.336 146.699 78.124L145.812 85.5466L145.448 93.3214L144.854 83.8324Z" fill="black"/>
</svg>
