<svg width="25" height="24" viewBox="0 0 25 24" fill="none" xmlns="http://www.w3.org/2000/svg">
<path d="M5.64286 6.74286L3.20857 4.32L4.82 2.70857L7.24286 5.14286L5.64286 6.74286ZM13.6429 0V3.42857H11.3571V0H13.6429ZM21.7914 4.32L19.3571 6.74286L17.7571 5.14286L20.18 2.70857L21.7914 4.32ZM3.92857 10.8571V13.1429H0.5V10.8571H3.92857ZM21.0714 10.8571H24.5V13.1429H21.0714V10.8571ZM5.64286 21.7143H19.3571C19.9634 21.7143 20.5447 21.9551 20.9734 22.3838C21.402 22.8124 21.6429 23.3938 21.6429 24H3.35714C3.35714 23.3938 3.59796 22.8124 4.02661 22.3838C4.45527 21.9551 5.03665 21.7143 5.64286 21.7143ZM12.5 4.57143C14.3186 4.57143 16.0628 5.29388 17.3487 6.57984C18.6347 7.8658 19.3571 9.60994 19.3571 11.4286V20.5714H5.64286V11.4286C5.64286 9.60994 6.3653 7.8658 7.65127 6.57984C8.93723 5.29388 10.6814 4.57143 12.5 4.57143Z" fill="#58B0CD"/>
</svg>
