<svg width="22" height="17" viewBox="0 0 22 17" fill="none" xmlns="http://www.w3.org/2000/svg">
<path d="M8.10896 -2.28882e-05C8.33495 -2.28882e-05 8.56094 0.0832367 8.73935 0.261649C9.08428 0.606579 9.08428 1.1775 8.73935 1.52243L2.15 8.11178L8.73935 14.7011C9.08428 15.046 9.08428 15.617 8.73935 15.9619C8.39442 16.3068 7.8235 16.3068 7.47857 15.9619L0.258829 8.74217C-0.0861006 8.39724 -0.0861006 7.82632 0.258829 7.48139L7.47857 0.261649C7.65698 0.0832367 7.88297 -2.28882e-05 8.10896 -2.28882e-05Z" fill="#8E95A7"/>
<path d="M1.09011 7.21979L21.1079 7.21979C21.5956 7.21979 22 7.62419 22 8.11185C22 8.59951 21.5956 9.00391 21.1079 9.00391L1.09011 9.00391C0.602448 9.00391 0.198048 8.59951 0.198048 8.11185C0.198048 7.62419 0.602448 7.21979 1.09011 7.21979Z" fill="#8E95A7"/>
</svg>
