<svg width="24" height="19" viewBox="0 0 24 19" fill="none" xmlns="http://www.w3.org/2000/svg">
<path d="M8.84625 0.525465C9.09279 0.525465 9.33932 0.616295 9.53395 0.810925C9.91023 1.18721 9.91023 1.81003 9.53395 2.18631L2.3456 9.37466L9.53395 16.563C9.91023 16.9393 9.91023 17.5621 9.53395 17.9384C9.15766 18.3147 8.53485 18.3147 8.15856 17.9384L0.282517 10.0624C-0.0937681 9.68607 -0.0937681 9.06325 0.282517 8.68696L8.15856 0.810925C8.35319 0.616295 8.59972 0.525465 8.84625 0.525465Z" fill="#A3A9B8"/>
<path d="M1.18932 8.40166L23.0268 8.40166C23.5588 8.40166 24 8.84282 24 9.37481C24 9.9068 23.5588 10.348 23.0268 10.348L1.18932 10.348C0.657331 10.348 0.216169 9.9068 0.216169 9.37481C0.216169 8.84282 0.657331 8.40166 1.18932 8.40166Z" fill="#A3A9B8"/>
</svg>
