<svg width="20" height="20" viewBox="0 0 20 20" fill="none" xmlns="http://www.w3.org/2000/svg">
<path d="M16.875 2.66671H14.125V1.29171C14.125 1.17015 14.0768 1.05357 13.9908 0.967617C13.9048 0.881663 13.7883 0.833374 13.6667 0.833374C13.5451 0.833374 13.4286 0.881663 13.3426 0.967617C13.2567 1.05357 13.2084 1.17015 13.2084 1.29171V2.66671H6.79171V1.29171C6.79171 1.17015 6.74342 1.05357 6.65746 0.967617C6.57151 0.881663 6.45493 0.833374 6.33337 0.833374C6.21182 0.833374 6.09524 0.881663 6.00928 0.967617C5.92333 1.05357 5.87504 1.17015 5.87504 1.29171V2.66671H3.12504C2.51748 2.66744 1.935 2.90911 1.50539 3.33872C1.07578 3.76834 0.834102 4.35081 0.833374 4.95837V16.875C0.834102 17.4826 1.07578 18.0651 1.50539 18.4947C1.935 18.9243 2.51748 19.166 3.12504 19.1667H16.875C17.4827 19.1662 18.0653 18.9246 18.495 18.495C18.9246 18.0653 19.1662 17.4827 19.1667 16.875V4.95837C19.1662 4.35074 18.9246 3.76812 18.495 3.33846C18.0653 2.90879 17.4827 2.66719 16.875 2.66671ZM18.25 16.875C18.25 17.2397 18.1052 17.5894 17.8473 17.8473C17.5894 18.1052 17.2397 18.25 16.875 18.25H3.12504C2.76037 18.25 2.41063 18.1052 2.15277 17.8473C1.89491 17.5894 1.75004 17.2397 1.75004 16.875V9.08337H18.25V16.875ZM18.25 8.16671H1.75004V4.95837C1.75004 4.19937 2.36421 3.58337 3.12504 3.58337H5.87504V4.95837C5.87504 5.07993 5.92333 5.19651 6.00928 5.28246C6.09524 5.36842 6.21182 5.41671 6.33337 5.41671C6.45493 5.41671 6.57151 5.36842 6.65746 5.28246C6.74342 5.19651 6.79171 5.07993 6.79171 4.95837V3.58337H13.2084V4.95837C13.2084 5.07993 13.2567 5.19651 13.3426 5.28246C13.4286 5.36842 13.5451 5.41671 13.6667 5.41671C13.7883 5.41671 13.9048 5.36842 13.9908 5.28246C14.0768 5.19651 14.125 5.07993 14.125 4.95837V3.58337H16.875C17.2397 3.58337 17.5894 3.72824 17.8473 3.9861C18.1052 4.24396 18.25 4.5937 18.25 4.95837V8.16671Z" fill="#D7D7D7"/>
</svg>
