<svg width="75" height="63" viewBox="0 0 75 63" fill="none" xmlns="http://www.w3.org/2000/svg">
<path d="M74.9003 55.3635H0V55.4058H74.9003V55.3635Z" fill="#E0E0E0"/>
<path d="M56.8238 56.9225H51.6707V56.9648H56.8238V56.9225Z" fill="#E0E0E0"/>
<path d="M62.8865 56.8027H59.9863V56.845H62.8865V56.8027Z" fill="#E0E0E0"/>
<path d="M37.052 56.9023H33.2051V56.9446H37.052V56.9023Z" fill="#E0E0E0"/>
<path d="M39.8306 57.5027H37.2031V57.5449H39.8306V57.5027Z" fill="#E0E0E0"/>
<path d="M21.6713 56.4747H13.7334V56.5169H21.6713V56.4747Z" fill="#E0E0E0"/>
<path d="M67.9061 47.8218H38.9796C38.7529 47.8213 38.5356 47.7195 38.3752 47.5385C38.2149 47.3575 38.1247 47.1122 38.1243 46.8562V0.957112C38.1266 0.702634 38.2177 0.459461 38.3779 0.280301C38.538 0.101141 38.7542 0.000430919 38.9796 0H67.9061C68.1312 0.000880086 68.3469 0.101841 68.5064 0.281C68.666 0.460159 68.7565 0.70308 68.7585 0.957112V46.8562C68.7585 47.1117 68.6688 47.3568 68.509 47.5378C68.3493 47.7188 68.1325 47.8209 67.9061 47.8218ZM38.9796 0.0338203C38.7628 0.0342674 38.555 0.131686 38.4017 0.30474C38.2484 0.477794 38.1621 0.712377 38.1617 0.957112V46.8562C38.1621 47.101 38.2484 47.3355 38.4017 47.5086C38.555 47.6816 38.7628 47.7791 38.9796 47.7795H67.9061C68.1229 47.7791 68.3307 47.6816 68.484 47.5086C68.6374 47.3355 68.7236 47.101 68.724 46.8562V0.957112C68.7236 0.712377 68.6374 0.477794 68.484 0.30474C68.3307 0.131686 68.1229 0.0342674 67.9061 0.0338203H38.9796Z" fill="#E0E0E0"/>
<path d="M55.0817 35.8494H52.9965C52.7367 35.8494 52.5261 36.0871 52.5261 36.3803V40.273C52.5261 40.5663 52.7367 40.804 52.9965 40.804H55.0817C55.3415 40.804 55.5521 40.5663 55.5521 40.273V36.3803C55.5521 36.0871 55.3415 35.8494 55.0817 35.8494Z" fill="#F0F0F0"/>
<path d="M60.6125 37.4691H59.2089C59.0343 37.4691 58.8928 37.6288 58.8928 37.8259V40.4469C58.8928 40.644 59.0343 40.8037 59.2089 40.8037H60.6125C60.7871 40.8037 60.9286 40.644 60.9286 40.4469V37.8259C60.9286 37.6288 60.7871 37.4691 60.6125 37.4691Z" fill="#E6E6E6"/>
<path d="M60.8223 37.1461H58.9992C58.9404 37.1461 58.8928 37.1999 58.8928 37.2662V37.4015C58.8928 37.4678 58.9404 37.5215 58.9992 37.5215H60.8223C60.881 37.5215 60.9286 37.4678 60.9286 37.4015V37.2662C60.9286 37.1999 60.881 37.1461 60.8223 37.1461Z" fill="#F0F0F0"/>
<path d="M47.6995 38.0476C47.6995 38.0476 47.7744 40.8039 50.6341 40.8039C53.4938 40.8039 53.5701 38.0476 53.5701 38.0476H47.6995Z" fill="#E6E6E6"/>
<path d="M40.5871 34.4066H44.9148V33.4427H40.5871V34.4066Z" fill="#E0E0E0"/>
<path d="M30.3105 54.0936H10.1294V55.3635H30.3105V54.0936Z" fill="#E6E6E6"/>
<path d="M23.8875 38.0778H20.6443C20.5388 38.0773 20.4376 38.0298 20.363 37.9456C20.2884 37.8613 20.2462 37.7471 20.2458 37.628C20.2458 37.5085 20.2878 37.3939 20.3625 37.3093C20.4372 37.2247 20.5385 37.1769 20.6443 37.1765H23.8875C23.9933 37.1769 24.0947 37.2247 24.1694 37.3093C24.244 37.3939 24.286 37.5085 24.286 37.628C24.2856 37.7471 24.2435 37.8613 24.1688 37.9456C24.0942 38.0298 23.9931 38.0773 23.8875 38.0778Z" fill="#F0F0F0"/>
<path d="M23.8875 30.3092H20.6443C20.5385 30.3088 20.4372 30.261 20.3625 30.1764C20.2878 30.0918 20.2458 29.9772 20.2458 29.8577C20.2462 29.7386 20.2884 29.6244 20.363 29.5402C20.4376 29.4559 20.5388 29.4084 20.6443 29.4079H23.8875C23.9931 29.4084 24.0942 29.4559 24.1688 29.5402C24.2435 29.6244 24.2856 29.7386 24.286 29.8577C24.286 29.9772 24.244 30.0918 24.1694 30.1764C24.0947 30.261 23.9933 30.3088 23.8875 30.3092Z" fill="#F0F0F0"/>
<path d="M23.8875 45.8464H20.6443C20.5388 45.846 20.4376 45.7984 20.363 45.7142C20.2884 45.6299 20.2462 45.5158 20.2458 45.3966C20.2458 45.2771 20.2878 45.1626 20.3625 45.0779C20.4372 44.9933 20.5385 44.9455 20.6443 44.9451H23.8875C23.9933 44.9455 24.0947 44.9933 24.1694 45.0779C24.244 45.1626 24.286 45.2771 24.286 45.3966C24.2856 45.5158 24.2435 45.6299 24.1688 45.7142C24.0942 45.7984 23.9931 45.846 23.8875 45.8464Z" fill="#F0F0F0"/>
<path d="M37.4501 63C53.4911 63 66.495 62.143 66.495 61.0858C66.495 60.0286 53.4911 59.1716 37.4501 59.1716C21.4091 59.1716 8.40527 60.0286 8.40527 61.0858C8.40527 62.143 21.4091 63 37.4501 63Z" fill="#F5F5F5"/>
<path d="M62.8862 15.3575H48.1907C47.4155 15.3575 46.7871 16.0669 46.7871 16.942V21.4536C46.7871 22.3287 47.4155 23.0381 48.1907 23.0381H62.8862C63.6614 23.0381 64.2898 22.3287 64.2898 21.4536V16.942C64.2898 16.0669 63.6614 15.3575 62.8862 15.3575Z" fill="#83D0EA"/>
<path d="M59.9712 16.653H48.492C48.3563 16.653 48.2463 16.7771 48.2463 16.9303V17.2347C48.2463 17.3878 48.3563 17.512 48.492 17.512H59.9712C60.1069 17.512 60.2169 17.3878 60.2169 17.2347V16.9303C60.2169 16.7771 60.1069 16.653 59.9712 16.653Z" fill="#83D0EA"/>
<path d="M56.3356 18.7226H48.492C48.3563 18.7226 48.2463 18.8468 48.2463 19V19.3043C48.2463 19.4575 48.3563 19.5817 48.492 19.5817H56.3356C56.4713 19.5817 56.5812 19.4575 56.5812 19.3043V19C56.5812 18.8468 56.4713 18.7226 56.3356 18.7226Z" fill="#83D0EA"/>
<path d="M54.2324 20.7923H48.492C48.3563 20.7923 48.2463 20.9165 48.2463 21.0697V21.374C48.2463 21.5272 48.3563 21.6514 48.492 21.6514H54.2324C54.3681 21.6514 54.478 21.5272 54.478 21.374V21.0697C54.478 20.9165 54.3681 20.7923 54.2324 20.7923Z" fill="#83D0EA"/>
<path d="M61.3464 20.7923H55.606C55.4703 20.7923 55.3604 20.9165 55.3604 21.0697V21.374C55.3604 21.5272 55.4703 21.6514 55.606 21.6514H61.3464C61.4821 21.6514 61.5921 21.5272 61.5921 21.374V21.0697C61.5921 20.9165 61.4821 20.7923 61.3464 20.7923Z" fill="#83D0EA"/>
<g opacity="0.5">
<path d="M59.9712 16.653H48.492C48.3563 16.653 48.2463 16.7771 48.2463 16.9303V17.2347C48.2463 17.3878 48.3563 17.512 48.492 17.512H59.9712C60.1069 17.512 60.2169 17.3878 60.2169 17.2347V16.9303C60.2169 16.7771 60.1069 16.653 59.9712 16.653Z" fill="white"/>
<path d="M56.3356 18.7226H48.492C48.3563 18.7226 48.2463 18.8467 48.2463 18.9999V19.3043C48.2463 19.4574 48.3563 19.5816 48.492 19.5816H56.3356C56.4713 19.5816 56.5812 19.4574 56.5812 19.3043V18.9999C56.5812 18.8467 56.4713 18.7226 56.3356 18.7226Z" fill="white"/>
<path d="M54.2324 20.7922H48.492C48.3563 20.7922 48.2463 20.9164 48.2463 21.0695V21.3739C48.2463 21.5271 48.3563 21.6512 48.492 21.6512H54.2324C54.3681 21.6512 54.478 21.5271 54.478 21.3739V21.0695C54.478 20.9164 54.3681 20.7922 54.2324 20.7922Z" fill="white"/>
<path d="M61.3466 20.7922H55.6063C55.4706 20.7922 55.3606 20.9164 55.3606 21.0695V21.3739C55.3606 21.5271 55.4706 21.6512 55.6063 21.6512H61.3466C61.4823 21.6512 61.5923 21.5271 61.5923 21.3739V21.0695C61.5923 20.9164 61.4823 20.7922 61.3466 20.7922Z" fill="white"/>
</g>
<path d="M51.115 13.5667H34.4347C33.298 13.5667 32.3765 14.607 32.3765 15.8902V22.5054C32.3765 23.7886 33.298 24.8288 34.4347 24.8288H51.115C52.2518 24.8288 53.1733 23.7886 53.1733 22.5054V15.8902C53.1733 14.607 52.2518 13.5667 51.115 13.5667Z" fill="#83D0EA"/>
<path d="M51.7052 15.4658H34.8766C34.6773 15.4658 34.5156 15.6483 34.5156 15.8734V16.3181C34.5156 16.5432 34.6773 16.7256 34.8766 16.7256H51.7052C51.9046 16.7256 52.0663 16.5432 52.0663 16.3181V15.8734C52.0663 15.6483 51.9046 15.4658 51.7052 15.4658Z" fill="#83D0EA"/>
<path d="M46.3738 18.5012H34.8766C34.6773 18.5012 34.5156 18.6836 34.5156 18.9087V19.3535C34.5156 19.5785 34.6773 19.761 34.8766 19.761H46.3738C46.5732 19.761 46.7349 19.5785 46.7349 19.3535V18.9087C46.7349 18.6836 46.5732 18.5012 46.3738 18.5012Z" fill="#83D0EA"/>
<path d="M43.2909 21.5365H34.8766C34.6773 21.5365 34.5156 21.719 34.5156 21.9441V22.3888C34.5156 22.6139 34.6773 22.7963 34.8766 22.7963H43.2909C43.4903 22.7963 43.652 22.6139 43.652 22.3888V21.9441C43.652 21.719 43.4903 21.5365 43.2909 21.5365Z" fill="#83D0EA"/>
<path d="M52.318 21.5365H45.3073C45.1079 21.5365 44.9463 21.719 44.9463 21.9441V22.3888C44.9463 22.6139 45.1079 22.7963 45.3073 22.7963H52.318C52.5174 22.7963 52.679 22.6139 52.679 22.3888V21.9441C52.679 21.719 52.5174 21.5365 52.318 21.5365Z" fill="#83D0EA"/>
<g opacity="0.5">
<path d="M51.7052 15.4658H34.8766C34.6773 15.4658 34.5156 15.6483 34.5156 15.8734V16.3181C34.5156 16.5432 34.6773 16.7256 34.8766 16.7256H51.7052C51.9046 16.7256 52.0663 16.5432 52.0663 16.3181V15.8734C52.0663 15.6483 51.9046 15.4658 51.7052 15.4658Z" fill="white"/>
<path d="M46.3738 18.5014H34.8766C34.6773 18.5014 34.5156 18.6839 34.5156 18.9089V19.3537C34.5156 19.5787 34.6773 19.7612 34.8766 19.7612H46.3738C46.5732 19.7612 46.7349 19.5787 46.7349 19.3537V18.9089C46.7349 18.6839 46.5732 18.5014 46.3738 18.5014Z" fill="white"/>
<path d="M43.2909 21.5365H34.8766C34.6773 21.5365 34.5156 21.7189 34.5156 21.944V22.3887C34.5156 22.6138 34.6773 22.7963 34.8766 22.7963H43.2909C43.4903 22.7963 43.652 22.6138 43.652 22.3887V21.944C43.652 21.7189 43.4903 21.5365 43.2909 21.5365Z" fill="white"/>
<path d="M52.318 21.5365H45.3073C45.1079 21.5365 44.9463 21.719 44.9463 21.9441V22.3888C44.9463 22.6139 45.1079 22.7963 45.3073 22.7963H52.318C52.5174 22.7963 52.679 22.6139 52.679 22.3888V21.9441C52.679 21.719 52.5174 21.5365 52.318 21.5365Z" fill="white"/>
</g>
<path d="M40.7443 26.8699H32.7105C32.1794 26.8699 31.7488 27.3559 31.7488 27.9555V41.5411C31.7488 42.1407 32.1794 42.6267 32.7105 42.6267H40.7443C41.2754 42.6267 41.706 42.1407 41.706 41.5411V27.9555C41.706 27.3559 41.2754 26.8699 40.7443 26.8699Z" fill="#83D0EA"/>
<path opacity="0.4" d="M40.7443 26.8699H32.7105C32.1794 26.8699 31.7488 27.3559 31.7488 27.9555V41.5411C31.7488 42.1407 32.1794 42.6267 32.7105 42.6267H40.7443C41.2754 42.6267 41.706 42.1407 41.706 41.5411V27.9555C41.706 27.3559 41.2754 26.8699 40.7443 26.8699Z" fill="black"/>
<path d="M40.3757 28.5139H33.0774C32.9798 28.5139 32.9006 28.6032 32.9006 28.7134V29.0127C32.9006 29.1229 32.9798 29.2123 33.0774 29.2123H40.3757C40.4733 29.2123 40.5525 29.1229 40.5525 29.0127V28.7134C40.5525 28.6032 40.4733 28.5139 40.3757 28.5139Z" fill="#FAFAFA"/>
<path d="M38.0523 30.1945H33.0774C32.9798 30.1945 32.9006 30.2839 32.9006 30.3941V30.6934C32.9006 30.8036 32.9798 30.8929 33.0774 30.8929H38.0523C38.1499 30.8929 38.229 30.8036 38.229 30.6934V30.3941C38.229 30.2839 38.1499 30.1945 38.0523 30.1945Z" fill="#FAFAFA"/>
<path d="M40.3757 31.8771H33.0774C32.9798 31.8771 32.9006 31.9664 32.9006 32.0766V32.3759C32.9006 32.4861 32.9798 32.5755 33.0774 32.5755H40.3757C40.4733 32.5755 40.5525 32.4861 40.5525 32.3759V32.0766C40.5525 31.9664 40.4733 31.8771 40.3757 31.8771Z" fill="#FAFAFA"/>
<path d="M35.7903 33.558H33.0774C32.9798 33.558 32.9006 33.6473 32.9006 33.7575V34.0568C32.9006 34.167 32.9798 34.2563 33.0774 34.2563H35.7903C35.8879 34.2563 35.9671 34.167 35.9671 34.0568V33.7575C35.9671 33.6473 35.8879 33.558 35.7903 33.558Z" fill="#FAFAFA"/>
<path d="M39.5864 33.558H36.8735C36.7759 33.558 36.6968 33.6473 36.6968 33.7575V34.0568C36.6968 34.167 36.7759 34.2563 36.8735 34.2563H39.5864C39.6841 34.2563 39.7632 34.167 39.7632 34.0568V33.7575C39.7632 33.6473 39.6841 33.558 39.5864 33.558Z" fill="#FAFAFA"/>
<path d="M40.3757 35.2405H33.0774C32.9798 35.2405 32.9006 35.3298 32.9006 35.44V35.7394C32.9006 35.8496 32.9798 35.9389 33.0774 35.9389H40.3757C40.4733 35.9389 40.5525 35.8496 40.5525 35.7394V35.44C40.5525 35.3298 40.4733 35.2405 40.3757 35.2405Z" fill="#FAFAFA"/>
<path d="M40.3757 36.9214H33.0774C32.9798 36.9214 32.9006 37.0108 32.9006 37.121V37.4203C32.9006 37.5305 32.9798 37.6198 33.0774 37.6198H40.3757C40.4733 37.6198 40.5525 37.5305 40.5525 37.4203V37.121C40.5525 37.0108 40.4733 36.9214 40.3757 36.9214Z" fill="#FAFAFA"/>
<path d="M39.0814 38.6039H33.0774C32.9798 38.6039 32.9006 38.6933 32.9006 38.8035V39.1028C32.9006 39.213 32.9798 39.3023 33.0774 39.3023H39.0814C39.179 39.3023 39.2582 39.213 39.2582 39.1028V38.8035C39.2582 38.6933 39.179 38.6039 39.0814 38.6039Z" fill="#FAFAFA"/>
<path d="M35.8787 40.2846H33.0774C32.9798 40.2846 32.9006 40.3739 32.9006 40.4841V40.7834C32.9006 40.8936 32.9798 40.983 33.0774 40.983H35.8787C35.9763 40.983 36.0554 40.8936 36.0554 40.7834V40.4841C36.0554 40.3739 35.9763 40.2846 35.8787 40.2846Z" fill="#FAFAFA"/>
<path d="M42.9178 26.7736H31.7742L36.7011 31.199L44.2556 34.4119V28.2803C44.2548 27.8804 44.1135 27.4972 43.8627 27.2147C43.6119 26.9323 43.2721 26.7736 42.9178 26.7736Z" fill="#83D0EA"/>
<path opacity="0.4" d="M42.9178 26.7736H31.7742L36.7011 31.199L44.2556 34.4119V28.2803C44.2548 27.8804 44.1135 27.4972 43.8627 27.2147C43.6119 26.9323 43.2721 26.7736 42.9178 26.7736Z" fill="black"/>
<path d="M42.4313 29.0533H34.2776C34.1552 29.0533 34.0559 29.1654 34.0559 29.3036V29.7703C34.0559 29.9085 34.1552 30.0206 34.2776 30.0206H42.4313C42.5537 30.0206 42.653 29.9085 42.653 29.7703V29.3036C42.653 29.1654 42.5537 29.0533 42.4313 29.0533Z" fill="#FAFAFA"/>
<path d="M62.1899 38.7527V29.9053C62.1899 29.2273 61.703 28.6776 61.1024 28.6776H47.493C46.8924 28.6776 46.4054 29.2273 46.4054 29.9053V38.7527C46.4054 39.4307 46.8924 39.9804 47.493 39.9804H61.1024C61.703 39.9804 62.1899 39.4307 62.1899 38.7527Z" fill="#83D0EA"/>
<path d="M64.6748 35.9489V27.1015C64.6748 26.4235 64.1879 25.8738 63.5873 25.8738H49.9779C49.3772 25.8738 48.8903 26.4235 48.8903 27.1015V35.9489C48.8903 36.6269 49.3772 37.1766 49.9779 37.1766H63.5873C64.1879 37.1766 64.6748 36.6269 64.6748 35.9489Z" fill="#83D0EA"/>
<path opacity="0.5" d="M64.6748 35.9489V27.1015C64.6748 26.4235 64.1879 25.8738 63.5873 25.8738H49.9779C49.3772 25.8738 48.8903 26.4235 48.8903 27.1015V35.9489C48.8903 36.6269 49.3772 37.1766 49.9779 37.1766H63.5873C64.1879 37.1766 64.6748 36.6269 64.6748 35.9489Z" fill="white"/>
<path d="M63.2939 32.917V27.4702C63.2939 27.1685 63.0773 26.924 62.8101 26.924H58.3625C58.0953 26.924 57.8786 27.1685 57.8786 27.4702V32.917C57.8786 33.2186 58.0953 33.4631 58.3625 33.4631H62.8101C63.0773 33.4631 63.2939 33.2186 63.2939 32.917Z" fill="#83D0EA"/>
<path opacity="0.7" d="M63.2939 32.917V27.4702C63.2939 27.1685 63.0773 26.924 62.8101 26.924H58.3625C58.0953 26.924 57.8786 27.1685 57.8786 27.4702V32.917C57.8786 33.2186 58.0953 33.4631 58.3625 33.4631H62.8101C63.0773 33.4631 63.2939 33.2186 63.2939 32.917Z" fill="white"/>
<path d="M57.0305 35.5517V31.3783C57.0305 31.1467 56.8642 30.959 56.659 30.959H53.251C53.0459 30.959 52.8795 31.1467 52.8795 31.3783V35.5517C52.8795 35.7834 53.0459 35.9711 53.251 35.9711H56.659C56.8642 35.9711 57.0305 35.7834 57.0305 35.5517Z" fill="#83D0EA"/>
<path opacity="0.3" d="M57.0305 35.5517V31.3783C57.0305 31.1467 56.8642 30.959 56.659 30.959H53.251C53.0459 30.959 52.8795 31.1467 52.8795 31.3783V35.5517C52.8795 35.7834 53.0459 35.9711 53.251 35.9711H56.659C56.8642 35.9711 57.0305 35.7834 57.0305 35.5517Z" fill="white"/>
<path d="M48.0349 11.1333V9.49814H37.5114V11.1333H48.0349Z" fill="#83D0EA"/>
<path opacity="0.5" d="M48.0349 11.1333V9.49814H37.5114V11.1333H48.0349Z" fill="white"/>
<path d="M19.528 23.5489C19.3962 23.8871 19.2509 24.2523 19.1236 24.6092C18.9963 24.966 18.8644 25.3329 18.7491 25.6982C18.5124 26.4102 18.3227 27.141 18.1813 27.8846L18.1379 28.1552L18.1229 28.2567C18.1229 28.2854 18.1229 28.3226 18.1139 28.3564C18.1082 28.5211 18.1112 28.686 18.1229 28.8502C18.1514 29.207 18.2023 29.5892 18.2727 29.9713C18.3986 30.7374 18.5588 31.5271 18.7221 32.3049L17.9536 32.6431C17.5954 31.906 17.2903 31.1375 17.0414 30.3451C16.9102 29.9326 16.8041 29.5106 16.7238 29.0819C16.6788 28.8447 16.6507 28.6038 16.6399 28.3615C16.6399 28.2939 16.6399 28.2296 16.6399 28.1569C16.6399 28.0842 16.6399 28.003 16.6504 27.9557L16.6803 27.6175C16.7251 27.1819 16.7936 26.7499 16.8856 26.3238C16.9695 25.9011 17.0773 25.4902 17.1852 25.0843C17.293 24.6785 17.4278 24.2794 17.5702 23.8871C17.6406 23.6909 17.72 23.4965 17.7889 23.302C17.8578 23.1075 17.9387 22.9215 18.0345 22.7135L19.528 23.5489Z" fill="#E4897B"/>
<path d="M18.6817 32.0766L19.2659 32.7209L17.9911 33.3973C17.9911 33.3973 17.6825 32.7869 17.8967 32.2356L18.6817 32.0766Z" fill="#E4897B"/>
<path d="M19.7379 33.6796L18.6608 34.1768L17.9927 33.3904L19.266 32.7208L19.7379 33.6796Z" fill="#E4897B"/>
<path opacity="0.4" d="M41.5561 32.9867C39.4365 32.718 37.4351 31.746 35.8049 30.1936C34.1746 28.6411 32.9888 26.5779 32.3971 24.2647C31.8055 21.9515 31.8347 19.4923 32.481 17.1978C33.1274 14.9034 34.3618 12.8768 36.0284 11.3742C37.6949 9.87159 39.7187 8.96051 41.8438 8.7561C43.969 8.55168 46.1001 9.06312 47.9678 10.2258C49.8355 11.3884 51.3559 13.15 52.3368 15.2879C53.3177 17.4259 53.7151 19.8441 53.4787 22.2369C53.3216 23.8267 52.8886 25.366 52.2043 26.7667C51.52 28.1675 50.5979 29.4023 49.4907 30.4007C48.3834 31.399 47.1128 32.1412 45.7513 32.5849C44.3899 33.0286 42.9643 33.1652 41.5561 32.9867Z" fill="#FAFAFA"/>
<path opacity="0.4" d="M49.4029 11.2941L32.9997 26.0888C32.9308 25.9197 32.8634 25.7506 32.8005 25.5815C32.3893 24.4773 32.1262 23.3101 32.02 22.1183L46.1882 9.33932C47.3514 9.77733 48.4389 10.4386 49.4029 11.2941Z" fill="#FAFAFA"/>
<path opacity="0.4" d="M53.1884 17.776L37.7665 31.6846C36.3014 30.8224 35.0317 29.5911 34.0559 28.0861L50.895 12.8974C51.9804 14.3038 52.7651 15.973 53.1884 17.776Z" fill="#FAFAFA"/>
<path d="M30.6179 16.2334L30.4756 16.1793C30.7221 15.3583 31.0318 14.5633 31.4014 13.8034L31.5317 13.8846C31.167 14.636 30.8613 15.4219 30.6179 16.2334ZM32.4365 12.2866L32.3151 12.1868C33.5462 10.3078 35.1574 8.78815 37.0144 7.7547L37.0818 7.90689C35.2459 8.92967 33.6532 10.433 32.4365 12.2917V12.2866ZM48.8531 8.13856C48.3636 7.84217 47.8572 7.58287 47.3371 7.36239L47.3911 7.20343C47.9162 7.42909 48.4276 7.69345 48.922 7.99482L48.8531 8.13856Z" fill="#83D0EA"/>
<path opacity="0.3" d="M30.6179 16.2334L30.4756 16.1793C30.7221 15.3583 31.0318 14.5633 31.4014 13.8034L31.5317 13.8846C31.167 14.636 30.8613 15.4219 30.6179 16.2334ZM32.4365 12.2866L32.3151 12.1868C33.5462 10.3078 35.1574 8.78815 37.0144 7.7547L37.0818 7.90689C35.2459 8.92967 33.6532 10.433 32.4365 12.2917V12.2866ZM48.8531 8.13856C48.3636 7.84217 47.8572 7.58287 47.3371 7.36239L47.3911 7.20343C47.9162 7.42909 48.4276 7.69345 48.922 7.99482L48.8531 8.13856Z" fill="black"/>
<path d="M53.909 14.668C52.5219 11.4204 50.0809 8.89998 47.0921 7.62914C44.1033 6.35829 40.7959 6.43452 37.8555 7.84201C34.9151 9.2495 32.5673 11.8803 31.2987 15.189C30.0302 18.4978 29.9383 22.2307 31.0419 25.6139C30.0413 26.0096 29.0526 26.434 28.0699 26.872C26.6528 27.5067 25.2486 28.1695 23.8575 28.8606C22.4673 29.5556 21.0832 30.2641 19.7125 31.0048C19.0249 31.3684 18.3463 31.7522 17.6617 32.1243C17.3056 32.297 16.9829 32.5469 16.712 32.8598C16.5654 33.0331 16.4363 33.2243 16.327 33.4297C16.1937 33.6727 16.0928 33.9365 16.0274 34.2127C15.9147 34.7103 15.9634 35.237 16.1648 35.6976C16.3662 36.1581 16.707 36.5222 17.1255 36.7238C17.3578 36.8338 17.603 36.9056 17.8535 36.9369C18.065 36.9639 18.2786 36.9639 18.4901 36.9369C18.8746 36.8842 19.2461 36.7469 19.5837 36.5327C20.2623 36.1455 20.9454 35.7718 21.6195 35.3744C22.9677 34.5982 24.3159 33.7882 25.6476 32.9664C26.9793 32.1445 28.3126 31.2838 29.6128 30.4011C30.5116 29.7873 31.4194 29.1599 32.3092 28.5038C34.0179 31.5487 36.6988 33.7349 39.7965 34.6093C42.8942 35.4837 46.1711 34.9793 48.9483 33.2006C51.7255 31.4219 53.79 28.5053 54.7141 25.0551C55.6382 21.6049 55.351 17.8856 53.912 14.668H53.909ZM47.0991 30.8222C45.3582 31.7922 43.4016 32.1577 41.4767 31.8725C39.5518 31.5873 37.745 30.6642 36.2849 29.2199C34.8247 27.7756 33.7767 25.875 33.2734 23.7584C32.77 21.6418 32.834 19.4043 33.4572 17.3287C34.0803 15.2531 35.2347 13.4327 36.7743 12.0977C38.3139 10.7627 40.1696 9.97299 42.1068 9.82847C44.044 9.68396 45.9756 10.1911 47.6575 11.2858C49.3394 12.3805 50.6959 14.0135 51.5556 15.9785C52.1266 17.2834 52.4642 18.7026 52.5492 20.1548C52.6343 21.6071 52.465 23.064 52.0512 24.4424C51.6373 25.8208 50.987 27.0937 50.1373 28.1884C49.2876 29.283 48.2552 30.178 47.0991 30.8222Z" fill="#83D0EA"/>
<path opacity="0.3" d="M53.909 14.668C52.5219 11.4204 50.0809 8.89998 47.0921 7.62914C44.1033 6.35829 40.7959 6.43452 37.8555 7.84201C34.9151 9.2495 32.5673 11.8803 31.2987 15.189C30.0302 18.4978 29.9383 22.2307 31.0419 25.6139C30.0413 26.0096 29.0526 26.434 28.0699 26.872C26.6528 27.5067 25.2486 28.1695 23.8575 28.8606C22.4673 29.5556 21.0832 30.2641 19.7125 31.0048C19.0249 31.3684 18.3463 31.7522 17.6617 32.1243C17.3056 32.297 16.9829 32.5469 16.712 32.8598C16.5654 33.0331 16.4363 33.2243 16.327 33.4297C16.1937 33.6727 16.0928 33.9365 16.0274 34.2127C15.9147 34.7103 15.9634 35.237 16.1648 35.6976C16.3662 36.1581 16.707 36.5222 17.1255 36.7238C17.3578 36.8338 17.603 36.9056 17.8535 36.9369C18.065 36.9639 18.2786 36.9639 18.4901 36.9369C18.8746 36.8842 19.2461 36.7469 19.5837 36.5327C20.2623 36.1455 20.9454 35.7718 21.6195 35.3744C22.9677 34.5982 24.3159 33.7882 25.6476 32.9664C26.9793 32.1445 28.3126 31.2838 29.6128 30.4011C30.5116 29.7873 31.4194 29.1599 32.3092 28.5038C34.0179 31.5487 36.6988 33.7349 39.7965 34.6093C42.8942 35.4837 46.1711 34.9793 48.9483 33.2006C51.7255 31.4219 53.79 28.5053 54.7141 25.0551C55.6382 21.6049 55.351 17.8856 53.912 14.668H53.909ZM47.0991 30.8222C45.3582 31.7922 43.4016 32.1577 41.4767 31.8725C39.5518 31.5873 37.745 30.6642 36.2849 29.2199C34.8247 27.7756 33.7767 25.875 33.2734 23.7584C32.77 21.6418 32.834 19.4043 33.4572 17.3287C34.0803 15.2531 35.2347 13.4327 36.7743 12.0977C38.3139 10.7627 40.1696 9.97299 42.1068 9.82847C44.044 9.68396 45.9756 10.1911 47.6575 11.2858C49.3394 12.3805 50.6959 14.0135 51.5556 15.9785C52.1266 17.2834 52.4642 18.7026 52.5492 20.1548C52.6343 21.6071 52.465 23.064 52.0512 24.4424C51.6373 25.8208 50.987 27.0937 50.1373 28.1884C49.2876 29.283 48.2552 30.178 47.0991 30.8222Z" fill="black"/>
<path d="M23.6687 17.5103C23.6687 17.6101 23.7151 17.6912 23.7736 17.6912C23.832 17.6912 23.8784 17.6101 23.8784 17.5103C23.8784 17.4105 23.832 17.3293 23.7736 17.3293C23.7151 17.3293 23.6687 17.4173 23.6687 17.5103Z" fill="#263238"/>
<path d="M23.7102 17.6913C23.8162 17.9976 23.9589 18.2861 24.1341 18.5487C24.0735 18.5976 24.0042 18.631 23.931 18.6465C23.8577 18.662 23.7824 18.6592 23.7102 18.6383V17.6913Z" fill="#DE5753"/>
<path d="M23.3583 16.9539C23.3499 16.9539 23.3417 16.9518 23.3341 16.9477C23.3266 16.9436 23.32 16.9376 23.3148 16.9302C23.307 16.9173 23.3039 16.9015 23.3061 16.8861C23.3084 16.8707 23.3158 16.8568 23.3268 16.8474C23.3928 16.7909 23.4699 16.7532 23.5515 16.7376C23.6331 16.722 23.7169 16.7289 23.7957 16.7577C23.8027 16.7599 23.8093 16.7637 23.815 16.769C23.8207 16.7742 23.8253 16.7807 23.8287 16.7881C23.832 16.7955 23.8339 16.8036 23.8343 16.8118C23.8346 16.8201 23.8335 16.8284 23.8308 16.8361C23.8282 16.8438 23.8242 16.8508 23.819 16.8567C23.8138 16.8625 23.8076 16.8671 23.8007 16.8701C23.7939 16.8731 23.7866 16.8744 23.7792 16.874C23.7719 16.8735 23.7648 16.8714 23.7582 16.8677C23.6957 16.846 23.6294 16.8416 23.565 16.8548C23.5006 16.8681 23.44 16.8986 23.3882 16.9438C23.3793 16.9504 23.3689 16.9539 23.3583 16.9539Z" fill="#263238"/>
<path d="M20.6422 18.2631C20.792 19.1711 20.9568 20.8368 20.3936 21.4439C20.3936 21.4439 20.6138 22.3655 22.1103 22.3655C23.7581 22.3655 22.8952 21.4439 22.8952 21.4439C21.9964 21.2003 22.0219 20.4495 22.1777 19.7427L20.6422 18.2631Z" fill="#E4897B"/>
<path d="M19.7212 21.9221C19.8995 21.6093 19.5999 20.85 19.5999 20.85C19.5999 20.85 22.2483 20.0975 23.3314 21.2525C23.5561 21.4909 23.3074 21.8427 23.3074 21.8427L19.7212 21.9221Z" fill="#83D0EA"/>
<path opacity="0.1" d="M19.7212 21.9221C19.8995 21.6093 19.5999 20.85 19.5999 20.85C19.5999 20.85 22.2483 20.0975 23.3314 21.2525C23.5561 21.4909 23.3074 21.8427 23.3074 21.8427L19.7212 21.9221Z" fill="black"/>
<path d="M15.3398 56.4237C15.2004 56.4237 14.9772 56.1616 14.9113 56.0635C14.9085 56.0588 14.907 56.0532 14.907 56.0475C14.907 56.0417 14.9085 56.0361 14.9113 56.0314C14.9137 56.0267 14.9172 56.0228 14.9215 56.0201C14.9257 56.0174 14.9305 56.0161 14.9353 56.0162C14.9518 56.0162 15.3188 56.0534 15.4192 56.2005C15.4301 56.216 15.4379 56.2341 15.442 56.2533C15.4461 56.2726 15.4465 56.2927 15.4431 56.3121C15.4418 56.3373 15.4336 56.3614 15.4197 56.3811C15.4057 56.4007 15.3867 56.4151 15.3652 56.422L15.3398 56.4237ZM14.9922 56.0855C15.1016 56.2276 15.2768 56.3882 15.3517 56.3679C15.3517 56.3679 15.3817 56.3595 15.3907 56.3053C15.3927 56.2941 15.3923 56.2824 15.3897 56.2713C15.3871 56.2601 15.3824 56.2498 15.3757 56.2411C15.2647 56.1462 15.1312 56.0909 14.9922 56.0821V56.0855Z" fill="#83D0EA"/>
<path d="M15.0086 56.0823C14.9817 56.0854 14.9546 56.0854 14.9277 56.0823C14.923 56.0819 14.9185 56.0799 14.9148 56.0766C14.911 56.0733 14.9082 56.0688 14.9068 56.0637C14.9047 56.059 14.9036 56.0538 14.9036 56.0485C14.9036 56.0432 14.9047 56.038 14.9068 56.0333C14.9173 56.0231 15.1375 55.7644 15.3037 55.7644C15.3236 55.7639 15.3434 55.7681 15.3617 55.7769C15.3801 55.7856 15.3966 55.7987 15.4101 55.8151C15.425 55.8292 15.4352 55.8486 15.439 55.8701C15.4428 55.8917 15.44 55.914 15.4311 55.9335C15.3876 56.0282 15.1584 56.0823 15.0086 56.0823ZM14.9892 56.0231C15.139 56.0231 15.3562 55.9707 15.3921 55.8963C15.3921 55.8963 15.4026 55.8743 15.3786 55.8472C15.3699 55.8365 15.3592 55.8281 15.3473 55.8226C15.3354 55.817 15.3226 55.8145 15.3097 55.8151C15.1869 55.8469 15.0753 55.9193 14.9892 56.0231Z" fill="#83D0EA"/>
<path d="M25.2251 60.2626C25.1115 60.2617 24.9983 60.2499 24.8865 60.2271C24.881 60.2259 24.876 60.2226 24.8724 60.2176C24.8688 60.2127 24.8669 60.2064 24.867 60.2001C24.8662 60.1942 24.8669 60.1882 24.869 60.1828C24.8712 60.1774 24.8746 60.1728 24.879 60.1696C24.8955 60.1595 25.279 59.9109 25.4633 59.9684C25.4803 59.9728 25.4965 59.981 25.5106 59.9926C25.5248 60.0043 25.5367 60.019 25.5456 60.036C25.5574 60.0548 25.5637 60.0773 25.5637 60.1003C25.5637 60.1233 25.5574 60.1457 25.5456 60.1646C25.5022 60.2407 25.3659 60.2626 25.2251 60.2626ZM24.9719 60.1832C25.1756 60.217 25.4543 60.2153 25.5052 60.1341C25.5127 60.124 25.5187 60.1054 25.5052 60.0699C25.4938 60.0488 25.4755 60.0336 25.4543 60.0276C25.3374 59.9938 25.1052 60.1054 24.9719 60.1832Z" fill="#83D0EA"/>
<path d="M24.8923 60.2286C24.8874 60.2302 24.8822 60.2302 24.8773 60.2286C24.8731 60.2256 24.8699 60.2212 24.868 60.2161C24.8661 60.2109 24.8657 60.2053 24.8668 60.1998C24.8769 60.0238 24.9368 59.8561 25.0376 59.7213C25.0579 59.7014 25.0819 59.6868 25.1077 59.6783C25.1336 59.6699 25.1607 59.6678 25.1874 59.6722C25.2593 59.6722 25.2802 59.7213 25.2847 59.7534C25.3042 59.8938 25.0421 60.1626 24.9087 60.2303L24.8923 60.2286ZM25.1604 59.7213C25.1274 59.721 25.0955 59.7342 25.0705 59.7585C24.9858 59.8653 24.9334 59.9997 24.9207 60.1423C25.0555 60.0493 25.2353 59.8397 25.2203 59.7551C25.2203 59.7551 25.2203 59.7264 25.1694 59.7213H25.1604Z" fill="#83D0EA"/>
<path d="M23.6819 60.1984H24.7829L24.8923 57.322H23.7912L23.6819 60.1984Z" fill="#E4897B"/>
<path d="M13.8777 55.2604L14.7975 55.9402L16.8288 54.004L15.9075 53.3225L13.8777 55.2604Z" fill="#E4897B"/>
<path d="M14.9487 55.876L13.993 54.9916C13.9761 54.9759 13.9549 54.9674 13.9331 54.9674C13.9112 54.9674 13.89 54.9759 13.8732 54.9916L13.0852 55.69C13.0662 55.7071 13.0508 55.7288 13.0402 55.7536C13.0297 55.7783 13.0242 55.8054 13.0242 55.8329C13.0242 55.8603 13.0297 55.8875 13.0402 55.9122C13.0508 55.9369 13.0662 55.9587 13.0852 55.9758C13.4237 56.2785 13.602 56.407 14.023 56.7959C14.2821 57.0343 14.9218 57.7649 15.2828 58.0946C15.6438 58.4244 15.9749 58.0692 15.855 57.8985C15.3172 57.129 15.106 56.4712 15.0446 56.0637C15.034 55.99 14.9999 55.9233 14.9487 55.876Z" fill="#263238"/>
<path d="M24.7753 60.0544H23.5769C23.5551 60.0545 23.5339 60.0629 23.5167 60.0782C23.4996 60.0935 23.4876 60.1149 23.4825 60.1389L23.2653 61.2432C23.2599 61.2699 23.2599 61.2977 23.2653 61.3245C23.2708 61.3512 23.2816 61.3762 23.2969 61.3976C23.3122 61.4189 23.3316 61.4361 23.3537 61.4477C23.3757 61.4593 23.3998 61.4651 23.4241 61.4647C23.857 61.4562 24.4832 61.4275 25.0285 61.4275C25.6651 61.4275 26.2164 61.4664 26.9624 61.4664C27.4118 61.4664 27.5406 60.9506 27.3504 60.905C26.4905 60.6919 25.7865 60.6699 25.0435 60.1508C24.9637 60.0912 24.8709 60.0578 24.7753 60.0544Z" fill="#263238"/>
<path d="M18.2248 21.8139C17.2706 22.3212 16.7268 25.7201 16.7268 25.7201L19.0592 26.7702C19.4006 25.8292 19.6766 24.8595 19.8846 23.8701C20.2052 22.3042 19.2015 21.2896 18.2248 21.8139Z" fill="#263238"/>
<path d="M19.4621 23.73C18.8853 24.3895 18.6217 25.6814 18.5063 26.5218L19.0651 26.7738C19.3968 25.8595 19.6672 24.9183 19.874 23.9583C19.8246 23.5998 19.7018 23.456 19.4621 23.73Z" fill="#203048"/>
<path d="M24.5879 21.7902C24.5879 21.7902 25.7593 23.285 24.6538 32.5281H18.7681C18.7277 31.5135 19.2954 26.5335 18.4236 21.7276C19.074 21.5853 19.7321 21.4915 20.3935 21.4469C21.2266 21.3911 22.062 21.3911 22.8951 21.4469C23.4664 21.5118 24.0323 21.6266 24.5879 21.7902Z" fill="#263238"/>
<path d="M25.1263 25.3788L24.1346 23.4493C23.9432 24.3496 23.865 25.2758 23.9024 26.2006C23.9294 26.8635 24.4671 29.3188 24.951 29.6773C25.0794 28.2492 25.1379 26.8142 25.1263 25.3788Z" fill="#203048"/>
<path d="M25.264 23.1111C25.4138 23.9329 25.5636 24.775 25.7239 25.6003C25.8842 26.4255 26.0505 27.2541 26.2437 28.0539C26.2931 28.2518 26.3396 28.4547 26.3935 28.6441L26.4339 28.7895L26.4534 28.8622V28.8538C26.4429 28.8385 26.4309 28.8368 26.4399 28.8538C26.5015 28.9297 26.5802 28.9852 26.6676 29.0144C26.8092 29.0739 26.9551 29.1197 27.1035 29.1514C27.8118 29.2781 28.5289 29.3307 29.2457 29.3086L29.388 30.2285C29.1873 30.3013 29 30.3537 28.8023 30.4061C28.6046 30.4585 28.4098 30.5025 28.2106 30.5363C27.7984 30.6138 27.3804 30.6455 26.9627 30.631C26.7306 30.6239 26.4997 30.5899 26.2737 30.5295C25.9863 30.4586 25.7163 30.3172 25.4827 30.1153C25.3302 29.9762 25.2043 29.8036 25.1127 29.6079C25.0887 29.5572 25.0678 29.4997 25.0483 29.4507L25.0213 29.3712L24.9659 29.2021C24.8895 28.9873 24.8266 28.776 24.7577 28.5646C24.5045 27.7191 24.2933 26.8651 24.1075 26.0129C23.9218 25.1606 23.7615 24.31 23.6282 23.4358L25.264 23.1111Z" fill="#E4897B"/>
<path d="M23.1185 22.6967C22.8085 23.8314 24.0653 27.2151 24.0653 27.2151L26.5685 26.5049C26.5685 26.5049 26.4726 24.7463 25.9018 23.3512C25.042 21.2476 23.49 21.3355 23.1185 22.6967Z" fill="#263238"/>
<path d="M29.2246 29.3086L30.4709 29.2731L29.8717 30.7375C29.8717 30.7375 29.3639 30.8136 28.9475 30.0408L28.5085 29.449L29.0134 29.3357C29.0829 29.3192 29.1536 29.3101 29.2246 29.3086Z" fill="#E4897B"/>
<path d="M31.2572 29.5454L30.5442 30.7595L29.8716 30.7375L30.4708 29.2731L31.2572 29.5454Z" fill="#E4897B"/>
<path d="M24.8923 57.322L24.8354 58.805H23.7344L23.7913 57.322H24.8923Z" fill="#CE6F64"/>
<path d="M15.9072 53.3225L16.8285 54.004L15.7799 55.0017L14.8601 54.3219L15.9072 53.3225Z" fill="#CE6F64"/>
<path d="M20.7114 17.2956C20.7774 18.525 20.7609 19.2504 21.3106 19.8812C22.1375 20.8332 23.4843 20.2701 23.7449 19.0357C23.9801 17.9297 23.8333 16.1035 22.7667 15.6131C22.5314 15.5058 22.2758 15.4679 22.0238 15.5027C21.7719 15.5375 21.532 15.644 21.3266 15.8122C21.1211 15.9804 20.9569 16.2048 20.8493 16.4642C20.7417 16.7237 20.6943 17.0098 20.7114 17.2956Z" fill="#E4897B"/>
<path d="M19.4294 17.0791C19.7005 18.2002 20.3387 19.4921 21.1641 19.575C22.1887 19.6765 22.6516 18.4809 22.7864 17.2465C23.4006 16.7713 23.0785 16.2488 23.6942 16.1828C24.4851 16.0983 24.232 14.4648 23.1909 14.2027C23.1909 14.2027 23.5399 14.9382 22.8074 14.5662C22.1107 14.1925 21.3368 14.041 20.5693 14.1283C20.5693 14.1283 21.5041 14.6558 20.5903 14.8909C19.6765 15.1259 19.4039 15.7618 19.8248 16.1456C19.8248 16.1473 19.2511 16.3418 19.4294 17.0791Z" fill="#263238"/>
<path d="M22.1615 17.5001C22.1817 17.8057 22.2907 18.0952 22.4716 18.3236C22.7113 18.623 22.9615 18.4369 23.0034 18.0734C23.0424 17.747 22.963 17.1974 22.6694 17.0317C22.3757 16.866 22.1421 17.1315 22.1615 17.5001Z" fill="#E4897B"/>
<path d="M22.566 32.5281C22.566 32.5281 23.6386 41.296 22.7937 44.8099C21.4545 50.3733 16.3343 55.0693 16.3343 55.0693L14.5981 53.7841C14.5981 53.7841 18.9588 49.8187 19.4921 45.1599C19.9715 40.9781 18.7686 35.9203 18.7686 32.5264L22.566 32.5281Z" fill="#83D0EA"/>
<path opacity="0.1" d="M22.566 32.5281C22.566 32.5281 23.6386 41.296 22.7937 44.8099C21.4545 50.3733 16.3343 55.0693 16.3343 55.0693L14.5981 53.7841C14.5981 53.7841 18.9588 49.8187 19.4921 45.1599C19.9715 40.9781 18.7686 35.9203 18.7686 32.5264L22.566 32.5281Z" fill="black"/>
<path d="M23.0093 37.5404C22.7238 37.1712 22.4094 36.8316 22.0701 36.5258C22.2528 39.3718 22.4026 43.5875 22.2363 46.5823C22.4599 46.0081 22.6462 45.4164 22.7936 44.8118C23.2056 43.0954 23.1621 40.1311 23.0093 37.5404Z" fill="#83D0EA"/>
<path opacity="0.3" d="M23.0093 37.5404C22.7238 37.1712 22.4094 36.8316 22.0701 36.5258C22.2528 39.3718 22.4026 43.5875 22.2363 46.5823C22.4599 46.0081 22.6462 45.4164 22.7936 44.8118C23.2056 43.0954 23.1621 40.1311 23.0093 37.5404Z" fill="black"/>
<path d="M17.0339 54.6314C17.0414 54.6314 16.3613 55.1387 16.3613 55.1387L14.4648 53.7352L15.064 53.1755L17.0339 54.6314Z" fill="#83D0EA"/>
<path opacity="0.3" d="M17.0339 54.6314C17.0414 54.6314 16.3613 55.1387 16.3613 55.1387L14.4648 53.7352L15.064 53.1755L17.0339 54.6314Z" fill="black"/>
<path d="M24.654 32.528C24.654 32.528 26.3108 40.4589 26.4277 44.2484C26.5595 48.4962 25.2457 58.5172 25.2457 58.5172H23.3807C23.3807 58.5172 23.1515 48.4184 23.0691 44.5494C22.9777 40.3303 20.7847 32.528 20.7847 32.528H24.654Z" fill="#83D0EA"/>
<path opacity="0.1" d="M24.654 32.528C24.654 32.528 26.3108 40.4589 26.4277 44.2484C26.5595 48.4962 25.2457 58.5172 25.2457 58.5172H23.3807C23.3807 58.5172 23.1515 48.4184 23.0691 44.5494C22.9777 40.3303 20.7847 32.528 20.7847 32.528H24.654Z" fill="black"/>
<path d="M25.6039 57.6804C25.6129 57.6804 25.4991 58.5529 25.4991 58.5529H23.2311L23.1697 57.7734L25.6039 57.6804Z" fill="#83D0EA"/>
<path opacity="0.3" d="M25.6039 57.6804C25.6129 57.6804 25.4991 58.5529 25.4991 58.5529H23.2311L23.1697 57.7734L25.6039 57.6804Z" fill="black"/>
<path d="M53.3289 24.9067C53.4562 25.042 53.5566 25.1569 53.6615 25.2855C53.7663 25.414 53.8652 25.5391 53.9611 25.6693C54.1558 25.928 54.3386 26.2003 54.5153 26.4742C54.8684 27.0238 55.1824 27.6039 55.4546 28.2092L55.51 28.3327C55.5371 28.3924 55.5596 28.4546 55.5774 28.5187C55.6136 28.6424 55.6357 28.7708 55.6433 28.9008C55.6531 29.1301 55.6251 29.3595 55.5609 29.5773C55.4515 29.939 55.2889 30.2774 55.0801 30.5783C54.7036 31.124 54.2597 31.6058 53.7618 32.0089L53.3888 31.5253C53.5641 31.2936 53.7468 31.045 53.9101 30.7965C54.0763 30.5556 54.2265 30.3013 54.3595 30.0355C54.4838 29.8036 54.5758 29.5515 54.6322 29.2881C54.6515 29.1938 54.6551 29.0963 54.6426 29.0006C54.6373 28.9684 54.6282 28.9372 54.6157 28.9076C54.6101 28.8946 54.6036 28.8822 54.5962 28.8704L54.5483 28.7791C54.2594 28.2473 53.9459 27.7331 53.609 27.2386C53.4427 26.99 53.2645 26.7516 53.0847 26.5165C52.9963 26.3981 52.905 26.2832 52.8136 26.1682C52.7222 26.0532 52.6233 25.9382 52.5439 25.8486L53.3289 24.9067Z" fill="#E4897B"/>
<path d="M53.5328 31.3833L52.4138 31.177L52.9995 32.2829C52.9995 32.2829 53.7201 32.2542 53.9253 31.7756L53.5328 31.3833Z" fill="#E4897B"/>
<path d="M51.5872 31.6877L52.1204 32.5856L52.9998 32.2829L52.4141 31.177L51.5872 31.6877Z" fill="#E4897B"/>
<path d="M53.4789 60.2471C53.4028 60.2545 53.3269 60.2312 53.2647 60.1812C53.2459 60.1612 53.232 60.136 53.2244 60.1082C53.2168 60.0803 53.2157 60.0507 53.2212 60.0222C53.2223 60.0041 53.2278 59.9866 53.237 59.9717C53.2462 59.9568 53.2589 59.9451 53.2737 59.9377C53.404 59.8717 53.7455 60.1186 53.7845 60.1474C53.7889 60.1505 53.7924 60.1551 53.7942 60.1606C53.7961 60.1661 53.7964 60.1721 53.795 60.1778C53.7944 60.1836 53.7922 60.189 53.7887 60.1933C53.7852 60.1976 53.7806 60.2004 53.7755 60.2015C53.6785 60.2293 53.579 60.2446 53.4789 60.2471ZM53.3291 59.985C53.3182 59.9831 53.307 59.9831 53.2961 59.985C53.2895 59.9885 53.2839 59.994 53.28 60.0009C53.276 60.0077 53.2738 60.0157 53.2737 60.0239C53.2697 60.0428 53.2701 60.0625 53.2748 60.0812C53.2795 60.0998 53.2884 60.1168 53.3006 60.1305C53.3575 60.188 53.5043 60.1964 53.7006 60.1525C53.5882 60.0686 53.4617 60.0116 53.3291 59.985Z" fill="#83D0EA"/>
<path d="M53.7786 60.2H53.7651C53.6587 60.1306 53.4535 59.8618 53.479 59.7146C53.4838 59.6915 53.4952 59.6707 53.5114 59.6554C53.5276 59.6402 53.5478 59.6313 53.5689 59.6301C53.5891 59.6268 53.6097 59.6288 53.6292 59.6358C53.6486 59.6428 53.6664 59.6547 53.6812 59.6707C53.804 59.7924 53.8055 60.1577 53.8055 60.178C53.8053 60.1831 53.8039 60.1881 53.8015 60.1925C53.7992 60.1969 53.7959 60.2006 53.7921 60.2033L53.7786 60.2ZM53.5868 59.6927H53.5748C53.5419 59.6927 53.5344 59.713 53.5314 59.7282C53.5164 59.8144 53.6438 60.0207 53.7501 60.1171C53.7527 59.9753 53.7166 59.8359 53.6468 59.718C53.6378 59.7086 53.6271 59.7014 53.6155 59.6971C53.6039 59.6927 53.5915 59.6912 53.5793 59.6927H53.5868Z" fill="#83D0EA"/>
<path d="M48.3735 60.2472C48.2779 60.2574 48.1821 60.23 48.1024 60.1694C48.0844 60.1514 48.0705 60.1288 48.0619 60.1035C48.0533 60.0782 48.0503 60.0509 48.0529 60.0239C48.0539 60.0075 48.0585 59.9916 48.0664 59.9777C48.0743 59.9638 48.0851 59.9524 48.0979 59.9445C48.2372 59.8565 48.6836 60.1136 48.7345 60.1457C48.7392 60.1491 48.7429 60.1539 48.7453 60.1596C48.7477 60.1653 48.7486 60.1716 48.748 60.1778C48.7472 60.1838 48.7447 60.1892 48.7409 60.1935C48.7371 60.1977 48.7323 60.2005 48.727 60.2015C48.6108 60.2294 48.4924 60.2447 48.3735 60.2472ZM48.1743 59.9851C48.1572 59.9838 48.14 59.9879 48.1249 59.9969C48.1195 59.9998 48.1149 60.0043 48.1117 60.01C48.1086 60.0157 48.1069 60.0223 48.1069 60.029C48.1046 60.0466 48.1061 60.0646 48.1113 60.0814C48.1166 60.0982 48.1253 60.1133 48.1368 60.1254C48.2057 60.1947 48.39 60.2066 48.6387 60.1592C48.4937 60.072 48.3367 60.0132 48.1743 59.9851Z" fill="#83D0EA"/>
<path d="M48.7224 60.1997H48.7105C48.5771 60.1321 48.312 59.8615 48.333 59.7144C48.333 59.6806 48.3599 59.6383 48.4333 59.6298C48.4601 59.6266 48.4873 59.6295 48.513 59.6385C48.5388 59.6476 48.5626 59.6624 48.5831 59.6822C48.7239 59.8141 48.7509 60.1557 48.7509 60.1709C48.7515 60.1761 48.7508 60.1813 48.749 60.1861C48.7471 60.1909 48.7442 60.195 48.7404 60.198C48.7347 60.2007 48.7284 60.2013 48.7224 60.1997ZM48.4543 59.6924H48.4378C48.3899 59.6924 48.3869 59.7194 48.3854 59.7262C48.3734 59.8125 48.5532 60.0272 48.685 60.1202C48.672 59.9757 48.6197 59.8392 48.5352 59.7296C48.5125 59.7077 48.4841 59.6947 48.4543 59.6924Z" fill="#83D0EA"/>
<path d="M50.4935 21.0191C50.45 21.7834 50.3332 23.3358 50.853 23.7653C50.853 23.7653 50.7586 24.5482 49.5318 24.7308C48.1835 24.9287 48.7992 24.0697 48.7992 24.0697C49.5138 23.7619 49.4224 23.1481 49.2277 22.5866L50.4935 21.0191Z" fill="#E4897B"/>
<path d="M47.7028 19.668C47.6954 19.668 47.6881 19.6662 47.6813 19.6627C47.6746 19.6592 47.6686 19.6541 47.6638 19.6477C47.621 19.5904 47.5668 19.5452 47.5057 19.5158C47.4445 19.4864 47.3781 19.4737 47.3118 19.4786C47.3048 19.4801 47.2976 19.4799 47.2907 19.4781C47.2837 19.4763 47.2772 19.4729 47.2714 19.4682C47.2657 19.4634 47.2609 19.4574 47.2572 19.4505C47.2536 19.4436 47.2513 19.4359 47.2504 19.4279C47.2487 19.412 47.2526 19.396 47.2613 19.3833C47.27 19.3707 47.2828 19.3624 47.2968 19.3603C47.3814 19.3522 47.4665 19.3674 47.5447 19.4045C47.623 19.4416 47.6921 19.4995 47.7462 19.5733C47.7527 19.5821 47.7569 19.5929 47.7582 19.6042C47.7595 19.6156 47.758 19.6271 47.7538 19.6376C47.7496 19.648 47.7428 19.6569 47.7343 19.6631C47.7258 19.6694 47.7159 19.6729 47.7058 19.6731L47.7028 19.668Z" fill="#263238"/>
<path d="M47.4688 20.4174C47.4156 20.6599 47.3335 20.8932 47.2246 21.1107C47.2746 21.1411 47.3299 21.1587 47.3866 21.1622C47.4433 21.1657 47.5 21.155 47.5527 21.131L47.4688 20.4174Z" fill="#DE5753"/>
<path d="M47.5287 20.2308C47.5407 20.3323 47.5032 20.4202 47.4448 20.4304C47.3864 20.4405 47.328 20.3627 47.3175 20.2613C47.307 20.1598 47.343 20.0719 47.4014 20.0634C47.4598 20.055 47.5182 20.1226 47.5287 20.2308Z" fill="#263238"/>
<path d="M47.4283 20.0655L47.2051 20.0266C47.2051 20.0266 47.3369 20.2008 47.4283 20.0655Z" fill="#263238"/>
<path d="M49.9574 60.1729H48.8339L48.759 57.239H49.8825L49.9574 60.1729Z" fill="#E4897B"/>
<path d="M55.058 60.1729H53.9345L53.5735 57.239H54.697L55.058 60.1729Z" fill="#E4897B"/>
<path d="M53.8654 60.0307H55.1267C55.1482 60.0305 55.1691 60.0391 55.1853 60.055C55.2016 60.0709 55.2122 60.0929 55.2151 60.117L55.3649 61.2449C55.3676 61.2733 55.365 61.3021 55.3572 61.3293C55.3494 61.3565 55.3366 61.3816 55.3197 61.4028C55.3027 61.424 55.2819 61.441 55.2587 61.4525C55.2356 61.4641 55.2105 61.47 55.1851 61.4698C54.7462 61.4613 54.5335 61.4326 53.9792 61.4326C53.6377 61.4326 53.1389 61.4715 52.6685 61.4715C52.1981 61.4715 52.1727 60.9456 52.3689 60.8982C53.2482 60.6852 53.3875 60.3909 53.6826 60.1085C53.7342 60.0603 53.7985 60.0329 53.8654 60.0307Z" fill="#263238"/>
<path d="M48.796 60.0307H50.0559C50.0775 60.0305 50.0986 60.039 50.1151 60.0549C50.1316 60.0707 50.1425 60.0928 50.1457 60.117L50.2955 61.2449C50.2983 61.2733 50.2957 61.3021 50.2879 61.3293C50.2801 61.3565 50.2673 61.3816 50.2503 61.4028C50.2333 61.424 50.2126 61.441 50.1894 61.4525C50.1662 61.4641 50.1411 61.47 50.1158 61.4698C49.6769 61.4613 49.4641 61.4326 48.9099 61.4326C48.5683 61.4326 47.8613 61.4715 47.3909 61.4715C46.9205 61.4715 46.8951 60.9456 47.0913 60.8982C47.9706 60.6852 48.3167 60.3909 48.6133 60.1085C48.6648 60.0603 48.7291 60.0329 48.796 60.0307Z" fill="#263238"/>
<path d="M48.759 57.239L48.798 58.7524H49.9215L49.8825 57.239H48.759Z" fill="#CE6F64"/>
<path d="M54.697 57.239H53.5735L53.7607 58.7524H54.8827L54.697 57.239Z" fill="#CE6F64"/>
<path d="M50.5084 19.4364C50.5848 20.6911 50.6402 21.2204 50.1578 21.9425C49.4313 23.0264 48.0502 22.859 47.6427 21.655C47.2757 20.5711 47.2128 18.7025 48.2344 18.0464C48.4592 17.901 48.7131 17.8228 48.9721 17.8193C49.2311 17.8158 49.4867 17.887 49.7144 18.0262C49.9422 18.1655 50.1347 18.3681 50.2737 18.6149C50.4126 18.8617 50.4934 19.1445 50.5084 19.4364Z" fill="#E4897B"/>
<path d="M51.1554 20.6015C51.7786 20.9938 52.2415 20.0266 52.2415 20.0266C52.2415 20.0266 51.124 20.1635 51.2243 19.4127C51.3561 18.4167 50.724 17.2059 49.1391 17.3615C49.0507 17.37 48.9668 17.3818 48.8844 17.397C48.7185 17.3083 48.5309 17.2853 48.352 17.332C48.1731 17.3786 48.0134 17.4921 47.8987 17.6541C47.4493 17.6963 46.8427 18.3017 47.2546 19.1016C47.2835 19.0097 47.3283 18.9252 47.3864 18.853C47.4209 19.3214 47.7834 20.0654 48.2358 20.1145C48.3332 20.7554 47.9557 21.4977 48.086 22.1674C48.2792 23.1329 49.7218 23.3511 49.7218 23.3511C49.6721 23.2305 49.6535 23.0965 49.6684 22.9645C49.6832 22.8326 49.7308 22.7081 49.8057 22.6053C50.7854 23.1126 51.431 22.6172 51.431 22.6172C50.7629 22.3365 50.9652 21.8359 50.9652 21.8359C51.1958 21.9516 51.4573 21.9617 51.6944 21.8643C51.9316 21.7668 52.1261 21.5694 52.237 21.3134C52.015 21.3253 51.7948 21.2644 51.6029 21.1381C51.411 21.0117 51.2555 20.8254 51.1554 20.6015Z" fill="#263238"/>
<path d="M48.6266 20.307C48.6292 20.4274 48.6107 20.5473 48.5722 20.6596C48.5336 20.7719 48.4757 20.8745 48.4019 20.9614C48.2042 21.1931 47.9615 21.0308 47.8956 20.7349C47.8371 20.4677 47.8701 20.0263 48.1278 19.9046C48.1845 19.8794 48.2458 19.8707 48.3063 19.8791C48.3668 19.8875 48.4244 19.9129 48.474 19.9529C48.5235 19.9929 48.5635 20.0462 48.5901 20.1081C48.6168 20.1699 48.6293 20.2383 48.6266 20.307Z" fill="#E4897B"/>
<path d="M49.5601 31.9973C49.5601 31.9973 49.8447 40.3442 50.5218 45.2447C51.0671 49.2051 53.4893 58.4583 53.4893 58.4583H55.0203C55.0203 58.4583 53.7575 49.5213 53.4803 45.6066C52.7793 35.699 54.5994 33.5717 52.8811 31.5086L49.5601 31.9973Z" fill="#263238"/>
<path d="M50.8395 34.6369C50.8395 34.6369 50.1474 34.5016 49.7429 35.9897C49.8927 38.8086 50.1489 42.5491 50.5219 45.2446C50.6043 45.8449 50.7301 46.5686 50.8844 47.3617C50.5923 42.5998 50.8395 34.6369 50.8395 34.6369Z" fill="#161F33"/>
<path d="M48.3661 32.1731C48.3661 32.1731 47.1047 41.4077 47.1781 45.2716C47.2545 49.2912 48.5593 58.4615 48.5593 58.4615H50.0768C50.0768 58.4615 49.8371 49.5296 49.9704 45.5828C50.1202 41.2792 51.6766 31.6877 51.6766 31.6877L48.3661 32.1731Z" fill="#263238"/>
<path d="M55.2417 58.5394H53.2059L53.0471 57.7683L55.2267 57.7852L55.2417 58.5394Z" fill="#83D0EA"/>
<path opacity="0.2" d="M55.2417 58.5394H53.2059L53.0471 57.7683L55.2267 57.7852L55.2417 58.5394Z" fill="black"/>
<path d="M52.8045 23.7668C53.3902 23.8311 54.28 25.7098 54.28 25.7098L52.8015 26.9899C52.8015 26.9899 51.5776 25.7775 51.7229 25.096C51.8742 24.3874 52.2427 23.7077 52.8045 23.7668Z" fill="#83D0EA"/>
<path opacity="0.1" d="M52.8045 23.7668C53.3902 23.8311 54.28 25.7098 54.28 25.7098L52.8015 26.9899C52.8015 26.9899 51.5776 25.7775 51.7229 25.096C51.8742 24.3874 52.2427 23.7077 52.8045 23.7668Z" fill="black"/>
<path d="M52.3628 24.5753C52.2135 24.5298 52.0589 24.5105 51.9044 24.5178C51.8258 24.7026 51.765 24.8965 51.7231 25.0961C51.5733 25.7725 52.8017 26.99 52.8017 26.99L52.911 26.8953L52.3628 24.5753Z" fill="#83D0EA"/>
<path opacity="0.3" d="M52.3628 24.5753C52.2135 24.5298 52.0589 24.5105 51.9044 24.5178C51.8258 24.7026 51.765 24.8965 51.7231 25.0961C51.5733 25.7725 52.8017 26.99 52.8017 26.99L52.911 26.8953L52.3628 24.5753Z" fill="black"/>
<path d="M47.8643 26.3796C47.4374 27.5989 46.988 28.8384 46.63 30.061C46.606 30.1388 46.5865 30.2132 46.5655 30.2893L46.5146 30.477C46.5007 30.5322 46.5007 30.5908 46.5146 30.6461C46.5992 30.8575 46.7333 31.0388 46.9026 31.1703C47.3505 31.533 47.8385 31.8281 48.3542 32.0479L48.2193 32.6702C47.585 32.5758 46.9715 32.3499 46.4097 32.0039C46.0641 31.7955 45.7825 31.4735 45.6023 31.0807C45.4989 30.8295 45.4629 30.5497 45.499 30.2757C45.5024 30.2422 45.5074 30.2089 45.5139 30.176L45.5289 30.1049L45.5544 29.9764C45.5724 29.8902 45.5903 29.8073 45.6098 29.7228C45.7596 29.0464 45.9514 28.4038 46.1536 27.7663C46.3558 27.1288 46.567 26.4997 46.8052 25.8723L47.8643 26.3796Z" fill="#E4897B"/>
<path d="M46.955 24.6683C46.955 24.6683 46.4487 24.9575 48.3661 32.173L52.8871 31.5068C52.5695 29.4404 52.4197 28.1603 52.8047 23.767C52.1564 23.7146 51.5056 23.7146 50.8573 23.767C50.1671 23.8123 49.4807 23.9141 48.8035 24.0714C47.9362 24.2896 46.955 24.6683 46.955 24.6683Z" fill="#83D0EA"/>
<path opacity="0.1" d="M46.955 24.6683C46.955 24.6683 46.4487 24.9575 48.3661 32.173L52.8871 31.5068C52.5695 29.4404 52.4197 28.1603 52.8047 23.767C52.1564 23.7146 51.5056 23.7146 50.8573 23.767C50.1671 23.8123 49.4807 23.9141 48.8035 24.0714C47.9362 24.2896 46.955 24.6683 46.955 24.6683Z" fill="black"/>
<path d="M52.9198 31.1974L53.179 31.6219C53.1985 31.6557 53.1655 31.6963 53.1146 31.7047L48.3734 32.4048C48.3329 32.4048 48.2955 32.393 48.2895 32.3642L48.1966 31.9127C48.1891 31.8823 48.2221 31.8501 48.267 31.8434L52.8449 31.167C52.8587 31.1645 52.8728 31.166 52.8859 31.1713C52.899 31.1766 52.9106 31.1856 52.9198 31.1974Z" fill="#83D0EA"/>
<path opacity="0.2" d="M52.9198 31.1974L53.179 31.6219C53.1985 31.6557 53.1655 31.6963 53.1146 31.7047L48.3734 32.4048C48.3329 32.4048 48.2955 32.393 48.2895 32.3642L48.1966 31.9127C48.1891 31.8823 48.2221 31.8501 48.267 31.8434L52.8449 31.167C52.8587 31.1645 52.8728 31.166 52.8859 31.1713C52.899 31.1766 52.9106 31.1856 52.9198 31.1974Z" fill="black"/>
<path d="M52.3718 31.8653L52.4947 31.8467C52.5186 31.8467 52.5351 31.8264 52.5321 31.8095L52.4063 31.2244C52.4015 31.2144 52.3939 31.2066 52.3846 31.2023C52.3753 31.198 52.365 31.1974 52.3554 31.2007L52.2325 31.2176C52.2071 31.2176 52.1906 31.2379 52.1951 31.2565L52.3209 31.8399C52.3239 31.8585 52.3479 31.8687 52.3718 31.8653Z" fill="#263238"/>
<path d="M49.3996 32.2982L49.5225 32.2796C49.5464 32.2796 49.5644 32.2593 49.5599 32.2424L49.4341 31.6573C49.4292 31.6474 49.4215 31.6396 49.4124 31.635C49.4032 31.6304 49.3929 31.6293 49.3831 31.6319L49.2603 31.6505C49.2363 31.6505 49.2184 31.6708 49.2229 31.6877L49.3487 32.2728C49.3517 32.2982 49.3757 32.3083 49.3996 32.2982Z" fill="#263238"/>
<path d="M47.1663 27.1172C47.2906 27.7699 47.4659 28.5968 47.722 29.6435L47.7774 26.9903L47.1663 27.1172Z" fill="#83D0EA"/>
<path opacity="0.3" d="M47.1663 27.1172C47.2906 27.7699 47.4659 28.5968 47.722 29.6435L47.7774 26.9903L47.1663 27.1172Z" fill="black"/>
<path d="M46.9551 24.6683C46.3933 24.9237 45.9065 27.0932 45.9065 27.0932L47.8389 28.1552C47.8389 28.1552 48.7722 25.502 48.3542 24.9846C47.9363 24.4671 47.6022 24.3758 46.9551 24.6683Z" fill="#83D0EA"/>
<path opacity="0.1" d="M46.9551 24.6683C46.3933 24.9237 45.9065 27.0932 45.9065 27.0932L47.8389 28.1552C47.8389 28.1552 48.7722 25.502 48.3542 24.9846C47.9363 24.4671 47.6022 24.3758 46.9551 24.6683Z" fill="black"/>
<path d="M50.3362 58.5394H48.3004L48.1416 57.7683L50.4081 57.7852L50.3362 58.5394Z" fill="#83D0EA"/>
<path opacity="0.2" d="M50.3362 58.5394H48.3004L48.1416 57.7683L50.4081 57.7852L50.3362 58.5394Z" fill="black"/>
<path d="M48.3855 31.8381L48.2222 31.762C48.1821 31.7436 48.1384 31.7375 48.0955 31.7443C48.0525 31.7511 48.012 31.7706 47.9779 31.8008C47.9438 31.8311 47.9175 31.8709 47.9014 31.9164C47.8854 31.9618 47.8803 32.0112 47.8867 32.0596L48.005 32.9406C48.0107 32.9847 48.025 33.0269 48.0469 33.064C48.0687 33.1011 48.0976 33.1322 48.1314 33.1552C48.1653 33.1782 48.2032 33.1924 48.2425 33.1968C48.2817 33.2012 48.3214 33.1957 48.3586 33.1808C48.418 33.1564 48.4736 33.1216 48.5233 33.0776C48.5775 33.0269 48.6204 32.9625 48.6485 32.8897C48.6766 32.8168 48.6891 32.7376 48.6851 32.6582L48.6687 32.293C48.6658 32.1943 48.6375 32.0987 48.5872 32.0179C48.5369 31.9371 48.4668 31.8746 48.3855 31.8381Z" fill="#E4897B"/>
</svg>
