<svg width="120" height="120" viewBox="0 0 120 120" fill="none" xmlns="http://www.w3.org/2000/svg">
<g clip-path="url(#clip0_1456_1382)">
<path d="M55.6738 75.568C55.8807 77.5676 57.5688 79.0562 59.5358 79.0562C59.6695 79.0562 59.8042 79.0495 59.94 79.0355C62.0755 78.8147 63.6278 76.9047 63.407 74.7693L61.6142 57.4226C61.3934 55.2872 59.4824 53.7369 57.348 53.9556C55.2126 54.1764 53.6602 56.0864 53.881 58.2218L55.6738 75.568Z" fill="black"/>
<path d="M80.0011 79.0354C80.1369 79.0494 80.2716 79.0561 80.4054 79.0561C82.3729 79.0561 84.0605 77.5676 84.2673 75.5679L86.0596 58.2212C86.2804 56.0853 84.728 54.1753 82.5926 53.9551C80.4556 53.7368 78.5467 55.2871 78.3259 57.422L76.5336 74.7687C76.3128 76.9046 77.8651 78.8146 80.0011 79.0354Z" fill="black"/>
<path d="M49.9016 95.9326C43.2668 95.9326 37.8691 101.33 37.8691 107.965C37.8691 114.602 43.2668 120.001 49.9016 120.001C56.5365 120.001 61.9347 114.602 61.9347 107.965C61.9347 101.33 56.5365 95.9326 49.9016 95.9326ZM49.9016 112.226C47.5537 112.226 45.6437 110.314 45.6437 107.965C45.6437 105.617 47.5537 103.707 49.9016 103.707C52.2496 103.707 54.16 105.617 54.16 107.965C54.16 110.314 52.2496 112.226 49.9016 112.226Z" fill="black"/>
<path d="M90.0398 95.9326C83.405 95.9326 78.0068 101.33 78.0068 107.965C78.0068 114.602 83.4045 120.001 90.0398 120.001C96.6752 120.001 102.074 114.602 102.074 107.965C102.074 101.33 96.6752 95.9326 90.0398 95.9326ZM90.0398 112.226C87.6919 112.226 85.7814 110.314 85.7814 107.965C85.7814 105.617 87.6919 103.707 90.0398 103.707C92.3883 103.707 94.2993 105.617 94.2993 107.965C94.2993 110.314 92.3888 112.226 90.0398 112.226Z" fill="black"/>
<path d="M113.292 40.9877C112.556 40.0355 111.42 39.4778 110.216 39.4778H32.7321L29.4782 26.9654C29.0324 25.2524 27.4858 24.0566 25.7158 24.0566H9.78354C7.63671 24.0566 5.89624 25.7971 5.89624 27.9439C5.89624 30.0908 7.63671 31.8312 9.78354 31.8312H22.7101L25.9376 44.2426C25.9537 44.3121 25.9718 44.381 25.9915 44.4489L37.994 90.6021C38.4397 92.3151 39.9863 93.5108 41.7564 93.5108H98.1865C99.9565 93.5108 101.503 92.3151 101.949 90.6021L113.979 44.3432C114.281 43.1796 114.028 41.9403 113.292 40.9877ZM95.1808 85.7372H44.762L34.754 47.253H105.189L95.1808 85.7372Z" fill="black"/>
<path d="M54.7104 27.3929C55.4692 28.1511 56.4639 28.5305 57.4585 28.5305C58.4537 28.5305 59.4488 28.1506 60.2081 27.3913C61.7257 25.8727 61.7252 23.4112 60.2066 21.8936L47.9813 9.67401C46.4626 8.15641 44.0017 8.15693 42.4836 9.67505C40.966 11.1937 40.9665 13.6551 42.4846 15.1727L54.7104 27.3929Z" fill="#0D9648"/>
<path d="M82.5009 28.5304C83.4961 28.5304 84.4917 28.1504 85.2511 27.3906L97.4582 15.1725C98.9758 13.6539 98.9743 11.1925 97.4556 9.67538C95.937 8.15778 93.4756 8.15933 91.9585 9.67797L79.7513 21.896C78.2337 23.4147 78.2353 25.8761 79.7539 27.3937C80.5127 28.1515 81.5068 28.5304 82.5009 28.5304Z" fill="#0D9648"/>
<path d="M69.9746 25.0399H69.9757C72.122 25.0399 73.8625 23.3 73.863 21.1537L73.8671 3.88834C73.8677 1.74151 72.1277 0.000518307 69.9809 0H69.9803C67.8335 0 66.093 1.73996 66.0925 3.88627L66.0884 21.1516C66.0879 23.2984 67.8278 25.0394 69.9746 25.0399Z" fill="#0D9648"/>
</g>
<defs>
<clipPath id="clip0_1456_1382">
<rect width="120" height="120" fill="white"/>
</clipPath>
</defs>
</svg>
