<svg width="17" height="14" viewBox="0 0 17 14" fill="none" xmlns="http://www.w3.org/2000/svg">
<path d="M11.2441 7.0037C11.2441 8.43934 10.0177 9.59946 8.50006 9.59946C6.98244 9.59946 5.7561 8.43934 5.7561 7.0037C5.7561 5.56805 6.98244 4.40796 8.50006 4.40796C10.0177 4.40796 11.2441 5.56805 11.2441 7.0037Z" stroke="#999999" stroke-opacity="0.36" stroke-width="2" stroke-linecap="round" stroke-linejoin="round"/>
<path d="M8.50001 13C11.2057 13 13.7274 11.4918 15.4826 8.88158C16.1725 7.85922 16.1725 6.1408 15.4826 5.11842C13.7274 2.50815 11.2057 1 8.50001 1C5.79432 1 3.27261 2.50815 1.51737 5.11842C0.827542 6.1408 0.827542 7.85922 1.51737 8.88158C3.27261 11.4918 5.79432 13 8.50001 13Z" stroke="#999999" stroke-opacity="0.36" stroke-width="2" stroke-linecap="round" stroke-linejoin="round"/>
</svg>
