<svg width="17" height="15" viewBox="0 0 17 15" fill="none" xmlns="http://www.w3.org/2000/svg">
<path d="M10.3974 5.58402L6.60244 8.68899C6.11494 8.29013 5.81494 7.74399 5.81494 7.13649C5.81494 5.92149 7.01491 4.9397 8.49991 4.9397C9.24241 4.9397 9.90991 5.18515 10.3974 5.58402Z" stroke="#999999" stroke-opacity="0.41" stroke-width="2" stroke-linecap="round" stroke-linejoin="round"/>
<path d="M12.8649 3.31334C11.5524 2.50334 10.0524 2.06152 8.49991 2.06152C5.85238 2.06152 3.38488 3.33789 1.66738 5.54698C0.992383 6.41222 0.992383 7.86654 1.66738 8.73176C2.25988 9.49267 2.94988 10.1493 3.69988 10.677" stroke="#999999" stroke-opacity="0.41" stroke-width="2" stroke-linecap="round" stroke-linejoin="round"/>
<path d="M5.81494 11.7571C6.66994 12.0517 7.57741 12.2112 8.49991 12.2112C11.1474 12.2112 13.6149 10.9349 15.3324 8.72576C16.0074 7.86054 16.0074 6.40622 15.3324 5.54096C15.0849 5.22187 14.8149 4.92119 14.5374 4.63892" stroke="#999999" stroke-opacity="0.41" stroke-width="2" stroke-linecap="round" stroke-linejoin="round"/>
<path d="M11.1326 7.56592C10.9376 8.43115 10.0751 9.13683 9.01758 9.29637" stroke="#999999" stroke-opacity="0.41" stroke-width="2" stroke-linecap="round" stroke-linejoin="round"/>
<path d="M6.6025 8.68896L1 13.2728" stroke="#999999" stroke-opacity="0.41" stroke-width="2" stroke-linecap="round" stroke-linejoin="round"/>
<path d="M16 1L10.3975 5.58386" stroke="#999999" stroke-opacity="0.41" stroke-width="2" stroke-linecap="round" stroke-linejoin="round"/>
</svg>
