<svg width="25" height="24" viewBox="0 0 25 24" fill="none" xmlns="http://www.w3.org/2000/svg">
<path d="M24.1889 12.3888L13.3901 0.380076C12.9354 -0.126692 12.0619 -0.126692 11.6071 0.380076L0.808346 12.3888C0.652911 12.5612 0.550884 12.7751 0.514672 13.0045C0.47846 13.2339 0.509621 13.4689 0.604369 13.6809C0.796347 14.1144 1.2259 14.393 1.69985 14.393H4.09958V22.7991C4.09958 23.1176 4.22599 23.4231 4.45101 23.6483C4.67603 23.8735 4.98122 24 5.29944 24H8.89904C9.21727 24 9.52246 23.8735 9.74748 23.6483C9.97249 23.4231 10.0989 23.1176 10.0989 22.7991V17.9956H14.8984V22.7991C14.8984 23.1176 15.0248 23.4231 15.2498 23.6483C15.4748 23.8735 15.78 24 16.0982 24H19.6978C20.0161 24 20.3213 23.8735 20.5463 23.6483C20.7713 23.4231 20.8977 23.1176 20.8977 22.7991V14.393H23.2974C23.5298 14.394 23.7574 14.3273 23.9526 14.2011C24.1478 14.0748 24.302 13.8945 24.3965 13.682C24.491 13.4695 24.5217 13.2341 24.4848 13.0045C24.448 12.7749 24.3452 12.5609 24.1889 12.3888Z" fill="#58B0CD"/>
</svg>
