<svg width="63" height="44" viewBox="0 0 63 44" fill="none" xmlns="http://www.w3.org/2000/svg">
<path opacity="0.7" d="M15.1893 37.6255C13.955 37.6255 12.7207 37.6304 11.4865 37.6238C10.4365 37.6172 10.3624 37.5357 10.4564 36.5586C10.554 35.5417 10.7636 34.523 10.7329 33.5094C10.6805 31.7729 10.6642 30.0048 10.2811 28.3182C9.96485 26.924 9.25103 25.573 8.51553 24.3002C6.79875 21.3307 4.79826 18.5274 2.16165 16.1561C1.56168 15.6161 0.882202 15.1491 0.32199 14.5775C0.08887 14.3399 -0.0466673 13.8978 0.0147753 13.5904C0.0509179 13.406 0.540652 13.2149 0.851479 13.1733C2.77608 12.9174 4.35912 13.6037 5.7723 14.7437C6.759 15.5413 7.75473 16.3323 8.77034 17.0983C9.72451 17.8162 10.6064 17.7746 11.519 17.0401C13.5195 15.4299 13.7924 12.8377 14.4737 10.6226C15.3284 7.84089 16.5464 5.14393 17.7247 2.46857C18.1927 1.40507 18.912 0.904897 19.7288 1.00128C20.2655 1.06442 20.542 1.31202 20.5077 1.82549C20.477 2.29575 20.5402 2.78263 20.4209 3.23129C19.8987 5.19544 19.3222 7.14962 18.771 9.10712C18.7186 9.29323 18.6734 9.48433 18.668 9.67542C18.6644 9.88812 18.7096 10.1025 18.7349 10.3168C18.8451 10.1208 18.9806 9.93133 19.0602 9.72528C20.1282 6.91864 21.1745 4.10536 22.257 1.30371C22.6058 0.399737 23.6141 -0.173557 24.3099 0.0474515C24.9966 0.263474 25.2279 1.11095 24.9099 2.04151C24.1707 4.20839 23.4605 6.38357 22.7286 8.55211C22.4558 9.36302 22.1467 10.164 21.8865 10.9799C21.8377 11.1327 21.948 11.3288 21.9841 11.5033C22.0907 11.3837 22.2407 11.279 22.2967 11.1411C22.875 9.71032 23.4425 8.2746 24.0027 6.83722C24.505 5.54773 24.9424 4.23497 25.5207 2.97539C25.7447 2.48851 26.2489 2.07973 26.9862 2.2675C27.7579 2.46358 28.0037 3.02691 27.8519 3.62014C27.4977 5.00933 26.9989 6.36529 26.6013 7.74617C26.2056 9.12041 25.8496 10.503 25.5026 11.8888C25.4574 12.0733 25.5658 12.2893 25.602 12.4904C25.7086 12.3392 25.8351 12.1979 25.92 12.0367C26.6411 10.6857 27.3278 9.31649 28.0976 7.99045C28.2549 7.72125 28.7861 7.40054 29.0283 7.46701C29.3283 7.54843 29.6789 7.99709 29.7024 8.30617C29.7493 8.92765 29.6789 9.58736 29.4964 10.1889C28.8801 12.2328 28.2097 14.2618 27.532 16.2891C27.0152 17.8378 26.4622 19.3765 25.9128 20.9169C25.8622 21.0582 25.7303 21.1761 25.6363 21.3041C25.5658 21.1612 25.452 21.0216 25.4321 20.8721C25.2695 19.6673 25.1538 18.4559 24.9604 17.2562C24.8755 16.7228 24.6894 16.191 24.4526 15.6975C24.3587 15.5014 23.9918 15.2953 23.7641 15.307C23.5418 15.3186 23.2039 15.5745 23.1497 15.7739C22.9834 16.4054 22.8317 17.0634 22.8461 17.7082C22.9003 20.0695 23.4822 22.6185 22.6672 24.9183C22.5027 24.5328 22.2967 24.1556 22.1811 23.7585C21.8377 22.5637 21.5269 21.3606 21.207 20.1592C20.9215 19.0907 20.6468 18.0189 20.3541 16.9521C20.2221 16.4735 20.1318 15.9617 19.8716 15.5446C19.7125 15.2904 19.2318 15.0129 18.9608 15.0594C18.6463 15.1142 18.1873 15.5014 18.1692 15.7673C18.1024 16.6995 18.1132 17.6517 18.2542 18.5756C18.4403 19.7986 18.7584 21.0083 19.0565 22.2147C19.2987 23.1985 19.6095 24.1689 19.8535 25.1526C19.9041 25.3587 19.7975 25.5996 19.7631 25.824C19.4884 25.7276 19.0746 25.7043 18.9626 25.5232C18.2126 24.3101 17.5349 23.0589 16.8175 21.8292C16.1705 20.7159 15.5272 19.6008 14.8278 18.5157C14.6526 18.2432 14.302 17.9857 13.9749 17.8959C13.4743 17.7613 13.0189 17.9674 13.1237 18.529C13.8285 22.2978 15.9501 25.2989 17.4916 28.8084C17.6416 29.1507 17.6849 29.5479 17.7012 29.9218C17.7084 30.0962 17.5223 30.4302 17.4428 30.4253C17.2115 30.4103 16.9133 30.3172 16.7796 30.1577C16.1019 29.3534 15.5435 28.4528 14.7953 27.7117C14.002 26.9257 13.0135 26.3109 11.763 26.3175C11.4774 26.3192 11.0455 26.4571 10.9516 26.6465C10.8558 26.8393 11.013 27.2331 11.1937 27.4358C12.325 28.6954 13.2683 30.0447 14.0978 31.5037C15.3212 33.654 16.7235 35.7311 19.3186 36.7813C19.5716 36.8843 19.7143 37.2183 19.9077 37.446C19.6294 37.5091 19.3511 37.6205 19.071 37.6255C17.7771 37.6454 16.4814 37.6338 15.1875 37.6338C15.1893 37.6304 15.1893 37.6271 15.1893 37.6255Z" fill="url(#paint0_linear_500_2966)"/>
<path opacity="0.7" d="M10.9298 13.3338L10.7584 12.3937C10.6307 11.6945 10.8696 10.9819 11.4002 10.47L11.6482 10.2292C12.0822 9.80929 12.3248 9.25394 12.3248 8.67516V7.11949C12.3248 6.50559 12.5965 5.91845 13.0797 5.49357L13.9915 4.68897C14.4729 4.26409 14.7464 3.67695 14.7464 3.06305V1.28992" stroke="#D3E7FF" stroke-width="2" stroke-miterlimit="10"/>
<path opacity="0.7" d="M28.3218 20.4317L28.18 19.6079C28.0749 18.9969 28.2728 18.374 28.7159 17.9233L28.9225 17.714C29.2833 17.3477 29.4864 16.8598 29.4864 16.3551V14.9946C29.4864 14.4578 29.7141 13.9446 30.1151 13.5715L30.8751 12.8676C31.2762 12.4963 31.5038 11.9814 31.5038 11.4446V9.89331" stroke="#D3E7FF" stroke-width="2" stroke-miterlimit="10"/>
<path opacity="0.7" d="M7.84473 38.0671L7.53291 37.3226C7.30058 36.77 7.32351 36.1314 7.591 35.5971L7.71634 35.3473C7.93491 34.9122 7.99147 34.4026 7.87378 33.9228L7.55584 32.6341C7.43051 32.1262 7.50234 31.5836 7.75455 31.1336L8.23144 30.2832C8.48365 29.8332 8.55548 29.2922 8.43015 28.7827L8.06789 27.3136" stroke="#D3E7FF" stroke-width="2" stroke-miterlimit="10"/>
<g opacity="0.7">
<path d="M34.1394 26.304L34.8434 29.504C34.8434 29.568 34.7794 29.6427 34.6514 29.728C34.5447 29.792 34.4167 29.824 34.2674 29.824C34.1394 29.824 34.0541 29.792 34.0114 29.728C33.7767 29.0027 33.4781 28.448 33.1154 28.064C32.3261 27.232 31.2807 26.816 29.9794 26.816C28.5074 26.816 27.4194 27.424 26.7154 28.64C26.1181 29.6853 25.8194 31.0293 25.8194 32.672C25.8194 34.4213 26.1927 35.9253 26.9394 37.184C27.7714 38.5493 28.8914 39.232 30.2994 39.232C30.9181 39.232 31.4621 39.1253 31.9314 38.912C31.9741 38.8693 32.0167 38.8373 32.0594 38.816C32.1021 38.7733 32.1234 38.6987 32.1234 38.592V35.616C32.1234 35.1893 32.0274 34.9227 31.8354 34.816C31.6647 34.688 31.5047 34.6027 31.3554 34.56C31.0994 34.5173 30.8541 34.496 30.6194 34.496C30.5767 34.496 30.5447 34.3787 30.5234 34.144C30.5234 33.9093 30.5554 33.76 30.6194 33.696C31.6861 33.7813 32.7101 33.824 33.6914 33.824C34.6727 33.824 35.5901 33.7813 36.4434 33.696C36.4861 33.8453 36.4967 34.016 36.4754 34.208C36.4754 34.4 36.4541 34.496 36.4114 34.496C36.3261 34.496 36.1447 34.528 35.8674 34.592C35.5901 34.6347 35.4087 34.688 35.3234 34.752C35.1314 34.8587 35.0354 35.168 35.0354 35.68V37.92L35.1634 38.528C35.1634 38.6987 34.9181 38.8907 34.4274 39.104C33.7447 39.3387 33.0301 39.5733 32.2834 39.808C31.5367 40.0427 30.6621 40.16 29.6594 40.16C28.6781 40.16 27.7394 39.9893 26.8434 39.648C25.9687 39.2853 25.2007 38.7947 24.5394 38.176C23.8994 37.5573 23.3874 36.8213 23.0034 35.968C22.6194 35.1147 22.4274 34.1973 22.4274 33.216C22.4274 32.2133 22.6194 31.2747 23.0034 30.4C23.3874 29.504 23.9101 28.7253 24.5714 28.064C25.2327 27.4027 26.0007 26.88 26.8754 26.496C27.7714 26.112 28.7207 25.92 29.7234 25.92C31.4301 25.92 32.9021 26.048 34.1394 26.304ZM40.0182 40.064C39.3071 39.9929 38.66 39.9573 38.0768 39.9573C37.508 39.9573 36.868 39.9929 36.1568 40.064C36.1284 40.0213 36.1142 39.936 36.1142 39.808C36.1142 39.68 36.1284 39.5876 36.1568 39.5307C36.4555 39.5307 36.676 39.5022 36.8182 39.4453C36.9604 39.3742 37.0386 39.3173 37.0528 39.2747C37.124 39.1324 37.1595 38.9547 37.1595 38.7413C37.1737 38.528 37.1808 38.2649 37.1808 37.952V32.1493C37.1808 31.8364 37.1595 31.6373 37.1168 31.552C37.0742 31.4524 37.0102 31.3884 36.9248 31.36C36.8537 31.3316 36.7755 31.3102 36.6902 31.296C36.4911 31.2391 36.3417 31.2107 36.2422 31.2107C36.2137 31.2107 36.1924 31.1467 36.1782 31.0187C36.1782 30.8764 36.1995 30.7911 36.2422 30.7627C37.1951 30.6631 38.0271 30.4996 38.7382 30.272C38.8662 30.2293 38.9373 30.208 38.9515 30.208C39.0511 30.2364 39.1222 30.3218 39.1648 30.464C39.1364 30.6347 39.108 30.7982 39.0795 30.9547C39.0368 31.168 39.0155 31.4809 39.0155 31.8933V37.952C39.0155 38.6631 39.0368 39.0756 39.0795 39.1893C39.1222 39.2889 39.1791 39.36 39.2502 39.4027C39.3355 39.4311 39.4208 39.4596 39.5062 39.488C39.6626 39.5164 39.8333 39.5307 40.0182 39.5307C40.0466 39.5876 40.0608 39.68 40.0608 39.808C40.0608 39.936 40.0466 40.0213 40.0182 40.064ZM43.1468 34.2827C42.5068 34.2827 42.1512 34.8089 42.0801 35.8613C42.0517 36.1458 42.0375 36.4302 42.0375 36.7147C42.0375 36.9991 42.0588 37.312 42.1015 37.6533C42.1584 37.9804 42.2508 38.2791 42.3788 38.5493C42.649 39.1893 43.0117 39.5093 43.4668 39.5093C44.1352 39.5093 44.5121 38.9902 44.5975 37.952C44.6117 37.6818 44.6188 37.4044 44.6188 37.12C44.6188 36.8356 44.5904 36.5227 44.5335 36.1813C44.4766 35.84 44.3841 35.5342 44.2561 35.264C43.9859 34.6098 43.6161 34.2827 43.1468 34.2827ZM43.3175 33.7067C43.801 33.7067 44.2419 33.7849 44.6401 33.9413C45.0526 34.0978 45.4081 34.3182 45.7068 34.6027C46.3184 35.2 46.6241 35.9467 46.6241 36.8427C46.6241 37.7244 46.3041 38.4924 45.6641 39.1467C45.0526 39.7867 44.2775 40.1067 43.3388 40.1067C42.3575 40.1067 41.561 39.8009 40.9495 39.1893C40.3379 38.5778 40.0321 37.8311 40.0321 36.9493C40.0321 36.0818 40.345 35.3209 40.9708 34.6667C41.5966 34.0267 42.3788 33.7067 43.3175 33.7067ZM51.1963 33.7707C51.5946 33.8276 52.0781 33.856 52.647 33.856C53.2301 33.856 53.7208 33.8276 54.119 33.7707C54.1475 33.7991 54.1617 33.8773 54.1617 34.0053C54.1759 34.1333 54.1617 34.2258 54.119 34.2827C53.7919 34.2827 53.5288 34.3396 53.3297 34.4533C53.1448 34.5529 53.031 34.6524 52.9883 34.752L50.8123 39.36C50.5421 39.8862 50.3359 40.1493 50.1937 40.1493C50.151 40.1493 50.0941 40.1138 50.023 40.0427L47.5057 34.816C47.4061 34.6027 47.2426 34.4604 47.015 34.3893C46.8017 34.3182 46.6666 34.2827 46.6097 34.2827C46.567 34.2258 46.5528 34.1404 46.567 34.0267C46.567 33.8987 46.5812 33.8133 46.6097 33.7707C46.7092 33.7849 46.9226 33.7991 47.2497 33.8133C47.591 33.8276 47.847 33.8418 48.0177 33.856C48.2026 33.856 48.5368 33.856 49.0203 33.856C49.5181 33.856 49.9377 33.8276 50.279 33.7707C50.3217 33.7991 50.343 33.8844 50.343 34.0267C50.343 34.1547 50.3217 34.24 50.279 34.2827C50.1937 34.2827 50.0657 34.3111 49.895 34.368C49.5963 34.4533 49.447 34.5529 49.447 34.6667V34.752C49.447 34.7947 49.4612 34.8373 49.4897 34.88L50.9403 37.6533L52.0497 35.1787C52.1492 34.9227 52.199 34.752 52.199 34.6667C52.199 34.5813 52.1492 34.5102 52.0497 34.4533C51.9643 34.3964 51.8577 34.3538 51.7297 34.3253C51.5306 34.2969 51.3528 34.2827 51.1963 34.2827C51.1679 34.2542 51.1537 34.176 51.1537 34.048C51.1537 33.9058 51.1679 33.8133 51.1963 33.7707ZM58.5401 33.7707C58.9383 33.8276 59.4219 33.856 59.9908 33.856C60.5739 33.856 61.0645 33.8276 61.4628 33.7707C61.4912 33.7991 61.5054 33.8773 61.5054 34.0053C61.5196 34.1333 61.5054 34.2258 61.4628 34.2827C61.1356 34.2827 60.8725 34.3396 60.6734 34.4533C60.4885 34.5529 60.3748 34.6524 60.3321 34.752L57.4734 40.7893C57.061 41.5858 56.5916 42.1973 56.0654 42.624C55.6956 42.9227 55.3472 43.072 55.0201 43.072C54.693 43.072 54.4441 42.9938 54.2734 42.8373C54.117 42.6951 54.0388 42.5031 54.0388 42.2613C54.0388 42.0338 54.1454 41.8347 54.3588 41.664C54.9134 41.664 55.3685 41.6 55.7241 41.472C56.0796 41.344 56.3996 41.0382 56.6841 40.5547C56.8263 40.3413 56.9899 40.0142 57.1748 39.5733L54.8494 34.816C54.7499 34.6027 54.5863 34.4604 54.3588 34.3893C54.1454 34.3182 54.0103 34.2827 53.9534 34.2827C53.9108 34.2258 53.8965 34.1404 53.9108 34.0267C53.9108 33.8987 53.925 33.8133 53.9534 33.7707C54.053 33.7849 54.2663 33.7991 54.5934 33.8133C54.9348 33.8276 55.1908 33.8418 55.3614 33.856C55.5463 33.856 55.8805 33.856 56.3641 33.856C56.8619 33.856 57.2814 33.8276 57.6228 33.7707C57.6654 33.7991 57.6868 33.8844 57.6868 34.0267C57.6868 34.1547 57.6654 34.24 57.6228 34.2827C57.5374 34.2827 57.4094 34.3111 57.2388 34.368C56.9401 34.4533 56.7908 34.5529 56.7908 34.6667V34.752C56.7908 34.7947 56.805 34.8373 56.8334 34.88L58.2841 37.6533L59.3934 35.1787C59.493 34.9227 59.5428 34.752 59.5428 34.6667C59.5428 34.5813 59.493 34.5102 59.3934 34.4533C59.3081 34.3964 59.2014 34.3538 59.0734 34.3253C58.8743 34.2969 58.6965 34.2827 58.5401 34.2827C58.5116 34.2542 58.4974 34.176 58.4974 34.048C58.4974 33.9058 58.5116 33.8133 58.5401 33.7707Z" fill="#58B0CD"/>
</g>
<defs>
<linearGradient id="paint0_linear_500_2966" x1="3.03197" y1="18.8181" x2="32.7518" y2="18.8181" gradientUnits="userSpaceOnUse">
<stop offset="0.2621" stop-color="#307CAB"/>
<stop offset="1" stop-color="#76D8E7"/>
</linearGradient>
</defs>
</svg>
