<svg width="10" height="10" viewBox="0 0 10 10" fill="none" xmlns="http://www.w3.org/2000/svg">
<path d="M5 2.25C5.4736 2.25 5.9278 2.3817 6.26269 2.61612C6.59758 2.85054 6.78571 3.16848 6.78571 3.5C6.78571 3.66415 6.73953 3.8267 6.64979 3.97835C6.56004 4.13001 6.42851 4.26781 6.26269 4.38388C6.09687 4.49996 5.90002 4.59203 5.68336 4.65485C5.46671 4.71767 5.2345 4.75 5 4.75C4.5264 4.75 4.0722 4.6183 3.73731 4.38388C3.40242 4.14946 3.21429 3.83152 3.21429 3.5C3.21429 3.16848 3.40242 2.85054 3.73731 2.61612C4.0722 2.3817 4.5264 2.25 5 2.25ZM5 0C6.32608 0 7.59785 0.368749 8.53553 1.02513C9.47322 1.6815 10 2.57174 10 3.5C10 6.125 5 10 5 10C5 10 0 6.125 0 3.5C0 2.57174 0.526784 1.6815 1.46447 1.02513C2.40215 0.368749 3.67392 0 5 0ZM5 1C4.0528 1 3.14439 1.26339 2.47462 1.73223C1.80485 2.20107 1.42857 2.83696 1.42857 3.5C1.42857 4 1.42857 5 5 8.355C8.57143 5 8.57143 4 8.57143 3.5C8.57143 2.83696 8.19515 2.20107 7.52538 1.73223C6.85561 1.26339 5.9472 1 5 1Z" fill="#596992"/>
</svg>
