<svg width="24" height="24" viewBox="0 0 24 24" fill="none" xmlns="http://www.w3.org/2000/svg">
<path d="M6.46165 12C6.46165 11.7107 6.55891 11.4332 6.73202 11.2286C6.90514 11.024 7.13993 10.9091 7.38475 10.9091H15.6926V3.81818C15.6926 1.63636 13.7431 0 12.0002 0H3.23083C2.37424 0.00108288 1.553 0.403702 0.947299 1.11952C0.3416 1.83533 0.0009163 2.80587 0 3.81818V20.1818C0.0009163 21.1941 0.3416 22.1647 0.947299 22.8805C1.553 23.5963 2.37424 23.9989 3.23083 24H12.4618C13.3183 23.9989 14.1396 23.5963 14.7453 22.8805C15.351 22.1647 15.6917 21.1941 15.6926 20.1818V13.0909H7.38475C7.13993 13.0909 6.90514 12.976 6.73202 12.7714C6.55891 12.5668 6.46165 12.2893 6.46165 12ZM23.7298 11.2289L19.1144 5.77432C18.9399 5.57837 18.7075 5.47074 18.4668 5.47438C18.2261 5.47803 17.9961 5.59265 17.8259 5.79382C17.6556 5.99498 17.5586 6.26677 17.5556 6.55124C17.5525 6.83571 17.6436 7.11034 17.8094 7.31659L20.8486 10.9091H15.6926V13.0909H20.8486L17.8094 16.6834C17.72 16.7837 17.6486 16.9041 17.5993 17.0375C17.5499 17.171 17.5237 17.3147 17.5221 17.4603C17.5206 17.6059 17.5437 17.7504 17.5901 17.8853C17.6365 18.0202 17.7053 18.1427 17.7924 18.2457C17.8796 18.3486 17.9832 18.43 18.0974 18.4848C18.2115 18.5397 18.3338 18.567 18.457 18.5651C18.5802 18.5632 18.7018 18.5323 18.8147 18.474C18.9276 18.4157 19.0295 18.3312 19.1144 18.2257L23.7298 12.7711C23.9028 12.5666 24 12.2892 24 12C24 11.7108 23.9028 11.4334 23.7298 11.2289Z" fill="#FEFEFE"/>
</svg>
