<svg width="31" height="26" viewBox="0 0 31 26" fill="none" xmlns="http://www.w3.org/2000/svg">
<path fill-rule="evenodd" clip-rule="evenodd" d="M0 9C0 8.73478 0.102065 8.48043 0.28374 8.29289C0.465416 8.10536 0.711821 8 0.96875 8H22.878C23.1349 8 23.3813 8.10536 23.563 8.29289C23.7447 8.48043 23.8467 8.73478 23.8467 9C23.8467 9.26522 23.7447 9.51957 23.563 9.70711C23.3813 9.89464 23.1349 10 22.878 10H0.96875C0.711821 10 0.465416 9.89464 0.28374 9.70711C0.102065 9.51957 0 9.26522 0 9ZM0 1C0 0.734784 0.102065 0.48043 0.28374 0.292893C0.465416 0.105357 0.711821 0 0.96875 0H30.0312C30.2882 0 30.5346 0.105357 30.7163 0.292893C30.8979 0.48043 31 0.734784 31 1C31 1.26522 30.8979 1.51957 30.7163 1.70711C30.5346 1.89464 30.2882 2 30.0312 2H0.96875C0.711821 2 0.465416 1.89464 0.28374 1.70711C0.102065 1.51957 0 1.26522 0 1ZM0 17C0 16.7348 0.102065 16.4804 0.28374 16.2929C0.465416 16.1054 0.711821 16 0.96875 16H30.0312C30.2882 16 30.5346 16.1054 30.7163 16.2929C30.8979 16.4804 31 16.7348 31 17C31 17.2652 30.8979 17.5196 30.7163 17.7071C30.5346 17.8946 30.2882 18 30.0312 18H0.96875C0.711821 18 0.465416 17.8946 0.28374 17.7071C0.102065 17.5196 0 17.2652 0 17ZM0 25C0 24.7348 0.102065 24.4804 0.28374 24.2929C0.465416 24.1054 0.711821 24 0.96875 24H22.878C23.1349 24 23.3813 24.1054 23.563 24.2929C23.7447 24.4804 23.8467 24.7348 23.8467 25C23.8467 25.2652 23.7447 25.5196 23.563 25.7071C23.3813 25.8946 23.1349 26 22.878 26H0.96875C0.711821 26 0.465416 25.8946 0.28374 25.7071C0.102065 25.5196 0 25.2652 0 25Z" fill="#58B0CD"/>
</svg>
