<svg width="10" height="11" viewBox="0 0 10 11" fill="none" xmlns="http://www.w3.org/2000/svg">
<path d="M1.96667 1.61111C2 2.10556 2.08333 2.58889 2.21667 3.05L1.55 3.71667C1.32222 3.05 1.17778 2.34444 1.12778 1.61111H1.96667ZM7.44444 8.28889C7.91667 8.42222 8.4 8.50556 8.88889 8.53889V9.36667C8.15556 9.31667 7.45 9.17222 6.77778 8.95L7.44444 8.28889ZM2.5 0.5H0.555556C0.25 0.5 0 0.75 0 1.05556C0 6.27222 4.22778 10.5 9.44444 10.5C9.75 10.5 10 10.25 10 9.94444V8.00556C10 7.7 9.75 7.45 9.44444 7.45C8.75556 7.45 8.08333 7.33889 7.46111 7.13333C7.40596 7.11333 7.34753 7.10391 7.28889 7.10556C7.14445 7.10556 7.00556 7.16111 6.89444 7.26667L5.67222 8.48889C4.09746 7.68355 2.81645 6.40254 2.01111 4.82778L3.23333 3.60556C3.38889 3.45 3.43333 3.23333 3.37222 3.03889C3.16147 2.39892 3.05456 1.72933 3.05556 1.05556C3.05556 0.75 2.80556 0.5 2.5 0.5Z" fill="#596992"/>
</svg>
