<svg width="24" height="24" viewBox="0 0 24 24" fill="none" xmlns="http://www.w3.org/2000/svg">
<path d="M16.8 9.59981C16.8 10.8728 16.2943 12.0937 15.3941 12.9939C14.494 13.8941 13.2731 14.3998 12 14.3998C10.727 14.3998 9.50607 13.8941 8.6059 12.9939C7.70572 12.0937 7.20001 10.8728 7.20001 9.59981C7.20001 8.32679 7.70572 7.1059 8.6059 6.20574C9.50607 5.30557 10.727 4.79987 12 4.79987C13.2731 4.79987 14.494 5.30557 15.3941 6.20574C16.2943 7.1059 16.8 8.32679 16.8 9.59981Z" fill="#FEFEFE"/>
<path fill-rule="evenodd" clip-rule="evenodd" d="M11.5104 23.9901C5.1102 23.7333 0 18.463 0 11.9999C0 5.37234 5.3724 0 12 0C18.6276 0 24 5.37234 24 11.9999C24 18.6274 18.6276 23.9997 12 23.9997C11.9452 24.0001 11.8904 24.0001 11.8356 23.9997C11.727 23.9997 11.6184 23.9961 11.5104 23.9901ZM4.2996 19.5718C4.20988 19.3141 4.17934 19.0396 4.21025 18.7685C4.24116 18.4974 4.33272 18.2368 4.47815 18.006C4.62357 17.7751 4.81912 17.58 5.05027 17.4351C5.28143 17.2901 5.54226 17.1991 5.8134 17.1688C10.491 16.651 13.5378 16.6978 18.1926 17.1796C18.4641 17.2079 18.7256 17.2977 18.9571 17.4423C19.1886 17.5869 19.3841 17.7825 19.5286 18.014C19.6732 18.2456 19.763 18.5071 19.7912 18.7786C19.8194 19.0501 19.7853 19.3245 19.6914 19.5808C21.6864 17.5623 22.8036 14.8378 22.8 11.9999C22.8 6.03533 17.9646 1.19999 12 1.19999C6.0354 1.19999 1.2 6.03533 1.2 11.9999C1.2 14.9494 2.3826 17.623 4.2996 19.5718Z" fill="#FEFEFE"/>
</svg>
