<svg width="24" height="24" viewBox="0 0 24 24" fill="none" xmlns="http://www.w3.org/2000/svg">
<g clip-path="url(#clip0_2989_140)">
<path fill-rule="evenodd" clip-rule="evenodd" d="M8 0H0V8H2.66667V2.66667H8V0ZM0 24V16H2.66667V21.3333H8V24H0ZM16 0V2.66667H21.3333V8H24V0H16ZM21.3333 16H24V24H16V21.3333H21.3333V16ZM5.33333 5.33333H10.6667V10.6667H5.33333V5.33333ZM5.33333 13.3333H10.6667V18.6667H5.33333V13.3333ZM18.6667 5.33333H13.3333V10.6667H18.6667V5.33333ZM13.3333 13.3333H18.6667V18.6667H13.3333V13.3333Z" fill="#58B0CD"/>
</g>
<defs>
<clipPath id="clip0_2989_140">
<rect width="24" height="24" fill="white"/>
</clipPath>
</defs>
</svg>
