<svg width="20" height="20" viewBox="0 0 20 20" fill="none" xmlns="http://www.w3.org/2000/svg">
<path fill-rule="evenodd" clip-rule="evenodd" d="M8 20C5.87827 20 3.84344 19.1571 2.34315 17.6569C0.842855 16.1566 0 14.1217 0 12C0 9.87827 0.842855 7.84344 2.34315 6.34315C3.84344 4.84285 5.87827 4 8 4C10.1217 4 12.1566 4.84285 13.6569 6.34315C15.1571 7.84344 16 9.87827 16 12C16 14.1217 15.1571 16.1566 13.6569 17.6569C12.1566 19.1571 10.1217 20 8 20ZM8 18C8.78793 18 9.56815 17.8448 10.2961 17.5433C11.0241 17.2417 11.6855 16.7998 12.2426 16.2426C12.7998 15.6855 13.2417 15.0241 13.5433 14.2961C13.8448 13.5681 14 12.7879 14 12C14 11.2121 13.8448 10.4319 13.5433 9.7039C13.2417 8.97595 12.7998 8.31451 12.2426 7.75736C11.6855 7.20021 11.0241 6.75825 10.2961 6.45672C9.56815 6.1552 8.78793 6 8 6C6.4087 6 4.88258 6.63214 3.75736 7.75736C2.63214 8.88258 2 10.4087 2 12C2 13.5913 2.63214 15.1174 3.75736 16.2426C4.88258 17.3679 6.4087 18 8 18ZM11 13C11 13.7956 10.6839 14.5587 10.1213 15.1213C9.55871 15.6839 8.79565 16 8 16C7.20435 16 6.44129 15.6839 5.87868 15.1213C5.31607 14.5587 5 13.7956 5 13H11ZM6 11C6.26522 11 6.51957 10.8946 6.70711 10.7071C6.89464 10.5196 7 10.2652 7 10C7 9.73478 6.89464 9.48043 6.70711 9.29289C6.51957 9.10536 6.26522 9 6 9C5.73478 9 5.48043 9.10536 5.29289 9.29289C5.10536 9.48043 5 9.73478 5 10C5 10.2652 5.10536 10.5196 5.29289 10.7071C5.48043 10.8946 5.73478 11 6 11ZM10 11C9.73478 11 9.48043 10.8946 9.29289 10.7071C9.10536 10.5196 9 10.2652 9 10C9 9.73478 9.10536 9.48043 9.29289 9.29289C9.48043 9.10536 9.73478 9 10 9C10.2652 9 10.5196 9.10536 10.7071 9.29289C10.8946 9.48043 11 9.73478 11 10C11 10.2652 10.8946 10.5196 10.7071 10.7071C10.5196 10.8946 10.2652 11 10 11ZM16.625 6C15.798 5.82 13.25 4.41 13.25 1.875C13.25 1.48147 13.3738 1.09792 13.6039 0.778668C13.834 0.45942 14.1587 0.220664 14.5321 0.0962188C14.9054 -0.0282262 15.3084 -0.0320507 15.6841 0.0852871C16.0597 0.202625 16.3889 0.435176 16.625 0.75C16.8611 0.435176 17.1903 0.202625 17.5659 0.0852871C17.9416 -0.0320507 18.3446 -0.0282262 18.7179 0.0962188C19.0913 0.220664 19.416 0.45942 19.6461 0.778668C19.8762 1.09792 20 1.48147 20 1.875C20 4.41 17.452 5.82 16.625 6Z" fill="#596992"/>
</svg>
